<?xml version="1.0" encoding="UTF-8" standalone="no"?>
<svg
   xmlns:dc="http://purl.org/dc/elements/1.1/"
   xmlns:cc="http://web.resource.org/cc/"
   xmlns:rdf="http://www.w3.org/1999/02/22-rdf-syntax-ns#"
   xmlns:svg="http://www.w3.org/2000/svg"
   xmlns="http://www.w3.org/2000/svg"
   xmlns:sodipodi="http://sodipodi.sourceforge.net/DTD/sodipodi-0.dtd"
   xmlns:inkscape="http://www.inkscape.org/namespaces/inkscape"
   baseProfile="tiny"
   version="1.0"
   width="40"
   height="40"
   viewBox="0 0 20 20"
   id="svg5622"
   sodipodi:version="0.32"
   inkscape:version="0.45pre1"
   sodipodi:docname="buddhist_temple.svg"
   inkscape:output_extension="org.inkscape.output.svg.inkscape"
   sodipodi:docbase="H:\Images"
   sodipodi:modified="true">
  <metadata
     id="metadata5675">
    <rdf:RDF>
      <cc:Work
         rdf:about="">
        <dc:format>image/svg+xml</dc:format>
        <dc:type
           rdf:resource="http://purl.org/dc/dcmitype/StillImage" />
      </cc:Work>
    </rdf:RDF>
  </metadata>
  <defs
     id="defs5673" />
  <sodipodi:namedview
     inkscape:window-height="772"
     inkscape:window-width="1313"
     inkscape:pageshadow="2"
     inkscape:pageopacity="0.0"
     guidetolerance="10.0"
     gridtolerance="10.0"
     objecttolerance="10.0"
     borderopacity="1.0"
     bordercolor="#666666"
     pagecolor="#ffffff"
     id="base"
     width="40px"
     height="40px"
     inkscape:zoom="18.85"
     inkscape:cx="10"
     inkscape:cy="26.862314"
     inkscape:window-x="132"
     inkscape:window-y="174"
     inkscape:current-layer="svg5622" />
  <path
     d="M 18.478687,0.026037798 L 11.456687,0.026037798 C 10.625687,0.026037798 9.951187,0.6960378 9.951187,1.5215378 L 9.951187,9.9985378 L 12.832687,8.0035378 L 18.478687,8.0035378 C 19.311187,8.0035378 19.986187,7.3345378 19.986187,6.5075378 L 19.986187,1.5215378 C 19.985687,0.6960378 19.311187,0.026037798 18.478687,0.026037798 z "
     id="path5624"
     style="fill:#004a00" />
  <linearGradient
     id="XMLID_3_"
     gradientUnits="userSpaceOnUse"
     x1="10.0342"
     y1="0.99900001"
     x2="10.0342"
     y2="18.070299"
     gradientTransform="matrix(0.5,0,0,0.5,9.951187,2.6037798e-2)">
    <stop
       offset="0"
       style="stop-color:#007805"
       id="stop5627" />
    <stop
       offset="0.1364"
       style="stop-color:#047A05"
       id="stop5629" />
    <stop
       offset="0.2774"
       style="stop-color:#118104"
       id="stop5631" />
    <stop
       offset="0.4206"
       style="stop-color:#258C04"
       id="stop5633" />
    <stop
       offset="0.5651"
       style="stop-color:#429C03"
       id="stop5635" />
    <stop
       offset="0.7094"
       style="stop-color:#67B101"
       id="stop5637" />
    <stop
       offset="0.8146"
       style="stop-color:#87C200"
       id="stop5639" />
    <stop
       offset="1"
       style="stop-color:#87C200"
       id="stop5641" />
  </linearGradient>
  <path
     d="M 18.478687,0.5255378 L 11.456687,0.5255378 C 10.902187,0.5255378 10.453687,0.9710378 10.453687,1.5215378 L 10.453687,6.5075378 L 10.452687,9.0610378 L 12.604187,7.5055378 L 18.478687,7.5055378 C 19.033687,7.5055378 19.484187,7.0590378 19.484187,6.5075378 L 19.484187,1.5215378 C 19.483687,0.9710378 19.033687,0.5255378 18.478687,0.5255378 z "
     id="path5643"
     style="fill:url(#XMLID_3_)" />
  <linearGradient
     id="XMLID_4_"
     gradientUnits="userSpaceOnUse"
     x1="10.0649"
     y1="4.6884999"
     x2="10.0649"
     y2="1.0371"
     gradientTransform="matrix(0.5,0,0,0.5,9.951187,2.6037798e-2)">
    <stop
       offset="0"
       style="stop-color:#007805"
       id="stop5646" />
    <stop
       offset="1"
       style="stop-color:#E2FFBD"
       id="stop5648" />
  </linearGradient>
  <path
     d="M 19.491187,1.4575378 C 19.491187,1.9615378 19.105687,2.3700378 18.633687,2.3700378 L 11.333687,2.3700378 C 10.859187,2.3700378 10.476187,1.9615378 10.476187,1.4575378 L 10.476187,1.4575378 C 10.476187,0.9535378 10.859187,0.5445378 11.333687,0.5445378 L 18.634187,0.5445378 C 19.106187,0.5445378 19.491187,0.9535378 19.491187,1.4575378 L 19.491187,1.4575378 z "
     id="path5650"
     style="fill:url(#XMLID_4_)" />
  <path
     id="path5652"
     style="fill:#ffffff" />
  <path
     id="path5654"
     style="fill:#ffffff" />
  <g
     id="g5656"
     transform="matrix(0.5,0,0,0.5,9.951187,2.6037798e-2)">
    <g
       id="g5658">
      <path
         d="M 18.031,8.535 C 12.67,9.271 7.188,9.271 1.827,8.535 C 3.888,7.806 5.969,7.089 7.668,6.35 C 9.175,6.35 10.682,6.35 12.189,6.35 C 13.891,7.089 15.969,7.806 18.031,8.535 z "
         id="path5660"
         style="fill:#ffffff" />
    </g>
    <g
       id="g5662">
      <path
         d="M 16.865,6.611 C 12.275,7.24 7.582,7.24 2.993,6.611 C 4.757,5.986 6.538,5.373 7.993,4.74 C 9.284,4.74 10.574,4.74 11.865,4.74 C 13.32,5.373 15.1,5.986 16.865,6.611 z "
         id="path5664"
         style="fill:#ffffff" />
    </g>
    <g
       id="g5666">
      <path
         d="M 15.689,4.727 C 11.9,5.247 8.025,5.247 4.237,4.727 C 5.693,4.212 7.164,3.706 8.364,3.183 C 9.429,3.183 10.495,3.183 11.56,3.183 C 12.762,3.706 14.232,4.212 15.689,4.727 z "
         id="path5668"
         style="fill:#ffffff" />
    </g>
    <path
       d="M 14.736,14.272 L 5.836,14.272 L 5.836,8.708 L 14.736,8.708 L 14.736,14.272 z M 11.938,14.234 C 11.938,11.819 11.199,9.86 10.287,9.86 C 9.374,9.86 8.636,11.819 8.636,14.234 L 11.938,14.234 L 11.938,14.234 z "
       id="path5670"
       style="fill:#ffffff" />
  </g>
</svg>
