<?xml version="1.0" encoding="UTF-8" standalone="no"?>
<!DOCTYPE svg PUBLIC "-//W3C//DTD SVG 1.1 Tiny//EN" "http://www.w3.org/Graphics/SVG/1.1/DTD/svg11-tiny.dtd">
<svg xmlns="http://www.w3.org/2000/svg" xmlns:xlink="http://www.w3.org/1999/xlink" baseProfile="tiny" height="20" version="1.1" viewBox="-288.5 410.39 20 20" width="20">
<path d="M-271.5,410.337h-14c-1.657,0-3,1.351-3,3.017v10.052l-0.001,7.037l5.745-4.021h11.256  c1.657,0,3-1.35,3-3.016v-10.052C-268.5,411.688-269.842,410.337-271.5,410.337z" fill="#612900"/>
<linearGradient gradientTransform="matrix(1 0 0 -1 0.0376 18.9941)" gradientUnits="userSpaceOnUse" id="XMLID_513_" x1="-278.5366" x2="-278.5366" y1="-392.3477" y2="-409.5576">
<stop offset="0" style="stop-color:#FF5E00"/>
<stop offset="0.1643" style="stop-color:#FF6201"/>
<stop offset="0.334" style="stop-color:#FF6F04"/>
<stop offset="0.5062" style="stop-color:#FF8308"/>
<stop offset="0.6792" style="stop-color:#FFA00E"/>
<stop offset="0.8146" style="stop-color:#FFBC14"/>
<stop offset="1" style="stop-color:#FFBC14"/>
</linearGradient>
<path d="M-271.5,411.342h-14c-1.105,0-2,0.9-2,2.012v10.052v5.146l4.289-3.136h11.711  c1.104,0,2.001-0.899,2.001-2.011v-10.052C-269.499,412.242-270.396,411.342-271.5,411.342z" fill="url(#XMLID_513_)"/>
<linearGradient gradientTransform="matrix(1 0 0 -1 0.0376 18.9941)" gradientUnits="userSpaceOnUse" id="XMLID_514_" x1="-278.5083" x2="-278.5083" y1="-396.0684" y2="-392.3896">
<stop offset="0" style="stop-color:#FF7B00"/>
<stop offset="1" style="stop-color:#FFE1B5"/>
</linearGradient>
<path d="M-269.486,413.223c0,1.018-0.767,1.84-1.709,1.84h-14.551c-0.944,0-1.71-0.822-1.71-1.84l0,0  c0-1.015,0.766-1.839,1.71-1.839h14.551C-270.252,411.384-269.486,412.208-269.486,413.223L-269.486,413.223z" fill="url(#XMLID_514_)"/>
<path d="M-277.5,419.988" fill="#FFFFFF"/>
<path d="M-277.5,422.399" fill="#FFFFFF"/>
<g>
<g>
<path d="M-273.724,415.063c0,0.026-0.027,0.084-0.106,0.164c-0.535,0.523-2.399,1.055-4.93,1.055    c-3.272,0-5.037-0.864-5.037-1.219c0-0.354,1.765-1.219,5.037-1.219C-275.488,413.844-273.724,414.709-273.724,415.063z     M-278.761,412.844c-2.908,0-6.037,0.694-6.037,2.219c0,1.525,3.129,2.219,6.037,2.219c2.589,0,4.799-0.526,5.63-1.342    c0.337-0.33,0.406-0.66,0.406-0.877C-272.724,413.538-275.853,412.844-278.761,412.844z" fill="#FFFFFF"/>
</g>
<g>
<path d="M-274.663,419.643l-0.33,0.164l0.062,0.363l0.06,0.363c0.004,0,0.369,0.052,0.369,0.052    c1.137,0.157,2.94,0.721,2.94,1.564c0,0.487-2.117,1.443-7.014,1.443c-4.389,0-7.188-1.148-7.188-1.75    c0-0.337,0.861-1.028,3.173-1.452l-0.18-0.982c-1.492,0.271-3.994,0.951-3.994,2.436c0,2.003,5.022,2.75,8.188,2.75    c1.88,0,8.015-0.176,8.015-2.444c0-1.932-3.17-2.466-3.806-2.555l0.421,0.414l-0.27,0.528L-274.663,419.643z" fill="#FFFFFF"/>
</g>
<g>
<path d="M-284.784,415.184l0.13,0.508l0.034,0.127l0.029,0.108c1.182,4.397,2.424,5.924,2.476,5.987l0.08,0.095    l0.115,0.049c0.128,0.051,3.167,1.272,6.009,0.25l0.035-0.013l0.032-0.019c1.019-0.545,1.806-1.573,2.338-3.056    c0.396-1.105,0.652-2.453,0.781-4.119l-0.996-0.078c-0.123,1.578-0.36,2.84-0.728,3.859c-0.446,1.242-1.073,2.087-1.868,2.513    l0.066-0.029c-2.474,0.891-5.264-0.225-5.292-0.235l0.195,0.144c-0.01-0.013-1.166-1.464-2.278-5.604    c0,0.002-0.029-0.107-0.029-0.107l-0.033-0.127l-0.126-0.494L-284.784,415.184z" fill="#FFFFFF"/>
</g>
<g>
<path d="M-273.396,416.906L-273.396,416.906c1.188,0.074,2.254,0.412,2.345,0.641    c-0.001-0.002-0.003-0.006-0.001-0.009c-0.002,0.007-0.069,0.677-3.573,2.087l0.373,0.928c3.093-1.244,4.345-2.193,4.188-3.17    c-0.188-1.158-2.349-1.418-3.269-1.477L-273.396,416.906z" fill="#FFFFFF"/>
</g>
</g>
<g>
<path d="M-284.107,415.799c0,0,7.25,2.952,10.627-0.218c1.547-1.453-1.16,5.643-2.285,6.061   c-1.127,0.418-5.965-0.049-5.965-0.049L-284.107,415.799z" fill="#FFFFFF"/>
</g>
</svg>
