<?xml version="1.0" encoding="UTF-8" standalone="no"?>
<!DOCTYPE svg PUBLIC "-//W3C//DTD SVG 1.1 Tiny//EN" "http://www.w3.org/Graphics/SVG/1.1/DTD/svg11-tiny.dtd">
<svg xmlns="http://www.w3.org/2000/svg" baseProfile="tiny" height="20px" viewBox="0 0 194 194" width="20px">
<defs/>
<g style="fill:#ffffff;fill-rule:evenodd;stroke:none;stroke-width:1;stroke-linecap:butt;stroke-linejoin:miter;stroke-dasharray:none" transform="matrix(1.0595858,0,0,1.0595858,7.2171779,80.191302)">
<path d="M 171.638,0 C 171.638,0 171.638,34.9281 171.638,34.9281 C 171.638,34.9281 0,34.9281 0,34.9281 C 0,34.9281 0,0 0,0 C 0,0 171.638,0 171.638,0 z "/>
</g>
<g style="fill:#ffffff;fill-rule:evenodd;stroke:none;stroke-width:1;stroke-linecap:butt;stroke-linejoin:miter;stroke-dasharray:none" transform="matrix(1.0595858,0,0,1.0595858,36.067158,35.876987)">
<path d="M 119.185,59.5938 C 119.185,92.5074 92.5001,119.193 59.5888,119.193 C 26.6787,119.193 0,92.5074 0,59.5938 C 0,26.6875 26.6787,0 59.5888,0 C 92.5001,0 119.185,26.6875 119.185,59.5938 z "/>
</g>
<g style="fill:none;stroke:#ffffff;stroke-width:31.77969933;stroke-linecap:butt;stroke-linejoin:miter;stroke-dasharray:none" transform="matrix(1.0595858,0,0,1.0595858,36.067158,35.876987)">
<path d="M 119.185,59.5938 C 119.185,92.5074 92.5001,119.193 59.5888,119.193 C 26.6787,119.193 0,92.5074 0,59.5938 C 0,26.6875 26.6787,0 59.5888,0 C 92.5001,0 119.185,26.6875 119.185,59.5938"/>
</g>
<g style="fill:#e94c23;fill-rule:evenodd;stroke:none;stroke-width:1;stroke-linecap:butt;stroke-linejoin:miter;stroke-dasharray:none" transform="matrix(1.0595858,0,0,1.0595858,12.918704,28.449608)">
<path d="M 145.926,52.6416 C 145.926,52.6416 162.488,52.6416 162.488,52.6416 C 162.488,52.6416 162.488,79.2861 162.488,79.2861 C 162.488,79.2861 145.926,79.2861 145.926,79.2861 C 138.779,110.723 112.744,131.932 81.3066,131.932 C 49.875,131.932 23.7109,110.615 16.7041,79.2861 C 16.7041,79.2861 0,79.2861 0,79.2861 C 0,79.2861 0,52.6416 0,52.6416 C 0,52.6416 16.6924,52.6416 16.6924,52.6416 C 23.8418,21.209 49.873,0 81.3066,0 C 112.744,0 138.779,21.209 145.926,52.6416 z M 40.8691,79.2861 C 47.3135,97.3301 62.8115,108.534 81.3066,108.534 C 99.8068,108.534 115.301,97.3301 121.745,79.2861 C 121.745,79.2861 40.8691,79.2861 40.8691,79.2861 z M 121.745,52.6416 C 115.301,34.6045 99.8068,23.3974 81.3066,23.3974 C 62.8115,23.3974 47.3135,34.6045 40.8691,52.6416 C 40.8691,52.6416 121.745,52.6416 121.745,52.6416 z "/>
</g>
<g style="fill:#004495;fill-rule:evenodd;stroke:none;stroke-width:1;stroke-linecap:butt;stroke-linejoin:miter;stroke-dasharray:none" transform="matrix(1.0595858,0,0,1.0595858,12.918704,84.227902)">
<path d="M 162.488,0 C 162.488,0 162.488,26.6445 162.488,26.6445 C 162.488,26.6445 0,26.6445 0,26.6445 C 0,26.6445 0,0 0,0 C 0,0 162.488,0 162.488,0 z "/>
</g>
<g style="fill:#ffffff;fill-rule:evenodd;stroke:none;stroke-width:1;stroke-linecap:butt;stroke-linejoin:miter;stroke-dasharray:none" transform="matrix(1.0595858,0,0,1.0595858,23.112025,91.114149)">
<path d="M 12.4522,7.4746 C 12.4522,11.4575 9.9492,14.1195 6.2022,14.1195 C 2.5215,14.1195 0,11.4475 0,7.5547 C 0,7.5547 0,0 0,0 C 0,0 2.6651,0 2.6651,0 C 2.6651,0 2.6651,7.5674 2.6651,7.5674 C 2.6651,9.9355 4.083,11.5165 6.21,11.5165 C 8.4326,11.5165 9.7227,10.0785 9.7227,7.6035 C 9.7227,7.6035 9.7227,0 9.7227,0 C 9.7227,0 12.4522,0 12.4522,0 C 12.4522,0 12.4522,7.4746 12.4522,7.4746 z "/>
</g>
<g style="fill:#ffffff;fill-rule:evenodd;stroke:none;stroke-width:1;stroke-linecap:butt;stroke-linejoin:miter;stroke-dasharray:none" transform="matrix(1.0595858,0,0,1.0595858,38.054941,91.114149)">
<path d="M 12.7255,13.9085 C 12.7255,13.9085 12.7255,0 12.7255,0 C 12.7255,0 10.0732,0 10.0732,0 C 10.0732,0 10.0732,9.6465 10.0732,9.6465 C 10.0732,9.6465 2.6513,0 2.6513,0 C 2.6513,0 0,0 0,0 C 0,0 0,13.9085 0,13.9085 C 0,13.9085 2.6513,13.9085 2.6513,13.9085 C 2.6513,13.9085 2.6513,4.3027 2.6513,4.3027 C 2.6513,4.3027 10.0732,13.9085 10.0732,13.9085 C 10.0732,13.9085 12.7255,13.9085 12.7255,13.9085 z "/>
</g>
<g style="fill:#ffffff;fill-rule:evenodd;stroke:none;stroke-width:1;stroke-linecap:butt;stroke-linejoin:miter;stroke-dasharray:none" transform="matrix(1.0595858,0,0,1.0595858,67.600115,91.114149)">
<path d="M 9.1368,13.9085 C 9.1368,13.9085 9.1368,11.4145 9.1368,11.4145 C 9.1368,11.4145 2.7149,11.4145 2.7149,11.4145 C 2.7149,11.4145 2.7149,7.7432 2.7149,7.7432 C 2.7149,7.7432 7.3829,7.7432 7.3829,7.7432 C 7.3829,7.7432 7.3829,5.29 7.3829,5.29 C 7.3829,5.29 2.7149,5.29 2.7149,5.29 C 2.7149,5.29 2.7149,2.3682 2.7149,2.3682 C 2.7149,2.3682 8.6455,2.3682 8.6455,2.3682 C 8.6455,2.3682 8.6455,0 8.6455,0 C 8.6455,0 0,0 0,0 C 0,0 0,13.9085 0,13.9085 C 0,13.9085 9.1368,13.9085 9.1368,13.9085 z "/>
</g>
<g style="fill:#ffffff;fill-rule:evenodd;stroke:none;stroke-width:1;stroke-linecap:butt;stroke-linejoin:miter;stroke-dasharray:none" transform="matrix(1.0595858,0,0,1.0595858,88.793951,90.772645)">
<path d="M 12.7004,12.9948 C 12.7004,12.9948 12.7004,6.3662 12.7004,6.3662 C 12.7004,6.3662 7.8174,6.3662 7.8174,6.3662 C 7.8174,6.3662 7.8174,8.7461 7.8174,8.7461 C 7.8174,8.7461 10.0508,8.7461 10.0508,8.7461 C 10.0508,8.7461 10.0508,11.7238 10.0508,11.7238 C 9.1738,11.9948 8.8115,12.0518 8.0156,12.0518 C 4.9648,12.0518 2.6787,10.0078 2.6787,7.293 C 2.6787,4.6465 4.9053,2.5449 7.7129,2.5449 C 9.3574,2.5449 10.9238,3.0381 12.3904,4.0176 C 12.3904,4.0176 12.3904,1.1817 12.3904,1.1817 C 10.2871,0.2901 9.0986,0 7.5303,0 C 3.2471,0 0,3.1162 0,7.2344 C 0,11.4198 3.3428,14.4638 7.9385,14.4638 C 9.6934,14.4638 10.333,14.2768 12.3904,13.1648 C 12.3904,13.1648 12.7004,12.9948 12.7004,12.9948 z "/>
</g>
<g style="fill:#ffffff;fill-rule:evenodd;stroke:none;stroke-width:1;stroke-linecap:butt;stroke-linejoin:miter;stroke-dasharray:none" transform="matrix(1.0595858,0,0,1.0595858,131.4533,91.114149)">
<path d="M 12.452,0 C 12.452,0 9.723,0 9.723,0 C 9.723,0 9.723,7.6035 9.723,7.6035 C 9.723,10.0845 8.432,11.5165 6.21,11.5165 C 4.104,11.5115 2.665,9.9135 2.665,7.5674 C 2.665,7.5674 2.665,0 2.665,0 C 2.665,0 0,0 0,0 C 0,0 0,7.5547 0,7.5547 C 0,11.4325 2.543,14.1195 6.21,14.1195 C 9.946,14.1195 12.452,11.4525 12.452,7.4746 C 12.452,7.4746 12.452,0 12.452,0 z "/>
</g>
<g style="fill:#ffffff;fill-rule:evenodd;stroke:none;stroke-width:1;stroke-linecap:butt;stroke-linejoin:miter;stroke-dasharray:none" transform="matrix(1.0595858,0,0,1.0595858,146.47927,91.114149)">
<path d="M 12.729,13.9085 C 12.729,13.9085 12.729,0 12.729,0 C 12.729,0 10.062,0 10.062,0 C 10.062,0 10.062,9.6465 10.062,9.6465 C 10.062,9.6465 2.639,0 2.639,0 C 2.639,0 0,0 0,0 C 0,0 0,13.9085 0,13.9085 C 0,13.9085 2.639,13.9085 2.639,13.9085 C 2.639,13.9085 2.639,4.3027 2.639,4.3027 C 2.639,4.3027 10.062,13.9085 10.062,13.9085 C 10.062,13.9085 12.729,13.9085 12.729,13.9085 z "/>
</g>
<g style="fill:#ffffff;fill-rule:evenodd;stroke:none;stroke-width:1;stroke-linecap:butt;stroke-linejoin:miter;stroke-dasharray:none" transform="matrix(1.0595858,0,0,1.0595858,53.439597,91.114149)">
<path d="M 0,0 C 0,0 4.4072,0 4.4072,0 C 9.2256,0 12.1279,2.5488 12.1279,6.7793 C 12.1279,11.1705 8.8691,13.9085 3.6523,13.9085 C 3.6523,13.9085 0,13.9085 0,13.9085 C 0,13.9085 0,0 0,0 z M 4.0957,11.4665 C 7.3349,11.4665 9.4639,9.6396 9.4639,6.8721 C 9.4639,4.0752 7.5029,2.3535 4.3164,2.3535 C 4.3164,2.3535 2.7041,2.3535 2.7041,2.3535 C 2.7041,2.3535 2.7041,11.4665 2.7041,11.4665 C 2.7041,11.4665 4.0957,11.4665 4.0957,11.4665 z "/>
</g>
<g style="fill:#ffffff;fill-rule:evenodd;stroke:none;stroke-width:1;stroke-linecap:butt;stroke-linejoin:miter;stroke-dasharray:none" transform="matrix(1.0595858,0,0,1.0595858,78.368792,91.114149)">
<path d="M 7.8653,13.9085 C 7.8653,13.9085 3.9141,8.3721 3.9141,8.3721 C 3.9141,8.3721 2.6533,8.3721 2.6533,8.3721 C 2.6533,8.3721 2.6533,13.9085 2.6533,13.9085 C 2.6533,13.9085 0,13.9085 0,13.9085 C 0,13.9085 0,0 0,0 C 0,0 4.1494,0 4.1494,0 C 7.2696,0 9.0147,1.4414 9.0147,4.0264 C 9.0147,5.7734 8.0762,7.1367 6.4492,7.7432 C 6.4492,7.7432 10.9336,13.9085 10.9336,13.9085 C 10.9336,13.9085 7.8653,13.9085 7.8653,13.9085 z M 3.9385,6.0078 C 5.4991,6.0078 6.4776,5.2822 6.4776,4.1299 C 6.4776,3.0215 5.6114,2.3428 4.2002,2.3428 C 4.2002,2.3428 2.6533,2.3428 2.6533,2.3428 C 2.6533,2.3428 2.6533,6.0078 2.6533,6.0078 C 2.6533,6.0078 3.9385,6.0078 3.9385,6.0078 z "/>
</g>
<g style="fill:#ffffff;fill-rule:evenodd;stroke:none;stroke-width:1;stroke-linecap:butt;stroke-linejoin:miter;stroke-dasharray:none" transform="matrix(1.0595858,0,0,1.0595858,104.00366,91.114149)">
<path d="M 7.877,13.9085 C 7.877,13.9085 3.923,8.3721 3.923,8.3721 C 3.923,8.3721 2.663,8.3721 2.663,8.3721 C 2.663,8.3721 2.663,13.9085 2.663,13.9085 C 2.663,13.9085 0,13.9085 0,13.9085 C 0,13.9085 0,0 0,0 C 0,0 4.147,0 4.147,0 C 7.279,0 9.025,1.4414 9.025,4.0264 C 9.025,5.7734 8.089,7.1367 6.457,7.7432 C 6.457,7.7432 10.945,13.9085 10.945,13.9085 C 10.945,13.9085 7.877,13.9085 7.877,13.9085 z M 3.95,6.0078 C 5.51,6.0078 6.485,5.2822 6.485,4.1299 C 6.485,3.0146 5.62,2.3428 4.198,2.3428 C 4.198,2.3428 2.663,2.3428 2.663,2.3428 C 2.663,2.3428 2.663,6.0078 2.663,6.0078 C 2.663,6.0078 3.95,6.0078 3.95,6.0078 z "/>
</g>
<g style="fill:#ffffff;fill-rule:evenodd;stroke:none;stroke-width:1;stroke-linecap:butt;stroke-linejoin:miter;stroke-dasharray:none" transform="matrix(1.0595858,0,0,1.0595858,114.71397,90.816087)">
<path d="M 7.325,14.3908 C 3.255,14.3908 0.009,11.2038 0.004,7.211 C 0,3.1797 3.211,0 7.277,0 C 11.361,0 14.615,3.2452 14.615,7.3184 C 14.615,11.2268 11.356,14.3908 7.325,14.3908 z M 7.277,2.6495 C 4.763,2.6495 2.694,4.6885 2.694,7.169 C 2.694,9.6778 4.776,11.7038 7.358,11.7038 C 9.819,11.7038 11.885,9.7071 11.885,7.3213 C 11.885,4.6973 9.868,2.6495 7.277,2.6495 z "/>
</g>
<g style="fill:#ffffff;fill-rule:evenodd;stroke:none;stroke-width:1;stroke-linecap:butt;stroke-linejoin:miter;stroke-dasharray:none" transform="matrix(1.0595858,0,0,1.0595858,161.7829,91.114149)">
<path d="M 0,0 C 0,0 4.419,0 4.419,0 C 9.237,0 12.141,2.5488 12.141,6.7793 C 12.141,11.1565 8.87,13.9085 3.661,13.9085 C 3.661,13.9085 0,13.9085 0,13.9085 C 0,13.9085 0,0 0,0 z M 4.091,11.4665 C 7.341,11.4665 9.464,9.6494 9.464,6.8828 C 9.464,4.0752 7.508,2.3535 4.328,2.3535 C 4.328,2.3535 2.703,2.3535 2.703,2.3535 C 2.703,2.3535 2.703,11.4665 2.703,11.4665 C 2.703,11.4665 4.091,11.4665 4.091,11.4665 z "/>
</g>
</svg>
