<?xml version="1.0" encoding="UTF-8" standalone="no"?>
<!DOCTYPE svg PUBLIC "-//W3C//DTD SVG 1.1 Tiny//EN" "http://www.w3.org/Graphics/SVG/1.1/DTD/svg11-tiny.dtd">
<svg xmlns="http://www.w3.org/2000/svg" baseProfile="tiny" height="20px" version="1.0" viewBox="0 0 193 193" width="20px">
<path d="M 176.61804 100.85146 A 65.783821 68.599472 0 1 1  45.0504,100.85146 A 65.783821 68.599472 0 1 1  176.61804 100.85146 z" style="fill:#ffffff;fill-opacity:1" transform="matrix(1.2373541,0,0,1.2052238,-41.921013,-23.512777)"/>
<g style="fill:#004288;fill-rule:evenodd;stroke:none;stroke-width:1;stroke-linecap:butt;stroke-linejoin:miter;stroke-dasharray:none" transform="matrix(1.134182,0,0,1.134182,5.5071369,5.7513369)">
<path d="M 12.3272,80.123 C 12.3272,42.6816 42.6787,12.3291 80.1211,12.3291 C 117.562,12.3291 147.914,42.6816 147.914,80.123 C 147.914,117.564 117.562,147.916 80.1211,147.916 C 42.6787,147.916 12.3272,117.564 12.3272,80.123 z M 0,80.1201 C 0,35.8701 35.8701,0 80.1201,0 C 124.37,0 160.24,35.8701 160.24,80.1201 C 160.24,124.369 124.37,160.24 80.1201,160.24 C 35.8701,160.24 0,124.369 0,80.1201 z M 110.934,71.9062 C 110.934,68.5019 108.176,65.7431 104.771,65.7431 C 101.368,65.7431 98.6092,68.5019 98.6092,71.9062 C 98.6092,71.9062 98.6102,82.1767 98.6102,82.1767 C 98.6102,92.389 90.3332,100.666 80.1211,100.666 C 69.9102,100.666 61.6318,92.389 61.6318,82.1767 C 61.6318,82.1767 61.6309,71.9062 61.6309,71.9062 C 61.6309,68.5019 58.8721,65.7431 55.4678,65.7431 C 52.0635,65.7431 49.3047,68.5019 49.3047,71.9062 C 49.3047,71.9062 49.3057,98.612 49.3057,98.612 C 49.3057,98.612 36.9795,98.612 36.9795,98.612 C 36.9795,98.612 36.9795,71.9062 36.9795,71.9062 C 36.9795,61.6943 45.2578,53.4169 55.4688,53.4169 C 65.6807,53.4169 73.958,61.6943 73.958,71.9062 C 73.958,71.9062 73.958,82.1767 73.958,82.1767 C 73.958,85.581 76.7158,88.341 80.1201,88.341 C 83.5235,88.341 86.2842,85.581 86.2842,82.1767 C 86.2842,82.1767 86.2842,71.9062 86.2842,71.9062 C 86.2842,61.6943 94.5612,53.4169 104.773,53.4169 C 114.984,53.4169 123.263,61.6943 123.263,71.9062 C 123.263,71.9062 123.263,98.612 123.263,98.612 C 123.263,98.612 110.936,98.612 110.936,98.612 C 110.936,98.612 110.934,71.9062 110.934,71.9062 z "/>
</g>
</svg>
