<?xml version="1.0" encoding="UTF-8" standalone="no"?>
<!DOCTYPE svg PUBLIC "-//W3C//DTD SVG 1.1 Tiny//EN" "http://www.w3.org/Graphics/SVG/1.1/DTD/svg11-tiny.dtd">
<svg xmlns="http://www.w3.org/2000/svg" baseProfile="tiny" height="20px" version="1.0" viewBox="0 0 194 194" width="20px">
<rect height="150.19704" style="fill:#ffffff;fill-opacity:1" width="140.30754" x="30.627678" y="41.66943"/>
<g style="fill:#e20010;fill-rule:evenodd;stroke:none;stroke-width:1;stroke-linecap:butt;stroke-linejoin:miter;stroke-dasharray:none" transform="matrix(1.2011431,0,0,1.2011431,20.662998,1.7948454)">
<path d="M 0,26.208 C 36.3604,11.4482 79.4163,2.0156 126,0 C 126,0 126.288,85.6799 126.288,85.6799 C 126.288,85.6799 115.416,92.7359 115.416,92.7359 C 107.856,97.5609 103.608,100.296 96.1203,105.192 C 87.1203,100.08 82.0083,97.3439 72.7923,92.7359 C 62.6397,87.6959 56.8077,85.1049 46.4405,80.7842 C 46.4405,80.7842 46.6563,158.4 46.6563,158.4 C 46.6563,158.4 0.4317,158.256 0.4317,158.256 C 0.4317,158.256 0,26.208 0,26.208 z M 126.36,110.448 C 126.36,110.448 126.504,158.616 126.504,158.616 C 126.504,158.616 68.6883,158.472 68.6883,158.472 C 68.6883,158.472 68.5443,115.2 68.5443,115.2 C 70.2003,116.065 71.1353,116.496 72.8643,117.36 C 82.0803,122.04 87.1923,124.848 96.1923,130.032 C 103.679,125.136 107.927,122.4 115.488,117.504 C 115.488,117.504 126.36,110.448 126.36,110.448 z "/>
</g>
<g style="fill:#ffffff;fill-rule:evenodd;stroke:none;stroke-width:1;stroke-linecap:butt;stroke-linejoin:miter;stroke-dasharray:none" transform="matrix(1.2011431,0,0,1.2011431,36.057329,43.651799)">
<path d="M 45.504,15.1924 C 45.504,15.1924 36.3594,15.1924 36.3594,15.1924 C 36.792,12.168 38.5918,10.1524 41.2559,10.1524 C 43.8477,10.1524 45.3594,12.0967 45.504,15.1924 z M 99.6479,18 C 99.6479,22.4649 97.4869,25.3448 94.1039,25.3448 C 90.7919,25.3448 88.4869,22.3926 88.4869,18.0723 C 88.4869,13.3926 90.6479,10.4405 94.1759,10.5127 C 97.4159,10.5127 99.6479,13.5362 99.6479,18 z M 28.0801,28.6563 C 28.0801,28.6563 28.0801,14.6885 28.0801,14.6885 C 28.0801,11.4483 27.6475,9.9366 26.3516,8.5684 C 25.0557,7.128 22.9678,6.4082 20.4473,6.336 C 18.2159,6.336 16.4161,6.8408 14.1114,8.2803 C 12.3838,6.9121 10.5118,6.336 7.9913,6.336 C 5.3995,6.336 2.8077,6.9844 0,8.3526 C 0,8.3526 0.0713,28.584 0.0713,28.584 C 0.0713,28.584 4.5362,28.584 4.5362,28.584 C 4.5362,28.584 4.4639,10.9444 4.4639,10.9444 C 6.1202,10.3682 6.6954,10.2969 7.7754,10.2969 C 9.3594,10.2969 10.4395,10.7285 11.0157,11.5928 C 11.5918,12.4561 11.7354,13.0323 11.7354,15.5528 C 11.7354,15.5528 11.8077,28.584 11.8077,28.584 C 11.8077,28.584 16.2715,28.584 16.2715,28.584 C 16.2715,28.584 16.1993,15.1201 16.1993,15.1201 C 16.1993,12.8887 16.128,12.5283 15.6954,11.376 C 17.5674,10.584 18.6475,10.3682 19.9434,10.3682 C 21.8877,10.3682 23.1114,11.3047 23.3995,12.96 C 23.6153,13.8965 23.6153,14.8321 23.6153,16.7764 C 23.6153,16.7764 23.6153,28.6563 23.6153,28.6563 C 23.6153,28.6563 28.0801,28.6563 28.0801,28.6563 z M 50.3282,17.1367 C 50.3282,10.5127 47.0157,6.4805 41.4717,6.4805 C 35.4239,6.4805 31.4639,10.8721 31.4639,17.7842 C 31.4639,24.6963 35.3516,29.0166 41.4717,29.0889 C 44.4961,29.0889 47.2315,28.0088 49.2481,26.0645 C 49.2481,26.0645 47.1592,23.3282 47.1592,23.3282 C 45.504,24.6241 43.7754,25.2002 41.8321,25.2002 C 38.3038,25.2002 36.2881,22.8242 36.0713,18.8643 C 36.0713,18.8643 50.2559,18.8643 50.2559,18.8643 C 50.3282,18 50.3282,17.5684 50.3282,17.1367 z M 66.6719,28.4405 C 66.6719,28.4405 65.8799,25.2002 65.8799,25.2002 C 64.9439,25.4883 64.5119,25.5606 63.7199,25.5606 C 62.4239,25.5606 61.5599,25.2002 61.1279,24.6241 C 60.4799,23.9766 60.4069,23.1123 60.3359,20.2324 C 60.3359,20.2324 60.3359,10.4405 60.3359,10.4405 C 60.3359,10.4405 65.3759,10.4405 65.3759,10.4405 C 65.3759,10.4405 66.3119,6.9121 66.3119,6.9121 C 66.3119,6.9121 60.3359,6.8408 60.3359,6.8408 C 60.3359,6.8408 60.2639,0 60.2639,0 C 60.2639,0 55.7999,1.0801 55.7999,1.0801 C 55.7999,1.0801 55.7999,6.8408 55.7999,6.8408 C 55.7999,6.8408 52.1993,6.8408 52.1993,6.8408 C 52.1993,6.8408 52.1993,10.3682 52.1993,10.3682 C 52.1993,10.3682 55.7999,10.4405 55.7999,10.4405 C 55.7999,10.4405 55.8719,21.8164 55.8719,21.8164 C 55.8719,23.9043 56.0159,26.1367 57.6719,27.7207 C 58.7519,28.6563 60.1919,29.1602 62.2079,29.1602 C 63.9359,29.1602 65.2319,28.9444 66.6719,28.4405 z M 83.3759,7.0567 C 81.7919,6.6963 81.0709,6.6241 79.7759,6.6241 C 77.1839,6.6241 74.4469,7.2002 71.4239,8.4961 C 71.4239,8.4961 71.4959,28.8008 71.4959,28.8008 C 71.4959,28.8008 76.0309,28.8008 76.0309,28.8008 C 76.0309,28.8008 75.9599,11.376 75.9599,11.376 C 76.6079,11.0166 78.1199,10.584 79.4159,10.584 C 80.4959,10.584 81.0709,10.6563 82.3669,10.9444 C 82.3669,10.9444 83.3759,7.0567 83.3759,7.0567 z M 104.4,17.8565 C 104.4,11.2324 100.224,6.6963 94.0309,6.6241 C 87.7679,6.6241 83.7359,11.0889 83.7359,17.8565 C 83.7359,24.6963 87.8399,29.2324 94.2479,29.2324 C 100.367,29.2324 104.4,24.6963 104.4,17.8565 z "/>
</g>
</svg>
