<?xml version="1.0" encoding="UTF-8" standalone="no"?>
<!DOCTYPE svg PUBLIC "-//W3C//DTD SVG 1.1 Tiny//EN" "http://www.w3.org/Graphics/SVG/1.1/DTD/svg11-tiny.dtd">
<svg xmlns="http://www.w3.org/2000/svg" baseProfile="tiny" height="20px" version="1.1" viewBox="0 0 400 400" width="20px" x="0px" y="0px">
<defs/>
<path d="M 399,200.987 C 399,90.544 306.459,1 200.49,1 C 90.54,1 1,90.544 1,200.987 C 1,310.429 90.54,399 200.49,399 C 310.44,399 399,310.919 399,200.987" style="fill:#14489e;fill-opacity:1"/>
<path d="M 371.639,200.987 C 371.639,294.521 294.533,372.604 200.491,372.604 C 105.982,372.604 28.362,295.514 28.362,200.987 C 28.362,105.984 105.982,27.356 200.491,27.356 C 294.532,27.356 371.639,106.467 371.639,200.987 z" style="fill:#ffffff;fill-opacity:1"/>
<path d="M 298.987,289.039 L 298.987,115.424 C 298.987,105.479 293.535,95.03 277.108,95.03 C 264.691,95.03 259.697,100.504 254.231,111.458 L 200.49,223.387 L 200,223.387 L 145.768,111.458 C 140.294,100.504 135.326,95.03 122.878,95.03 C 106.464,95.03 100.989,105.479 100.989,115.424 L 100.989,289.039 C 100.989,298.518 108.461,303.968 117.404,303.968 C 125.358,303.968 134.315,298.518 134.315,289.039 L 134.315,159.702 L 134.82,159.702 L 184.069,260.193 C 187.552,267.16 192.039,271.156 200,271.156 C 207.947,271.156 212.434,267.16 215.923,260.193 L 265.164,159.702 L 265.67,159.702 L 265.67,289.039 C 265.67,298.518 274.612,303.968 282.574,303.968 C 291.545,303.968 298.987,298.518 298.987,289.039 z" style="fill:#14489e;fill-opacity:1"/>
</svg>
