<?xml version="1.0" encoding="UTF-8" standalone="no"?>
<!DOCTYPE svg PUBLIC "-//W3C//DTD SVG 1.1 Tiny//EN" "http://www.w3.org/Graphics/SVG/1.1/DTD/svg11-tiny.dtd">
<svg xmlns="http://www.w3.org/2000/svg" xmlns:xlink="http://www.w3.org/1999/xlink" baseProfile="tiny" height="20" version="1.1" viewBox="-288.5 410.39 20 20" width="20">
<path d="M-271.501,410.411H-285.5c-1.657,0-3,1.342-3,2.994v16.963l5.743-3.991h11.256  c1.657,0,3.001-1.341,3.001-2.993v-9.979C-268.5,411.751-269.844,410.411-271.501,410.411z" fill="#002B7A"/>
<linearGradient gradientTransform="matrix(1 0 0 -1 0.0376 18.9941)" gradientUnits="userSpaceOnUse" id="XMLID_501_" x1="-278.5371" x2="-278.5371" y1="-392.417" y2="-409.4971">
<stop offset="0" style="stop-color:#292BFF"/>
<stop offset="0.1349" style="stop-color:#2B2FFF"/>
<stop offset="0.2743" style="stop-color:#303CFF"/>
<stop offset="0.4159" style="stop-color:#3850FF"/>
<stop offset="0.5588" style="stop-color:#446DFF"/>
<stop offset="0.7015" style="stop-color:#5392FF"/>
<stop offset="0.8146" style="stop-color:#61B5FF"/>
<stop offset="1" style="stop-color:#61B5FF"/>
</linearGradient>
<path d="M-271.501,411.411H-285.5c-1.103,0-2,0.892-2,1.994v9.979v5.107l4.29-3.111h7.137h4.572  c1.106,0,2.002-0.894,2.002-1.996v-9.979C-269.499,412.303-270.395,411.411-271.501,411.411z" fill="url(#XMLID_501_)"/>
<linearGradient gradientTransform="matrix(1 0 0 -1 0.0376 18.9941)" gradientUnits="userSpaceOnUse" id="XMLID_502_" x1="-278.5088" x2="-278.5088" y1="-396.1094" y2="-392.457">
<stop offset="0" style="stop-color:#292BFF"/>
<stop offset="1" style="stop-color:#BDE7FF"/>
</linearGradient>
<path d="M-269.486,413.277c0,1.009-0.765,1.826-1.709,1.826h-14.55c-0.944,0-1.711-0.817-1.711-1.826l0,0  c0-1.01,0.767-1.826,1.711-1.826h14.55C-270.251,411.451-269.486,412.268-269.486,413.277L-269.486,413.277z" fill="url(#XMLID_502_)"/>
<path d="M-277.46,419.984" fill="#FFFFFF"/>
<polygon fill="#FFFFFF" points="-283.441,414.467 -285.128,419.387 -283.441,424.304 -285.231,424.304 -286.918,419.387   -285.231,414.467 "/>
<polygon fill="#FFFFFF" points="-273.344,424.304 -271.657,419.383 -273.344,414.467 -271.555,414.467 -269.867,419.383   -271.555,424.304 "/>
<path d="M-276.395,422.585c1,0,2-1,2-2.002v-5.005c0-1-1-2.001-2-2.001h-1.5h-1h-1.5c-1,0-2,1-2,2.001v5.005  c0,1.002,0.999,2.002,2,2.002l0,0l-3,2.002h2l1.5-1h3.001l1.498,1h2.002L-276.395,422.585z M-281.394,415.578  c0-1.001,1-1.001,1-1.001h4c0,0,1,0,1,1.001c0,1.002,0,0,0,1.002c0,1.001-1,1.001-1,1.001h-4c0,0-1,0-1-1.001  C-281.394,416.579-281.394,416.579-281.394,415.578z M-280.394,421.585c-0.553,0-1.001-0.449-1.001-1.002s0.448-1,1.001-1  c0.552,0,1,0.447,1,1S-279.842,421.585-280.394,421.585z M-277.395,420.582c0-0.553,0.449-1,1-1c0.553,0,1,0.447,1,1  c0,0.554-0.447,1.002-1,1.002C-276.945,421.584-277.395,421.136-277.395,420.582z M-278.394,413.076c0-0.275-0.224-0.5-0.5-0.5  s-0.5,0.225-0.5,0.5s0.224,0.5,0.5,0.5S-278.394,413.352-278.394,413.076z M-277.895,413.576c0.276,0,0.502-0.225,0.502-0.5  s-0.226-0.5-0.502-0.5c-0.275,0-0.5,0.225-0.5,0.5S-278.17,413.576-277.895,413.576z" fill="#FFFFFF"/>
</svg>
