<?xml version="1.0" encoding="UTF-8" standalone="no"?>
<svg
   xmlns:dc="http://purl.org/dc/elements/1.1/"
   xmlns:cc="http://web.resource.org/cc/"
   xmlns:rdf="http://www.w3.org/1999/02/22-rdf-syntax-ns#"
   xmlns:svg="http://www.w3.org/2000/svg"
   xmlns="http://www.w3.org/2000/svg"
   xmlns:sodipodi="http://sodipodi.sourceforge.net/DTD/sodipodi-0.dtd"
   xmlns:inkscape="http://www.inkscape.org/namespaces/inkscape"
   baseProfile="tiny"
   version="1.1"
   width="20"
   height="20"
   viewBox="0 0 20 20"
   id="svg3330"
   sodipodi:version="0.32"
   inkscape:version="0.45pre1"
   sodipodi:docname="commuter_rail_station.svg"
   inkscape:output_extension="org.inkscape.output.svg.inkscape"
   sodipodi:docbase="H:\tmp"
   sodipodi:modified="true">
  <metadata
     id="metadata3371">
    <rdf:RDF>
      <cc:Work
         rdf:about="">
        <dc:format>image/svg+xml</dc:format>
        <dc:type
           rdf:resource="http://purl.org/dc/dcmitype/StillImage" />
      </cc:Work>
    </rdf:RDF>
  </metadata>
  <defs
     id="defs3369" />
  <sodipodi:namedview
     inkscape:window-height="573"
     inkscape:window-width="761"
     inkscape:pageshadow="2"
     inkscape:pageopacity="0.0"
     guidetolerance="10.0"
     gridtolerance="10.0"
     objecttolerance="10.0"
     borderopacity="1.0"
     bordercolor="#666666"
     pagecolor="#ffffff"
     id="base"
     inkscape:zoom="18.85"
     inkscape:cx="10"
     inkscape:cy="10"
     inkscape:window-x="108"
     inkscape:window-y="58"
     inkscape:current-layer="svg3330" />
  <path
     d="M 18.486237,0.0025125995 L 11.486737,0.0025125995 C 10.658237,0.0025125995 9.9867374,0.6735126 9.9867374,1.4995126 L 9.9867374,9.9810126 L 12.858237,7.9855126 L 18.486237,7.9855126 C 19.314737,7.9855126 19.986737,7.3150126 19.986737,6.4890126 L 19.986737,1.4995126 C 19.986737,0.6725126 19.314737,0.0025125995 18.486237,0.0025125995 z "
     id="path3332"
     style="fill:#002b7a" />
  <linearGradient
     id="XMLID_3_"
     gradientUnits="userSpaceOnUse"
     x1="10.0005"
     y1="0.9995"
     x2="10.0005"
     y2="18.0801"
     gradientTransform="matrix(0.5,0,0,0.5,9.9867374,2.5125995e-3)">
    <stop
       offset="0"
       style="stop-color:#292BFF"
       id="stop3335" />
    <stop
       offset="0.1349"
       style="stop-color:#2B2FFF"
       id="stop3337" />
    <stop
       offset="0.2743"
       style="stop-color:#303CFF"
       id="stop3339" />
    <stop
       offset="0.4159"
       style="stop-color:#3850FF"
       id="stop3341" />
    <stop
       offset="0.5588"
       style="stop-color:#446DFF"
       id="stop3343" />
    <stop
       offset="0.7015"
       style="stop-color:#5392FF"
       id="stop3345" />
    <stop
       offset="0.8146"
       style="stop-color:#61B5FF"
       id="stop3347" />
    <stop
       offset="1"
       style="stop-color:#61B5FF"
       id="stop3349" />
  </linearGradient>
  <path
     d="M 18.486237,0.5025126 L 11.486737,0.5025126 C 10.935237,0.5025126 10.486737,0.9485126 10.486737,1.4995126 L 10.486737,6.4890126 L 10.486737,9.0425126 L 12.631737,7.4870126 L 16.200237,7.4870126 L 18.486237,7.4870126 C 19.039237,7.4870126 19.487237,7.0400126 19.487237,6.4890126 L 19.487237,1.4995126 C 19.487237,0.9485126 19.039237,0.5025126 18.486237,0.5025126 z "
     id="path3351"
     style="fill:url(#XMLID_3_)" />
  <linearGradient
     id="XMLID_4_"
     gradientUnits="userSpaceOnUse"
     x1="10.0288"
     y1="4.6914"
     x2="10.0288"
     y2="1.04"
     gradientTransform="matrix(0.5,0,0,0.5,9.9867374,2.5125995e-3)">
    <stop
       offset="0"
       style="stop-color:#292BFF"
       id="stop3354" />
    <stop
       offset="1"
       style="stop-color:#BDE7FF"
       id="stop3356" />
  </linearGradient>
  <path
     d="M 19.493737,1.4355126 C 19.493737,1.9400126 19.111237,2.3485126 18.639237,2.3485126 L 11.364237,2.3485126 C 10.892237,2.3485126 10.508737,1.9400126 10.508737,1.4355126 L 10.508737,1.4355126 C 10.508737,0.9305126 10.892237,0.5225126 11.364237,0.5225126 L 18.639237,0.5225126 C 19.111237,0.5225126 19.493737,0.9305126 19.493737,1.4355126 L 19.493737,1.4355126 z "
     id="path3358"
     style="fill:url(#XMLID_4_)" />
  <path
     id="path3360"
     style="fill:#ffffff" />
  <polygon
     points="5.059,4.055 3.372,8.976 5.059,13.892 3.269,13.892 1.582,8.976 3.269,4.055 5.059,4.055 "
     id="polygon3362"
     transform="matrix(0.5,0,0,0.5,9.9867374,2.5125995e-3)"
     style="fill:#ffffff" />
  <polygon
     points="15.156,13.892 16.843,8.971 15.156,4.055 16.945,4.055 18.633,8.971 16.945,13.892 15.156,13.892 "
     id="polygon3364"
     transform="matrix(0.5,0,0,0.5,9.9867374,2.5125995e-3)"
     style="fill:#ffffff" />
  <path
     d="M 16.039737,6.0895126 C 16.539737,6.0895126 17.039737,5.5895126 17.039737,5.0885126 L 17.039737,2.5860126 C 17.039737,2.0860126 16.539737,1.5855126 16.039737,1.5855126 L 15.289737,1.5855126 L 14.789737,1.5855126 L 14.039737,1.5855126 C 13.539737,1.5855126 13.039737,2.0855126 13.039737,2.5860126 L 13.039737,5.0885126 C 13.039737,5.5895126 13.539237,6.0895126 14.039737,6.0895126 L 14.039737,6.0895126 L 12.539737,7.0905126 L 13.539737,7.0905126 L 14.289737,6.5905126 L 15.790237,6.5905126 L 16.539737,7.0905126 L 17.540237,7.0905126 L 16.039737,6.0895126 z M 13.539737,2.5860126 C 13.539737,2.0855126 14.039737,2.0855126 14.039737,2.0855126 L 16.039737,2.0855126 C 16.039737,2.0855126 16.539737,2.0855126 16.539737,2.5860126 C 16.539737,3.0870126 16.539737,2.5860126 16.539737,3.0870126 C 16.539737,3.5875126 16.039737,3.5875126 16.039737,3.5875126 L 14.039737,3.5875126 C 14.039737,3.5875126 13.539737,3.5875126 13.539737,3.0870126 C 13.539737,3.0865126 13.539737,3.0865126 13.539737,2.5860126 z M 14.039737,5.5895126 C 13.763237,5.5895126 13.539237,5.3650126 13.539237,5.0885126 C 13.539237,4.8120126 13.763237,4.5885126 14.039737,4.5885126 C 14.315737,4.5885126 14.539737,4.8120126 14.539737,5.0885126 C 14.539737,5.3650126 14.315737,5.5895126 14.039737,5.5895126 z M 15.539237,5.0880126 C 15.539237,4.8115126 15.763737,4.5880126 16.039737,4.5880126 C 16.315737,4.5880126 16.539737,4.8115126 16.539737,5.0880126 C 16.539737,5.3650126 16.315737,5.5890126 16.039737,5.5890126 C 15.763737,5.5890126 15.539237,5.3650126 15.539237,5.0880126 z M 15.039737,1.3350126 C 15.039737,1.1975126 14.927737,1.0850126 14.789737,1.0850126 C 14.651737,1.0850126 14.539737,1.1975126 14.539737,1.3350126 C 14.539737,1.4730126 14.651737,1.5850126 14.789737,1.5850126 C 14.927737,1.5850126 15.039737,1.4730126 15.039737,1.3350126 z M 15.289737,1.5850126 C 15.427737,1.5850126 15.540237,1.4730126 15.540237,1.3350126 C 15.540237,1.1975126 15.427737,1.0850126 15.289737,1.0850126 C 15.151737,1.0850126 15.039737,1.1975126 15.039737,1.3350126 C 15.039737,1.4730126 15.151737,1.5850126 15.289737,1.5850126 z "
     id="path3366"
     style="fill:#ffffff" />
</svg>
