<?xml version="1.0" encoding="UTF-8" standalone="no"?>
<!DOCTYPE svg PUBLIC "-//W3C//DTD SVG 1.1 Tiny//EN" "http://www.w3.org/Graphics/SVG/1.1/DTD/svg11-tiny.dtd">
<svg xmlns="http://www.w3.org/2000/svg" xmlns:xlink="http://www.w3.org/1999/xlink" baseProfile="tiny" height="20" version="1.1" viewBox="-288.5 410.364 20 20" width="20">
<linearGradient gradientTransform="matrix(1 0 0 -1 0.0376 18.9429)" gradientUnits="userSpaceOnUse" id="XMLID_496_" x1="-278.4663" x2="-278.4663" y1="-392.9836" y2="-404.9163">
<stop offset="0" style="stop-color:#FFFFFF"/>
<stop offset="0.0056" style="stop-color:#FFFFFF"/>
<stop offset="0.1468" style="stop-color:#FFFEFB"/>
<stop offset="0.2796" style="stop-color:#FFFAF0"/>
<stop offset="0.4091" style="stop-color:#FFF4DD"/>
<stop offset="0.5357" style="stop-color:#FFECC2"/>
<stop offset="0.6067" style="stop-color:#FFE6B0"/>
<stop offset="1" style="stop-color:#FFE62B"/>
</linearGradient>
<path d="M-278.357,423.859c1.214,0,3.488-0.422,4.699-1.255c1.081-0.742,3.188-2.545,3.584-3.053  c0.555-0.709,0.428-1.215,0.042-1.421c-1.235-0.66-4.425-0.35-5.083-1.015c-0.75-0.759-1.951-5.189-3.164-5.189  c-1.191,0-2.577,4.601-3.193,5.225c-0.394,0.397-2.525-0.035-4.728,0.365c-1.419,0.26-0.836,1.732-0.853,1.7  c0,0,0.509,0.497,0.735,0.726c0.226,0.228,0.901,1.235,2.9,2.569C-281.55,423.758-279.633,423.859-278.357,423.859z" fill="url(#XMLID_496_)"/>
<path d="M-288.3,418.933c0,0-0.919-1.757,1.179-2.088c2.536-0.4,4.593-0.043,5.045-0.499  c0.708-0.712,2.452-5.956,3.82-5.956c1.391,0,2.77,4.996,3.63,5.861c0.755,0.759,4.34,0.475,5.635,1.354  c0.415,0.282,0.892,1.228-0.071,2.277c-1.767,1.929-3.065,3.04-3.4,3.506c-0.279,0.39,1.373,5.488,0.548,6.532  c-0.478,0.604-1.763,0.526-2.696-0.061c-0.943-0.594-2.101-1.589-2.773-1.886c-0.344-0.151-0.844-0.451-1.909,0.072  c-0.708,0.348-2.994,1.97-3.772,2.183c-0.546,0.15-1.061,0.167-1.462-0.235c-0.542-0.546-0.471-1.473-0.471-2.374  s0.849-3.727,0.542-4.2c-0.236-0.366-3.018-3.465-3.277-3.726C-287.993,419.431-288.3,418.933-288.3,418.933z" fill="#B04400"/>
<linearGradient gradientTransform="matrix(1 0 0 -1 0.0376 18.9429)" gradientUnits="userSpaceOnUse" id="XMLID_497_" x1="-278.5024" x2="-278.5024" y1="-410.6819" y2="-392.552">
<stop offset="0" style="stop-color:#FF7700"/>
<stop offset="0.1241" style="stop-color:#FF980D"/>
<stop offset="0.2581" style="stop-color:#FFB518"/>
<stop offset="0.4026" style="stop-color:#FFCA20"/>
<stop offset="0.5604" style="stop-color:#FFDA26"/>
<stop offset="0.7418" style="stop-color:#FFE32A"/>
<stop offset="1" style="stop-color:#FFE62B"/>
</linearGradient>
<path d="M-287.427,419.173c0,0-0.901-1.591,0.99-1.891c2.287-0.365,4.336,0.021,4.743-0.392  c0.638-0.646,2.21-5.396,3.442-5.396c1.254,0,2.497,4.524,3.271,5.309c0.681,0.688,4.229,0.431,5.396,1.227  c0.374,0.255,0.43,0.81-0.041,1.496c-0.177,0.258-0.868,1.045-1.547,1.8c-0.775,0.862-1.592,1.668-1.857,1.942  c-0.301,0.309,1.029,5.129,0.688,5.917c-0.302,0.697-1.589,0.478-2.431-0.055c-0.85-0.537-2.088-1.654-2.694-1.922  c-0.312-0.139-0.761-0.409-1.721,0.063c-0.638,0.315-2.841,2.035-3.542,2.229c-0.492,0.135-0.957,0.151-1.317-0.215  c-0.489-0.494-0.507-1.605-0.376-2.412c0.158-0.976,0.858-3.147,0.583-3.578c-0.213-0.332-2.721-3.138-2.954-3.375  C-287.027,419.684-287.427,419.173-287.427,419.173z" fill="url(#XMLID_497_)"/>
<linearGradient gradientTransform="matrix(1 0 0 -1 0.0376 18.9429)" gradientUnits="userSpaceOnUse" id="XMLID_498_" x1="-278.522" x2="-278.522" y1="-392.6467" y2="-404.9875">
<stop offset="0" style="stop-color:#FFFFFF"/>
<stop offset="0.0056" style="stop-color:#FFFFFF"/>
<stop offset="0.0993" style="stop-color:#FFFEFB"/>
<stop offset="0.1874" style="stop-color:#FFFAF0"/>
<stop offset="0.2733" style="stop-color:#FFF4DD"/>
<stop offset="0.3574" style="stop-color:#FFECC2"/>
<stop offset="0.4045" style="stop-color:#FFE6B0"/>
<stop offset="1" style="stop-color:#FFE62B"/>
</linearGradient>
<path d="M-278.398,423.93c1.255,0,3.607-0.436,4.86-1.297c1.118-0.769,3.295-2.632,3.707-3.158  c0.574-0.732,0.442-1.256,0.044-1.47c-1.277-0.683-4.576-0.361-5.256-1.049c-0.775-0.784-2.02-5.367-3.272-5.367  c-1.232,0-2.665,4.757-3.303,5.402c-0.409,0.412-2.606-0.034-4.884,0.381c-1.649,0.301-0.81,1.758-0.81,1.758  s0.448,0.512,0.682,0.749c0.233,0.236,0.932,1.278,3,2.658C-281.7,423.826-279.717,423.93-278.398,423.93z" fill="url(#XMLID_498_)"/>
</svg>
