<?xml version="1.0" encoding="UTF-8" standalone="no"?>
<svg
   xmlns:dc="http://purl.org/dc/elements/1.1/"
   xmlns:cc="http://web.resource.org/cc/"
   xmlns:rdf="http://www.w3.org/1999/02/22-rdf-syntax-ns#"
   xmlns:svg="http://www.w3.org/2000/svg"
   xmlns="http://www.w3.org/2000/svg"
   xmlns:sodipodi="http://sodipodi.sourceforge.net/DTD/sodipodi-0.dtd"
   xmlns:inkscape="http://www.inkscape.org/namespaces/inkscape"
   baseProfile="tiny"
   version="1.0"
   width="40"
   height="40"
   viewBox="0 0 20 20"
   id="svg5462"
   sodipodi:version="0.32"
   inkscape:version="0.45pre1"
   sodipodi:docname="hindu_temple.svg"
   inkscape:output_extension="org.inkscape.output.svg.inkscape"
   sodipodi:docbase="H:\Images"
   sodipodi:modified="true">
  <metadata
     id="metadata5517">
    <rdf:RDF>
      <cc:Work
         rdf:about="">
        <dc:format>image/svg+xml</dc:format>
        <dc:type
           rdf:resource="http://purl.org/dc/dcmitype/StillImage" />
      </cc:Work>
    </rdf:RDF>
  </metadata>
  <defs
     id="defs5515" />
  <sodipodi:namedview
     inkscape:window-height="749"
     inkscape:window-width="910"
     inkscape:pageshadow="2"
     inkscape:pageopacity="0.0"
     guidetolerance="10.0"
     gridtolerance="10.0"
     objecttolerance="10.0"
     borderopacity="1.0"
     bordercolor="#666666"
     pagecolor="#ffffff"
     id="base"
     width="40px"
     height="40px"
     inkscape:zoom="18.85"
     inkscape:cx="21.33845"
     inkscape:cy="27.622284"
     inkscape:window-x="292"
     inkscape:window-y="182"
     inkscape:current-layer="svg5462" />
  <path
     d="M 18.478687,0.026037798 L 11.456687,0.026037798 C 10.625687,0.026037798 9.951187,0.6960378 9.951187,1.5215378 L 9.951187,9.9985378 L 12.832687,8.0035378 L 18.478687,8.0035378 C 19.311187,8.0035378 19.986187,7.3345378 19.986187,6.5075378 L 19.986187,1.5215378 C 19.985687,0.6960378 19.311187,0.026037798 18.478687,0.026037798 z "
     id="path5464"
     style="fill:#004a00" />
  <linearGradient
     id="XMLID_3_"
     gradientUnits="userSpaceOnUse"
     x1="10.0342"
     y1="0.99900001"
     x2="10.0342"
     y2="18.070299"
     gradientTransform="matrix(0.5,0,0,0.5,9.951187,2.6037798e-2)">
    <stop
       offset="0"
       style="stop-color:#007805"
       id="stop5467" />
    <stop
       offset="0.1364"
       style="stop-color:#047A05"
       id="stop5469" />
    <stop
       offset="0.2774"
       style="stop-color:#118104"
       id="stop5471" />
    <stop
       offset="0.4206"
       style="stop-color:#258C04"
       id="stop5473" />
    <stop
       offset="0.5651"
       style="stop-color:#429C03"
       id="stop5475" />
    <stop
       offset="0.7094"
       style="stop-color:#67B101"
       id="stop5477" />
    <stop
       offset="0.8146"
       style="stop-color:#87C200"
       id="stop5479" />
    <stop
       offset="1"
       style="stop-color:#87C200"
       id="stop5481" />
  </linearGradient>
  <path
     d="M 18.478687,0.5255378 L 11.456687,0.5255378 C 10.902187,0.5255378 10.453687,0.9710378 10.453687,1.5215378 L 10.453687,6.5075378 L 10.452687,9.0610378 L 12.604187,7.5055378 L 18.478687,7.5055378 C 19.033687,7.5055378 19.484187,7.0590378 19.484187,6.5075378 L 19.484187,1.5215378 C 19.483687,0.9710378 19.033687,0.5255378 18.478687,0.5255378 z "
     id="path5483"
     style="fill:url(#XMLID_3_)" />
  <linearGradient
     id="XMLID_4_"
     gradientUnits="userSpaceOnUse"
     x1="10.0649"
     y1="4.6884999"
     x2="10.0649"
     y2="1.0371"
     gradientTransform="matrix(0.5,0,0,0.5,9.951187,2.6037798e-2)">
    <stop
       offset="0"
       style="stop-color:#007805"
       id="stop5486" />
    <stop
       offset="1"
       style="stop-color:#E2FFBD"
       id="stop5488" />
  </linearGradient>
  <path
     d="M 19.491187,1.4575378 C 19.491187,1.9615378 19.105687,2.3700378 18.633687,2.3700378 L 11.333687,2.3700378 C 10.859187,2.3700378 10.476187,1.9615378 10.476187,1.4575378 L 10.476187,1.4575378 C 10.476187,0.9535378 10.859187,0.5445378 11.333687,0.5445378 L 18.634187,0.5445378 C 19.106187,0.5445378 19.491187,0.9535378 19.491187,1.4575378 L 19.491187,1.4575378 z "
     id="path5490"
     style="fill:url(#XMLID_4_)" />
  <path
     id="path5492"
     style="fill:#ffffff" />
  <path
     id="path5494"
     style="fill:#ffffff" />
  <g
     id="g5496"
     transform="matrix(0.5,0,0,0.5,9.951187,2.6037798e-2)">
    <g
       id="g5498">
      <path
         d="M 14.676,4.898 C 11.444,4.898 8.21,4.898 4.978,4.898 C 5.773,3.94 6.484,2.98 7.108,2.022 C 8.92,2.022 10.732,2.022 12.543,2.022 C 13.168,2.98 13.879,3.94 14.676,4.898 z "
         id="path5500"
         style="fill:#ffffff" />
    </g>
    <g
       id="g5502">
      <path
         d="M 15.818,7.88 C 11.824,7.88 7.829,7.88 3.834,7.88 C 4.757,6.922 5.594,5.962 6.345,5.004 C 8.665,5.004 10.985,5.004 13.306,5.004 C 14.057,5.962 14.895,6.922 15.818,7.88 z "
         id="path5504"
         style="fill:#ffffff" />
    </g>
    <g
       id="g5506">
      <path
         d="M 16.961,10.861 C 12.205,10.861 7.448,10.861 2.692,10.861 C 3.741,9.903 4.706,8.943 5.584,7.985 C 8.412,7.985 11.24,7.985 14.068,7.985 C 14.945,8.943 15.91,9.903 16.961,10.861 z "
         id="path5508"
         style="fill:#ffffff" />
    </g>
    <g
       id="g5510">
      <path
         d="M 18.104,13.844 C 12.586,13.844 7.067,13.844 1.549,13.844 C 2.725,12.886 3.817,11.925 4.822,10.967 C 8.158,10.967 11.494,10.967 14.83,10.967 C 15.834,11.925 16.926,12.886 18.104,13.844 z "
         id="path5512"
         style="fill:#ffffff" />
    </g>
  </g>
</svg>
