<?xml version="1.0" encoding="UTF-8" standalone="no"?>
<!DOCTYPE svg PUBLIC "-//W3C//DTD SVG 1.1 Tiny//EN" "http://www.w3.org/Graphics/SVG/1.1/DTD/svg11-tiny.dtd">
<svg xmlns="http://www.w3.org/2000/svg" xmlns:xlink="http://www.w3.org/1999/xlink" baseProfile="tiny" height="40" version="1.1" viewBox="-20 0 40 40" width="40">
<g>
<path d="M17.002,0H3C1.344,0,0.002,1.348,0.002,3.01v10.03L0,20.062l5.744-4.014h11.258   c1.656,0,2.998-1.348,2.998-3.009V3.01C20,1.348,18.661,0,17.002,0z" fill="#612900"/>
<linearGradient gradientTransform="matrix(1 0 0 -1 0.0376 19.0562)" gradientUnits="userSpaceOnUse" id="XMLID_3_" x1="9.9639" x2="9.9639" y1="18.0535" y2="0.8801">
<stop offset="0" style="stop-color:#FF5E00"/>
<stop offset="0.1643" style="stop-color:#FF6201"/>
<stop offset="0.334" style="stop-color:#FF6F04"/>
<stop offset="0.5062" style="stop-color:#FF8308"/>
<stop offset="0.6792" style="stop-color:#FFA00E"/>
<stop offset="0.8146" style="stop-color:#FFBC14"/>
<stop offset="1" style="stop-color:#FFBC14"/>
</linearGradient>
<path d="M17.002,1.003H3c-1.104,0-1.999,0.897-1.999,2.008v10.03L1,18.177l4.29-3.13h11.712   c1.104,0,2-0.896,2-2.006V3.01C19.002,1.901,18.108,1.003,17.002,1.003z" fill="url(#XMLID_3_)"/>
<linearGradient gradientTransform="matrix(1 0 0 -1 0.0376 19.0562)" gradientUnits="userSpaceOnUse" id="XMLID_4_" x1="9.9941" x2="9.9941" y1="14.3396" y2="18.0115">
<stop offset="0" style="stop-color:#FF7B00"/>
<stop offset="1" style="stop-color:#FFE1B5"/>
</linearGradient>
<path d="M19.018,2.88c0,1.016-0.766,1.837-1.713,1.837H2.757c-0.945,0-1.711-0.821-1.711-1.837l0,0   c0-1.013,0.767-1.835,1.711-1.835h14.548C18.252,1.045,19.018,1.867,19.018,2.88L19.018,2.88z" fill="url(#XMLID_4_)"/>
<path d="M11,9.63" fill="#FFFFFF"/>
<path d="M11,12.038" fill="#FFFFFF"/>
<path d="M13.549,8.057" fill="#CA00FF"/>
<g>
<path d="M6.792,11.166c-0.075,0.743,0.137,1.347-0.089,1.793c-0.281,0.556-1.343,0.623-1.658,0    c-0.252-0.498,0.055-1.203-0.09-1.748c-0.061-0.228-0.414-0.363-0.493-0.717c-0.084-0.373-0.059-3.113,0.089-3.406    C4.69,6.814,5.104,6.615,5.403,6.64c-0.067-0.606,0.316-3.882,1.12-4.079c0.523-0.128,7.252-0.102,7.709,0.045    c0.83,0.265,0.847,1.917,1.03,2.868c0.055,0.282,0.082,0.975,0.179,1.12c0.067,0.101,0.401,0.154,0.494,0.224    c0.446,0.334,0.358,1.135,0.358,2.017c0,0.599,0.093,1.244,0,1.658c-0.073,0.322-0.465,0.454-0.539,0.672    c-0.133,0.396,0.17,1.049,0,1.659c-0.209,0.752-1.504,0.687-1.746,0.089c-0.055-0.129-0.047-0.561-0.047-0.852    c0-0.11,0.063-0.774,0-0.853c-0.084-0.102-1.283,0-1.746,0C10.35,11.211,8.493,11.248,6.792,11.166z M6.299,5.609    c-0.005,1.116,7.962,1.083,8.022,0.224c0.063-0.912-0.066-2.086-0.672-2.286c-0.805-0.266-5.572-0.18-6.364,0    C6.613,3.7,6.304,4.576,6.299,5.609z M5.941,8.836c1.012,0.018,1.105-1.845-0.18-1.568C4.842,7.465,5.044,8.821,5.941,8.836z     M14.815,8.836c1.053-0.023,1.014-1.852-0.225-1.568C13.644,7.484,13.938,8.856,14.815,8.836z M7.419,8.522    c0.045,0.038,5.856,0.014,5.916-0.09c0.028-0.052,0.049-0.352,0-0.403c-0.082-0.091-4.769-0.084-5.916,0    c-0.05,0.004-0.021,0.018-0.044,0.045C7.228,8.238,7.397,8.503,7.419,8.522z M7.419,9.732c0.043,0.037,5.901,0.017,5.96-0.089    c0.024-0.046-0.057-0.416-0.045-0.403c-0.094-0.097-4.768-0.084-5.916,0C7.369,9.243,7.397,9.713,7.419,9.732z" fill="#FFFFFF"/>
</g>
</g>
</svg>
