<?xml version="1.0" encoding="UTF-8" standalone="no"?>
<svg
   xmlns:dc="http://purl.org/dc/elements/1.1/"
   xmlns:cc="http://web.resource.org/cc/"
   xmlns:rdf="http://www.w3.org/1999/02/22-rdf-syntax-ns#"
   xmlns:svg="http://www.w3.org/2000/svg"
   xmlns="http://www.w3.org/2000/svg"
   xmlns:sodipodi="http://sodipodi.sourceforge.net/DTD/sodipodi-0.dtd"
   xmlns:inkscape="http://www.inkscape.org/namespaces/inkscape"
   baseProfile="tiny"
   version="1.0"
   width="40"
   height="40"
   viewBox="0 0 20 20.021"
   id="svg11542"
   sodipodi:version="0.32"
   inkscape:version="0.45pre1"
   sodipodi:docname="policeStation.svg"
   inkscape:output_extension="org.inkscape.output.svg.inkscape"
   sodipodi:docbase="H:\Images"
   sodipodi:modified="true">
  <metadata
     id="metadata11605">
    <rdf:RDF>
      <cc:Work
         rdf:about="">
        <dc:format>image/svg+xml</dc:format>
        <dc:type
           rdf:resource="http://purl.org/dc/dcmitype/StillImage" />
      </cc:Work>
    </rdf:RDF>
  </metadata>
  <defs
     id="defs11603" />
  <sodipodi:namedview
     inkscape:window-height="710"
     inkscape:window-width="1309"
     inkscape:pageshadow="2"
     inkscape:pageopacity="0.0"
     guidetolerance="10.0"
     gridtolerance="10.0"
     objecttolerance="10.0"
     borderopacity="1.0"
     bordercolor="#666666"
     pagecolor="#ffffff"
     id="base"
     width="40px"
     height="40px"
     inkscape:zoom="18.830228"
     inkscape:cx="10"
     inkscape:cy="31.25294"
     inkscape:window-x="22"
     inkscape:window-y="29"
     inkscape:current-layer="svg11542" />
  <g
     id="g11544"
     transform="matrix(0.5,0,0,0.5,9.997215,8.0349759e-3)">
    <g
       id="g11546">
      <path
         d="M 17,0 L 3,0 C 1.345,0 0,1.345 0,3.003 L 0,20.021 L 5.744,16.016 L 17,16.016 C 18.656,16.016 20,14.672 20,13.013 L 20,3.003 C 20,1.345 18.656,0 17,0 z "
         id="path11548"
         style="fill:#002b7a" />
    </g>
  </g>
  <g
     id="g11550"
     transform="matrix(0.5,0,0,0.5,9.997215,8.0349759e-3)">
    <g
       id="g11552">
      <linearGradient
         id="XMLID_3_"
         gradientUnits="userSpaceOnUse"
         x1="10.001"
         y1="1.0015"
         x2="10.001"
         y2="18.137699">
        <stop
           offset="0"
           style="stop-color:#292BFF"
           id="stop11555" />
        <stop
           offset="0.1349"
           style="stop-color:#2B2FFF"
           id="stop11557" />
        <stop
           offset="0.2743"
           style="stop-color:#303CFF"
           id="stop11559" />
        <stop
           offset="0.4159"
           style="stop-color:#3850FF"
           id="stop11561" />
        <stop
           offset="0.5588"
           style="stop-color:#446DFF"
           id="stop11563" />
        <stop
           offset="0.7015"
           style="stop-color:#5392FF"
           id="stop11565" />
        <stop
           offset="0.8146"
           style="stop-color:#61B5FF"
           id="stop11567" />
        <stop
           offset="1"
           style="stop-color:#61B5FF"
           id="stop11569" />
      </linearGradient>
      <path
         d="M 17,1.001 L 3,1.001 C 1.896,1.001 1,1.897 1,3.003 L 1,18.137 L 5.289,15.015 L 17,15.015 C 18.104,15.015 19.001,14.119 19.001,13.013 L 19.001,3.003 C 19.001,1.897 18.104,1.001 17,1.001 z "
         id="path11571"
         style="fill:url(#XMLID_3_)" />
    </g>
  </g>
  <linearGradient
     id="XMLID_4_"
     gradientUnits="userSpaceOnUse"
     x1="10.0298"
     y1="4.7055998"
     x2="10.0298"
     y2="1.041"
     gradientTransform="matrix(0.5,0,0,0.5,9.997215,8.0349759e-3)">
    <stop
       offset="0"
       style="stop-color:#292BFF"
       id="stop11574" />
    <stop
       offset="1"
       style="stop-color:#BDE7FF"
       id="stop11576" />
  </linearGradient>
  <path
     d="M 19.504715,1.445035 C 19.504715,1.951035 19.121215,2.361035 18.649215,2.361035 L 11.374715,2.361035 C 10.902715,2.361035 10.519215,1.951035 10.519215,1.445035 L 10.519215,1.445035 C 10.519215,0.93953498 10.902715,0.52853498 11.374715,0.52853498 L 18.648715,0.52853498 C 19.121215,0.52853498 19.504715,0.93903498 19.504715,1.445035 L 19.504715,1.445035 z "
     id="path11578"
     style="fill:url(#XMLID_4_)" />
  <path
     id="path11580"
     style="fill:#ffffff" />
  <path
     id="path11582"
     style="fill:#ffffff" />
  <polygon
     points="10.051,1.925 11.999,5.875 16.358,6.508 13.205,9.584 13.951,13.925 10.051,11.875 6.152,13.925 6.897,9.584 3.742,6.508 8.101,5.875 10.051,1.925 "
     id="polygon11584"
     style="fill:#ffffff"
     transform="matrix(0.5,0,0,0.5,9.997215,8.0349759e-3)" />
  <circle
     cx="10.074"
     cy="2.675"
     r="0.75"
     id="circle11586"
     sodipodi:cx="10.074"
     sodipodi:cy="2.675"
     sodipodi:rx="0.75"
     sodipodi:ry="0.75"
     style="fill:#ffffff"
     transform="matrix(0.5,0,0,0.5,9.997215,8.0349759e-3)" />
  <circle
     cx="15.679"
     cy="6.7459998"
     r="0.75"
     id="circle11588"
     sodipodi:cx="15.679"
     sodipodi:cy="6.7459998"
     sodipodi:rx="0.75"
     sodipodi:ry="0.75"
     style="fill:#ffffff"
     transform="matrix(0.5,0,0,0.5,9.997215,8.0349759e-3)" />
  <circle
     cx="13.565"
     cy="13.381"
     r="0.75"
     id="circle11590"
     sodipodi:cx="13.565"
     sodipodi:cy="13.381"
     sodipodi:rx="0.75"
     sodipodi:ry="0.75"
     style="fill:#ffffff"
     transform="matrix(0.5,0,0,0.5,9.997215,8.0349759e-3)" />
  <circle
     cx="6.527"
     cy="13.339"
     r="0.75"
     id="circle11592"
     sodipodi:cx="6.527"
     sodipodi:cy="13.339"
     sodipodi:rx="0.75"
     sodipodi:ry="0.75"
     style="fill:#ffffff"
     transform="matrix(0.5,0,0,0.5,9.997215,8.0349759e-3)" />
  <circle
     cx="4.4439998"
     cy="6.7579999"
     r="0.75"
     id="circle11594"
     sodipodi:cx="4.4439998"
     sodipodi:cy="6.7579999"
     sodipodi:rx="0.75"
     sodipodi:ry="0.75"
     style="fill:#ffffff"
     transform="matrix(0.5,0,0,0.5,9.997215,8.0349759e-3)" />
  <rect
     x="14.122715"
     y="3.0080349"
     width="0.5"
     height="3"
     id="rect11596"
     style="fill:#0000ff" />
  <g
     id="g11598"
     transform="matrix(0.5,0,0,0.5,9.997215,8.0349759e-3)">
    <path
       d="M 10.541,6 L 8.541,6 L 8.541,7 L 10.541,7 C 11.093,7 11.541,7.449 11.541,8 C 11.541,8.551 11.093,9 10.541,9 L 8.541,9 L 8.541,10 L 10.541,10 C 11.644,10 12.541,9.103 12.541,8 C 12.541,6.897 11.644,6 10.541,6 z "
       id="path11600"
       style="fill:#0000ff" />
  </g>
</svg>
