<?xml version="1.0" encoding="UTF-8" standalone="no"?>
<svg
   xmlns:dc="http://purl.org/dc/elements/1.1/"
   xmlns:cc="http://web.resource.org/cc/"
   xmlns:rdf="http://www.w3.org/1999/02/22-rdf-syntax-ns#"
   xmlns:svg="http://www.w3.org/2000/svg"
   xmlns="http://www.w3.org/2000/svg"
   xmlns:sodipodi="http://sodipodi.sourceforge.net/DTD/sodipodi-0.dtd"
   xmlns:inkscape="http://www.inkscape.org/namespaces/inkscape"
   baseProfile="tiny"
   version="1.0"
   width="40"
   height="40"
   viewBox="0 0 20.001 20.063"
   id="svg5898"
   sodipodi:version="0.32"
   inkscape:version="0.45pre1"
   sodipodi:docname="rentAcarFacility.svg"
   inkscape:output_extension="org.inkscape.output.svg.inkscape"
   sodipodi:docbase="H:\Images"
   sodipodi:modified="true">
  <metadata
     id="metadata5941">
    <rdf:RDF>
      <cc:Work
         rdf:about="">
        <dc:format>image/svg+xml</dc:format>
        <dc:type
           rdf:resource="http://purl.org/dc/dcmitype/StillImage" />
      </cc:Work>
    </rdf:RDF>
  </metadata>
  <defs
     id="defs5939" />
  <sodipodi:namedview
     inkscape:window-height="695"
     inkscape:window-width="1209"
     inkscape:pageshadow="2"
     inkscape:pageopacity="0.0"
     guidetolerance="10.0"
     gridtolerance="10.0"
     objecttolerance="10.0"
     borderopacity="1.0"
     bordercolor="#666666"
     pagecolor="#ffffff"
     id="base"
     width="40px"
     height="40px"
     inkscape:zoom="18.790809"
     inkscape:cx="10.0005"
     inkscape:cy="28.461256"
     inkscape:window-x="342"
     inkscape:window-y="178"
     inkscape:current-layer="svg5898" />
  <g
     id="g5900"
     transform="matrix(0.5,0,0,0.5,10.018453,-2.4532584e-3)">
    <path
       d="M 17.002,0 L 3,0 C 1.344,0 0.002,1.348 0.002,3.01 L 0.002,13.041 L 0,20.063 L 5.744,16.05 L 17.002,16.05 C 18.659,16.05 20.001,14.702 20.001,13.041 L 20.001,3.01 C 20.001,1.348 18.66,0 17.002,0 z "
       id="path5902"
       style="fill:#612900" />
    <linearGradient
       id="XMLID_3_"
       gradientUnits="userSpaceOnUse"
       x1="10.002"
       y1="1.0034"
       x2="10.002"
       y2="18.1758">
      <stop
         offset="0"
         style="stop-color:#FF5E00"
         id="stop5905" />
      <stop
         offset="0.1643"
         style="stop-color:#FF6201"
         id="stop5907" />
      <stop
         offset="0.334"
         style="stop-color:#FF6F04"
         id="stop5909" />
      <stop
         offset="0.5062"
         style="stop-color:#FF8308"
         id="stop5911" />
      <stop
         offset="0.6792"
         style="stop-color:#FFA00E"
         id="stop5913" />
      <stop
         offset="0.8146"
         style="stop-color:#FFBC14"
         id="stop5915" />
      <stop
         offset="1"
         style="stop-color:#FFBC14"
         id="stop5917" />
    </linearGradient>
    <path
       d="M 17.002,1.003 L 3,1.003 C 1.896,1.003 1.001,1.9 1.001,3.01 L 1.001,13.041 L 1,18.176 L 5.29,15.047 L 17.002,15.047 C 18.107,15.047 19.003,14.151 19.003,13.041 L 19.003,3.01 C 19.003,1.901 18.108,1.003 17.002,1.003 z "
       id="path5919"
       style="fill:url(#XMLID_3_)" />
    <linearGradient
       id="XMLID_4_"
       gradientUnits="userSpaceOnUse"
       x1="10.0322"
       y1="4.7168002"
       x2="10.0322"
       y2="1.0448999">
      <stop
         offset="0"
         style="stop-color:#FF7B00"
         id="stop5922" />
      <stop
         offset="1"
         style="stop-color:#FFE1B5"
         id="stop5924" />
    </linearGradient>
    <path
       d="M 19.018,2.88 C 19.018,3.895 18.252,4.717 17.305,4.717 L 2.757,4.717 C 1.812,4.717 1.046,3.895 1.046,2.88 L 1.046,2.88 C 1.046,1.867 1.813,1.045 2.757,1.045 L 17.305,1.045 C 18.252,1.045 19.018,1.867 19.018,2.88 L 19.018,2.88 z "
       id="path5926"
       style="fill:url(#XMLID_4_)" />
    <path
       id="path5928"
       style="fill:#ffffff" />
    <path
       id="path5930"
       style="fill:#ffffff" />
    <path
       id="path5932"
       style="fill:#ca00ff" />
  </g>
  <g
     id="g5934"
     transform="matrix(0.5,0,0,0.5,10.018453,-2.4532584e-3)">
    <path
       d="M 13.918,3.042 L 6.168,3.042 C 5.616,3.042 3.001,7.042 3.001,8.042 L 3.001,11.042 C 3.001,11.595 3.449,12.042 4.001,12.042 L 4.001,12.042 L 4.001,14.042 C 4.001,14.181 4.113,14.292 4.251,14.292 L 5.751,14.292 C 5.889,14.292 6.001,14.181 6.001,14.042 L 6.001,12.042 L 14.001,12.042 L 14.001,14.042 C 14.001,14.181 14.112,14.292 14.251,14.292 L 15.751,14.292 C 15.89,14.292 16.001,14.181 16.001,14.042 L 16.001,12.042 L 16.001,12.042 C 16.554,12.042 17.001,11.595 17.001,11.042 L 17.001,8.042 C 17.001,7.042 14.471,3.042 13.918,3.042 z M 14.721,7.438 L 5.281,7.438 C 4.281,7.438 6.198,4.042 6.585,4.042 C 6.972,4.042 12.992,4.042 13.356,4.042 C 13.72,4.042 15.721,7.438 14.721,7.438 z M 7.001,10.042 C 7.001,10.594 6.553,11.042 6.001,11.042 C 5.449,11.042 5.001,10.595 5.001,10.042 C 5.001,9.489 5.449,9.042 6.001,9.042 C 6.553,9.042 7.001,9.489 7.001,10.042 z M 15.023,10.042 C 15.023,10.594 14.576,11.042 14.023,11.042 C 13.47,11.042 13.023,10.595 13.023,10.042 C 13.023,9.489 13.47,9.042 14.023,9.042 C 14.576,9.042 15.023,9.489 15.023,10.042 z "
       id="path5936"
       style="fill:#ffffff" />
  </g>
</svg>
