<?xml version="1.0" encoding="UTF-8" standalone="no"?>
<!DOCTYPE svg PUBLIC "-//W3C//DTD SVG 1.1 Tiny//EN" "http://www.w3.org/Graphics/SVG/1.1/DTD/svg11-tiny.dtd">
<svg xmlns="http://www.w3.org/2000/svg" xmlns:xlink="http://www.w3.org/1999/xlink" baseProfile="tiny" height="20" version="1.1" viewBox="-289.299 410.39 20 20" width="20">
<path d="M-288.167,426.773c0.96-2.364,5.076-10.927,6.634-14.277c1.298-2.79,3.185-2.85,4.473,0.065  c1.477,3.34,6.057,13.118,6.694,14.68c0.718,1.748-0.032,3.148-1.913,3.148c-2.15,0-12.542,0-14.131,0  C-287.998,430.39-289.077,429.011-288.167,426.773z" fill="#0D192E"/>
<linearGradient gradientTransform="matrix(1 0 0 -1 0.0376 18.9941)" gradientUnits="userSpaceOnUse" id="XMLID_455_" x1="-279.3962" x2="-279.3962" y1="-410.9873" y2="-391.9233">
<stop offset="0" style="stop-color:#004A80"/>
<stop offset="0.145" style="stop-color:#003862"/>
<stop offset="0.4374" style="stop-color:#00172A"/>
<stop offset="0.5787" style="stop-color:#000A14"/>
<stop offset="1" style="stop-color:#000A14"/>
</linearGradient>
<path d="M-287.81,427.095c0.938-2.229,4.971-10.936,6.423-14.121c1.21-2.651,2.919-2.852,4.171,0.063  c1.353,3.146,5.848,12.772,6.369,14.286c0.522,1.512,0.07,2.658-1.682,2.658c-2.007,0-12.161,0-13.644,0  C-287.652,429.98-288.549,428.85-287.81,427.095z" fill="url(#XMLID_455_)"/>
<linearGradient gradientTransform="matrix(1 0 0 -1 0.0376 18.9941)" gradientUnits="userSpaceOnUse" id="XMLID_456_" x1="-280.261" x2="-280.261" y1="-406.21" y2="-391.9141">
<stop offset="0" style="stop-color:#0F408C"/>
<stop offset="0.3723" style="stop-color:#456EAC"/>
<stop offset="0.7954" style="stop-color:#7D9DCE"/>
<stop offset="1" style="stop-color:#93B0DB"/>
</linearGradient>
<path d="M-286.979,425.204c0,0,2.265-4.273,7.312-2.707c6.195,1.922,6.199-1.146,6.199-1.146  s-3.063-6.598-3.627-8.032c-1.205-3.062-3.06-3.366-4.455,0.013C-282.826,416.423-286.979,425.204-286.979,425.204z" fill="url(#XMLID_456_)"/>
<linearGradient gradientTransform="matrix(1 0 0 -1 0.0376 18.9941)" gradientUnits="userSpaceOnUse" id="XMLID_457_" x1="-279.4216" x2="-279.4216" y1="-410.1523" y2="-393.4561">
<stop offset="0" style="stop-color:#62AADE"/>
<stop offset="0.1529" style="stop-color:#529CD8"/>
<stop offset="0.7241" style="stop-color:#1A6DC2"/>
<stop offset="1" style="stop-color:#045ABA"/>
</linearGradient>
<path d="M-286.545,426.708c0.817-1.873,4.19-9.248,5.428-11.936c1.473-3.193,2.212-3.016,3.524,0.054  c1.139,2.661,4.834,10.837,5.383,12.072c0.674,1.513,0.484,2.248-1.422,2.248c-1.693,0-10.276,0-11.529,0  C-286.72,429.146-287.388,428.638-286.545,426.708z" fill="url(#XMLID_457_)"/>
<linearGradient gradientTransform="matrix(1 0 0 -1 0.0376 18.9941)" gradientUnits="userSpaceOnUse" id="XMLID_458_" x1="-279.5642" x2="-279.5642" y1="-404.1338" y2="-393.4565">
<stop offset="0" style="stop-color:#62AADE"/>
<stop offset="0.4583" style="stop-color:#B1D5EF"/>
<stop offset="0.8243" style="stop-color:#E9F3FA"/>
<stop offset="1" style="stop-color:#FFFFFF"/>
</linearGradient>
<path d="M-277.593,414.827c-1.313-3.069-2.052-3.248-3.524-0.055c-0.795,1.727-2.471,5.386-3.784,8.278  c1.193-0.763,2.921-1.272,5.234-0.556c3.229,1.002,4.773,0.646,5.516,0.08C-275.419,419.755-276.935,416.367-277.593,414.827z" fill="url(#XMLID_458_)"/>
</svg>
