<?xml version="1.0" encoding="UTF-8" standalone="no"?>
<!-- Generator: Adobe Illustrator 12.0.0, SVG Export Plug-In . SVG Version: 6.00 Build 51448)  -->
<svg
   xmlns:dc="http://purl.org/dc/elements/1.1/"
   xmlns:cc="http://web.resource.org/cc/"
   xmlns:rdf="http://www.w3.org/1999/02/22-rdf-syntax-ns#"
   xmlns:svg="http://www.w3.org/2000/svg"
   xmlns="http://www.w3.org/2000/svg"
   xmlns:sodipodi="http://sodipodi.sourceforge.net/DTD/sodipodi-0.dtd"
   xmlns:inkscape="http://www.inkscape.org/namespaces/inkscape"
   version="1.0"
   baseProfile="tiny"
   id="Layer_1"
   width="40"
   height="40"
   viewBox="0 0 20 16.268"
   xml:space="preserve"
   sodipodi:version="0.32"
   inkscape:version="0.45pre1"
   sodipodi:docname="route_dest.svg"
   inkscape:output_extension="org.inkscape.output.svg.inkscape"
   sodipodi:docbase="H:\Images"
   sodipodi:modified="true"><metadata
   id="metadata3644"><rdf:RDF><cc:Work
       rdf:about=""><dc:format>image/svg+xml</dc:format><dc:type
         rdf:resource="http://purl.org/dc/dcmitype/StillImage" /></cc:Work></rdf:RDF></metadata><defs
   id="defs3642" /><sodipodi:namedview
   inkscape:window-height="573"
   inkscape:window-width="912"
   inkscape:pageshadow="2"
   inkscape:pageopacity="0.0"
   guidetolerance="10.0"
   gridtolerance="10.0"
   objecttolerance="10.0"
   borderopacity="1.0"
   bordercolor="#666666"
   pagecolor="#ffffff"
   id="base"
   width="40px"
   height="40px"
   inkscape:zoom="13.310158"
   inkscape:cx="10"
   inkscape:cy="29.765913"
   inkscape:window-x="277"
   inkscape:window-y="123"
   inkscape:current-layer="Layer_1" />
<path
   d="M 19.919454,-0.78443024 C 19.919454,-0.78443024 19.919454,-0.78443024 19.919454,-0.78443024 C 19.917454,-0.78493024 19.915454,-0.78543024 19.913954,-0.78643024 C 19.904454,-0.79093024 19.895454,-0.79493024 19.884954,-0.79843024 C 19.852954,-0.80843024 19.823954,-0.81293024 19.798954,-0.81243024 C 19.783954,-0.81093024 18.330454,-0.65643024 17.787954,-0.80693024 C 17.563954,-0.86893024 17.286954,-0.97443024 16.994454,-1.0864302 C 16.162954,-1.4044302 15.127954,-1.7989302 14.144454,-1.6859302 C 13.533454,-1.6159302 13.206454,-1.5614302 13.035954,-1.5264302 C 13.034954,-1.6224302 13.001954,-1.7344302 12.858954,-1.7724302 C 12.625454,-1.8344302 12.545954,-1.7574302 12.465454,-1.4984302 C 12.362954,-1.1679302 10.152954,5.50807 10.032454,5.86407 C 9.9114545,6.21957 10.114454,6.30157 10.273454,6.33257 C 10.442454,6.36407 10.629954,6.32207 10.730954,6.02257 C 10.809954,5.78707 11.280454,4.34657 11.479454,3.7375698 C 11.522454,3.7530698 11.571454,3.7645698 11.634454,3.7645698 L 11.731954,3.7635698 C 13.011454,3.7480698 13.942954,3.8430698 14.501454,4.0450698 C 14.814454,4.15807 16.404454,4.72207 16.976454,4.72207 L 17.873454,4.74307 L 17.902954,4.74407 C 18.154954,4.74407 18.173954,4.74857 18.299454,4.39407 C 18.395954,4.1215698 19.743954,0.28356976 19.894954,-0.18943024 C 20.030954,-0.61843024 20.019454,-0.73393024 19.919454,-0.78443024 z "
   id="path3633" />
<path
   d="M 12.944454,-1.2334302 L 11.831954,2.2730698 C 11.831954,2.2730698 13.367454,0.32106976 15.073954,1.3665698 C 16.729454,2.3815698 17.545954,2.3520698 18.199454,2.0750698 C 19.005954,1.7335698 19.298954,0.84806976 19.471954,0.35606976 C 19.645454,-0.13543024 19.764454,-0.56793024 19.764454,-0.56793024 C 19.764454,-0.56793024 18.152954,-0.37543024 17.502454,-0.60643024 C 16.850954,-0.83693024 15.892454,-1.3539302 15.069454,-1.4189302 C 14.246454,-1.4829302 12.944454,-1.2334302 12.944454,-1.2334302 z "
   id="path3635"
   style="fill:#8c8c8c" />
<path
   d="M 19.753954,-0.55343024 C 19.697454,-0.57243024 19.697454,-0.57243024 19.697454,-0.57243024 C 19.697454,-0.57243024 18.746954,-0.44293024 18.084954,-0.49643024 C 18.085454,-0.49643024 18.086454,-0.49643024 18.086954,-0.49643024 C 18.122454,-0.48893024 17.930454,0.015569762 17.809954,0.44256976 C 17.691454,0.86456976 17.606454,1.2270698 17.606454,1.2270698 C 17.605454,1.2285698 17.605454,1.2305698 17.605454,1.2330698 C 17.683954,1.2325698 18.248954,1.2285698 18.523454,1.2285698 C 18.819454,1.2285698 19.138454,1.2670698 19.138454,1.2670698 L 19.162454,1.2670698 C 19.500954,0.28256976 19.776954,-0.54543024 19.753954,-0.55343024 z M 12.137454,3.5605698 C 12.147954,3.5605698 12.158954,3.5605698 12.169954,3.5605698 C 12.161954,3.5605698 12.154454,3.5605698 12.146954,3.5605698 C 12.143954,3.5605698 12.140954,3.5605698 12.137454,3.5605698 z M 14.627954,2.0960698 C 14.157454,1.9910698 13.754454,1.9805698 13.710454,1.9640698 L 13.154954,3.5975698 C 13.645454,3.6345698 14.163954,3.7065698 14.551454,3.8460698 C 14.639454,3.8775698 14.742454,3.9145698 14.853954,3.9530698 L 15.468954,2.3895698 L 15.440954,2.3895698 C 15.440954,2.3895698 15.038954,2.1880698 14.627954,2.0960698 z M 17.856454,2.8280698 C 17.379954,2.7785698 17.014954,2.8620698 17.014954,2.8620698 L 17.591454,1.2445698 C 17.586454,1.2455698 17.580954,1.2460698 17.572454,1.2460698 C 17.436954,1.2460698 16.130954,0.79156976 15.956954,0.69906976 C 15.956954,0.69906976 16.129454,0.021569762 16.194454,-0.17493024 C 16.333954,-0.59443024 16.473954,-1.0309302 16.474454,-1.0319302 C 15.983454,-1.2029302 15.419954,-1.3644302 14.875954,-1.4209302 L 14.334954,0.30506976 L 14.306954,0.30506976 C 14.306954,0.30506976 13.651454,0.23256976 13.059954,0.23256976 L 12.483454,0.23256976 L 11.948454,1.9150698 C 11.949954,1.9150698 12.425454,1.8430698 12.789954,1.8770698 C 13.417454,1.9360698 13.687454,1.9650698 13.687454,1.9650698 L 13.710454,1.9645698 C 13.685954,1.9550698 14.001454,1.1155698 14.001454,1.1155698 C 14.001454,1.1155698 14.237954,0.51706976 14.327454,0.31006976 C 14.348954,0.26156976 14.768454,0.33106976 14.966454,0.39356976 C 15.490954,0.55806976 15.955954,0.70206976 15.955954,0.70206976 L 15.468454,2.3895698 C 15.468454,2.3895698 15.861954,2.6195698 16.246954,2.7190698 C 16.608454,2.8135698 17.010954,2.8705698 17.010954,2.8705698 L 16.587954,4.45857 C 16.719454,4.48357 16.832454,4.49807 16.916954,4.49807 C 17.377454,4.49807 17.924454,4.52457 17.997454,4.52457 C 18.011454,4.52457 18.280954,3.7815698 18.605454,2.8645698 C 18.550954,2.8655698 18.282454,2.8730698 17.856454,2.8280698 z "
   id="path3637"
   style="fill:#b2b2b2" />
<path
   d="M 19.707454,-0.53143024 C 19.694954,-0.53593024 19.685454,-0.53893024 19.677454,-0.54143024 C 19.592454,-0.53193024 19.369454,-0.50943024 19.086954,-0.49193024 C 18.766954,-0.46693024 18.367454,-0.44793024 18.037954,-0.47443024 C 18.038454,-0.47443024 18.039454,-0.47393024 18.039954,-0.47393024 C 18.075454,-0.46693024 17.883454,0.037569762 17.762954,0.46506976 C 17.644454,0.88656976 17.559454,1.2490698 17.559454,1.2490698 C 17.558454,1.2505698 17.558454,1.2525698 17.558454,1.2550698 C 17.637454,1.2545698 18.201954,1.2505698 18.476454,1.2505698 C 18.695454,1.2505698 18.927454,1.2715698 19.032954,1.2820698 C 19.224954,0.95956976 19.339454,0.62056976 19.424954,0.37706976 C 19.425954,0.37556976 19.426454,0.37356976 19.426954,0.37206976 C 19.501454,0.15006976 19.564954,-0.042930238 19.612454,-0.19243024 C 19.652454,-0.32143024 19.682454,-0.42343024 19.699954,-0.48393024 C 19.707454,-0.51293024 19.710954,-0.53093024 19.707454,-0.53143024 z M 15.910454,0.72056976 C 15.910454,0.72056976 16.082954,0.043069762 16.147954,-0.15343024 C 16.281954,-0.55493024 16.413954,-0.96743024 16.425454,-1.0034302 C 16.392954,-1.0164302 16.360454,-1.0304302 16.326954,-1.0434302 C 15.859954,-1.2014302 15.337454,-1.3469302 14.829954,-1.3994302 L 14.288454,0.32656976 L 14.260454,0.32656976 C 14.260454,0.32656976 13.604954,0.25406976 13.013454,0.25406976 L 12.436954,0.25406976 L 11.902454,1.9360698 C 11.902954,1.9360698 12.008954,1.9205698 12.157454,1.9070698 C 12.545954,1.5525698 13.205454,1.0835698 13.977454,1.0815698 C 14.038454,0.92806976 14.207954,0.50006976 14.280954,0.33156976 C 14.301954,0.28306976 14.721954,0.35256976 14.919954,0.41506976 C 15.444954,0.58006976 15.909454,0.72356976 15.909454,0.72356976 L 15.620454,1.7260698 C 16.277954,2.0705698 16.780454,2.2215698 17.192954,2.2540698 L 17.545454,1.2660698 C 17.540454,1.2670698 17.534954,1.2680698 17.526454,1.2680698 C 17.390954,1.2680698 16.084954,0.81356976 15.910454,0.72056976 z "
   id="path3639"
   style="fill:#ffffff" />
</svg>