<?xml version="1.0" encoding="UTF-8" standalone="no"?>
<!DOCTYPE svg PUBLIC "-//W3C//DTD SVG 1.1 Tiny//EN" "http://www.w3.org/Graphics/SVG/1.1/DTD/svg11-tiny.dtd">
<svg xmlns="http://www.w3.org/2000/svg" xmlns:xlink="http://www.w3.org/1999/xlink" baseProfile="tiny" height="20" version="1.1" viewBox="-288.5 408.524 20 20" width="20">
<path d="M-268.652,412.406L-268.652,412.406c-0.005-0.001-0.009-0.002-0.012-0.004c-0.02-0.009-0.037-0.017-0.059-0.024  c-0.063-0.02-0.121-0.028-0.172-0.027c-0.029,0.003-2.937,0.312-4.021,0.011c-0.447-0.124-1.002-0.335-1.587-0.559  c-1.663-0.637-3.733-1.426-5.7-1.199c-1.222,0.14-1.876,0.249-2.217,0.319c-0.002-0.192-0.068-0.416-0.354-0.492  c-0.467-0.124-0.626,0.029-0.787,0.548c-0.205,0.661-4.625,14.013-4.866,14.725c-0.242,0.711,0.164,0.875,0.482,0.938  c0.338,0.063,0.713-0.021,0.915-0.62c0.158-0.471,1.099-3.353,1.497-4.57c0.086,0.031,0.184,0.054,0.31,0.054l0.195-0.002  c2.559-0.03,4.422,0.159,5.539,0.563c0.626,0.226,3.805,1.354,4.95,1.354l1.794,0.042l0.06,0.002c0.504,0,0.541,0.01,0.793-0.699  c0.192-0.545,2.889-8.222,3.19-9.167C-268.429,412.738-268.453,412.507-268.652,412.406z"/>
<path d="M-282.603,411.508l-2.225,7.013c0,0,3.071-3.904,6.484-1.813c3.311,2.03,4.944,1.972,6.251,1.417  c1.612-0.683,2.198-2.454,2.545-3.438s0.585-1.848,0.585-1.848s-3.223,0.385-4.523-0.077c-1.304-0.461-3.221-1.495-4.867-1.625  C-279.999,411.009-282.603,411.508-282.603,411.508z" fill="#8C8C8C"/>
<path d="M-268.984,412.867c-0.113-0.038-0.113-0.038-0.113-0.038s-1.9,0.26-3.225,0.152c0.002,0,0.004,0,0.004,0  c0.071,0.015-0.313,1.024-0.554,1.878c-0.237,0.844-0.407,1.569-0.407,1.569c-0.002,0.003-0.002,0.007-0.002,0.012  c0.157-0.001,1.287-0.009,1.836-0.009c0.592,0,1.23,0.077,1.23,0.077h0.048C-269.49,414.539-268.937,412.884-268.984,412.867z   M-284.216,421.096c0.021,0,0.043,0,0.065,0c-0.016,0-0.031,0-0.046,0C-284.204,421.096-284.209,421.096-284.216,421.096z   M-279.235,418.166c-0.941-0.21-1.747-0.23-1.835-0.264l-1.111,3.267c0.981,0.074,2.018,0.219,2.793,0.497  c0.176,0.063,0.382,0.138,0.605,0.215l1.229-3.128h-0.055C-277.609,418.753-278.414,418.351-279.235,418.166z M-272.779,419.631  c-0.953-0.1-1.683,0.067-1.683,0.067l1.153-3.234c-0.01,0.002-0.021,0.003-0.039,0.003c-0.271,0-2.883-0.909-3.23-1.095  c0,0,0.346-1.354,0.475-1.748c0.279-0.839,0.56-1.712,0.561-1.714c-0.982-0.342-2.109-0.665-3.197-0.777l-1.082,3.451h-0.056  c0,0-1.311-0.145-2.494-0.145h-1.153l-1.07,3.365c0.003,0,0.954-0.145,1.683-0.076c1.255,0.118,1.795,0.176,1.795,0.176l0.046-0.001  c-0.049-0.019,0.582-1.698,0.582-1.698s0.473-1.196,0.652-1.61c0.043-0.098,0.882,0.042,1.278,0.167  c1.049,0.329,1.979,0.616,1.979,0.616l-0.975,3.375c0,0,0.787,0.461,1.557,0.659c0.723,0.189,1.527,0.304,1.527,0.304l-0.846,3.176  c0.264,0.05,0.489,0.079,0.658,0.079c0.922,0,2.016,0.053,2.161,0.053c0.028,0,0.567-1.486,1.216-3.32  C-271.39,419.705-271.926,419.721-272.779,419.631z" fill="#B2B2B2"/>
<path d="M-269.077,412.911c-0.024-0.009-0.044-0.015-0.06-0.02c-0.17,0.019-0.616,0.063-1.182,0.099  c-0.64,0.05-1.438,0.088-2.098,0.035c0.001,0,0.003,0.001,0.004,0.001c0.071,0.014-0.313,1.023-0.554,1.878  c-0.237,0.843-0.407,1.568-0.407,1.568c-0.002,0.003-0.002,0.007-0.002,0.012c0.158-0.001,1.287-0.009,1.836-0.009  c0.438,0,0.902,0.042,1.113,0.063c0.384-0.645,0.613-1.322,0.783-1.81c0.002-0.003,0.004-0.007,0.004-0.01  c0.15-0.444,0.277-0.83,0.371-1.129c0.08-0.259,0.141-0.463,0.176-0.583C-269.077,412.948-269.07,412.912-269.077,412.911z   M-276.67,415.415c0,0,0.345-1.354,0.476-1.748c0.268-0.803,0.531-1.628,0.555-1.699c-0.065-0.026-0.131-0.055-0.197-0.08  c-0.934-0.316-1.979-0.607-2.994-0.712l-1.083,3.451h-0.056c0,0-1.311-0.145-2.494-0.145h-1.153l-1.069,3.364  c0.001,0,0.213-0.031,0.51-0.059c0.777-0.709,2.096-1.646,3.64-1.65c0.122-0.308,0.461-1.163,0.607-1.5  c0.042-0.098,0.882,0.042,1.278,0.167c1.05,0.33,1.979,0.617,1.979,0.617l-0.578,2.005c1.315,0.688,2.319,0.99,3.146,1.056  l0.705-1.976c-0.011,0.002-0.021,0.004-0.039,0.004C-273.709,416.511-276.322,415.602-276.67,415.415z" fill="#FFFFFF"/>
</svg>
