<?xml version="1.0" encoding="UTF-8" standalone="no"?>
<!DOCTYPE svg PUBLIC "-//W3C//DTD SVG 1.1 Tiny//EN" "http://www.w3.org/Graphics/SVG/1.1/DTD/svg11-tiny.dtd">
<svg xmlns="http://www.w3.org/2000/svg" xmlns:xlink="http://www.w3.org/1999/xlink" baseProfile="tiny" height="20" version="1.1" viewBox="-288.528 410.362 20 20" width="20">
<path d="M-271.548,410.389h-13.959c-1.653,0-2.993,1.339-2.993,2.991v9.974v6.98l5.729-3.989h11.224c1.654,0,2.993-1.34,2.993-2.991  v-9.974C-268.555,411.728-269.894,410.389-271.548,410.389z"/>
<linearGradient gradientTransform="matrix(1 0 0 -1 0.0376 18.939)" gradientUnits="userSpaceOnUse" id="XMLID_443_" x1="-278.5642" x2="-278.5642" y1="-392.4475" y2="-409.5198">
<stop offset="0" style="stop-color:#8C8C8C"/>
<stop offset="0.1634" style="stop-color:#909090"/>
<stop offset="0.3322" style="stop-color:#9D9D9D"/>
<stop offset="0.5035" style="stop-color:#B1B1B1"/>
<stop offset="0.6755" style="stop-color:#CECECE"/>
<stop offset="0.8146" style="stop-color:#EBEBEB"/>
<stop offset="1" style="stop-color:#EBEBEB"/>
</linearGradient>
<path d="M-271.548,411.386h-13.959c-1.102,0-1.995,0.894-1.995,1.994v9.972v5.106l4.277-3.111h7.118h4.56  c1.104,0,1.996-0.893,1.996-1.993v-9.974C-269.552,412.28-270.445,411.386-271.548,411.386z" fill="url(#XMLID_443_)"/>
<linearGradient gradientTransform="matrix(1 0 0 -1 0.0376 18.939)" gradientUnits="userSpaceOnUse" id="XMLID_444_" x1="-278.5354" x2="-278.5354" y1="-396.1399" y2="-392.4885">
<stop offset="0" style="stop-color:#8F8F8F"/>
<stop offset="1" style="stop-color:#D4D4D4"/>
</linearGradient>
<path d="M-269.538,413.253c0,1.008-0.763,1.826-1.705,1.826h-14.509c-0.94,0-1.705-0.817-1.705-1.826l0,0  c0-1.007,0.765-1.825,1.705-1.825h14.509C-270.301,411.427-269.538,412.245-269.538,413.253L-269.538,413.253z" fill="url(#XMLID_444_)"/>
<circle cx="-278.5" cy="418.335" fill="#FF0000" r="2"/>
<path d="M-278.5,412.335c-3.313,0-6,2.687-6,6c0,3.313,2.688,6,6,6c3.314,0,6-2.688,6-6  C-272.5,415.021-275.186,412.335-278.5,412.335z M-278.5,423.335c-2.761,0-5-2.239-5-5s2.239-5,5-5c2.763,0,5,2.239,5,5  S-275.738,423.335-278.5,423.335z" fill="#FF0000"/>
</svg>
