<?xml version="1.0" encoding="UTF-8"?>
<!DOCTYPE svg PUBLIC "-//W3C//DTD SVG 1.1 Tiny//EN" "http://www.w3.org/Graphics/SVG/1.1/DTD/svg11-tiny.dtd">
<svg baseProfile="tiny" version="1.1" xmlns="http://www.w3.org/2000/svg" xmlns:xlink="http://www.w3.org/1999/xlink" width="19.89" height="19.895" viewBox="0 0 19.89 19.895">
<g>
<rect x="1.63" y="0.545" fill="#CC0000" width="1" height="12.115"/>
<path fill="#CC0000" d="M6.63,2.5c0,0.275-0.225,0.5-0.5,0.5h-4c-0.275,0-0.5-0.225-0.5-0.5v-2c0-0.275,0.225-0.5,0.5-0.5h4   c0.275,0,0.5,0.225,0.5,0.5V2.5z"/>
</g>
<g>
<path fill="#000080" d="M19.55,5.252c-0.223-0.574-0.545-1.098-0.945-1.547c-0.398-0.447-0.875-0.817-1.398-1.086   c-0.525-0.266-1.102-0.43-1.703-0.465C15.37,2.147,15.239,2.146,15.11,2.15c-0.127,0.005-0.256,0.016-0.379,0.033   c-0.125,0.017-0.25,0.04-0.369,0.068s-0.238,0.062-0.354,0.102C10.366,3.585,6.723,4.818,3.08,6.05   c0.132-0.045,0.268-0.083,0.406-0.115c0.085-0.02,0.174-0.032,0.262-0.046C3.443,5.939,3.147,6.017,2.87,6.128   C2.286,6.36,1.765,6.72,1.334,7.178c-0.43,0.456-0.773,1.009-1.007,1.633C0.094,9.433,0.06,9.866,0.06,9.866   c-0.043,0.548-0.069,1.447-0.056,1.997l0.138,5.954c0.013,0.55,0.47,1.054,1.016,1.119l7.863,0.945   c0.546,0.065,1.377-0.114,1.847-0.4l8.115-4.934c0.471-0.286,0.857-0.97,0.863-1.52l0.045-4.936c0.004-0.55-0.035-1.448-0.09-1.995   C19.8,6.097,19.772,5.826,19.55,5.252z M3.824,5.875c0.028-0.004,0.055-0.011,0.083-0.014c0.143-0.019,0.289-0.03,0.436-0.033   c0.148-0.004,0.297,0,0.45,0.01C4.461,5.813,4.137,5.83,3.824,5.875z"/>
</g>
<g>
<path fill="#4060FF" d="M4.081,6.091c3.312-1.12,6.623-2.241,9.934-3.361c0.105-0.036,0.213-0.066,0.322-0.092   c0.109-0.026,0.223-0.047,0.334-0.062c0.115-0.016,0.23-0.026,0.346-0.03c0.119-0.004,0.238-0.003,0.357,0.003L5.639,5.897   C5.5,5.888,5.364,5.885,5.23,5.888c-0.135,0.003-0.267,0.014-0.397,0.03C4.703,5.935,4.575,5.957,4.45,5.986   C4.325,6.015,4.201,6.05,4.081,6.091z"/>
<polygon fill="#4060FF" points="10.331,11.299 19.368,7.038 19.313,13.344 10.382,18.772  "/>
<path fill="url(#XMLID_2_)" d="M5.639,5.897l9.735-3.349c0.547,0.032,1.07,0.18,1.549,0.422c0.477,0.244,0.908,0.581,1.27,0.987   c0.363,0.408,0.658,0.885,0.861,1.407s0.314,1.087,0.314,1.672l-9.037,4.261c-0.012-0.695-0.151-1.369-0.396-1.993   C9.69,8.682,9.343,8.109,8.915,7.619C8.489,7.128,7.985,6.72,7.429,6.424C6.875,6.128,6.27,5.943,5.639,5.897z"/>
<defs>
<linearGradient id="XMLID_2_" gradientUnits="userSpaceOnUse" x1="14.1611" y1="9.5122" x2="11.2544" y2="3.2787">
<stop offset="0" style="stop-color:#4060FF"/>
<stop offset="0.1" style="stop-color:#4060FF"/>
<stop offset="0.5" style="stop-color:#FFFFFF"/>
<stop offset="0.9" style="stop-color:#4060FF"/>
<stop offset="1" style="stop-color:#4060FF"/>
</linearGradient>
</defs>
</g>
<g>
<g>
<path fill="#4060FF" d="M9.115,12.045c-0.011-0.625-0.136-1.232-0.356-1.794C8.539,9.689,8.225,9.174,7.841,8.732    C7.457,8.291,7.003,7.924,6.503,7.657C6.004,7.391,5.46,7.225,4.892,7.184C4.329,7.142,3.797,7.229,3.317,7.42    C2.84,7.611,2.415,7.905,2.061,8.28C1.709,8.652,1.427,9.105,1.237,9.616c-0.19,0.509-0.292,1.075-0.283,1.679L1.103,17.8    l8.059,0.971L9.115,12.045z M8.249,12.402c0,0.66-0.538,1.155-1.196,1.101l-4.225-0.35c-0.658-0.055-1.196-0.64-1.196-1.299V11.71    c0-0.66,0.538-1.156,1.196-1.102l4.225,0.349c0.658,0.055,1.196,0.64,1.196,1.299V12.402z"/>
</g>
</g>
</svg>
