<?xml version="1.0" encoding="UTF-8" standalone="no"?>
<svg
   xmlns:dc="http://purl.org/dc/elements/1.1/"
   xmlns:cc="http://web.resource.org/cc/"
   xmlns:rdf="http://www.w3.org/1999/02/22-rdf-syntax-ns#"
   xmlns:svg="http://www.w3.org/2000/svg"
   xmlns="http://www.w3.org/2000/svg"
   xmlns:sodipodi="http://sodipodi.sourceforge.net/DTD/sodipodi-0.dtd"
   xmlns:inkscape="http://www.inkscape.org/namespaces/inkscape"
   baseProfile="tiny"
   version="1.1"
   width="20"
   height="20"
   viewBox="0 0 20 20"
   id="svg2259"
   sodipodi:version="0.32"
   inkscape:version="0.45pre1"
   sodipodi:docname="subway_station.svg"
   inkscape:output_extension="org.inkscape.output.svg.inkscape"
   sodipodi:docbase="H:\tmp"
   sodipodi:modified="true">
  <metadata
     id="metadata2298">
    <rdf:RDF>
      <cc:Work
         rdf:about="">
        <dc:format>image/svg+xml</dc:format>
        <dc:type
           rdf:resource="http://purl.org/dc/dcmitype/StillImage" />
      </cc:Work>
    </rdf:RDF>
  </metadata>
  <defs
     id="defs2296" />
  <sodipodi:namedview
     inkscape:window-height="573"
     inkscape:window-width="761"
     inkscape:pageshadow="2"
     inkscape:pageopacity="0.0"
     guidetolerance="10.0"
     gridtolerance="10.0"
     objecttolerance="10.0"
     borderopacity="1.0"
     bordercolor="#666666"
     pagecolor="#ffffff"
     id="base"
     inkscape:zoom="18.85"
     inkscape:cx="10"
     inkscape:cy="10"
     inkscape:window-x="35"
     inkscape:window-y="309"
     inkscape:current-layer="svg2259" />
  <path
     d="M 18.486237,0.013262599 L 11.486737,0.013262599 C 10.658237,0.013262599 9.9867374,0.6857083 9.9867374,1.5134881 L 9.9867374,10.013263 L 12.858237,8.0134636 L 18.486237,8.0134636 C 19.314737,8.0134636 19.986737,7.3415186 19.986737,6.5137386 L 19.986737,1.5134881 C 19.986737,0.6847062 19.314737,0.013262599 18.486237,0.013262599 z "
     id="path2261"
     style="fill:#002b7a" />
  <linearGradient
     id="XMLID_3_"
     gradientUnits="userSpaceOnUse"
     x1="10.0005"
     y1="0.9995"
     x2="10.0005"
     y2="18.0801"
     gradientTransform="matrix(0.5,0,0,0.5010773,9.9867374,1.3262599e-2)">
    <stop
       offset="0"
       style="stop-color:#292BFF"
       id="stop2264" />
    <stop
       offset="0.1349"
       style="stop-color:#2B2FFF"
       id="stop2266" />
    <stop
       offset="0.2743"
       style="stop-color:#303CFF"
       id="stop2268" />
    <stop
       offset="0.4159"
       style="stop-color:#3850FF"
       id="stop2270" />
    <stop
       offset="0.5588"
       style="stop-color:#446DFF"
       id="stop2272" />
    <stop
       offset="0.7015"
       style="stop-color:#5392FF"
       id="stop2274" />
    <stop
       offset="0.8146"
       style="stop-color:#61B5FF"
       id="stop2276" />
    <stop
       offset="1"
       style="stop-color:#61B5FF"
       id="stop2278" />
  </linearGradient>
  <path
     d="M 18.486237,0.5143399 L 11.486737,0.5143399 C 10.935237,0.5143399 10.486737,0.9613009 10.486737,1.5134881 L 10.486737,6.5137386 L 10.486737,9.0727406 L 12.631737,7.5138886 L 16.200237,7.5138886 L 18.486237,7.5138886 C 19.039237,7.5138886 19.487237,7.0659256 19.487237,6.5137386 L 19.487237,1.5134881 C 19.487237,0.9613009 19.039237,0.5143399 18.486237,0.5143399 z "
     id="path2280"
     style="fill:url(#XMLID_3_)" />
  <linearGradient
     id="XMLID_4_"
     gradientUnits="userSpaceOnUse"
     x1="10.0288"
     y1="4.6914"
     x2="10.0288"
     y2="1.04"
     gradientTransform="matrix(0.5,0,0,0.5010773,9.9867374,1.3262599e-2)">
    <stop
       offset="0"
       style="stop-color:#292BFF"
       id="stop2283" />
    <stop
       offset="1"
       style="stop-color:#BDE7FF"
       id="stop2285" />
  </linearGradient>
  <path
     d="M 19.493737,1.4493502 C 19.493737,1.9549372 19.111237,2.3643173 18.639237,2.3643173 L 11.364237,2.3643173 C 10.892237,2.3643173 10.508737,1.9549372 10.508737,1.4493502 L 10.508737,1.4493502 C 10.508737,0.9432621 10.892237,0.534383 11.364237,0.534383 L 18.639237,0.534383 C 19.111237,0.534383 19.493737,0.9432621 19.493737,1.4493502 L 19.493737,1.4493502 z "
     id="path2287"
     style="fill:url(#XMLID_4_)" />
  <path
     id="path2289"
     style="fill:#ffffff" />
  <path
     id="path2291"
     style="fill:#ffffff" />
  <path
     d="M 17.948237,4.0559544 C 17.948237,3.1996132 17.646737,2.4685415 17.043237,1.8637412 C 16.441237,1.2574376 15.712237,0.9547869 14.857737,0.9547869 C 14.003237,0.9547869 13.273737,1.2574376 12.670237,1.8637412 C 12.065237,2.4685415 11.762737,3.1996132 11.762737,4.0559544 C 11.762737,4.9122955 12.064737,5.6423656 12.669737,6.2466646 C 13.273737,6.8509636 14.003237,7.1536146 14.857237,7.1536146 C 15.711237,7.1536146 16.440737,6.8509636 17.042737,6.2466646 C 17.646737,5.6423656 17.948237,4.9122955 17.948237,4.0559544 z M 17.216237,5.5877476 C 17.216237,5.5877476 16.501237,6.8885446 14.853237,6.8885446 C 13.205237,6.8885446 12.476237,5.5877476 12.476237,5.5877476 L 13.646737,5.5877476 L 13.646737,4.6547418 L 13.141737,4.6547418 L 13.141737,2.4735522 C 13.141737,2.2480674 13.281737,2.0556538 13.563737,1.895309 C 13.882237,1.7124158 14.314737,1.6207186 14.860237,1.6207186 C 15.401737,1.6207186 15.832737,1.7124158 16.150737,1.895309 C 16.432237,2.0551527 16.572737,2.2480674 16.572737,2.4735522 L 16.572737,4.6547418 L 16.066737,4.6547418 L 16.066737,5.5877476 L 17.216237,5.5877476 z M 14.251737,4.0173714 C 14.251737,3.7733468 14.126237,3.6520861 13.876237,3.6520861 C 13.627237,3.6520861 13.501737,3.7738479 13.501737,4.0173714 C 13.501737,4.2679101 13.627237,4.3916762 13.876237,4.3916762 C 14.126237,4.3916762 14.251737,4.2679101 14.251737,4.0173714 z M 14.777237,3.1495055 L 14.777237,2.2330351 L 13.507737,2.2330351 L 13.507737,3.1495055 L 14.777237,3.1495055 L 14.777237,3.1495055 z M 15.667737,5.5877476 L 15.667737,4.6482278 L 14.055237,4.6482278 L 14.055237,5.5772246 L 15.667737,5.5877476 z M 16.215237,3.1495055 L 16.215237,2.2330351 L 14.951737,2.2330351 L 14.951737,3.1495055 L 16.215237,3.1495055 L 16.215237,3.1495055 z M 16.221237,4.0113585 C 16.221237,3.7638263 16.095237,3.6400602 15.842237,3.6400602 C 15.595237,3.6400602 15.471237,3.7638263 15.471237,4.0113585 C 15.471237,4.2659058 15.595237,4.3916762 15.842237,4.3916762 C 16.095237,4.3916762 16.221237,4.2659058 16.221237,4.0113585 z "
     id="path2293"
     style="fill:#ffffff" />
</svg>
