<?xml version="1.0" encoding="UTF-8" standalone="no"?>
<!DOCTYPE svg PUBLIC "-//W3C//DTD SVG 1.1 Tiny//EN" "http://www.w3.org/Graphics/SVG/1.1/DTD/svg11-tiny.dtd">
<svg xmlns="http://www.w3.org/2000/svg" baseProfile="tiny" height="20px" version="1.0" viewBox="0 0 193 193" width="20px">
<g style="fill:none;stroke:#161413;stroke-width:0.34141499;stroke-linecap:butt;stroke-linejoin:miter;stroke-dasharray:none" transform="matrix(1.0319798,0,0,1.0319798,6.4616238,43.905859)">
<path d="M 87.8818,105.444 C 87.8818,105.444 0,52.7236 0,52.7236 C 0,52.7236 87.874,0 87.874,0 C 87.874,0 175.748,52.7236 175.748,52.7236 C 175.748,52.7236 87.8818,105.444 87.8818,105.444 z "/>
</g>
<g style="fill:#e52935;fill-rule:evenodd;stroke:none;stroke-width:1;stroke-linecap:butt;stroke-linejoin:miter;stroke-dasharray:none" transform="matrix(1.0319798,0,0,1.0319798,10.780036,46.495922)">
<path d="M 83.6894,0 C 83.6894,0 167.379,50.2138 167.379,50.2138 C 167.379,50.2138 83.6894,100.428 83.6894,100.428 C 83.6894,100.428 0,50.2138 0,50.2138 C 0,50.2138 83.6894,0 83.6894,0 z "/>
</g>
<g style="fill:#ffffff;fill-rule:evenodd;stroke:none;stroke-width:1;stroke-linecap:butt;stroke-linejoin:miter;stroke-dasharray:none" transform="matrix(1.0319798,0,0,1.0319798,45.326178,67.218076)">
<path d="M 50.2226,0 C 50.2226,0 100.428,30.1338 100.428,30.1338 C 100.428,30.1338 50.2226,60.2678 50.2226,60.2678 C 50.2226,60.2678 0,30.1338 0,30.1338 C 0,30.1338 50.2226,0 50.2226,0 z "/>
</g>
<g style="fill:#0058a1;fill-rule:evenodd;stroke:none;stroke-width:1;stroke-linecap:butt;stroke-linejoin:miter;stroke-dasharray:none" transform="matrix(1.0319798,0,0,1.0319798,56.121615,82.122341)">
<path d="M 0,0 C 0,0 79.506,0 79.506,0 C 79.506,0 79.506,31.3834 79.506,31.3834 C 79.506,31.3834 0,31.3834 0,31.3834 C 0,31.3834 0,0 0,0 z "/>
</g>
<g style="fill:#ffffff;fill-rule:evenodd;stroke:none;stroke-width:1;stroke-linecap:butt;stroke-linejoin:miter;stroke-dasharray:none" transform="matrix(1.0319798,0,0,1.0319798,118.22203,93.303841)">
<path d="M 0,6.7998 C 0,10.8844 2.615,13.5744 6.65,13.5744 C 10.71,13.5744 13.325,10.8844 13.325,6.7998 C 13.325,2.6894 10.71,0 6.65,0 C 2.615,0 0,2.6894 0,6.7998 z M 3.536,6.7998 C 3.536,4.7324 4.259,2.665 6.65,2.665 C 9.066,2.665 9.788,4.7324 9.788,6.7998 C 9.788,8.8414 9.066,10.9094 6.65,10.9094 C 4.259,10.9094 3.536,8.8414 3.536,6.7998 z "/>
</g>
<g style="fill:#ffffff;fill-rule:evenodd;stroke:none;stroke-width:1;stroke-linecap:butt;stroke-linejoin:miter;stroke-dasharray:none" transform="matrix(1.0319798,0,0,1.0319798,109.20356,93.303841)">
<path d="M 0,13.2254 C 0,13.2254 3.537,13.2254 3.537,13.2254 C 3.537,13.2254 3.537,7.4228 3.537,7.4228 C 3.537,5.1562 4.433,3.2881 7.024,3.2881 C 7.447,3.2881 7.97,3.3379 8.294,3.4121 C 8.294,3.4121 8.294,0.125 8.294,0.125 C 8.07,0.0498 7.771,0 7.522,0 C 5.803,0 4.06,1.1211 3.413,2.7402 C 3.413,2.7402 3.362,0.3486 3.362,0.3486 C 3.362,0.3486 0,0.3486 0,0.3486 C 0,0.3486 0,13.2254 0,13.2254 z "/>
</g>
<g style="fill:#ffffff;fill-rule:evenodd;stroke:none;stroke-width:1;stroke-linecap:butt;stroke-linejoin:miter;stroke-dasharray:none" transform="matrix(1.0319798,0,0,1.0319798,98.376337,89.679838)">
<path d="M 5.6787,0 C 5.6787,0 2.1416,0 2.1416,0 C 2.1416,0 2.1416,3.8603 2.1416,3.8603 C 2.1416,3.8603 0,3.8603 0,3.8603 C 0,3.8603 0,6.2265 0,6.2265 C 0,6.2265 2.1416,6.2265 2.1416,6.2265 C 2.1416,6.2265 2.1416,13.8231 2.1416,13.8231 C 2.1416,16.3891 4.0337,16.8871 6.2007,16.8871 C 6.8987,16.8871 7.6707,16.8621 8.2687,16.7631 C 8.2687,16.7631 8.2687,13.9971 8.2687,13.9971 C 7.8957,14.0721 7.5457,14.0981 7.1727,14.0981 C 5.9777,14.0981 5.6787,13.7981 5.6787,12.6021 C 5.6787,12.6021 5.6787,6.2265 5.6787,6.2265 C 5.6787,6.2265 8.2687,6.2265 8.2687,6.2265 C 8.2687,6.2265 8.2687,3.8603 8.2687,3.8603 C 8.2687,3.8603 5.6787,3.8603 5.6787,3.8603 C 5.6787,3.8603 5.6787,0 5.6787,0 z "/>
</g>
<g style="fill:#ffffff;fill-rule:evenodd;stroke:none;stroke-width:1;stroke-linecap:butt;stroke-linejoin:miter;stroke-dasharray:none" transform="matrix(1.0319798,0,0,1.0319798,84.200753,93.303841)">
<path d="M 12.8271,7.6465 C 13.0762,3.6865 10.959,0 6.5752,0 C 2.665,0 0,2.9394 0,6.7998 C 0,10.7854 2.5156,13.5744 6.5752,13.5744 C 9.4892,13.5744 11.6064,12.2794 12.6025,9.2414 C 12.6025,9.2414 9.4892,9.2414 9.4892,9.2414 C 9.2656,10.0384 8.1201,10.9094 6.7002,10.9094 C 4.7324,10.9094 3.6367,9.8884 3.5361,7.6465 C 3.5361,7.6465 12.8271,7.6465 12.8271,7.6465 z M 3.5361,5.4053 C 3.5869,4.4082 4.2344,2.665 6.4756,2.665 C 8.1943,2.665 8.9668,3.6113 9.29,5.4053 C 9.29,5.4053 3.5361,5.4053 3.5361,5.4053 z "/>
</g>
<g style="fill:#ffffff;fill-rule:evenodd;stroke:none;stroke-width:1;stroke-linecap:butt;stroke-linejoin:miter;stroke-dasharray:none" transform="matrix(1.0319798,0,0,1.0319798,62.599662,88.600491)">
<path d="M 0,17.783 C 0,17.783 3.6612,17.783 3.6612,17.783 C 3.6612,17.783 3.6612,5.3046 3.6612,5.3046 C 3.6612,5.3046 8.0694,17.783 8.0694,17.783 C 8.0694,17.783 11.084,17.783 11.084,17.783 C 11.084,17.783 15.4424,5.1806 15.4424,5.1806 C 15.4424,5.1806 15.4922,17.783 15.4922,17.783 C 15.4922,17.783 19.1534,17.783 19.1534,17.783 C 19.1534,17.783 19.1534,0 19.1534,0 C 19.1534,0 13.6495,0 13.6495,0 C 13.6495,0 9.7139,12.2285 9.7139,12.2285 C 9.7139,12.2285 5.504,0 5.504,0 C 5.504,0 0,0 0,0 C 0,0 0,17.783 0,17.783 z "/>
</g>
</svg>
