<?xml version="1.0" encoding="UTF-8" standalone="no"?>
<!DOCTYPE svg PUBLIC "-//W3C//DTD SVG 1.1 Tiny//EN" "http://www.w3.org/Graphics/SVG/1.1/DTD/svg11-tiny.dtd">
<svg xmlns="http://www.w3.org/2000/svg" xmlns:xlink="http://www.w3.org/1999/xlink" baseProfile="tiny" height="20px" viewBox="0 0 194 194" width="20px">
<g style="fill:#ffffff; fill-rule:evenodd; stroke:none; stroke-width:1; stroke-linecap:butt; stroke-linejoin:miter; stroke-dasharray:none;" transform="translate(0.259766, 0.676758)">
<path d="M0 0 C0 0 192.756 0 192.756 0 C192.756 0 192.756 192.756 192.756 192.756 C192.756 192.756 0 192.756 0 192.756 C0 192.756 0 0 0 0 Z"/>
</g>
<g style="fill:#161413; fill-rule:evenodd; stroke:none; stroke-width:1; stroke-linecap:butt; stroke-linejoin:miter; stroke-dasharray:none;" transform="translate(3.09473, 3.5166)">
<path d="M0 0 C0 0 187.086 0 187.086 0 C187.086 0 187.086 187.077 187.086 187.077 C187.086 187.077 0 187.077 0 187.077 C0 187.077 0 0 0 0 Z"/>
</g>
<g style="fill:#ffffff; fill-rule:evenodd; stroke:none; stroke-width:1; stroke-linecap:butt; stroke-linejoin:miter; stroke-dasharray:none;" transform="translate(31.8408, 19.8682)">
<path d="M101.427 0 C101.427 0 101.427 91.2878 101.427 91.2878 C101.427 111.481 84.9902 127.908 64.7871 127.908 C44.5947 127.908 28.167 111.481 28.167 91.2878 C28.167 91.2878 28.167 0 28.167 0 C28.167 0 0 0 0 0 C0 0 0 91.2878 0 91.2878 C0 127.012 29.0635 156.075 64.7871 156.075 C100.521 156.075 129.594 127.012 129.594 91.2878 C129.594 91.2878 129.594 0 129.594 0 C129.594 0 101.427 0 101.427 0 Z"/>
</g>
</svg>
