<?xml version="1.0" encoding="UTF-8" standalone="no"?>
<!DOCTYPE svg PUBLIC "-//W3C//DTD SVG 1.1 Tiny//EN" "http://www.w3.org/Graphics/SVG/1.1/DTD/svg11-tiny.dtd">
<svg xmlns="http://www.w3.org/2000/svg" xmlns:xlink="http://www.w3.org/1999/xlink" baseProfile="tiny" height="20" version="1.1" viewBox="-288.5 410.39 20 20" width="20">
<path d="M-271.501,410.411H-285.5c-1.657,0-3,1.342-3,2.994v16.963l5.743-3.991h11.256  c1.657,0,3.001-1.341,3.001-2.993v-9.979C-268.5,411.751-269.844,410.411-271.501,410.411z" fill="#002B7A"/>
<linearGradient gradientTransform="matrix(1 0 0 -1 0.0376 18.9941)" gradientUnits="userSpaceOnUse" id="XMLID_431_" x1="-278.5371" x2="-278.5371" y1="-392.417" y2="-409.4971">
<stop offset="0" style="stop-color:#292BFF"/>
<stop offset="0.1349" style="stop-color:#2B2FFF"/>
<stop offset="0.2743" style="stop-color:#303CFF"/>
<stop offset="0.4159" style="stop-color:#3850FF"/>
<stop offset="0.5588" style="stop-color:#446DFF"/>
<stop offset="0.7015" style="stop-color:#5392FF"/>
<stop offset="0.8146" style="stop-color:#61B5FF"/>
<stop offset="1" style="stop-color:#61B5FF"/>
</linearGradient>
<path d="M-271.501,411.411H-285.5c-1.103,0-2,0.892-2,1.994v9.979v5.107l4.29-3.111h7.137h4.572  c1.106,0,2.002-0.894,2.002-1.996v-9.979C-269.499,412.303-270.395,411.411-271.501,411.411z" fill="url(#XMLID_431_)"/>
<linearGradient gradientTransform="matrix(1 0 0 -1 0.0376 18.9941)" gradientUnits="userSpaceOnUse" id="XMLID_432_" x1="-278.5088" x2="-278.5088" y1="-396.1094" y2="-392.457">
<stop offset="0" style="stop-color:#292BFF"/>
<stop offset="1" style="stop-color:#BDE7FF"/>
</linearGradient>
<path d="M-269.486,413.277c0,1.009-0.765,1.826-1.709,1.826h-14.55c-0.944,0-1.711-0.817-1.711-1.826l0,0  c0-1.01,0.767-1.826,1.711-1.826h14.55C-270.251,411.451-269.486,412.268-269.486,413.277L-269.486,413.277z" fill="url(#XMLID_432_)"/>
<path d="M-277.46,419.984" fill="#FFFFFF"/>
<path d="M-277.46,422.378" fill="#FFFFFF"/>
<path d="M-272.577,418.479c0-1.709-0.603-3.168-1.81-4.375c-1.204-1.209-2.662-1.813-4.371-1.813  s-3.168,0.604-4.375,1.813c-1.21,1.207-1.815,2.666-1.815,4.375s0.604,3.167,1.814,4.372c1.208,1.207,2.667,1.811,4.375,1.811  s3.167-0.604,4.37-1.811C-273.18,421.646-272.577,420.188-272.577,418.479z M-274.041,421.536c0,0-1.43,2.596-4.726,2.596  c-3.296,0-4.754-2.596-4.754-2.596h2.341v-1.862h-1.01v-4.353c0-0.45,0.28-0.834,0.844-1.154c0.637-0.364,1.502-0.548,2.593-0.548  c1.083,0,1.944,0.184,2.581,0.548c0.563,0.319,0.844,0.704,0.844,1.154v4.353h-1.012v1.862H-274.041z M-279.97,418.402  c0-0.487-0.251-0.729-0.751-0.729c-0.498,0-0.749,0.242-0.749,0.729c0,0.5,0.251,0.746,0.749,0.746  C-280.221,419.148-279.97,418.902-279.97,418.402z M-278.919,416.67v-1.828h-2.539v1.828H-278.919z M-277.139,421.536v-1.875h-3.224  v1.854L-277.139,421.536z M-276.043,416.67v-1.828h-2.527v1.828H-276.043z M-276.031,418.391c0-0.494-0.252-0.742-0.758-0.742  c-0.494,0-0.742,0.248-0.742,0.742c0,0.508,0.248,0.758,0.742,0.758C-276.283,419.148-276.031,418.898-276.031,418.391z" fill="#FFFFFF"/>
</svg>
