<?xml version="1.0" encoding="utf-8"?>
<!-- Generator: Adobe Illustrator 12.0.0, SVG Export Plug-In . SVG Version: 6.00 Build 51448)  -->
<!DOCTYPE svg PUBLIC "-//W3C//DTD SVG 1.1 Tiny//EN" "http://www.w3.org/Graphics/SVG/1.1/DTD/svg11-tiny.dtd" [
	<!ENTITY ns_svg "http://www.w3.org/2000/svg">
	<!ENTITY ns_xlink "http://www.w3.org/1999/xlink">
]>
<svg  version="1.1" baseProfile="tiny" id="Layer_1" xmlns="&ns_svg;" xmlns:xlink="&ns_xlink;" width="40.063" height="40.006"
	 viewBox="0 0 40.063 40.006" xml:space="preserve">
<path fill="#612900" d="M37.063,0h-14c-1.658,0-3,1.345-3,3.002v10.005l-0.002,7.006l5.745-4.004h11.257c1.656,0,3-1.344,3-3.002
	V3.002C40.063,1.343,38.72,0,37.063,0z"/>
<linearGradient id="XMLID_3_" gradientUnits="userSpaceOnUse" x1="30.0625" y1="1" x2="30.0625" y2="18.1299">
	<stop  offset="0" style="stop-color:#FF5E00"/>
	<stop  offset="0.1643" style="stop-color:#FF6201"/>
	<stop  offset="0.334" style="stop-color:#FF6F04"/>
	<stop  offset="0.5062" style="stop-color:#FF8308"/>
	<stop  offset="0.6792" style="stop-color:#FFA00E"/>
	<stop  offset="0.8146" style="stop-color:#FFBC14"/>
</linearGradient>
<path fill="url(#XMLID_3_)" d="M37.063,1h-14c-1.105,0-2.001,0.896-2.001,2.002v10.005v5.123l4.29-3.12h11.711
	c1.104,0,1.999-0.896,1.999-2.003V3.002C39.063,1.896,38.168,1,37.063,1z"/>
<linearGradient id="XMLID_4_" gradientUnits="userSpaceOnUse" x1="30.0918" y1="4.7041" x2="30.0918" y2="1.0415">
	<stop  offset="0" style="stop-color:#FF7B00"/>
	<stop  offset="1" style="stop-color:#FFE1B5"/>
</linearGradient>
<path fill="url(#XMLID_4_)" d="M39.076,2.873c0,1.011-0.764,1.832-1.709,1.832h-14.55c-0.943,0-1.71-0.82-1.71-1.832l0,0
	c0-1.011,0.767-1.831,1.71-1.831h14.55C38.313,1.042,39.076,1.861,39.076,2.873L39.076,2.873z"/>
<path fill="#FFFFFF" d="M31.063,9.607"/>
<path fill="#FFFFFF" d="M31.063,12.009"/>
<path fill="#FFFFFF" d="M35.665,8.201V8.192l-0.351-0.163c-0.009-0.003-0.014-0.008-0.022-0.011c0,0,0,0-0.001,0l-2.075-0.967
	c0,0-1.005-0.266-2.858-0.266c-1.498,0-2.923,0.96-2.923,0.96L25.708,6.59V6.582c0.018-0.03,0.731-1.229,2.771-1.307
	c1.618-0.064,2.427,0.434,2.427,0.434V2.938c0-0.427-0.347-0.773-0.773-0.773c-0.428,0-0.772,0.346-0.772,0.773v0.928h-3.652V2.938
	c0-0.427-0.347-0.773-0.771-0.773c-0.428,0-0.773,0.346-0.773,0.773v7.31c0,0.424,0.346,0.772,0.773,0.772
	c0.425,0,0.771-0.348,0.771-0.772V8.725l3.077,1.9v2.666c0,0.428,0.347,0.771,0.773,0.771c0.426,0,0.772-0.344,0.772-0.771v-2.188
	h4.307v2.188c0,0.428,0.346,0.771,0.772,0.771s0.773-0.344,0.773-0.771V9.15C36.184,8.737,36.043,8.435,35.665,8.201z"/>
<rect y="0.006" fill="none" width="40.063" height="40"/>
</svg>
