<?xml version="1.0" encoding="utf-8"?>
<!-- Generator: Adobe Illustrator 12.0.0, SVG Export Plug-In . SVG Version: 6.00 Build 51448)  -->
<!DOCTYPE svg PUBLIC "-//W3C//DTD SVG 1.1 Tiny//EN" "http://www.w3.org/Graphics/SVG/1.1/DTD/svg11-tiny.dtd" [
	<!ENTITY ns_svg "http://www.w3.org/2000/svg">
	<!ENTITY ns_xlink "http://www.w3.org/1999/xlink">
]>
<svg  version="1.1" baseProfile="tiny" id="Layer_1" xmlns="&ns_svg;" xmlns:xlink="&ns_xlink;" width="40.063" height="40.01"
	 viewBox="0 0 40.063 40.01" xml:space="preserve">
<path fill="#004A00" d="M37.063,0H23.063c-1.656,0-3,1.345-3,3.005v17.016l5.743-4.002h11.258c1.654,0,2.999-1.346,2.999-3.003
	V3.005C40.063,1.345,38.718,0,37.063,0z"/>
<linearGradient id="XMLID_3_" gradientUnits="userSpaceOnUse" x1="30.0625" y1="1.0024" x2="30.0625" y2="18.1387">
	<stop  offset="0" style="stop-color:#007805"/>
	<stop  offset="0.1364" style="stop-color:#047A05"/>
	<stop  offset="0.2774" style="stop-color:#118104"/>
	<stop  offset="0.4206" style="stop-color:#258C04"/>
	<stop  offset="0.5651" style="stop-color:#429C03"/>
	<stop  offset="0.7094" style="stop-color:#67B101"/>
	<stop  offset="0.8146" style="stop-color:#87C200"/>
</linearGradient>
<path fill="url(#XMLID_3_)" d="M37.063,1.002H23.063c-1.104,0-1.998,0.895-1.998,2.002v10.008l-0.002,5.126l4.29-3.123h7.137h4.575
	c1.104,0,2-0.896,2-2V3.005C39.063,1.897,38.167,1.002,37.063,1.002z"/>
<linearGradient id="XMLID_4_" gradientUnits="userSpaceOnUse" x1="30.0928" y1="4.7065" x2="30.0928" y2="1.043">
	<stop  offset="0" style="stop-color:#007805"/>
	<stop  offset="1" style="stop-color:#E2FFBD"/>
</linearGradient>
<path fill="url(#XMLID_4_)" d="M39.077,2.875c0,1.01-0.768,1.831-1.71,1.831H22.818c-0.945,0-1.71-0.821-1.71-1.831l0,0
	c0-1.012,0.765-1.833,1.71-1.833h14.549C38.31,1.043,39.077,1.863,39.077,2.875L39.077,2.875z"/>
<path fill="#FFFFFF" d="M31.063,9.611"/>
<path fill="#FFFFFF" d="M31.063,12.013"/>
<path fill="#FFFFFF" d="M36.527,8.32c-0.586,0.355-7.221,4.38-7.828,4.711c-0.788,0.425-1.872-0.135-2.207-0.363
	c-0.628-0.43-1.265,0.353-0.689,0.805c0.371,0.295,2.145,1.197,3.375,0.515c1.15-0.64,7.304-4.389,7.899-4.751
	C37.674,8.873,37.115,7.965,36.527,8.32z M27.623,7.268c0.596-0.456,0.887-0.542,1.105-1.357c0.221-0.817,0.254-0.912,0.523-2.251
	c0.267-1.318-1.228-1.606-1.447-0.447c-0.236,1.238-0.561,2.544-0.561,2.544S25.51,6.754,24.85,7.094
	C23.91,7.58,24.678,8.899,25.681,8.27C26.684,7.643,27.113,7.657,27.623,7.268z M35.053,2.091l-0.347-0.486L29.393,4.82L29.27,5.713
	L35.053,2.091z M32.214,4.694c-0.584,0.349-2.097,1.18-2.771,1.62c-0.675,0.44-0.771,1.031-0.362,1.643
	c0.407,0.611,1.05,1.648,1.567,2.525c0.516,0.879,1.945,0.061,1.41-0.815c-0.358-0.583-1.384-2.201-1.384-2.201
	s1.361-0.787,2.355-1.406C34.111,5.384,33.188,4.114,32.214,4.694z M27.154,4.184c0-0.897-0.726-1.623-1.622-1.623
	c-0.897,0-1.622,0.726-1.622,1.623c0,0.897,0.725,1.624,1.622,1.624C26.429,5.808,27.154,5.082,27.154,4.184z"/>
<rect y="0.01" fill="none" width="40.063" height="40"/>
</svg>
