<?xml version="1.0" encoding="utf-8"?>
<!-- Generator: Adobe Illustrator 12.0.0, SVG Export Plug-In . SVG Version: 6.00 Build 51448)  -->
<!DOCTYPE svg PUBLIC "-//W3C//DTD SVG 1.1 Tiny//EN" "http://www.w3.org/Graphics/SVG/1.1/DTD/svg11-tiny.dtd" [
	<!ENTITY ns_svg "http://www.w3.org/2000/svg">
	<!ENTITY ns_xlink "http://www.w3.org/1999/xlink">
]>
<svg  version="1.1" baseProfile="tiny" id="Layer_1" xmlns="&ns_svg;" xmlns:xlink="&ns_xlink;" width="40.063" height="40"
	 viewBox="0 0 40.063 40" xml:space="preserve">
<g>
	<path fill="#002B7A" d="M37.063,0.014H23.064c-1.658,0-3.001,1.341-3.001,2.996v9.985l-0.001,6.99l5.745-3.993h11.256
		c1.658,0,3-1.341,3-2.997V3.01C40.063,1.355,38.721,0.014,37.063,0.014z"/>
</g>
<g>
	<linearGradient id="XMLID_3_" gradientUnits="userSpaceOnUse" x1="30.0625" y1="1.0132" x2="30.0625" y2="18.1079">
		<stop  offset="0" style="stop-color:#292BFF"/>
		<stop  offset="0.1349" style="stop-color:#2B2FFF"/>
		<stop  offset="0.2743" style="stop-color:#303CFF"/>
		<stop  offset="0.4159" style="stop-color:#3850FF"/>
		<stop  offset="0.5588" style="stop-color:#446DFF"/>
		<stop  offset="0.7015" style="stop-color:#5392FF"/>
		<stop  offset="0.8146" style="stop-color:#61B5FF"/>
	</linearGradient>
	<path fill="url(#XMLID_3_)" d="M37.063,1.013H23.064c-1.107,0-2.001,0.893-2.001,1.997v9.985l-0.001,5.112l4.29-3.114h11.711
		c1.105,0,2-0.894,2-1.998V3.01C39.063,1.906,38.168,1.013,37.063,1.013z"/>
</g>
<linearGradient id="XMLID_4_" gradientUnits="userSpaceOnUse" x1="30.0918" y1="4.709" x2="30.0918" y2="1.0542">
	<stop  offset="0" style="stop-color:#292BFF"/>
	<stop  offset="1" style="stop-color:#BDE7FF"/>
</linearGradient>
<path fill="url(#XMLID_4_)" d="M39.076,2.881c0,1.009-0.766,1.828-1.711,1.828H22.818c-0.945,0-1.711-0.818-1.711-1.828l0,0
	c0-1.009,0.766-1.827,1.711-1.827h14.547C38.311,1.054,39.076,1.872,39.076,2.881L39.076,2.881z"/>
<path fill="#FFFFFF" d="M31.063,9.602"/>
<path fill="#FFFFFF" d="M31.063,11.997"/>
<g>
	<path fill="#FFFFFF" d="M37.246,4.263H24.901c-0.585,0-0.919,0.674-1.584,1.506c-0.737,0.966-1.019,1.269-1.019,1.921v2.248
		c0,1.024,0.092,1.114,1.172,1.114h0.684c0,0.858,0.706,1.552,1.578,1.552c0.871,0,1.576-0.693,1.576-1.552h5.602
		c0,0.858,0.705,1.552,1.578,1.552c0.871,0,1.578-0.693,1.578-1.552h1.18c0.17,0,0.391-0.163,0.391-0.371V4.632
		C37.637,4.424,37.488,4.263,37.246,4.263z M26.101,7.767c0,0.274-0.149,0.4-0.342,0.4h-2.317c-0.191,0-0.342-0.151-0.342-0.4
		c0-0.218,0.859-1.459,1.477-2.177c0.457-0.587,0.623-0.456,1.183-0.456c0.207,0.022,0.342,0.175,0.342,0.397V7.767z M29.632,7.724
		c0,0.262-0.165,0.381-0.378,0.381h-1.93c-0.211,0-0.377-0.145-0.377-0.381V5.577c0-0.215,0.095-0.382,0.377-0.382h1.93
		c0.229,0.021,0.378,0.167,0.378,0.382V7.724z M33.162,7.724c0,0.262-0.164,0.381-0.377,0.381h-1.932
		c-0.211,0-0.375-0.145-0.375-0.381V5.577c0-0.215,0.094-0.382,0.375-0.382h1.932c0.229,0.021,0.377,0.167,0.377,0.382V7.724z
		 M36.693,7.724c0,0.262-0.164,0.381-0.377,0.381h-1.93c-0.213,0-0.379-0.145-0.379-0.381V5.577c0-0.215,0.098-0.382,0.379-0.382
		h1.93c0.225,0.021,0.377,0.167,0.377,0.382V7.724z"/>
</g>
<rect fill="none" width="40.063" height="40"/>
</svg>
