<?xml version="1.0" encoding="UTF-8" standalone="no"?>
<!DOCTYPE svg PUBLIC "-//W3C//DTD SVG 1.1 Tiny//EN" "http://www.w3.org/Graphics/SVG/1.1/DTD/svg11-tiny.dtd">
<svg xmlns="http://www.w3.org/2000/svg" xmlns:xlink="http://www.w3.org/1999/xlink" baseProfile="tiny" height="20" version="1.1" viewBox="-278.469 420.39 20 20" width="20">
<path d="M-261.49,420.417h-13.96c-1.652,0-2.992,1.339-2.992,2.991v9.975v6.979l5.729-3.989h11.225  c1.653,0,2.993-1.34,2.993-2.99v-9.974C-258.496,421.758-259.836,420.417-261.49,420.417z" fill="#004A00"/>
<linearGradient gradientTransform="matrix(1 0 0 -1 0.0376 38.9941)" gradientUnits="userSpaceOnUse" id="XMLID_293_" x1="-268.5061" x2="-268.5061" y1="-382.4199" y2="-399.4922">
<stop offset="0" style="stop-color:#007805"/>
<stop offset="0.1364" style="stop-color:#047A05"/>
<stop offset="0.2774" style="stop-color:#118104"/>
<stop offset="0.4206" style="stop-color:#258C04"/>
<stop offset="0.5651" style="stop-color:#429C03"/>
<stop offset="0.7094" style="stop-color:#67B101"/>
<stop offset="0.8146" style="stop-color:#87C200"/>
<stop offset="1" style="stop-color:#87C200"/>
</linearGradient>
<path d="M-261.49,421.414h-13.96c-1.103,0-1.994,0.893-1.994,1.994v9.972v5.106l4.275-3.111h7.118h4.561  c1.103,0,1.996-0.893,1.996-1.992v-9.974C-259.493,422.307-260.387,421.414-261.49,421.414z" fill="url(#XMLID_293_)"/>
<linearGradient gradientTransform="matrix(1 0 0 -1 0.0376 38.9941)" gradientUnits="userSpaceOnUse" id="XMLID_294_" x1="-268.4768" x2="-268.4768" y1="-386.1113" y2="-382.4609">
<stop offset="0" style="stop-color:#007805"/>
<stop offset="1" style="stop-color:#E2FFBD"/>
</linearGradient>
<path d="M-259.48,423.28c0,1.008-0.763,1.825-1.705,1.825h-14.509c-0.941,0-1.705-0.816-1.705-1.825l0,0  c0-1.007,0.764-1.825,1.705-1.825h14.509C-260.242,421.455-259.48,422.273-259.48,423.28L-259.48,423.28z" fill="url(#XMLID_294_)"/>
<path d="M-267.471,429.991" fill="#FFFFFF"/>
<path d="M-267.471,432.385" fill="#FFFFFF"/>
<path d="M-261.49,427.398c0-1.995,0.002-1.995-1.994-1.995c-0.996,0-1.993,0-1.993,0s-0.997-1.995-1.994-1.995  h-1.996c-0.995,0-1.993,1.995-1.993,1.995s-0.425,0-0.997,0c0-0.997,0-0.997-0.997-0.997s-0.997,0-0.997,0.997  c0,0,0.015,0.008,0.033,0.017c-1.026,0.063-1.029,0.379-1.029,1.979c0,0.998,0,3.99,0,3.99c0,1.994,0,1.994,1.993,1.994h9.972  c1.996,0,1.996,0,1.996-1.994C-261.488,430.391-261.49,428.395-261.49,427.398z M-268.469,432.385c-1.65,0-2.991-1.34-2.991-2.992  s1.341-2.991,2.991-2.991c1.652,0,2.992,1.339,2.992,2.991S-266.817,432.385-268.469,432.385z" fill="#FFFFFF"/>
</svg>
