<?xml version="1.0" encoding="UTF-8" standalone="no"?>
<!DOCTYPE svg PUBLIC "-//W3C//DTD SVG 1.1 Tiny//EN" "http://www.w3.org/Graphics/SVG/1.1/DTD/svg11-tiny.dtd">
<svg xmlns="http://www.w3.org/2000/svg" xmlns:xlink="http://www.w3.org/1999/xlink" baseProfile="tiny" height="20" version="1.1" viewBox="-278.469 420.404 20 20" width="20">
<path d="M-261.468,420.375h-14c-1.657,0-3.001,1.348-3.001,3.008v10.029v7.02l5.744-4.01h11.256  c1.658,0,3-1.35,3-3.01v-10.029C-258.468,421.723-259.809,420.375-261.468,420.375z" fill="#A10300"/>
<linearGradient gradientTransform="matrix(1 0 0 -1 0.0376 39.022)" gradientUnits="userSpaceOnUse" id="XMLID_301_" x1="-268.5061" x2="-268.5061" y1="-382.3572" y2="-399.5251">
<stop offset="0" style="stop-color:#E0291C"/>
<stop offset="0.2143" style="stop-color:#E22D1D"/>
<stop offset="0.4357" style="stop-color:#E93A20"/>
<stop offset="0.6596" style="stop-color:#F54E25"/>
<stop offset="0.8146" style="stop-color:#FF6129"/>
<stop offset="1" style="stop-color:#FF6129"/>
</linearGradient>
<path d="M-261.468,421.379h-14c-1.104,0-2,0.896-2,2.004v10.029l-0.001,5.135l4.289-3.131h11.711  c1.104,0,2-0.896,2-2.004v-10.029C-259.468,422.276-260.364,421.379-261.468,421.379z" fill="url(#XMLID_301_)"/>
<linearGradient gradientTransform="matrix(1 0 0 -1 0.0376 39.022)" gradientUnits="userSpaceOnUse" id="XMLID_302_" x1="-268.4768" x2="-268.4768" y1="-386.0681" y2="-382.4001">
<stop offset="0" style="stop-color:#ED2B0C"/>
<stop offset="1" style="stop-color:#FFA68C"/>
</linearGradient>
<path d="M-259.454,423.256c0,1.012-0.769,1.834-1.71,1.834h-14.551c-0.941,0-1.71-0.822-1.71-1.834l0,0  c0-1.012,0.769-1.834,1.71-1.834h14.551C-260.221,421.42-259.454,422.244-259.454,423.256L-259.454,423.256z" fill="url(#XMLID_302_)"/>
<polygon fill="#FFFFFF" points="-261.764,430.405 -261.764,427.998 -261.764,427.397 -262.531,427.397 -262.531,432.811   -262.531,433.813 -261.764,433.813 -261.764,432.41 -260.533,432.41 -260.533,430.405 "/>
<path d="M-263.09,427.397c0-0.557-0.447-1.006-1.003-1.006c0,0-0.001,0.002,0.003,0.002h-3.997  c-0.557,0-1.004,0.447-1.005,1.002v6.018c0,0.553,0.448,1.004,1,1.004h3.999c0.556-0.004,1.003-0.451,1.003-1.004v-0.002l0,0  V427.397L-263.09,427.397z M-266.592,433.412c-0.827,0-1.5-0.674-1.5-1.506c0-0.83,0.673-1.502,1.5-1.502  c0.828,0,1.5,0.674,1.5,1.502C-265.092,432.739-265.762,433.412-266.592,433.412z M-265.092,429.401  c-0.553,0-0.999-0.449-0.999-1.004c0-0.553,0.446-1,0.999-1s0.999,0.449,0.999,1C-264.093,428.951-264.539,429.401-265.092,429.401z  " fill="#FFFFFF"/>
<path d="M-267.907,429" fill="#FFFFFF"/>
<path d="M-267.907,431.406" fill="#FFFFFF"/>
<path d="M-276.556,434.291c0,0,0-1.531,0-2.416c0-0.887,0.841-1.83,1.682-1.83s0.841-0.182,0.841-0.182  s-2.083-0.525-2.083-3.059c0-2.125,1.242-3.334,2.924-3.334c1.681,0,2.766,1.299,2.766,3.494c0,2.461-1.926,2.898-1.926,2.898  s0,0.182,0.841,0.182s1.683,0.943,1.683,1.83c0,0.883,0,2.416,0,2.416H-276.556z" fill="#FFFFFF"/>
</svg>
