<?xml version="1.0" encoding="UTF-8" standalone="no"?>
<!DOCTYPE svg PUBLIC "-//W3C//DTD SVG 1.1 Tiny//EN" "http://www.w3.org/Graphics/SVG/1.1/DTD/svg11-tiny.dtd">
<svg xmlns="http://www.w3.org/2000/svg" xmlns:xlink="http://www.w3.org/1999/xlink" baseProfile="tiny" height="20" version="1.1" viewBox="-278.462 420.39 20 20" width="20">
<path d="M-261.452,420.418h-14.02c-1.658,0-3.003,1.34-3.003,2.992v9.971l-0.001,6.98l5.752-3.988h11.271  c1.66,0,3.004-1.34,3.004-2.992v-9.97C-258.447,421.758-259.792,420.418-261.452,420.418z" fill="#A10300"/>
<linearGradient gradientTransform="matrix(1 0 0 -1 0.0376 38.9941)" gradientUnits="userSpaceOnUse" id="XMLID_305_" x1="-268.4985" x2="-268.4985" y1="-382.4209" y2="-399.4922">
<stop offset="0" style="stop-color:#E0291C"/>
<stop offset="0.2143" style="stop-color:#E22D1D"/>
<stop offset="0.4357" style="stop-color:#E93A20"/>
<stop offset="0.6596" style="stop-color:#F54E25"/>
<stop offset="0.8146" style="stop-color:#FF6129"/>
<stop offset="1" style="stop-color:#FF6129"/>
</linearGradient>
<path d="M-261.452,421.415h-14.02c-1.105,0-2.002,0.894-2.002,1.995v9.971v5.105l4.297-3.111h11.727  c1.107,0,2.002-0.893,2.002-1.994v-9.97C-259.449,422.309-260.343,421.415-261.452,421.415z" fill="url(#XMLID_305_)"/>
<linearGradient gradientTransform="matrix(1 0 0 -1 0.0376 38.9941)" gradientUnits="userSpaceOnUse" id="XMLID_306_" x1="-268.4697" x2="-268.4697" y1="-386.1113" y2="-382.4629">
<stop offset="0" style="stop-color:#ED2B0C"/>
<stop offset="1" style="stop-color:#FFA68C"/>
</linearGradient>
<path d="M-259.436,423.282c0,1.008-0.767,1.823-1.711,1.823h-14.569c-0.945,0-1.713-0.815-1.713-1.823l0,0  c0-1.009,0.768-1.825,1.713-1.825h14.569C-260.202,421.456-259.436,422.273-259.436,423.282L-259.436,423.282z" fill="url(#XMLID_306_)"/>
<path d="M-267.46,429.991" fill="#FFFFFF"/>
<path d="M-267.46,432.383" fill="#FFFFFF"/>
<path d="M-265.458,424.407h-1v6.979h1V424.407z M-263.454,427.398v-1.993h-1.002v6.979h-2.002v0.998h3.004v-1.994  h2.002v-3.99H-263.454z M-268.46,422.412c-0.002,0-0.002,0-0.004,0h-6.004c-0.554,0-1.002,0.446-1.002,0.997v9.972  c0,0.551,0.448,0.996,1.002,0.996h6.008c0.553,0,1.002-0.445,1.002-0.996l0,0l0,0v-9.971l0,0  C-267.46,422.859-267.908,422.412-268.46,422.412z M-271.966,433.381c-1.382,0-2.502-1.117-2.502-2.492  c0-1.377,1.12-2.494,2.502-2.494c1.383,0,2.504,1.117,2.504,2.494C-269.462,432.264-270.583,433.381-271.966,433.381z   M-269.962,426.401c-0.83,0-1.502-0.671-1.502-1.496c0-0.826,0.67-1.495,1.502-1.495c0.83,0,1.502,0.669,1.502,1.495  C-268.46,425.73-269.132,426.401-269.962,426.401z M-271.966,429.393c-0.828,0-1.5,0.67-1.5,1.496c0,0.824,0.672,1.494,1.5,1.494  c0.83,0,1.502-0.67,1.502-1.494C-270.464,430.063-271.136,429.393-271.966,429.393z" fill="#FFFFFF"/>
</svg>
