<?xml version="1.0" encoding="utf-8"?>
<!-- Generator: Adobe Illustrator 12.0.0, SVG Export Plug-In . SVG Version: 6.00 Build 51448)  -->
<!DOCTYPE svg PUBLIC "-//W3C//DTD SVG 1.1 Tiny//EN" "http://www.w3.org/Graphics/SVG/1.1/DTD/svg11-tiny.dtd" [
	<!ENTITY ns_svg "http://www.w3.org/2000/svg">
	<!ENTITY ns_xlink "http://www.w3.org/1999/xlink">
]>
<svg  version="1.1" baseProfile="tiny" id="Layer_1" xmlns="&ns_svg;" xmlns:xlink="&ns_xlink;" width="40.063" height="40.002"
	 viewBox="0 0 40.063 40.002" xml:space="preserve">
<path fill="#612900" d="M37.064,0H23.063c-1.657,0-3,1.344-3,3v10.003l-0.001,7l5.745-4.001h11.258c1.656,0,2.998-1.344,2.998-2.999
	V3C40.063,1.343,38.721,0,37.064,0z"/>
<linearGradient id="XMLID_3_" gradientUnits="userSpaceOnUse" x1="30.0625" y1="1.0015" x2="30.0625" y2="18.123">
	<stop  offset="0" style="stop-color:#FF5E00"/>
	<stop  offset="0.1643" style="stop-color:#FF6201"/>
	<stop  offset="0.334" style="stop-color:#FF6F04"/>
	<stop  offset="0.5062" style="stop-color:#FF8308"/>
	<stop  offset="0.6792" style="stop-color:#FFA00E"/>
	<stop  offset="0.8146" style="stop-color:#FFBC14"/>
</linearGradient>
<path fill="url(#XMLID_3_)" d="M37.064,1.001H23.063c-1.104,0-2.001,0.894-2.001,1.999v10.002l0,5.12l4.289-3.121h11.714
	c1.104,0,1.998-0.895,1.998-1.998V3C39.063,1.896,38.168,1.001,37.064,1.001z"/>
<linearGradient id="XMLID_4_" gradientUnits="userSpaceOnUse" x1="30.0918" y1="4.7017" x2="30.0918" y2="1.041">
	<stop  offset="0" style="stop-color:#FF7B00"/>
	<stop  offset="1" style="stop-color:#FFE1B5"/>
</linearGradient>
<path fill="url(#XMLID_4_)" d="M39.076,2.872c0,1.012-0.766,1.83-1.709,1.83h-14.55c-0.944,0-1.711-0.818-1.711-1.83l0,0
	c0-1.01,0.767-1.831,1.711-1.831h14.55C38.311,1.041,39.076,1.861,39.076,2.872L39.076,2.872z"/>
<path fill="#FFFFFF" d="M31.063,9.603"/>
<path fill="#FFFFFF" d="M31.063,12.002"/>
<path fill="#FFFFFF" d="M23.463,4.888c-0.246,0.332-0.4,0.723-0.4,1.114v5.001c0,0.345,0.121,0.69,0.32,0.995l4.734-2.874
	L23.463,4.888z M36.016,4.294c-0.295-0.182-0.623-0.293-0.953-0.293c-1.449,0-8.622,0-10,0c-0.33,0-0.66,0.111-0.953,0.293
	l5.953,5.42L36.016,4.294z M36.66,4.888l-4.654,4.236l4.738,2.874c0.195-0.305,0.318-0.65,0.318-0.995V6.002
	C37.063,5.61,36.908,5.219,36.66,4.888z M30.063,10.895l-1.168-1.063l-4.764,2.892c0.288,0.173,0.609,0.279,0.932,0.279h10
	c0.322,0,0.643-0.106,0.932-0.279l-4.766-2.892L30.063,10.895z"/>
<rect y="0.002" fill="none" width="40.063" height="40"/>
</svg>
