<?xml version="1.0" encoding="utf-8"?>
<!-- Generator: Adobe Illustrator 12.0.0, SVG Export Plug-In . SVG Version: 6.00 Build 51448)  -->
<!DOCTYPE svg PUBLIC "-//W3C//DTD SVG 1.1 Tiny//EN" "http://www.w3.org/Graphics/SVG/1.1/DTD/svg11-tiny.dtd" [
	<!ENTITY ns_svg "http://www.w3.org/2000/svg">
	<!ENTITY ns_xlink "http://www.w3.org/1999/xlink">
]>
<svg  version="1.1" baseProfile="tiny" id="Layer_1" xmlns="&ns_svg;" xmlns:xlink="&ns_xlink;" width="40.066" height="40.004"
	 viewBox="0 0 40.066 40.004" xml:space="preserve">
<path fill="#004A00" d="M37.065,0H23.061c-1.657,0-3.001,1.345-3.001,3.002v10.004l-0.001,7.002l5.746-4.001h11.261
	c1.657,0,3.001-1.345,3.001-3.001V3.002C40.066,1.344,38.723,0,37.065,0z"/>
<linearGradient id="XMLID_3_" gradientUnits="userSpaceOnUse" x1="30.0625" y1="1.0015" x2="30.0625" y2="18.127">
	<stop  offset="0" style="stop-color:#007805"/>
	<stop  offset="0.1364" style="stop-color:#047A05"/>
	<stop  offset="0.2774" style="stop-color:#118104"/>
	<stop  offset="0.4206" style="stop-color:#258C04"/>
	<stop  offset="0.5651" style="stop-color:#429C03"/>
	<stop  offset="0.7094" style="stop-color:#67B101"/>
	<stop  offset="0.8146" style="stop-color:#87C200"/>
</linearGradient>
<path fill="url(#XMLID_3_)" d="M37.065,1.001H23.061c-1.105,0-2,0.895-2,2v10.003l-0.001,5.122l4.291-3.121h11.716
	c1.105,0,2-0.896,2-2V3.002C39.065,1.896,38.171,1.001,37.065,1.001z"/>
<linearGradient id="XMLID_4_" gradientUnits="userSpaceOnUse" x1="30.0918" y1="4.7031" x2="30.0918" y2="1.0415">
	<stop  offset="0" style="stop-color:#007805"/>
	<stop  offset="1" style="stop-color:#E2FFBD"/>
</linearGradient>
<path fill="url(#XMLID_4_)" d="M39.08,2.873c0,1.011-0.767,1.831-1.71,1.831H22.815c-0.944,0-1.711-0.82-1.711-1.831l0,0
	c0-1.011,0.767-1.831,1.711-1.831H37.37C38.313,1.042,39.08,1.861,39.08,2.873L39.08,2.873z"/>
<path fill="#FFFFFF" d="M31.064,9.604"/>
<path fill="#FFFFFF" d="M31.064,12.004"/>
<path fill="#FFFFFF" d="M36.065,2.001c0,0-1,1.001-1,3.001c0,2.001-0.001,5.002-0.001,5.002h-1.001c0,0-0.009-3.383-3.129-3.922
	l-0.871-2.497l-0.871,2.497c-3.122,0.539-3.13,3.922-3.13,3.922h-1.001c0,0,0-3.002,0-5.002s-1.001-3.001-1.001-3.001
	s-1,1.001-1,3.001c0,2.001,0,9.002,0,9.002h6.002v-2c0-0.552,0.449-1,1.001-1s1.001,0.448,1.001,1v2h6.001c0,0,0-7.002,0-9.002
	S36.065,2.001,36.065,2.001z"/>
<rect y="0.004" fill="none" width="40.063" height="40"/>
</svg>
