<?xml version="1.0" encoding="utf-8"?>
<!-- Generator: Adobe Illustrator 12.0.0, SVG Export Plug-In . SVG Version: 6.00 Build 51448)  -->
<!DOCTYPE svg PUBLIC "-//W3C//DTD SVG 1.1 Tiny//EN" "http://www.w3.org/Graphics/SVG/1.1/DTD/svg11-tiny.dtd" [
	<!ENTITY ns_svg "http://www.w3.org/2000/svg">
	<!ENTITY ns_xlink "http://www.w3.org/1999/xlink">
]>
<svg  version="1.1" baseProfile="tiny" id="Layer_1" xmlns="&ns_svg;" xmlns:xlink="&ns_xlink;" width="40.063" height="40"
	 viewBox="0 0 40.063 40" xml:space="preserve">
<path fill="#002B7A" d="M37.062,0.021H23.063c-1.657,0-3,1.342-3,2.994v16.963l5.743-3.991h11.256c1.657,0,3.001-1.341,3.001-2.993
	V3.015C40.063,1.361,38.719,0.021,37.062,0.021z"/>
<linearGradient id="XMLID_3_" gradientUnits="userSpaceOnUse" x1="30.0625" y1="1.021" x2="30.0625" y2="18.1016">
	<stop  offset="0" style="stop-color:#292BFF"/>
	<stop  offset="0.1349" style="stop-color:#2B2FFF"/>
	<stop  offset="0.2743" style="stop-color:#303CFF"/>
	<stop  offset="0.4159" style="stop-color:#3850FF"/>
	<stop  offset="0.5588" style="stop-color:#446DFF"/>
	<stop  offset="0.7015" style="stop-color:#5392FF"/>
	<stop  offset="0.8146" style="stop-color:#61B5FF"/>
</linearGradient>
<path fill="url(#XMLID_3_)" d="M37.062,1.021H23.063c-1.104,0-2,0.893-2,1.994v9.979v5.107l4.289-3.111h7.138h4.572
	c1.106,0,2.002-0.894,2.002-1.996V3.015C39.063,1.914,38.168,1.021,37.062,1.021z"/>
<linearGradient id="XMLID_4_" gradientUnits="userSpaceOnUse" x1="30.0918" y1="4.7129" x2="30.0918" y2="1.0615">
	<stop  offset="0" style="stop-color:#292BFF"/>
	<stop  offset="1" style="stop-color:#BDE7FF"/>
</linearGradient>
<path fill="url(#XMLID_4_)" d="M39.076,2.887c0,1.009-0.765,1.826-1.709,1.826h-14.55c-0.944,0-1.711-0.817-1.711-1.826l0,0
	c0-1.01,0.767-1.826,1.711-1.826h14.55C38.312,1.062,39.076,1.877,39.076,2.887L39.076,2.887z"/>
<path fill="#FFFFFF" d="M31.063,9.603"/>
<path fill="#FFFFFF" d="M31.063,11.995"/>
<path fill="#FFFFFF" d="M31.063,9.603"/>
<path fill="#FFFFFF" d="M31.063,11.997"/>
<path fill="#FFFFFF" d="M36.434,9.521l-0.229-0.157l-5.007-3.422L31.141,5.84c0,0-0.036-0.294-0.036-0.57v-1.52
	c0-1.975-0.908-2.115-1.04-2.125V1.623c0,0-0.011,0.001-0.014,0.001s-0.014-0.001-0.014-0.001v0.002
	c-0.132,0.01-1.04,0.15-1.04,2.125v1.52c0,0.275-0.038,0.57-0.038,0.57l-0.055,0.102l-5.007,3.422l-0.229,0.157
	c0,0-0.289,0.225-0.287,0.506c0.002,0.279,0.004,0.793,0.004,0.933c0,0.139,0.241,0.236,0.283,0.236c0.04,0,0.146-0.049,0.22-0.076
	c0.075-0.028,3.755-1.411,4.044-1.411c0.291,0,0.834,0,0.834,0s0.121,0.018,0.166,0.065c0.047,0.046,0.065,0.123,0.065,0.123
	s0,1.996,0,2.125c0,0.132-0.019,0.18-0.077,0.239c-0.057,0.058-0.217,0.162-0.15,0.112c0.065-0.048-1.552,0.734-1.667,0.832
	c-0.134,0.112-0.134,0.112-0.167,0.188c-0.046,0.097-0.07,0.225-0.07,0.225l-0.025,0.394c0,0-0.003,0.302,0.048,0.354
	c0.052,0.052,0.37-0.084,0.37-0.084s2.652-0.92,2.693-0.92h0.086c0.012,0,0.027,0,0.027,0h0.086c0.038,0,2.693,0.92,2.693,0.92
	s0.318,0.136,0.37,0.084s0.048-0.354,0.048-0.354l-0.024-0.394c0,0-0.024-0.128-0.071-0.225c-0.034-0.076-0.034-0.076-0.166-0.188
	c-0.116-0.098-1.733-0.88-1.667-0.832c0.065,0.05-0.095-0.055-0.151-0.112c-0.058-0.06-0.077-0.107-0.077-0.239
	c0-0.13,0-2.125,0-2.125s0.017-0.077,0.065-0.123c0.046-0.047,0.167-0.065,0.167-0.065s0.544,0,0.833,0
	c0.29,0,3.969,1.382,4.044,1.411c0.073,0.027,0.18,0.076,0.22,0.076s0.281-0.098,0.281-0.236c0-0.14,0.004-0.654,0.007-0.933
	C36.723,9.746,36.434,9.521,36.434,9.521z"/>
<rect fill="none" width="40.063" height="40"/>
</svg>
