<?xml version="1.0" encoding="UTF-8" standalone="no"?>
<!DOCTYPE svg PUBLIC "-//W3C//DTD SVG 1.1 Tiny//EN" "http://www.w3.org/Graphics/SVG/1.1/DTD/svg11-tiny.dtd">
<svg xmlns="http://www.w3.org/2000/svg" xmlns:xlink="http://www.w3.org/1999/xlink" baseProfile="tiny" height="20" version="1.1" viewBox="-278.469 420.403 20 20" width="20">
<path d="M-261.468,420.376h-14c-1.657,0-3.001,1.346-3.001,3.008v10.027v7.018l5.745-4.01h11.256  c1.656,0,2.999-1.348,2.999-3.008v-10.027C-258.468,421.722-259.81,420.376-261.468,420.376z" fill="#612900"/>
<linearGradient gradientTransform="matrix(1 0 0 -1 0.0376 39.02)" gradientUnits="userSpaceOnUse" id="XMLID_329_" x1="-268.5066" x2="-268.5066" y1="-382.3582" y2="-399.5222">
<stop offset="0" style="stop-color:#FF5E00"/>
<stop offset="0.1643" style="stop-color:#FF6201"/>
<stop offset="0.334" style="stop-color:#FF6F04"/>
<stop offset="0.5062" style="stop-color:#FF8308"/>
<stop offset="0.6792" style="stop-color:#FFA00E"/>
<stop offset="0.8146" style="stop-color:#FFBC14"/>
<stop offset="1" style="stop-color:#FFBC14"/>
</linearGradient>
<path d="M-261.468,421.378h-14c-1.104,0-2.001,0.898-2.001,2.006v10.023v5.135l4.289-3.129h11.712  c1.104,0,1.998-0.896,1.998-2.004v-10.025C-259.469,422.277-260.363,421.378-261.468,421.378z" fill="url(#XMLID_329_)"/>
<linearGradient gradientTransform="matrix(1 0 0 -1 0.0376 39.02)" gradientUnits="userSpaceOnUse" id="XMLID_330_" x1="-268.4758" x2="-268.4758" y1="-386.0691" y2="-382.3992">
<stop offset="0" style="stop-color:#FF7B00"/>
<stop offset="1" style="stop-color:#FFE1B5"/>
</linearGradient>
<path d="M-259.453,423.255c0,1.014-0.768,1.834-1.71,1.834h-14.55c-0.943,0-1.711-0.822-1.711-1.834l0,0  c0-1.014,0.768-1.836,1.711-1.836h14.55C-260.219,421.419-259.453,422.241-259.453,423.255L-259.453,423.255z" fill="url(#XMLID_330_)"/>
<path d="M-264.786,423.384h-2.662c0,0,0-1.002-0.997-1.002h-5.001c-1,0-2.001,0.445-2.001,2.006  c0,2.004-0.021,5.014-0.021,6.016c0,1.35,0.077,1.949,1.456,1.949c1.653,0,1.538-0.439,1.538-1.951c0-1.004,0.025-2.004,0.025-3.008  c0-0.922,0.631-1.041,1-1.031c0,1.945,0,6.189,0,6.826c0,1.002,0.326,1.225,1.326,1.225h5.445c0.999,0,1.229-0.311,1.229-1.313  v-8.336C-263.446,423.763-263.787,423.384-264.786,423.384z M-273.472,427.394c0,1.004,0.038,2.342,0.038,3.344  c0,0.727-0.965,1.002-0.965,0c0-1.004-0.047-5.35-0.047-6.352c0-0.66,0.262-1.002,1-1.002h1.999c0,0,0.002,2.004,0,2.004  C-273.09,425.388-273.472,425.728-273.472,427.394z M-264.473,427.394c0,1.004,0,1.004-1,1.004c-0.998,0-2.999,0-3.999,0  c-0.999,0-1.001,0-1.001-1.004v-2.006c0-1,0.002-1,1.001-1h3.999c1,0,1,0,1,1V427.394z" fill="#FFFFFF"/>
</svg>
