<?xml version="1.0" encoding="UTF-8" standalone="no"?>
<!DOCTYPE svg PUBLIC "-//W3C//DTD SVG 1.1 Tiny//EN" "http://www.w3.org/Graphics/SVG/1.1/DTD/svg11-tiny.dtd">
<svg xmlns="http://www.w3.org/2000/svg" xmlns:xlink="http://www.w3.org/1999/xlink" baseProfile="tiny" height="20" version="1.1" viewBox="-278.467 420.39 20 20" width="20">
<path d="M-261.466,420.417h-14.004c-1.658,0-3.001,1.341-3.001,2.992v9.974v6.979l5.746-3.988h11.261  c1.657,0,3.001-1.341,3.001-2.991v-9.973C-258.465,421.758-259.808,420.417-261.466,420.417z" fill="#004A00"/>
<linearGradient gradientTransform="matrix(1 0 0 -1 0.0376 38.9941)" gradientUnits="userSpaceOnUse" id="XMLID_387_" x1="-268.5046" x2="-268.5046" y1="-382.4209" y2="-399.4932">
<stop offset="0" style="stop-color:#007805"/>
<stop offset="0.1364" style="stop-color:#047A05"/>
<stop offset="0.2774" style="stop-color:#118104"/>
<stop offset="0.4206" style="stop-color:#258C04"/>
<stop offset="0.5651" style="stop-color:#429C03"/>
<stop offset="0.7094" style="stop-color:#67B101"/>
<stop offset="0.8146" style="stop-color:#87C200"/>
<stop offset="1" style="stop-color:#87C200"/>
</linearGradient>
<path d="M-261.466,421.415h-14.004c-1.105,0-2,0.894-2,1.995v9.973l-0.001,5.104l4.291-3.11h11.716  c1.104,0,2.001-0.893,2.001-1.994v-9.973C-259.465,422.309-260.362,421.415-261.466,421.415z" fill="url(#XMLID_387_)"/>
<linearGradient gradientTransform="matrix(1 0 0 -1 0.0376 38.9941)" gradientUnits="userSpaceOnUse" id="XMLID_388_" x1="-268.4778" x2="-268.4778" y1="-386.1113" y2="-382.4619">
<stop offset="0" style="stop-color:#007805"/>
<stop offset="1" style="stop-color:#E2FFBD"/>
</linearGradient>
<path d="M-259.452,423.281c0,1.008-0.766,1.824-1.71,1.824h-14.555c-0.944,0-1.711-0.816-1.711-1.824l0,0  c0-1.01,0.767-1.825,1.711-1.825h14.555C-260.218,421.456-259.452,422.271-259.452,423.281L-259.452,423.281z" fill="url(#XMLID_388_)"/>
<path d="M-267.468,429.992" fill="#FFFFFF"/>
<path d="M-267.468,432.385" fill="#FFFFFF"/>
<path d="M-262.468,423.41c0,0,0,0.248,0,2.244c0,1.852-0.868,4.563-5.002,4.939v-1.011  c3.165-0.349,4.003-2.364,4.002-4.18c0-1.994,0-1.994,0-1.994h-1.001c0,0,0,0,0.001,1.994c0,1.534-0.776,2.873-3.002,3.175v-1.021  c2-0.397,2.001-2.029,2.001-2.9c0-0.25,0-1.246,0-1.246h-1.001v1.246c0,0.788-0.018,1.566-1,1.863l0.001-3.109h-2.001l-0.001,3.109  c-0.982-0.297-0.998-1.075-1-1.863c0-0.25,0-1.246,0-1.246h-1c0,0,0,0.248,0,1.246c0,0.871,0,2.503,2,2.9v1.021  c-2.226-0.302-2.999-1.641-3-3.175c0-1.994,0-1.994,0-1.994h-1c0,0,0,0,0,1.994c0,1.815,0.836,3.831,4,4.18v1.009  c-4.133-0.375-5.002-3.086-5.002-4.938c0-1.996,0-2.244,0-2.244h-1c0,0,0,0.997,0.001,2.244c0.001,2.782,1.733,5.562,6.001,5.937  v0.793l0,0c0,0.998-2,0.998-2,0.998v0.997h6.001v-0.997c0,0-1.999,0-2.001-0.996l0.001-0.795c4.269-0.375,6.005-3.154,6.002-5.937  c0-1.247,0-2.244,0-2.244L-262.468,423.41L-262.468,423.41z" fill="#FFFFFF"/>
</svg>
