<?xml version="1.0" encoding="UTF-8" standalone="no"?>
<!DOCTYPE svg PUBLIC "-//W3C//DTD SVG 1.1 Tiny//EN" "http://www.w3.org/Graphics/SVG/1.1/DTD/svg11-tiny.dtd">
<svg xmlns="http://www.w3.org/2000/svg" xmlns:xlink="http://www.w3.org/1999/xlink" baseProfile="tiny" height="20" version="1.1" viewBox="-278.469 420.405 20 20" width="20">
<path d="M-261.468,420.374h-14.001c-1.655,0-2.999,1.349-2.999,3.011v10.03l-0.002,7.021l5.744-4.014h11.259  c1.657,0,2.999-1.348,2.999-3.009v-10.029C-258.469,421.722-259.809,420.374-261.468,420.374z" fill="#612900"/>
<linearGradient gradientTransform="matrix(1 0 0 -1 0.0376 39.0249)" gradientUnits="userSpaceOnUse" id="XMLID_367_" x1="-268.5046" x2="-268.5046" y1="-382.3518" y2="-399.5256">
<stop offset="0" style="stop-color:#FF5E00"/>
<stop offset="0.1643" style="stop-color:#FF6201"/>
<stop offset="0.334" style="stop-color:#FF6F04"/>
<stop offset="0.5062" style="stop-color:#FF8308"/>
<stop offset="0.6792" style="stop-color:#FFA00E"/>
<stop offset="0.8146" style="stop-color:#FFBC14"/>
<stop offset="1" style="stop-color:#FFBC14"/>
</linearGradient>
<path d="M-261.468,421.377h-14.001c-1.104,0-1.999,0.897-1.999,2.008v10.03l-0.001,5.136l4.29-3.13h11.712  c1.105,0,2.001-0.896,2.001-2.006v-10.03C-259.467,422.275-260.361,421.377-261.468,421.377z" fill="url(#XMLID_367_)"/>
<linearGradient gradientTransform="matrix(1 0 0 -1 0.0376 39.0249)" gradientUnits="userSpaceOnUse" id="XMLID_368_" x1="-268.4753" x2="-268.4753" y1="-386.0657" y2="-382.3938">
<stop offset="0" style="stop-color:#FF7B00"/>
<stop offset="1" style="stop-color:#FFE1B5"/>
</linearGradient>
<path d="M-259.451,423.254c0,1.016-0.767,1.837-1.713,1.837h-14.55c-0.943,0-1.711-0.821-1.711-1.837l0,0  c0-1.013,0.768-1.835,1.711-1.835h14.55C-260.218,421.419-259.451,422.241-259.451,423.254L-259.451,423.254z" fill="url(#XMLID_368_)"/>
<path d="M-267.469,430.004" fill="#FFFFFF"/>
<path d="M-267.469,432.412" fill="#FFFFFF"/>
<path d="M-264.921,428.431" fill="#CA00FF"/>
<path d="M-261.467,423.385h-13.666l3.044,6.018h7.62v1.003c-0.737,0-1.384,0.404-1.73,1.004h-4.537  c-0.346-0.6-0.99-1.004-1.731-1.004c-1.104,0-2,0.897-2,2.007c0,1.107,0.896,2.007,2,2.007c1.105,0,1.999-0.898,1.999-2.007h4.002  c0,1.107,0.896,2.007,1.999,2.007c1.104,0,2.001-0.898,2.001-2.007c0-0.74-0.399-1.388-0.998-1.734v-6.29h1.999L-261.467,423.385  L-261.467,423.385z M-270.469,428.399h-0.999l-0.757-1.521h1.756V428.399z M-270.469,425.878h-2.257l-0.743-1.49h3V425.878z   M-267.469,428.399h-2v-1.521h2V428.399z M-267.469,425.878h-2v-1.49h2V425.878z M-264.469,428.399h-1.999v-1.521h1.999V428.399z   M-264.469,425.878h-1.999v-1.49h1.999V425.878z M-272.469,433.415c-0.552,0-1.001-0.449-1.001-1.003  c0-0.553,0.449-1.003,1.001-1.003c0.554,0,1,0.45,1,1.003C-271.469,432.966-271.915,433.415-272.469,433.415z M-264.469,433.415  c-0.551,0-0.998-0.449-0.998-1.003c0-0.553,0.447-1.003,0.998-1.003c0.555,0,1.003,0.45,1.003,1.003  C-263.466,432.966-263.914,433.415-264.469,433.415z" fill="#FFFFFF"/>
</svg>
