<?xml version="1.0" encoding="UTF-8" standalone="no"?>
<!DOCTYPE svg PUBLIC "-//W3C//DTD SVG 1.1 Tiny//EN" "http://www.w3.org/Graphics/SVG/1.1/DTD/svg11-tiny.dtd">
<svg xmlns="http://www.w3.org/2000/svg" xmlns:xlink="http://www.w3.org/1999/xlink" baseProfile="tiny" height="20" version="1.1" viewBox="-278.469 420.39 20 20" width="20">
<path d="M-261.469,420.411h-13.999c-1.657,0-3,1.342-3,2.994v16.963l5.743-3.991h11.256  c1.657,0,3.001-1.341,3.001-2.992v-9.979C-258.469,421.751-259.812,420.411-261.469,420.411z" fill="#002B7A"/>
<linearGradient gradientTransform="matrix(1 0 0 -1 0.0376 38.9941)" gradientUnits="userSpaceOnUse" id="XMLID_427_" x1="-268.5056" x2="-268.5056" y1="-382.417" y2="-399.4971">
<stop offset="0" style="stop-color:#292BFF"/>
<stop offset="0.1349" style="stop-color:#2B2FFF"/>
<stop offset="0.2743" style="stop-color:#303CFF"/>
<stop offset="0.4159" style="stop-color:#3850FF"/>
<stop offset="0.5588" style="stop-color:#446DFF"/>
<stop offset="0.7015" style="stop-color:#5392FF"/>
<stop offset="0.8146" style="stop-color:#61B5FF"/>
<stop offset="1" style="stop-color:#61B5FF"/>
</linearGradient>
<path d="M-261.469,421.411h-13.999c-1.104,0-2,0.894-2,1.994v9.979v5.106l4.289-3.111h7.139h4.571  c1.106,0,2.002-0.894,2.002-1.995v-9.979C-259.469,422.305-260.363,421.411-261.469,421.411z" fill="url(#XMLID_427_)"/>
<linearGradient gradientTransform="matrix(1 0 0 -1 0.0376 38.9941)" gradientUnits="userSpaceOnUse" id="XMLID_428_" x1="-268.4778" x2="-268.4778" y1="-386.1094" y2="-382.457">
<stop offset="0" style="stop-color:#292BFF"/>
<stop offset="1" style="stop-color:#BDE7FF"/>
</linearGradient>
<path d="M-259.455,423.277c0,1.009-0.766,1.826-1.709,1.826h-14.551c-0.943,0-1.711-0.817-1.711-1.826l0,0  c0-1.01,0.768-1.826,1.711-1.826h14.551C-260.219,421.452-259.455,422.268-259.455,423.277L-259.455,423.277z" fill="url(#XMLID_428_)"/>
<path d="M-267.469,429.993" fill="#FFFFFF"/>
<path d="M-267.469,432.385" fill="#FFFFFF"/>
<path d="M-267.469,429.993" fill="#FFFFFF"/>
<path d="M-267.469,432.387" fill="#FFFFFF"/>
<path d="M-262.097,429.911l-0.229-0.157l-5.008-3.422l-0.057-0.102c0,0-0.036-0.295-0.036-0.57v-1.52  c0-1.976-0.908-2.115-1.04-2.125v-0.002c0,0-0.011,0-0.014,0s-0.014,0-0.014,0v0.002c-0.133,0.01-1.04,0.149-1.04,2.125v1.52  c0,0.275-0.038,0.57-0.038,0.57l-0.056,0.102l-5.007,3.422l-0.229,0.157c0,0-0.289,0.226-0.287,0.506  c0.002,0.279,0.004,0.793,0.004,0.933s0.241,0.236,0.283,0.236c0.04,0,0.146-0.049,0.22-0.076c0.075-0.027,3.755-1.41,4.044-1.41  c0.291,0,0.834,0,0.834,0s0.121,0.018,0.166,0.064c0.047,0.046,0.065,0.123,0.065,0.123s0,1.996,0,2.125  c0,0.132-0.02,0.18-0.077,0.239c-0.058,0.058-0.217,0.161-0.15,0.112c0.065-0.049-1.552,0.733-1.667,0.832  c-0.134,0.111-0.134,0.111-0.167,0.188c-0.046,0.097-0.069,0.225-0.069,0.225l-0.025,0.395c0,0-0.003,0.302,0.048,0.354  c0.052,0.053,0.37-0.084,0.37-0.084s2.652-0.92,2.693-0.92h0.086c0.012,0,0.026,0,0.026,0h0.086c0.038,0,2.693,0.92,2.693,0.92  s0.318,0.137,0.37,0.084c0.052-0.052,0.048-0.354,0.048-0.354l-0.024-0.395c0,0-0.023-0.128-0.07-0.225  c-0.034-0.076-0.034-0.076-0.166-0.188c-0.116-0.099-1.733-0.881-1.667-0.832c0.064,0.049-0.096-0.056-0.151-0.112  c-0.058-0.06-0.077-0.107-0.077-0.239c0-0.13,0-2.125,0-2.125s0.018-0.077,0.065-0.123c0.046-0.047,0.167-0.064,0.167-0.064  s0.544,0,0.833,0c0.29,0,3.969,1.381,4.044,1.41c0.073,0.027,0.18,0.076,0.22,0.076s0.281-0.098,0.281-0.236  c0-0.14,0.004-0.653,0.007-0.933C-261.808,430.137-262.097,429.911-262.097,429.911z" fill="#FFFFFF"/>
</svg>
