<?xml version="1.0" encoding="utf-8"?>
<!-- Generator: Adobe Illustrator 12.0.0, SVG Export Plug-In . SVG Version: 6.00 Build 51448)  -->
<!DOCTYPE svg PUBLIC "-//W3C//DTD SVG 1.1 Tiny//EN" "http://www.w3.org/Graphics/SVG/1.1/DTD/svg11-tiny.dtd" [
	<!ENTITY ns_svg "http://www.w3.org/2000/svg">
	<!ENTITY ns_xlink "http://www.w3.org/1999/xlink">
]>
<svg  version="1.1" baseProfile="tiny" id="Layer_1" xmlns="&ns_svg;" xmlns:xlink="&ns_xlink;" width="40.098" height="40"
	 viewBox="0 0 40.098 40" xml:space="preserve">
<path fill="#004A00" d="M37.082,0.028H23.038c-1.661,0-3.01,1.34-3.01,2.992v16.953l5.762-3.99h11.292
	c1.666,0,3.016-1.338,3.016-2.991V3.02C40.098,1.368,38.748,0.028,37.082,0.028z"/>
<linearGradient id="XMLID_3_" gradientUnits="userSpaceOnUse" x1="30.0625" y1="1.0264" x2="30.0625" y2="18.0972">
	<stop  offset="0" style="stop-color:#007805"/>
	<stop  offset="0.1364" style="stop-color:#047A05"/>
	<stop  offset="0.2774" style="stop-color:#118104"/>
	<stop  offset="0.4206" style="stop-color:#258C04"/>
	<stop  offset="0.5651" style="stop-color:#429C03"/>
	<stop  offset="0.7094" style="stop-color:#67B101"/>
	<stop  offset="0.8146" style="stop-color:#87C200"/>
</linearGradient>
<path fill="url(#XMLID_3_)" d="M37.082,1.026H23.038c-1.108,0-2.005,0.892-2.005,1.993v9.971l-0.002,5.106l4.303-3.111h11.748
	c1.111,0,2.012-0.893,2.012-1.995V3.02C39.094,1.918,38.193,1.026,37.082,1.026z"/>
<linearGradient id="XMLID_4_" gradientUnits="userSpaceOnUse" x1="30.0928" y1="4.7168" x2="30.0928" y2="1.0649">
	<stop  offset="0" style="stop-color:#007805"/>
	<stop  offset="1" style="stop-color:#E2FFBD"/>
</linearGradient>
<path fill="url(#XMLID_4_)" d="M39.107,2.891c0,1.008-0.77,1.826-1.715,1.826h-14.6c-0.949,0-1.715-0.818-1.715-1.826l0,0
	c0-1.008,0.766-1.826,1.715-1.826h14.6C38.338,1.065,39.107,1.883,39.107,2.891L39.107,2.891z"/>
<path fill="#FFFFFF" d="M31.067,9.602"/>
<path fill="#FFFFFF" d="M31.067,11.995"/>
<path fill="#FFFFFF" d="M36.082,8.94l-9.029,0.062V5.013l-2.01-2.99l-2.005,2.99v8.976h14.044v-2.99L36.082,8.94z M29.059,12.991
	h-2.006c0,0,0,0,0-0.996c0-1.995,2.006-1.995,2.006,0C29.059,12.991,29.059,12.991,29.059,12.991z M32.068,12.991h-2.006
	c0,0,0,0,0-0.996c0-1.995,2.006-1.995,2.006,0C32.068,12.991,32.068,12.991,32.068,12.991z M35.076,12.991h-2.004c0,0,0,0,0-0.996
	c0-1.995,2.004-1.995,2.004,0C35.076,12.991,35.076,12.991,35.076,12.991z"/>
<rect fill="none" width="40.063" height="40"/>
</svg>
