<?xml version="1.0" encoding="UTF-8" standalone="no"?>
<!DOCTYPE svg PUBLIC "-//W3C//DTD SVG 1.1 Tiny//EN" "http://www.w3.org/Graphics/SVG/1.1/DTD/svg11-tiny.dtd">
<svg xmlns="http://www.w3.org/2000/svg" xmlns:xlink="http://www.w3.org/1999/xlink" baseProfile="tiny" height="40" version="1.1" viewBox="-20 0 40 40" width="40">
<g>
<g>
<path d="M17.002,0h-14c-1.658,0-3,1.344-3,3v10.003l-0.001,7l5.744-4.001h11.257c1.658,0,3-1.344,3-2.999V3    C20,1.343,18.659,0,17.002,0z" fill="#612900"/>
<linearGradient gradientTransform="matrix(1 0 0 1 0.0752 -822.7861)" gradientUnits="userSpaceOnUse" id="XMLID_3_" x1="9.9243" x2="9.9243" y1="823.7871" y2="840.9092">
<stop offset="0" style="stop-color:#FF5E00"/>
<stop offset="0.1643" style="stop-color:#FF6201"/>
<stop offset="0.334" style="stop-color:#FF6F04"/>
<stop offset="0.5062" style="stop-color:#FF8308"/>
<stop offset="0.6792" style="stop-color:#FFA00E"/>
<stop offset="0.8146" style="stop-color:#FFBC14"/>
<stop offset="1" style="stop-color:#FFBC14"/>
</linearGradient>
<path d="M17.002,1.001h-14c-1.104,0-2,0.894-2,1.999v10.002L1,18.123l4.289-3.121h11.713    c1.104,0,1.998-0.895,1.998-1.998V3C19,1.896,18.105,1.001,17.002,1.001z" fill="url(#XMLID_3_)"/>
<linearGradient gradientTransform="matrix(1 0 0 1 0.0752 -822.7861)" gradientUnits="userSpaceOnUse" id="XMLID_4_" x1="9.9546" x2="9.9546" y1="827.4893" y2="823.8281">
<stop offset="0" style="stop-color:#FF7B00"/>
<stop offset="1" style="stop-color:#FFE1B5"/>
</linearGradient>
<path d="M19.016,2.872c0,1.012-0.768,1.83-1.711,1.83H2.755c-0.944,0-1.711-0.818-1.711-1.83l0,0    c0-1.01,0.767-1.831,1.711-1.831h14.55C18.249,1.041,19.016,1.861,19.016,2.872L19.016,2.872z" fill="url(#XMLID_4_)"/>
<g>
<g>
<g>
<g>
<path d="M17.969,10.633l-7.088,0.568l1.553,3.16c0.104-0.022,0.207-0.047,0.305-0.076        c0.103-0.028,0.193-0.063,0.285-0.094c0.095-0.035,0.181-0.072,0.263-0.113c0.082-0.04,0.159-0.085,0.229-0.133l3.938-2.607        c0.076-0.051,0.146-0.104,0.203-0.16c0.061-0.055,0.109-0.113,0.15-0.174c0.043-0.061,0.08-0.119,0.104-0.182        C17.939,10.762,17.958,10.697,17.969,10.633 M7.657,6.505c-0.109,0.019-0.216,0.041-0.32,0.067        C7.234,6.599,7.135,6.628,7.038,6.66C6.942,6.692,6.85,6.728,6.762,6.766c-0.086,0.04-0.167,0.082-0.243,0.126l-3.87,2.321        c-0.07,0.041-0.134,0.084-0.191,0.13C2.4,9.389,2.348,9.437,2.302,9.486c-0.047,0.048-0.087,0.099-0.123,0.15        C2.144,9.687,2.113,9.739,2.087,9.791L7.86,9.92L7.657,6.505 M9.713,11.294l-1.757,0.14l-0.058-0.918l-5.856-0.133        c0.019,0.043,0.041,0.086,0.068,0.129c0.027,0.041,0.06,0.08,0.098,0.117c0.037,0.038,0.08,0.073,0.129,0.105        c0.049,0.031,0.102,0.063,0.161,0.088l7.731,3.464c0.064,0.032,0.135,0.056,0.209,0.079c0.076,0.021,0.156,0.039,0.24,0.057        s0.172,0.027,0.264,0.039c0.088,0.01,0.183,0.016,0.275,0.02L9.713,11.294 M17.318,9.662c-0.297-0.118-0.885-0.352-1.614-0.64        c-0.724-0.285-1.576-0.624-2.42-0.958c-0.834-0.33-1.654-0.655-2.332-0.923C10.284,6.879,9.757,6.67,9.501,6.569        C9.439,6.544,9.373,6.523,9.302,6.505C9.231,6.488,9.154,6.472,9.076,6.461C8.998,6.449,8.916,6.44,8.831,6.434        c-0.083-0.005-0.168-0.01-0.255-0.01l0.317,4.422l8.986-0.726c-0.025-0.047-0.061-0.091-0.094-0.136        C17.75,9.942,17.708,9.9,17.661,9.861c-0.048-0.039-0.099-0.076-0.154-0.109C17.448,9.719,17.387,9.688,17.318,9.662" fill="#FFFFFF"/>
</g>
</g>
</g>
</g>
<g>
<g>
<path d="M16.792,6.792c0.196,0,0.369-0.163,0.369-0.352l0,0V4.142c0-0.189-0.173-0.35-0.369-0.35l0,0L3.346,3.79      c-0.2,0.002-0.373,0.163-0.373,0.352l0,0V6.44c0,0.189,0.172,0.352,0.373,0.352l0,0l1.277,0.022L3.344,7.792h0.002      C2.556,7.79,1.918,7.187,1.917,6.44l0,0V4.142c0.002-0.747,0.639-1.35,1.429-1.352l0,0l13.445,0.002      c0.787,0,1.424,0.603,1.426,1.35l0,0V6.44c-0.002,0.747-0.639,1.35-1.426,1.352l0,0c0,0-0.271,0.026-0.354,0.026      c-0.125-0.012-2.068-1.029-2.068-1.03C14.37,6.788,16.792,6.791,16.792,6.792L16.792,6.792z" fill="#FFFFFF"/>
</g>
</g>
</g>
</g>
</svg>
