<?xml version="1.0" encoding="utf-8"?>
<!-- Generator: Adobe Illustrator 12.0.0, SVG Export Plug-In . SVG Version: 6.00 Build 51448)  -->
<!DOCTYPE svg PUBLIC "-//W3C//DTD SVG 1.1 Tiny//EN" "http://www.w3.org/Graphics/SVG/1.1/DTD/svg11-tiny.dtd" [
	<!ENTITY ns_svg "http://www.w3.org/2000/svg">
	<!ENTITY ns_xlink "http://www.w3.org/1999/xlink">
]>
<svg  version="1.1" baseProfile="tiny" id="Layer_1" xmlns="&ns_svg;" xmlns:xlink="&ns_xlink;" width="40.063" height="40"
	 viewBox="0 0 40.063 40" xml:space="preserve">
<path fill="#004A00" d="M37.042,0.027h-13.96c-1.652,0-2.992,1.339-2.992,2.991v9.974l0,6.98l5.729-3.989h11.224
	c1.654,0,2.993-1.34,2.993-2.991V3.019C40.035,1.367,38.696,0.027,37.042,0.027z"/>
<linearGradient id="XMLID_3_" gradientUnits="userSpaceOnUse" x1="30.0625" y1="1.0244" x2="30.0625" y2="18.0967">
	<stop  offset="0" style="stop-color:#007805"/>
	<stop  offset="0.1364" style="stop-color:#047A05"/>
	<stop  offset="0.2774" style="stop-color:#118104"/>
	<stop  offset="0.4206" style="stop-color:#258C04"/>
	<stop  offset="0.5651" style="stop-color:#429C03"/>
	<stop  offset="0.7094" style="stop-color:#67B101"/>
	<stop  offset="0.8146" style="stop-color:#87C200"/>
</linearGradient>
<path fill="url(#XMLID_3_)" d="M37.042,1.024h-13.96c-1.102,0-1.994,0.893-1.994,1.994v9.972v5.106l4.276-3.111h7.118h4.56
	c1.103,0,1.996-0.893,1.996-1.993V3.019C39.038,1.917,38.145,1.024,37.042,1.024z"/>
<linearGradient id="XMLID_4_" gradientUnits="userSpaceOnUse" x1="30.0918" y1="4.7158" x2="30.0918" y2="1.0649">
	<stop  offset="0" style="stop-color:#007805"/>
	<stop  offset="1" style="stop-color:#E2FFBD"/>
</linearGradient>
<path fill="url(#XMLID_4_)" d="M39.052,2.89c0,1.008-0.763,1.826-1.705,1.826H22.838c-0.941,0-1.705-0.817-1.705-1.826l0,0
	c0-1.007,0.764-1.825,1.705-1.825h14.509C38.289,1.065,39.052,1.883,39.052,2.89L39.052,2.89z"/>
<path fill="#FFFFFF" d="M31.061,9.601"/>
<path fill="#FFFFFF" d="M31.061,11.994"/>
<path fill="#FFFFFF" d="M37.042,7.008c0-1.995,0.002-1.995-1.994-1.995c-0.996,0-1.993,0-1.993,0s-0.997-1.995-1.994-1.995h-1.996
	c-0.995,0-1.993,1.995-1.993,1.995s-0.425,0-0.998,0c0-0.997,0-0.997-0.997-0.997s-0.997,0-0.997,0.997c0,0,0.015,0.008,0.034,0.017
	c-1.027,0.063-1.03,0.379-1.03,1.979c0,0.997,0,3.989,0,3.989c0,1.995,0,1.995,1.993,1.995h9.972c1.996,0,1.996,0,1.996-1.995
	C37.044,10,37.042,8.005,37.042,7.008z M30.063,11.995c-1.651,0-2.991-1.34-2.991-2.992c0-1.653,1.34-2.992,2.991-2.992
	c1.652,0,2.992,1.339,2.992,2.992C33.055,10.655,31.715,11.995,30.063,11.995z"/>
<rect fill="none" width="40.063" height="40"/>
</svg>
