<?xml version="1.0" encoding="utf-8"?>
<!-- Generator: Adobe Illustrator 12.0.0, SVG Export Plug-In . SVG Version: 6.00 Build 51448)  -->
<!DOCTYPE svg PUBLIC "-//W3C//DTD SVG 1.1 Tiny//EN" "http://www.w3.org/Graphics/SVG/1.1/DTD/svg11-tiny.dtd" [
	<!ENTITY ns_svg "http://www.w3.org/2000/svg">
	<!ENTITY ns_xlink "http://www.w3.org/1999/xlink">
]>
<svg  version="1.1" baseProfile="tiny" id="Layer_1" xmlns="&ns_svg;" xmlns:xlink="&ns_xlink;" width="40.063" height="40.053"
	 viewBox="0 0 40.063 40.053" xml:space="preserve">
<path fill="#612900" d="M37.063,0h-14c-1.656,0-3,1.35-3,3.016v10.053l-0.001,7.037l5.745-4.022h11.256c1.658,0,3-1.35,3-3.015
	V3.016C40.063,1.35,38.721,0,37.063,0z"/>
<linearGradient id="XMLID_3_" gradientUnits="userSpaceOnUse" x1="30.0635" y1="1.0054" x2="30.0635" y2="18.2158">
	<stop  offset="0" style="stop-color:#FF5E00"/>
	<stop  offset="0.1643" style="stop-color:#FF6201"/>
	<stop  offset="0.334" style="stop-color:#FF6F04"/>
	<stop  offset="0.5062" style="stop-color:#FF8308"/>
	<stop  offset="0.6792" style="stop-color:#FFA00E"/>
	<stop  offset="0.8146" style="stop-color:#FFBC14"/>
</linearGradient>
<path fill="url(#XMLID_3_)" d="M37.063,1.005h-14c-1.105,0-2,0.9-2,2.011v10.052v5.147l4.289-3.136h11.711
	c1.105,0,2.002-0.9,2.002-2.011V3.016C39.064,1.906,38.168,1.005,37.063,1.005z"/>
<linearGradient id="XMLID_4_" gradientUnits="userSpaceOnUse" x1="30.0918" y1="4.7256" x2="30.0918" y2="1.0469">
	<stop  offset="0" style="stop-color:#FF7B00"/>
	<stop  offset="1" style="stop-color:#FFE1B5"/>
</linearGradient>
<path fill="url(#XMLID_4_)" d="M39.076,2.886c0,1.017-0.766,1.839-1.709,1.839H22.816c-0.943,0-1.71-0.822-1.71-1.839l0,0
	c0-1.015,0.767-1.839,1.71-1.839h14.551C38.311,1.047,39.076,1.871,39.076,2.886L39.076,2.886z"/>
<path fill="#FFFFFF" d="M31.063,9.652"/>
<path fill="#FFFFFF" d="M31.063,12.063"/>
<path fill="#FFFFFF" d="M34.063,2.012c0.441,0,1,0.158,1,1.014c0,0.188,0,8.534,0,10.053c0,1.006-2,1.006-2,0c0-1.389,0-4.03,0-4.03
	s-2,0-2-2.012C31.063,4.022,33.063,2.012,34.063,2.012z"/>
<path fill="#FFFFFF" d="M25.063,3.03c0,0.768,0,2.884,0,3.743c0,1.004,1.494,1.27,1.494,1.27c0,4.607,0,3.7,0,5.04
	c0,1.358,2.015,1.314,2.015,0c0-1.567,0-5.04,0-5.04s1.491-0.266,1.491-1.27c0-1.124,0-2.886,0-3.743c0-1.359-1-1.359-1,0
	c0,0.99,0,2.44,0,3.002c0,0.991-1,0.991-1,0c0-0.976,0-2.205,0-3.002c0-1.359-1-1.299-1,0c0,0.897,0,2.46,0,3.002
	c0,0.991-1,0.991-1,0c-0.001-1.004,0-2.555,0-3.002C26.063,1.687,25.063,1.731,25.063,3.03z"/>
<rect y="0.053" fill="none" width="40.063" height="40"/>
</svg>
