<?xml version="1.0" encoding="UTF-8" standalone="no"?>
<!DOCTYPE svg PUBLIC "-//W3C//DTD SVG 1.1 Tiny//EN" "http://www.w3.org/Graphics/SVG/1.1/DTD/svg11-tiny.dtd">
<svg xmlns="http://www.w3.org/2000/svg" xmlns:xlink="http://www.w3.org/1999/xlink" baseProfile="tiny" height="20" version="1.1" viewBox="-278.469 420.39 20 20" width="20">
<path d="M-261.489,420.418h-13.961c-1.652,0-2.991,1.339-2.991,2.992v9.973l-0.001,6.979l5.729-3.986h11.226  c1.652,0,2.992-1.342,2.992-2.992v-9.973C-258.496,421.757-259.836,420.418-261.489,420.418z" fill="#2F1457"/>
<linearGradient gradientTransform="matrix(1 0 0 -1 0.0376 38.9941)" gradientUnits="userSpaceOnUse" id="XMLID_383_" x1="-268.5066" x2="-268.5066" y1="-382.4199" y2="-399.4922">
<stop offset="0" style="stop-color:#5E0EC7"/>
<stop offset="0.156" style="stop-color:#620FC9"/>
<stop offset="0.3171" style="stop-color:#6F12D0"/>
<stop offset="0.4807" style="stop-color:#8318DB"/>
<stop offset="0.6459" style="stop-color:#A01FEB"/>
<stop offset="0.811" style="stop-color:#C529FF"/>
<stop offset="0.8146" style="stop-color:#C629FF"/>
<stop offset="1" style="stop-color:#C629FF"/>
</linearGradient>
<path d="M-261.489,421.414h-13.961c-1.103,0-1.994,0.894-1.994,1.996v9.972l-0.001,5.104l4.276-3.111h11.68  c1.102,0,1.995-0.893,1.995-1.992v-9.973C-259.493,422.308-260.387,421.414-261.489,421.414z" fill="url(#XMLID_383_)"/>
<linearGradient gradientTransform="matrix(1 0 0 -1 0.0376 38.9941)" gradientUnits="userSpaceOnUse" id="XMLID_384_" x1="-268.4768" x2="-268.4768" y1="-386.1113" y2="-382.4609">
<stop offset="0" style="stop-color:#700EC7"/>
<stop offset="1" style="stop-color:#F4C9FF"/>
</linearGradient>
<path d="M-259.48,423.281c0,1.008-0.764,1.824-1.705,1.824h-14.509c-0.941,0-1.705-0.816-1.705-1.824l0,0  c0-1.009,0.764-1.826,1.705-1.826h14.509C-260.243,421.455-259.48,422.272-259.48,423.281L-259.48,423.281z" fill="url(#XMLID_384_)"/>
<path d="M-267.473,429.992" fill="#FFFFFF"/>
<path d="M-267.473,432.385" fill="#FFFFFF"/>
<path d="M-261.492,433.959v-6.067c0-0.218,0.04-0.291-0.312-0.291l-2.939,2.659c-0.063,0-0.103,0.005-0.143,0.011  v-1.42c1.298-0.453,2.273-1.681,2.273-3.075c0-1.758-1.456-3.184-3.251-3.184c-1.796,0-3.249,1.425-3.249,3.184  c0,0.922,0.382,1.77,0.998,2.375h-2.641c0.299-0.455,0.479-0.986,0.479-1.548c0-1.583-1.311-2.866-2.926-2.866  s-2.926,1.283-2.926,2.866c0,1.464,1.059,2.722,2.493,2.906v4.177c0,0.205-0.02,0.253,0.295,0.253h8.155  c0.352,0,0.296-0.048,0.296-0.253v-2.104c0.04,0.004,0.079,0.009,0.143,0.009l2.939,2.659  C-261.434,434.25-261.492,434.195-261.492,433.959z M-265.925,423.984c1.013,0,1.832,0.809,1.832,1.805s-0.819,1.742-1.832,1.742  c-1.012,0-1.832-0.746-1.832-1.742S-266.936,423.984-265.925,423.984z M-274.904,426.615c0-0.897,0.738-1.625,1.648-1.625  s1.648,0.728,1.648,1.625c0,0.782-0.563,1.392-1.312,1.535h-0.42c-0.065,0-0.109,0.004-0.149,0.01  C-274.286,428.057-274.904,427.433-274.904,426.615z" fill="#FFFFFF"/>
</svg>
