<?xml version="1.0" encoding="utf-8"?>
<!-- Generator: Adobe Illustrator 12.0.0, SVG Export Plug-In . SVG Version: 6.00 Build 51448)  -->
<!DOCTYPE svg PUBLIC "-//W3C//DTD SVG 1.1 Tiny//EN" "http://www.w3.org/Graphics/SVG/1.1/DTD/svg11-tiny.dtd" [
	<!ENTITY ns_svg "http://www.w3.org/2000/svg">
	<!ENTITY ns_xlink "http://www.w3.org/1999/xlink">
]>
<svg  version="1.1" baseProfile="tiny" id="Layer_1" xmlns="&ns_svg;" xmlns:xlink="&ns_xlink;" width="40.063" height="40.011"
	 viewBox="0 0 40.063 40.011" xml:space="preserve">
<g>
	<path fill="#002B7A" d="M37.063,0h-14c-1.655,0-3,1.345-3,3.003v17.018l5.744-4.005h11.256c1.656,0,3-1.344,3-3.003V3.003
		C40.063,1.345,38.719,0,37.063,0z"/>
</g>
<g>
	<linearGradient id="XMLID_3_" gradientUnits="userSpaceOnUse" x1="30.0625" y1="1.0015" x2="30.0625" y2="18.1377">
		<stop  offset="0" style="stop-color:#292BFF"/>
		<stop  offset="0.1349" style="stop-color:#2B2FFF"/>
		<stop  offset="0.2743" style="stop-color:#303CFF"/>
		<stop  offset="0.4159" style="stop-color:#3850FF"/>
		<stop  offset="0.5588" style="stop-color:#446DFF"/>
		<stop  offset="0.7015" style="stop-color:#5392FF"/>
		<stop  offset="0.8146" style="stop-color:#61B5FF"/>
	</linearGradient>
	<path fill="url(#XMLID_3_)" d="M37.063,1.001h-14c-1.104,0-2,0.896-2,2.002v15.134l4.289-3.122h11.711
		c1.104,0,2.001-0.896,2.001-2.002V3.003C39.063,1.897,38.167,1.001,37.063,1.001z"/>
</g>
<linearGradient id="XMLID_4_" gradientUnits="userSpaceOnUse" x1="30.0918" y1="4.7056" x2="30.0918" y2="1.041">
	<stop  offset="0" style="stop-color:#292BFF"/>
	<stop  offset="1" style="stop-color:#BDE7FF"/>
</linearGradient>
<path fill="url(#XMLID_4_)" d="M39.077,2.874c0,1.012-0.767,1.832-1.711,1.832H22.818c-0.945,0-1.711-0.82-1.711-1.832l0,0
	c0-1.011,0.766-1.833,1.711-1.833h14.548C38.311,1.041,39.077,1.862,39.077,2.874L39.077,2.874z"/>
<path fill="#FFFFFF" d="M31.063,9.611"/>
<path fill="#FFFFFF" d="M31.063,12.014"/>
<g>
	<path fill="#FFFFFF" d="M31.89,7.065c-0.038-0.129-0.098-0.241-0.176-0.336c-0.08-0.095-0.188-0.142-0.324-0.142h-2.168
		c-0.075,0-0.114,0.039-0.114,0.113v2.136c0,0.076,0.039,0.114,0.114,0.114h2.168c0.136,0,0.244-0.046,0.324-0.142
		c0.078-0.095,0.138-0.207,0.176-0.335c0.038-0.129,0.063-0.26,0.073-0.392c0.011-0.134,0.017-0.237,0.017-0.313
		s-0.006-0.181-0.017-0.313C31.952,7.325,31.928,7.194,31.89,7.065z M36.291,6.829c0,0-4.993-4.05-5.421-4.477
		c-0.429-0.428-0.81-0.776-1.565-0.018c-0.758,0.758-5.441,4.495-5.441,4.495s-2.526,1.697,0,1.697c0.887,0,0.887,0.045,0.887,0.045
		s0,3.39,0,4.418c0,1.025,0,1.025,0.889,1.025c0.887,0,7.99,0,8.877,0c0.888,0,0.888,0,0.888-1.025c0-1.028,0-4.463,0-4.463
		s0,0,0.888,0C38.725,8.526,36.291,6.829,36.291,6.829z M33.387,8.861c-0.082,0.325-0.215,0.605-0.396,0.841
		c-0.182,0.234-0.42,0.415-0.717,0.54c-0.295,0.124-0.654,0.186-1.078,0.186h-1.975c-0.075,0-0.114,0.039-0.114,0.114v2.602
		c0,0.075-0.037,0.114-0.113,0.114h-1.42c-0.075,0-0.113-0.039-0.113-0.114V5.349V5.224c0-0.077,0.038-0.115,0.113-0.115h3.622
		c0.424,0,0.783,0.066,1.078,0.2c0.297,0.132,0.535,0.315,0.717,0.551c0.181,0.234,0.313,0.515,0.396,0.841
		c0.084,0.326,0.126,0.682,0.126,1.069C33.513,8.17,33.471,8.536,33.387,8.861z"/>
</g>
<rect y="0.011" fill="none" width="40.063" height="40"/>
</svg>
