<?xml version="1.0" encoding="utf-8"?>
<!-- Generator: Adobe Illustrator 12.0.0, SVG Export Plug-In . SVG Version: 6.00 Build 51448)  -->
<!DOCTYPE svg PUBLIC "-//W3C//DTD SVG 1.1 Tiny//EN" "http://www.w3.org/Graphics/SVG/1.1/DTD/svg11-tiny.dtd" [
	<!ENTITY ns_svg "http://www.w3.org/2000/svg">
	<!ENTITY ns_xlink "http://www.w3.org/1999/xlink">
]>
<svg  version="1.1" baseProfile="tiny" id="Layer_1" xmlns="&ns_svg;" xmlns:xlink="&ns_xlink;" width="40.063" height="40.031"
	 viewBox="0 0 40.063 40.031" xml:space="preserve">
<path fill="#612900" d="M37.064,0H23.063c-1.656,0-2.999,1.348-2.999,3.01v10.031l-0.002,7.021l5.744-4.013h11.259
	c1.657,0,2.999-1.348,2.999-3.009V3.01C40.063,1.348,38.722,0,37.064,0z"/>
<linearGradient id="XMLID_3_" gradientUnits="userSpaceOnUse" x1="30.0645" y1="1.0034" x2="30.0645" y2="18.1758">
	<stop  offset="0" style="stop-color:#FF5E00"/>
	<stop  offset="0.1643" style="stop-color:#FF6201"/>
	<stop  offset="0.334" style="stop-color:#FF6F04"/>
	<stop  offset="0.5062" style="stop-color:#FF8308"/>
	<stop  offset="0.6792" style="stop-color:#FFA00E"/>
	<stop  offset="0.8146" style="stop-color:#FFBC14"/>
</linearGradient>
<path fill="url(#XMLID_3_)" d="M37.064,1.003H23.063c-1.104,0-1.999,0.897-1.999,2.007v10.031l-0.001,5.135l4.29-3.129h11.712
	c1.105,0,2.001-0.896,2.001-2.006V3.01C39.065,1.901,38.17,1.003,37.064,1.003z"/>
<linearGradient id="XMLID_4_" gradientUnits="userSpaceOnUse" x1="30.0938" y1="4.7168" x2="30.0938" y2="1.0449">
	<stop  offset="0" style="stop-color:#FF7B00"/>
	<stop  offset="1" style="stop-color:#FFE1B5"/>
</linearGradient>
<path fill="url(#XMLID_4_)" d="M39.08,2.88c0,1.015-0.766,1.837-1.713,1.837H22.818c-0.944,0-1.711-0.822-1.711-1.837l0,0
	c0-1.013,0.767-1.835,1.711-1.835h14.549C38.314,1.045,39.08,1.867,39.08,2.88L39.08,2.88z"/>
<path fill="#FFFFFF" d="M31.063,9.63"/>
<path fill="#FFFFFF" d="M31.063,12.038"/>
<path fill="#CA00FF" d="M33.611,8.057"/>
<path fill="#FFFFFF" d="M37.065,3.01H23.399l3.044,6.018h7.62v1.003c-0.738,0-1.384,0.404-1.731,1.004h-4.537
	c-0.346-0.6-0.99-1.004-1.731-1.004c-1.104,0-2,0.897-2,2.007c0,1.107,0.896,2.007,2,2.007c1.105,0,1.999-0.899,1.999-2.007h4.002
	c0,1.107,0.896,2.007,1.999,2.007c1.104,0,2.001-0.899,2.001-2.007c0-0.74-0.4-1.388-0.998-1.735v-6.29h1.999V3.01z M28.063,8.025
	h-0.999l-0.757-1.52h1.756V8.025z M28.063,5.504h-2.257l-0.743-1.491h3V5.504z M31.063,8.025h-2v-1.52h2V8.025z M31.063,5.504h-2
	V4.013h2V5.504z M34.063,8.025h-1.999v-1.52h1.999V8.025z M34.063,5.504h-1.999V4.013h1.999V5.504z M26.063,13.041
	c-0.552,0-1.001-0.449-1.001-1.003c0-0.553,0.449-1.003,1.001-1.003c0.553,0,1,0.45,1,1.003
	C27.063,12.592,26.616,13.041,26.063,13.041z M34.063,13.041c-0.551,0-0.998-0.449-0.998-1.003c0-0.553,0.447-1.003,0.998-1.003
	c0.554,0,1.003,0.45,1.003,1.003C35.066,12.592,34.617,13.041,34.063,13.041z"/>
<rect y="0.031" fill="none" width="40.063" height="40"/>
</svg>
