<?xml version="1.0" encoding="utf-8"?>
<!-- Generator: Adobe Illustrator 12.0.0, SVG Export Plug-In . SVG Version: 6.00 Build 51448)  -->
<!DOCTYPE svg PUBLIC "-//W3C//DTD SVG 1.1 Tiny//EN" "http://www.w3.org/Graphics/SVG/1.1/DTD/svg11-tiny.dtd" [
	<!ENTITY ns_svg "http://www.w3.org/2000/svg">
	<!ENTITY ns_xlink "http://www.w3.org/1999/xlink">
]>
<svg  version="1.1" baseProfile="tiny" id="Layer_1" xmlns="&ns_svg;" xmlns:xlink="&ns_xlink;" width="40.066" height="40"
	 viewBox="0 0 40.066 40" xml:space="preserve">
<path fill="#004A00" d="M37.065,0.028H23.061c-1.658,0-3.001,1.34-3.001,2.992v9.972l-0.001,6.98l5.746-3.988h11.261
	c1.658,0,3.001-1.34,3.001-2.992V3.02C40.066,1.368,38.724,0.028,37.065,0.028z"/>
<linearGradient id="XMLID_3_" gradientUnits="userSpaceOnUse" x1="30.0625" y1="1.0249" x2="30.0625" y2="18.0972">
	<stop  offset="0" style="stop-color:#007805"/>
	<stop  offset="0.1364" style="stop-color:#047A05"/>
	<stop  offset="0.2774" style="stop-color:#118104"/>
	<stop  offset="0.4206" style="stop-color:#258C04"/>
	<stop  offset="0.5651" style="stop-color:#429C03"/>
	<stop  offset="0.7094" style="stop-color:#67B101"/>
	<stop  offset="0.8146" style="stop-color:#87C200"/>
</linearGradient>
<path fill="url(#XMLID_3_)" d="M37.065,1.025H23.061c-1.105,0-2.001,0.893-2.001,1.995v15.077l4.29-3.111h11.716
	c1.104,0,2-0.892,2-1.994V3.02C39.065,1.918,38.17,1.025,37.065,1.025z"/>
<linearGradient id="XMLID_4_" gradientUnits="userSpaceOnUse" x1="30.0918" y1="4.7168" x2="30.0918" y2="1.0664">
	<stop  offset="0" style="stop-color:#007805"/>
	<stop  offset="1" style="stop-color:#E2FFBD"/>
</linearGradient>
<path fill="url(#XMLID_4_)" d="M39.08,2.891c0,1.008-0.767,1.826-1.711,1.826H22.813c-0.943,0-1.71-0.817-1.71-1.826l0,0
	c0-1.008,0.767-1.825,1.71-1.825h14.556C38.313,1.066,39.08,1.883,39.08,2.891L39.08,2.891z"/>
<path fill="#FFFFFF" d="M31.064,9.602"/>
<path fill="#FFFFFF" d="M31.064,11.995"/>
<path fill="#FFFFFF" d="M37.29,1.032c-0.11,0.175-5.521,8.788-5.895,9.275c-0.426,0.555-1.13,0.87-2.534,0.205
	c-2.66-1.261-6.066-2.853-5.764,0.259c0.299,3.08,1.57,3.246,4.464,3.246c2.993,0,3.108,0.206,4.788-2.54
	c1.429-2.335,5.213-8.099,6.294-9.871C38.644,1.605,38.337,1.094,37.29,1.032z M26.526,8.015c1.361,0,2.464-1.1,2.464-2.456
	s-1.103-2.456-2.464-2.456c-1.36,0-2.465,1.1-2.465,2.456S25.166,8.015,26.526,8.015z"/>
<rect fill="none" width="40.063" height="40"/>
</svg>
