<?xml version="1.0" encoding="utf-8"?>
<!-- Generator: Adobe Illustrator 12.0.0, SVG Export Plug-In . SVG Version: 6.00 Build 51448)  -->
<!DOCTYPE svg PUBLIC "-//W3C//DTD SVG 1.1 Tiny//EN" "http://www.w3.org/Graphics/SVG/1.1/DTD/svg11-tiny.dtd" [
	<!ENTITY ns_svg "http://www.w3.org/2000/svg">
	<!ENTITY ns_xlink "http://www.w3.org/1999/xlink">
]>
<svg  version="1.1" baseProfile="tiny" id="Layer_1" xmlns="&ns_svg;" xmlns:xlink="&ns_xlink;" width="40.063" height="40.065"
	 viewBox="0 0 40.063 40.065" xml:space="preserve">
<g>
	<path fill="#002B7A" d="M37.044,0H23.082C21.43,0,20.09,1.353,20.09,3.02v10.065l0,7.046l5.729-4.025h11.226
		c1.652,0,2.991-1.353,2.991-3.021V3.02C40.035,1.352,38.696,0,37.044,0z"/>
</g>
<g>
	<linearGradient id="XMLID_3_" gradientUnits="userSpaceOnUse" x1="30.0625" y1="1.0068" x2="30.0625" y2="18.2383">
		<stop  offset="0" style="stop-color:#292BFF"/>
		<stop  offset="0.1349" style="stop-color:#2B2FFF"/>
		<stop  offset="0.2743" style="stop-color:#303CFF"/>
		<stop  offset="0.4159" style="stop-color:#3850FF"/>
		<stop  offset="0.5588" style="stop-color:#446DFF"/>
		<stop  offset="0.7015" style="stop-color:#5392FF"/>
		<stop  offset="0.8146" style="stop-color:#61B5FF"/>
	</linearGradient>
	<path fill="url(#XMLID_3_)" d="M37.044,1.007H23.082c-1.102,0-1.994,0.901-1.994,2.013v15.219l4.276-3.141h11.68
		c1.101,0,1.994-0.9,1.994-2.013V3.02C39.038,1.908,38.145,1.007,37.044,1.007z"/>
</g>
<linearGradient id="XMLID_4_" gradientUnits="userSpaceOnUse" x1="30.0918" y1="4.7324" x2="30.0918" y2="1.0479">
	<stop  offset="0" style="stop-color:#292BFF"/>
	<stop  offset="1" style="stop-color:#BDE7FF"/>
</linearGradient>
<path fill="url(#XMLID_4_)" d="M39.052,2.89c0,1.017-0.764,1.842-1.705,1.842H22.838c-0.941,0-1.705-0.825-1.705-1.842l0,0
	c0-1.018,0.764-1.842,1.705-1.842h14.509C38.288,1.048,39.052,1.873,39.052,2.89L39.052,2.89z"/>
<path fill="#FFFFFF" d="M31.059,9.663"/>
<path fill="#FFFFFF" d="M31.059,12.078"/>
<g>
	<path fill="#FFFFFF" d="M27.07,2.013l-1.994,2.013l1.994,2.013l1.994-2.013L27.07,2.013z M26.073,4.026L27.07,3.02l0.997,1.006
		L27.07,5.033L26.073,4.026z"/>
</g>
<g>
	<path fill="#FFFFFF" d="M33.054,2.013l-1.995,2.013l1.995,2.013l1.994-2.013L33.054,2.013z M32.057,4.026l0.997-1.006l0.997,1.006
		l-0.997,1.007L32.057,4.026z"/>
</g>
<g>
	<path fill="#FFFFFF" d="M36.046,5.033c-0.998,0-10.97,0-11.968,0c-0.996,0-1.994,0-1.994,1.006c0,1.007,0,4.026,0,5.033
		c0,1.006,0.997,1.006,1.994,1.006c1.926,0,10.96,0,11.968,0c0.997,0,1.994,0,1.994-1.006c0-1.007,0-4.026,0-5.033
		C38.04,5.033,37.043,5.033,36.046,5.033z M25.076,8.052c0,1.007,0,1.007-0.998,1.007c-0.996,0-0.996,0-0.996-1.007
		c0-1.006,0-1.006,0-1.006c0-1.007-0.001-1.007,0.996-1.007c0.998,0,0.998,0,0.998,1.007C25.076,8.052,25.076,7.046,25.076,8.052z
		 M28.067,9.059c-0.997,0,0.001,0-0.997,0c-0.997,0-0.997,0-0.997-1.007c0-1.006,0-1.006,0-1.006c0-1.007,0-1.007,0.997-1.007
		c0.998,0,0,0,0.998,0c0.996,0,0.996,0,0.996,1.007c0,0.214,0,0.347,0,0.434c0,0.091,0,0.133,0,0.137c0,0.087,0,0.221,0,0.435
		C29.064,9.059,29.115,9.059,28.067,9.059z M32.057,9.059c-0.998,0,0,0-0.998,0c-0.996,0-0.996,0-0.996-1.007
		c0-1.006,0-1.006,0-1.006c0-1.007,0-1.007,0.996-1.007c0.998,0,0.001,0,0.998,0s0.997,0,0.997,1.007c0,0.214,0,0.347,0,0.434
		c0,0.091,0,0.133,0,0.137c0,0.087,0,0.221,0,0.435C33.054,9.059,33.104,9.059,32.057,9.059z M36.045,11.071c-0.341,0-0.558,0-0.7,0
		c-0.171,0-0.231,0-0.229,0c-0.023,0-0.041,0-0.068,0c-0.997,0-0.997,0.001-0.997-1.006c0-1.006,0-3.019,0-3.019
		c0-1.007,0-1.007,0.997-1.007s0,0,0.997,0s0.997,0,0.997,1.007c0,1.399,0.001,1.619,0.001,3.019
		C37.043,11.071,37.093,11.071,36.045,11.071z"/>
</g>
<ellipse fill="#FFFFFF" cx="30.062" cy="12.078" rx="1.995" ry="2.014"/>
<ellipse fill="#FFFFFF" cx="25.076" cy="12.078" rx="1.994" ry="2.013"/>
<path fill="#FFFFFF" d="M37.043,12.078c0,1.112-0.894,2.014-1.995,2.014s-1.994-0.901-1.994-2.014c0-1.112,0.893-1.006,1.994-1.006
	S37.043,10.966,37.043,12.078z"/>
<rect y="0.065" fill="none" width="40.063" height="40"/>
</svg>
