<?xml version="1.0" encoding="UTF-8" standalone="no"?>
<!DOCTYPE svg PUBLIC "-//W3C//DTD SVG 1.1 Tiny//EN" "http://www.w3.org/Graphics/SVG/1.1/DTD/svg11-tiny.dtd">
<svg xmlns="http://www.w3.org/2000/svg" xmlns:xlink="http://www.w3.org/1999/xlink" baseProfile="tiny" height="20" version="1.1" viewBox="-278.462 420.39 20 20" width="20">
<path d="M-261.452,420.417h-14.02c-1.658,0-3.003,1.339-3.003,2.991v9.973l-0.001,6.981l5.752-3.989h11.271  c1.662,0,3.004-1.339,3.004-2.992v-9.972C-258.447,421.756-259.79,420.417-261.452,420.417z" fill="#A10300"/>
<linearGradient gradientTransform="matrix(1 0 0 -1 0.0376 38.9941)" gradientUnits="userSpaceOnUse" id="XMLID_285_" x1="-268.4985" x2="-268.4985" y1="-382.4199" y2="-399.4932">
<stop offset="0" style="stop-color:#E0291C"/>
<stop offset="0.2143" style="stop-color:#E22D1D"/>
<stop offset="0.4357" style="stop-color:#E93A20"/>
<stop offset="0.6596" style="stop-color:#F54E25"/>
<stop offset="0.8146" style="stop-color:#FF6129"/>
<stop offset="1" style="stop-color:#FF6129"/>
</linearGradient>
<path d="M-261.452,421.414h-14.02c-1.105,0-2.002,0.893-2.002,1.994v9.972l-0.001,5.107l4.296-3.111h11.727  c1.105,0,2.005-0.893,2.005-1.995v-9.972C-259.447,422.307-260.345,421.414-261.452,421.414z" fill="url(#XMLID_285_)"/>
<linearGradient gradientTransform="matrix(1 0 0 -1 0.0376 38.9941)" gradientUnits="userSpaceOnUse" id="XMLID_286_" x1="-268.4688" x2="-268.4688" y1="-386.1113" y2="-382.4619">
<stop offset="0" style="stop-color:#ED2B0C"/>
<stop offset="1" style="stop-color:#FFA68C"/>
</linearGradient>
<path d="M-259.434,423.28c0,1.01-0.769,1.825-1.713,1.825h-14.569c-0.945,0-1.713-0.815-1.713-1.825l0,0  c0-1.009,0.768-1.824,1.713-1.824h14.569C-260.202,421.455-259.434,422.271-259.434,423.28L-259.434,423.28z" fill="url(#XMLID_286_)"/>
<path d="M-267.46,429.991" fill="#FFFFFF"/>
<path d="M-267.46,432.383" fill="#FFFFFF"/>
<path d="M-261.452,432.383c-0.762-1.162-5.348-7.99-6.008-8.975c-0.66-0.982-1.385-1-2.004,0  c-0.619,1.002-5.006,7.48-6.008,8.975c-1,1.497-0.703,1.996,1.094,1.996c2.205,0,9.654,0,11.806,0  C-260.688,434.379-260.688,433.549-261.452,432.383z M-268.46,433.381c-0.555,0-1.004-0.445-1.004-0.998  c0-0.55,0.449-0.996,1.004-0.996c0.552,0,1,0.446,1,0.996C-267.46,432.936-267.908,433.381-268.46,433.381z M-267.46,430.391h-2.004  v-4.986h2.004V430.391z" fill="#FFFFFF"/>
</svg>
