<?xml version="1.0" encoding="utf-8"?>
<!-- Generator: Adobe Illustrator 12.0.0, SVG Export Plug-In . SVG Version: 6.00 Build 51448)  -->
<!DOCTYPE svg PUBLIC "-//W3C//DTD SVG 1.1 Tiny//EN" "http://www.w3.org/Graphics/SVG/1.1/DTD/svg11-tiny.dtd" [
	<!ENTITY ns_svg "http://www.w3.org/2000/svg">
	<!ENTITY ns_xlink "http://www.w3.org/1999/xlink">
]>
<svg  version="1.1" baseProfile="tiny" id="Layer_1" xmlns="&ns_svg;" xmlns:xlink="&ns_xlink;" width="40.063" height="40.064"
	 viewBox="0 0 40.063 40.064" xml:space="preserve">
<path fill="#612900" d="M37.063,0h-14c-1.656,0-3,1.352-3,3.02v10.064v7.044l5.744-4.023h11.256c1.657,0,3-1.354,3-3.021V3.02
	C40.063,1.352,38.72,0,37.063,0z"/>
<linearGradient id="XMLID_3_" gradientUnits="userSpaceOnUse" x1="30.0625" y1="1.0063" x2="30.0625" y2="18.2363">
	<stop  offset="0" style="stop-color:#FF5E00"/>
	<stop  offset="0.1643" style="stop-color:#FF6201"/>
	<stop  offset="0.334" style="stop-color:#FF6F04"/>
	<stop  offset="0.5062" style="stop-color:#FF8308"/>
	<stop  offset="0.6792" style="stop-color:#FFA00E"/>
	<stop  offset="0.8146" style="stop-color:#FFBC14"/>
</linearGradient>
<path fill="url(#XMLID_3_)" d="M37.063,1.006h-14c-1.104,0-1.999,0.901-1.999,2.013v10.064l-0.001,5.152l4.289-3.142h11.711
	c1.104,0,2-0.898,2-2.011V3.02C39.063,1.908,38.167,1.006,37.063,1.006z"/>
<linearGradient id="XMLID_4_" gradientUnits="userSpaceOnUse" x1="30.0918" y1="4.7314" x2="30.0918" y2="1.0483">
	<stop  offset="0" style="stop-color:#FF7B00"/>
	<stop  offset="1" style="stop-color:#FFE1B5"/>
</linearGradient>
<path fill="url(#XMLID_4_)" d="M39.076,2.89c0,1.017-0.767,1.841-1.711,1.841H22.817c-0.944,0-1.71-0.824-1.71-1.841l0,0
	c0-1.018,0.766-1.842,1.71-1.842h14.548C38.31,1.048,39.076,1.873,39.076,2.89L39.076,2.89z"/>
<path fill="#FFFFFF" d="M31.063,9.661"/>
<path fill="#FFFFFF" d="M31.063,12.078"/>
<path fill="#FFFFFF" d="M36.297,9.902c-2.16-0.99-3.819-1.623-6.433-2.839c-1.954-0.909-0.477-3.216-2.021-4.238
	c-2.729-1.809-3.712,0.048-3.712,0.048l2.864,1.739l0.11,1.875l-2.019,0.82l-2.82-1.607c0,0-1.204,1.68,1.598,3.128
	c1.739,0.899,3.241-1.088,4.424-0.254c0.507,0.357,2.728,2.295,5.452,4.468C36.51,15.251,38.912,11.101,36.297,9.902z
	 M35.234,12.765c-0.646,0-1.171-0.525-1.171-1.174c0-0.65,0.525-1.178,1.171-1.178c0.645,0,1.168,0.528,1.168,1.178
	C36.402,12.239,35.879,12.765,35.234,12.765z"/>
<rect y="0.064" fill="none" width="40.063" height="40"/>
</svg>
