<?xml version="1.0" encoding="utf-8"?>
<!-- Generator: Adobe Illustrator 12.0.0, SVG Export Plug-In . SVG Version: 6.00 Build 51448)  -->
<!DOCTYPE svg PUBLIC "-//W3C//DTD SVG 1.1 Tiny//EN" "http://www.w3.org/Graphics/SVG/1.1/DTD/svg11-tiny.dtd" [
	<!ENTITY ns_svg "http://www.w3.org/2000/svg">
	<!ENTITY ns_xlink "http://www.w3.org/1999/xlink">
]>
<svg  version="1.1" baseProfile="tiny" id="Layer_1" xmlns="&ns_svg;" xmlns:xlink="&ns_xlink;" width="40.063" height="40.028"
	 viewBox="0 0 40.063 40.028" xml:space="preserve">
<path fill="#A10300" d="M37.063,0H23.063c-1.657,0-3.001,1.348-3.001,3.008v10.028v7.02l5.744-4.009h11.256c1.658,0,3-1.35,3-3.011
	V3.008C40.063,1.348,38.721,0,37.063,0z"/>
<linearGradient id="XMLID_3_" gradientUnits="userSpaceOnUse" x1="30.0625" y1="1.0039" x2="30.0625" y2="18.1719">
	<stop  offset="0" style="stop-color:#E0291C"/>
	<stop  offset="0.2143" style="stop-color:#E22D1D"/>
	<stop  offset="0.4357" style="stop-color:#E93A20"/>
	<stop  offset="0.6596" style="stop-color:#F54E25"/>
	<stop  offset="0.8146" style="stop-color:#FF6129"/>
</linearGradient>
<path fill="url(#XMLID_3_)" d="M37.063,1.004H23.063c-1.104,0-2,0.897-2,2.004v10.028l-0.001,5.136l4.289-3.131h11.711
	c1.104,0,2-0.896,2-2.005V3.008C39.063,1.901,38.166,1.004,37.063,1.004z"/>
<linearGradient id="XMLID_4_" gradientUnits="userSpaceOnUse" x1="30.0918" y1="4.7144" x2="30.0918" y2="1.0454">
	<stop  offset="0" style="stop-color:#ED2B0C"/>
	<stop  offset="1" style="stop-color:#FFA68C"/>
</linearGradient>
<path fill="url(#XMLID_4_)" d="M39.076,2.88c0,1.013-0.768,1.834-1.71,1.834h-14.55c-0.942,0-1.71-0.822-1.71-1.834l0,0
	c0-1.012,0.768-1.834,1.71-1.834h14.55C38.309,1.045,39.076,1.868,39.076,2.88L39.076,2.88z"/>
<polygon fill="#FFFFFF" points="36.766,10.029 36.766,7.623 36.766,7.021 35.999,7.021 35.999,12.436 35.999,13.438 36.766,13.438 
	36.766,12.034 37.997,12.034 37.997,10.029 "/>
<path fill="#FFFFFF" d="M35.441,7.021c0-0.556-0.448-1.005-1.003-1.005c0,0-0.001,0.001,0.003,0.001h-3.997
	c-0.557,0-1.004,0.448-1.005,1.003v6.017c0,0.552,0.448,1.003,1,1.003h3.999c0.555-0.004,1.003-0.451,1.003-1.003v-0.002l0,0V7.021
	L35.441,7.021z M31.939,13.036c-0.827,0-1.5-0.673-1.5-1.504c0-0.831,0.673-1.502,1.5-1.502c0.828,0,1.5,0.672,1.5,1.502
	C33.439,12.363,32.768,13.036,31.939,13.036z M33.439,9.025c-0.553,0-0.999-0.449-0.999-1.003c0-0.553,0.446-1,0.999-1
	c0.552,0,0.999,0.448,0.999,1C34.438,8.576,33.991,9.025,33.439,9.025z"/>
<path fill="#FFFFFF" d="M30.623,8.625"/>
<path fill="#FFFFFF" d="M30.623,11.032"/>
<path fill="#FFFFFF" d="M21.974,13.916c0,0,0-1.532,0-2.417c0-0.885,0.841-1.83,1.682-1.83c0.84,0,0.84-0.18,0.84-0.18
	s-2.083-0.527-2.083-3.06c0-2.125,1.243-3.333,2.924-3.333s2.766,1.298,2.766,3.493c0,2.462-1.926,2.9-1.926,2.9s0,0.18,0.841,0.18
	s1.682,0.944,1.682,1.83c0,0.884,0,2.417,0,2.417H21.974z"/>
<rect y="0.028" fill="none" width="40.063" height="40"/>
</svg>
