<?xml version="1.0" encoding="utf-8"?>
<!-- Generator: Adobe Illustrator 12.0.0, SVG Export Plug-In . SVG Version: 6.00 Build 51448)  -->
<!DOCTYPE svg PUBLIC "-//W3C//DTD SVG 1.1 Tiny//EN" "http://www.w3.org/Graphics/SVG/1.1/DTD/svg11-tiny.dtd" [
	<!ENTITY ns_svg "http://www.w3.org/2000/svg">
	<!ENTITY ns_xlink "http://www.w3.org/1999/xlink">
]>
<svg  version="1.1" baseProfile="tiny" id="Layer_1" xmlns="&ns_svg;" xmlns:xlink="&ns_xlink;" width="40.076" height="40"
	 viewBox="0 0 40.076 40" xml:space="preserve">
<path fill="#A10300" d="M37.072,0.027h-14.02c-1.658,0-3.003,1.339-3.003,2.991v9.973l-0.001,6.981l5.752-3.989h11.271
	c1.662,0,3.004-1.339,3.004-2.992V3.019C40.076,1.366,38.734,0.027,37.072,0.027z"/>
<linearGradient id="XMLID_3_" gradientUnits="userSpaceOnUse" x1="30.0625" y1="1.0244" x2="30.0625" y2="18.0977">
	<stop  offset="0" style="stop-color:#E0291C"/>
	<stop  offset="0.2143" style="stop-color:#E22D1D"/>
	<stop  offset="0.4357" style="stop-color:#E93A20"/>
	<stop  offset="0.6596" style="stop-color:#F54E25"/>
	<stop  offset="0.8146" style="stop-color:#FF6129"/>
</linearGradient>
<path fill="url(#XMLID_3_)" d="M37.072,1.024h-14.02c-1.105,0-2.002,0.893-2.002,1.994v9.972l-0.001,5.107l4.295-3.111h11.728
	c1.105,0,2.004-0.893,2.004-1.995V3.019C39.076,1.917,38.178,1.024,37.072,1.024z"/>
<linearGradient id="XMLID_4_" gradientUnits="userSpaceOnUse" x1="30.0918" y1="4.7158" x2="30.0918" y2="1.0654">
	<stop  offset="0" style="stop-color:#ED2B0C"/>
	<stop  offset="1" style="stop-color:#FFA68C"/>
</linearGradient>
<path fill="url(#XMLID_4_)" d="M39.09,2.89c0,1.01-0.768,1.826-1.713,1.826H22.808c-0.945,0-1.713-0.816-1.713-1.826l0,0
	c0-1.008,0.768-1.824,1.713-1.824h14.569C38.322,1.065,39.09,1.882,39.09,2.89L39.09,2.89z"/>
<path fill="#FFFFFF" d="M31.064,9.601"/>
<path fill="#FFFFFF" d="M31.064,11.993"/>
<path fill="#FFFFFF" d="M37.072,11.993c-0.762-1.162-5.348-7.99-6.008-8.975c-0.661-0.983-1.385-1-2.004,0
	c-0.619,1.002-5.006,7.48-6.008,8.975c-1,1.497-0.703,1.996,1.094,1.996c2.204,0,9.654,0,11.805,0
	C37.836,13.989,37.836,13.159,37.072,11.993z"/>
<ellipse fill="#FFFFFF" cx="30.063" cy="11.994" rx="1.003" ry="0.997"/>
<rect x="29.061" y="5.014" fill="#FFFFFF" width="2.004" height="4.986"/>
<path fill="#FFFFFF" d="M30.537,9.181c-0.004,0.002-0.006,0.002-0.01,0.002c-0.009,0-0.019-0.002-0.025-0.011
	c-0.046-0.051-0.087-0.099-0.126-0.149c-0.031-0.035-0.056-0.072-0.083-0.109c-0.021-0.03-0.042-0.063-0.064-0.095
	c-0.023-0.03-0.044-0.063-0.062-0.096c-0.031-0.053-0.058-0.101-0.087-0.151c-0.017-0.035-0.033-0.079-0.041-0.125
	c-0.006-0.023-0.011-0.05-0.019-0.076c-0.004-0.011-0.006-0.026-0.006-0.042l0,0c0-0.021,0.009-0.044,0.024-0.062l0.058-0.061
	l0.07-0.051c0.013-0.013,0.029-0.02,0.048-0.02c0.023,0,0.046,0.013,0.058,0.032l0.046,0.072c0.008,0.022,0.017,0.044,0.019,0.068
	c0,0.042,0.004,0.083,0.014,0.125c0.005,0.02,0.018,0.076,0.029,0.134c0.033,0.146,0.067,0.26,0.104,0.367l0.027,0.075l0.033,0.09
	c0.006,0.015,0.01,0.032,0.01,0.05c0,0.005,0,0.009-0.002,0.014C30.552,9.172,30.546,9.181,30.537,9.181z"/>
<g>
	<path fill="#231F20" d="M26.833,13.533l8.841-0.027l-0.027-0.107c-0.039-0.156-0.084-0.308-0.135-0.455
		c-0.039-0.119-0.094-0.241-0.16-0.352c-0.047-0.076-0.088-0.143-0.129-0.213c-0.008-0.009-0.018-0.017-0.031-0.025l-0.027-0.045
		l-0.098-0.219c-0.025-0.058-0.055-0.113-0.09-0.161c-0.031-0.046-0.063-0.089-0.096-0.129c-0.07-0.082-0.131-0.168-0.184-0.258
		c-0.053-0.094-0.117-0.179-0.191-0.257c-0.029-0.033-0.064-0.063-0.102-0.083c-0.045-0.03-0.078-0.069-0.104-0.114
		c-0.053-0.105-0.123-0.206-0.201-0.295c-0.104-0.121-0.266-0.173-0.422-0.132c-0.08,0.021-0.156,0.052-0.229,0.087
		c-0.133,0.067-0.256,0.151-0.365,0.251L33.01,10.96c-0.336-0.165-0.652-0.345-0.957-0.543l-0.135,0.054l-0.166-0.141l-0.09-0.1
		l-0.174-0.127c-0.209-0.156-0.438-0.289-0.674-0.397l-0.139-0.124l-0.219-0.209c-0.025-0.024-0.041-0.054-0.049-0.084
		c-0.026-0.086-0.043-0.176-0.048-0.262c-0.009-0.127-0.014-0.244-0.019-0.363c-0.004-0.092-0.011-0.184-0.021-0.275
		c-0.016-0.122-0.021-0.238-0.021-0.36c0-0.025,0-0.046,0-0.074c0-0.018,0.002-0.059,0.002-0.103
		c0.004-0.073,0.012-0.103,0.027-0.127l0.146-0.319l0.201-0.347c0.041-0.076,0.068-0.162,0.074-0.252
		c0.004-0.088-0.002-0.178-0.021-0.265c-0.008-0.035-0.02-0.067-0.033-0.101c-0.004-0.01-0.006-0.024-0.006-0.038
		c0-0.019,0.006-0.038,0.018-0.054c0.01-0.016,0.029-0.024,0.047-0.024c0.006,0,0.012,0,0.018,0.003
		c0.059,0.013,0.119,0,0.166-0.041c0.104-0.089,0.176-0.208,0.209-0.34c0.014-0.049,0.029-0.101,0.047-0.152
		c0.01-0.037,0.031-0.067,0.061-0.092c0.057-0.049,0.096-0.114,0.115-0.184c0.018-0.078,0.018-0.157,0-0.235
		c-0.021-0.087-0.066-0.168-0.137-0.228c-0.068-0.059-0.148-0.105-0.234-0.135c-0.094-0.03-0.189-0.054-0.285-0.067
		c-0.051-0.009-0.104,0-0.15,0.024C30.504,4.912,30.447,4.947,30.4,4.99c-0.051,0.041-0.088,0.097-0.109,0.162
		c-0.021,0.063-0.04,0.125-0.055,0.187c-0.01,0.041-0.018,0.079-0.022,0.117c-0.017,0.089-0.048,0.173-0.094,0.251
		c-0.034,0.065-0.063,0.114-0.097,0.163c0.006-0.008-0.037,0.024-0.088,0.041c-0.026,0.008-0.059,0.013-0.088,0.013
		c-0.023,0-0.045-0.002-0.066-0.008c-0.088-0.019-0.174-0.029-0.262-0.038c-0.072-0.006-0.145-0.02-0.21-0.041
		c-0.136-0.045-0.271-0.084-0.405-0.124c-0.076-0.022-0.16-0.027-0.244-0.013c-0.426,0.067-0.832,0.213-1.199,0.432
		c-0.037,0.023-0.075,0.044-0.11,0.069c-0.053,0.035-0.096,0.083-0.119,0.143c-0.03,0.068-0.046,0.138-0.054,0.208
		c-0.018,0.203-0.04,0.383-0.066,0.565c-0.016,0.119-0.076,0.244-0.168,0.344c-0.023,0.027-0.054,0.052-0.086,0.07
		C26.793,7.568,26.74,7.623,26.7,7.687c-0.019,0.028-0.026,0.06-0.026,0.092c0,0.052,0.021,0.103,0.061,0.136
		c0.037,0.03,0.078,0.06,0.118,0.084c0.032,0.021,0.067,0.032,0.104,0.038c0.019,0.003,0.032,0.016,0.034,0.036l-0.034,0.781
		l-0.005,0.644l0.01,0.309l-0.005,0.267l0.017,0.244l0.029,0.292c0.01,0.089,0.016,0.182,0.016,0.271
		c0,0.135-0.011,0.267-0.029,0.401c-0.014,0.083-0.021,0.176-0.021,0.262c0,0.026,0.002,0.052,0.002,0.075l-0.004,0.353l0.008,0.402
		l0.01,0.373l-0.006,0.181c-0.002,0.063,0.045,0.119-0.02,0.119l0.024,0.074c0,0-0.099-0.086-0.161-0.074L26.833,13.533z"/>
	<path fill="#FFFFFF" d="M30.02,9.23c-0.002,0.002-0.005,0.002-0.01,0.002c-0.012,0-0.021-0.002-0.03-0.014
		c-0.053-0.062-0.101-0.121-0.146-0.184C29.799,8.992,29.77,8.946,29.738,8.9c-0.025-0.038-0.049-0.079-0.076-0.117
		c-0.025-0.037-0.051-0.079-0.071-0.119c-0.035-0.065-0.067-0.124-0.099-0.186c-0.021-0.044-0.041-0.098-0.049-0.154
		c-0.008-0.031-0.014-0.063-0.021-0.096c-0.006-0.013-0.008-0.033-0.008-0.051l0,0c0-0.027,0.011-0.054,0.028-0.076l0.066-0.076
		l0.081-0.063c0.017-0.016,0.034-0.023,0.056-0.023c0.027,0,0.054,0.016,0.066,0.041l0.054,0.089
		c0.011,0.027,0.019,0.054,0.021,0.083c0,0.052,0.005,0.103,0.016,0.154c0.006,0.024,0.021,0.095,0.035,0.165
		c0.037,0.182,0.077,0.322,0.12,0.455l0.032,0.092l0.036,0.11c0.009,0.019,0.014,0.041,0.014,0.062c0,0.006,0,0.011-0.002,0.016
		C30.039,9.219,30.03,9.23,30.02,9.23z"/>
	<path fill="#FFFFFF" d="M28.363,6.795l-0.13,0.003l-0.114,0.013l-0.18,0.035c-0.008,0.003-0.019,0.008-0.021,0.019L27.87,6.971
		l-0.035,0.078l-0.023,0.068l-0.038,0.089l-0.061,0.124l-0.037,0.068l-0.043,0.105l-0.041,0.122L27.57,7.718l-0.008,0.034
		c-0.002,0.006-0.002,0.014-0.002,0.02c0,0.038,0.031,0.07,0.07,0.07c0,0,0,0,0.002,0c0.013,0,0.029-0.005,0.043-0.014l0.084-0.086
		l0.092-0.097l0.053-0.06l0.043-0.065l0.032-0.063c0.024-0.051,0.048-0.103,0.066-0.157l0.12-0.138l0.15-0.167l0.119-0.119
		c0.008-0.009,0.008-0.019-0.003-0.024l-0.034-0.043C28.391,6.801,28.377,6.795,28.363,6.795z"/>
	<path fill="#FFFFFF" d="M29.759,13.244l-0.329-0.228l-0.015-0.01l-0.062-0.02l-0.123-0.03l-0.236-0.143l0.012-0.048
		c0.02-0.085,0.059-0.166,0.11-0.236c0.042-0.062,0.081-0.127,0.114-0.197c0.027-0.055,0.04-0.108,0.043-0.168
		c0.01-0.187,0.043-0.374,0.091-0.558c0.056-0.199,0.122-0.405,0.194-0.611c0.037-0.1,0.056-0.194,0.064-0.286
		c0.002-0.022,0.005-0.043,0.002-0.065c0-0.013-0.006-0.027-0.014-0.038L29.54,10.54l-0.085-0.068l-0.08-0.073l-0.1-0.09
		l-0.061-0.064l-0.27-0.298L28.91,9.901l-0.016-0.024c-0.016-0.024-0.034-0.048-0.054-0.073c-0.011-0.013-0.021-0.022-0.034-0.03
		l-0.109-0.068l-0.08-0.03c-0.027-0.011-0.059-0.008-0.08,0.011c-0.035,0.027-0.059,0.07-0.07,0.114l-0.013,0.146l-0.016,0.143
		l-0.04,0.287c-0.008,0.07-0.014,0.138-0.014,0.205c0,0.065,0.006,0.127,0.014,0.19c0.002,0.023,0.002,0.048,0.002,0.073
		c0,0.07-0.01,0.14-0.034,0.206c-0.019,0.049-0.04,0.094-0.063,0.137c-0.063,0.117-0.107,0.238-0.139,0.366
		c-0.021,0.089-0.035,0.179-0.037,0.271c-0.006,0.147-0.024,0.296-0.057,0.443c-0.019,0.086-0.033,0.156-0.048,0.231
		c-0.003,0.021-0.026,0.039-0.054,0.039c-0.005,0-0.012,0-0.016-0.004l-0.064,0.004c-0.014,0-0.027,0.01-0.029,0.024
		c-0.019,0.064-0.026,0.13-0.026,0.194c0,0.063,0.008,0.124,0.023,0.185c0.014,0.059,0.056,0.105,0.112,0.124
		c0.048,0.017,0.099,0.029,0.15,0.035c0.047,0.009,0.088,0.044,0.094,0.089c0.007,0.021,0.009,0.041,0.009,0.061v0.001l0,0
		c0,0.046,0.03,0.081,0.069,0.094c0.04,0.012,0.083,0.021,0.123,0.023c0.063,0.005,0.123,0.014,0.188,0.023l0.193,0.007l0.229-0.01
		l0.181-0.032l0.114-0.027l0.176-0.034l0.12-0.025L29.759,13.244z"/>
	<path fill="#FFFFFF" d="M33.133,11.361l-0.068-0.014l-0.186-0.04c-0.125-0.026-0.244-0.065-0.361-0.116
		c-0.102-0.043-0.178-0.076-0.256-0.109c-0.094-0.037-0.188-0.1-0.27-0.177l-0.131-0.111l-0.111-0.113l-0.072-0.063l-0.084-0.063
		l-0.076-0.057l-0.098-0.06l-0.068-0.038l-0.074-0.038l-0.078-0.038l-0.082-0.043l-0.063-0.032L31,10.215l-0.055-0.03l-0.113-0.048
		l-0.227,0.628L30.6,10.788l-0.006,0.025l-0.088,0.296l-0.074,0.307l-0.057,0.193l-0.038,0.146l-0.079,0.369l-0.021,0.115
		c-0.014,0.061-0.041,0.114-0.082,0.16c-0.018,0.017-0.035,0.029-0.055,0.037c-0.045,0.025-0.092,0.036-0.144,0.036
		c-0.009,0-0.019,0-0.026-0.003c-0.035-0.002-0.069,0.012-0.091,0.038c-0.048,0.057-0.077,0.126-0.089,0.197
		c0,0.003,0,0.009,0,0.011c0,0.015,0.004,0.026,0.009,0.038l0.099,0.16l0.019,0.029l0.222,0.127
		c0.016,0.008,0.026,0.028,0.026,0.047c0,0,0,0.004,0,0.008l-0.019,0.072l0.074-0.017c0.097-0.023,0.195-0.035,0.299-0.035
		c0.059,0,0.121,0.003,0.18,0.012c0.115,0.017,0.232,0.038,0.352,0.066c0.123,0.03,0.248,0.046,0.379,0.049
		c0.088,0.004,0.176-0.006,0.258-0.031c0.035-0.009,0.076-0.019,0.113-0.026c0.078-0.015,0.148-0.053,0.197-0.109
		c0.039-0.037,0.084-0.09,0.131-0.136l0.119-0.172l0.066-0.108l0.074-0.105l0.063-0.096l0.102-0.156l0.047-0.077l0.07-0.146
		l0.051-0.112l0.035-0.071l0.029-0.057c0.1-0.186,0.229-0.359,0.387-0.509H33.133z"/>
</g>
<rect fill="none" width="40.063" height="40"/>
</svg>
