<?xml version="1.0" encoding="UTF-8" standalone="no"?>
<!DOCTYPE svg PUBLIC "-//W3C//DTD SVG 1.1 Tiny//EN" "http://www.w3.org/Graphics/SVG/1.1/DTD/svg11-tiny.dtd">
<svg xmlns="http://www.w3.org/2000/svg" xmlns:xlink="http://www.w3.org/1999/xlink" baseProfile="tiny" height="20" version="1.1" viewBox="-278.469 420.39 20 20" width="20">
<path d="M-261.468,420.398h-14c-1.655,0-3.001,1.341-3.001,2.996v16.986l5.745-3.998h11.256  c1.655,0,2.999-1.341,2.999-2.996v-9.992C-258.468,421.739-259.811,420.398-261.468,420.398z" fill="#004A00"/>
<linearGradient gradientTransform="matrix(1 0 0 -1 0.0376 38.9941)" gradientUnits="userSpaceOnUse" id="XMLID_363_" x1="-268.5061" x2="-268.5061" y1="-382.4023" y2="-399.5088">
<stop offset="0" style="stop-color:#007805"/>
<stop offset="0.1364" style="stop-color:#047A05"/>
<stop offset="0.2774" style="stop-color:#118104"/>
<stop offset="0.4206" style="stop-color:#258C04"/>
<stop offset="0.5651" style="stop-color:#429C03"/>
<stop offset="0.7094" style="stop-color:#67B101"/>
<stop offset="0.8146" style="stop-color:#87C200"/>
<stop offset="1" style="stop-color:#87C200"/>
</linearGradient>
<path d="M-261.468,421.396h-14c-1.104,0-1.999,0.896-1.999,1.998v9.992l-0.002,5.116l4.289-3.118h11.712  c1.104,0,1.999-0.894,1.999-1.998v-9.992C-259.468,422.291-260.363,421.396-261.468,421.396z" fill="url(#XMLID_363_)"/>
<linearGradient gradientTransform="matrix(1 0 0 -1 0.0376 38.9941)" gradientUnits="userSpaceOnUse" id="XMLID_364_" x1="-268.4758" x2="-268.4758" y1="-386.0996" y2="-382.4434">
<stop offset="0" style="stop-color:#007805"/>
<stop offset="1" style="stop-color:#E2FFBD"/>
</linearGradient>
<path d="M-259.454,423.266c0,1.011-0.767,1.828-1.71,1.828h-14.549c-0.944,0-1.71-0.817-1.71-1.828l0,0  c0-1.01,0.766-1.828,1.71-1.828h14.549C-260.219,421.438-259.454,422.256-259.454,423.266L-259.454,423.266z" fill="url(#XMLID_364_)"/>
<path d="M-267.468,429.99" fill="#FFFFFF"/>
<path d="M-267.468,432.387" fill="#FFFFFF"/>
<path d="M-267.468,429.99" fill="#FFFFFF"/>
<path d="M-267.468,432.387" fill="#FFFFFF"/>
<path d="M-264.468,430.389h-1.002v-3.998h1.002c1.104,0,2-0.894,2-1.998c0-1.103-0.896-1.998-2-1.998  s-2.001,0.896-2.001,1.998v1h-4v-1c0-1.103-0.894-1.998-1.999-1.998c-1.104,0-2,0.896-2,1.998c0,1.104,0.896,1.998,2,1.998h0.999  v3.998h-0.999c-1.104,0-2,0.894-2,1.998c0,1.104,0.896,1.998,2,1.998c1.104,0,1.999-0.896,1.999-1.998v-0.998h4v0.998  c0,1.104,0.896,1.998,2.001,1.998s2-0.896,2-1.998C-262.468,431.282-263.363,430.389-264.468,430.389z M-265.469,424.393  c0-0.551,0.449-0.998,1.002-0.998s1,0.447,1,0.998c0,0.553-0.447,1-1,1h-1.002V424.393z M-272.468,425.393  c-0.552,0-1.001-0.446-1.001-1c0-0.551,0.449-0.998,1.001-0.998c0.553,0,0.999,0.447,0.999,0.998v1H-272.468z M-271.468,432.387  c0,0.554-0.446,1-0.999,1c-0.552,0-1.001-0.446-1.001-1c0-0.553,0.449-0.998,1.001-0.998h0.999V432.387z M-270.468,430.389v-3.998h4  v3.998H-270.468z M-264.468,433.387c-0.553,0-1.002-0.446-1.002-1v-0.998h1.002c0.553,0,1,0.445,1,0.998  C-263.468,432.94-263.915,433.387-264.468,433.387z" fill="#FFFFFF"/>
</svg>
