<?xml version="1.0" encoding="utf-8"?>
<!-- Generator: Adobe Illustrator 12.0.0, SVG Export Plug-In . SVG Version: 6.00 Build 51448)  -->
<!DOCTYPE svg PUBLIC "-//W3C//DTD SVG 1.1 Tiny//EN" "http://www.w3.org/Graphics/SVG/1.1/DTD/svg11-tiny.dtd" [
	<!ENTITY ns_svg "http://www.w3.org/2000/svg">
	<!ENTITY ns_xlink "http://www.w3.org/1999/xlink">
]>
<svg  version="1.1" baseProfile="tiny" id="Layer_1" xmlns="&ns_svg;" xmlns:xlink="&ns_xlink;" width="40.063" height="40.038"
	 viewBox="0 0 40.063 40.038" xml:space="preserve">
<path fill="#612900" d="M37.063,0h-14c-1.655,0-3,1.348-3,3.011v10.04v7.024l5.744-4.014h11.256c1.656,0,3-1.351,3-3.011V3.011
	C40.063,1.348,38.719,0,37.063,0z"/>
<linearGradient id="XMLID_3_" gradientUnits="userSpaceOnUse" x1="30.0625" y1="1.0039" x2="30.0625" y2="18.1895">
	<stop  offset="0" style="stop-color:#FF5E00"/>
	<stop  offset="0.1643" style="stop-color:#FF6201"/>
	<stop  offset="0.334" style="stop-color:#FF6F04"/>
	<stop  offset="0.5062" style="stop-color:#FF8308"/>
	<stop  offset="0.6792" style="stop-color:#FFA00E"/>
	<stop  offset="0.8146" style="stop-color:#FFBC14"/>
</linearGradient>
<path fill="url(#XMLID_3_)" d="M37.063,1.004h-14c-1.104,0-1.999,0.899-1.999,2.007v10.038l-0.001,5.141l4.289-3.134h11.711
	c1.104,0,2.001-0.896,2.001-2.005V3.011C39.063,1.903,38.167,1.004,37.063,1.004z"/>
<linearGradient id="XMLID_4_" gradientUnits="userSpaceOnUse" x1="30.0918" y1="4.7192" x2="30.0918" y2="1.0454">
	<stop  offset="0" style="stop-color:#FF7B00"/>
	<stop  offset="1" style="stop-color:#FFE1B5"/>
</linearGradient>
<path fill="url(#XMLID_4_)" d="M39.077,2.883c0,1.014-0.767,1.836-1.711,1.836H22.818c-0.944,0-1.711-0.823-1.711-1.836l0,0
	c0-1.016,0.767-1.837,1.711-1.837h14.548C38.311,1.045,39.077,1.867,39.077,2.883L39.077,2.883z"/>
<path fill="#FFFFFF" d="M31.062,9.637"/>
<path fill="#FFFFFF" d="M31.062,12.045"/>
<g>
	<path fill="#FFFFFF" d="M29.273,7.765c0,0.123,0.04,0.229,0.121,0.319c0.08,0.09,0.219,0.166,0.418,0.227V7.244
		c-0.201,0.059-0.342,0.131-0.421,0.217S29.273,7.648,29.273,7.765z M30.5,10.009v1.336c0.265-0.053,0.458-0.14,0.581-0.261
		s0.185-0.257,0.185-0.407c0-0.131-0.052-0.251-0.156-0.361S30.802,10.104,30.5,10.009z M32.089,5.069l2.052-1.999
		c0,0-1.024-1-4.104-1c-3.077,0-4.103,1-4.103,1l2.051,1.999c0,0-5.128,2-5.128,4.998c0,3.997,4.103,3.997,7.18,3.997
		c3.078,0,7.181,0,7.182-3.997C37.22,7.068,32.089,5.069,32.089,5.069z M32.812,11.293c-0.151,0.253-0.346,0.464-0.582,0.634
		c-0.236,0.169-0.487,0.292-0.753,0.368c-0.267,0.076-0.592,0.122-0.977,0.136v0.789h-0.688v-0.789
		c-0.461-0.036-0.835-0.102-1.122-0.197s-0.534-0.229-0.743-0.397c-0.209-0.17-0.369-0.352-0.482-0.547
		c-0.113-0.196-0.197-0.433-0.254-0.71l1.898-0.195c0.057,0.274,0.133,0.473,0.229,0.595s0.254,0.23,0.475,0.324V9.832
		c-0.635-0.155-1.084-0.29-1.348-0.404c-0.266-0.114-0.495-0.296-0.689-0.547c-0.193-0.251-0.291-0.557-0.291-0.918
		c0-0.494,0.195-0.907,0.586-1.238c0.391-0.332,0.971-0.516,1.742-0.552V5.759H30.5v0.414c0.702,0.039,1.238,0.185,1.609,0.439
		c0.372,0.254,0.613,0.602,0.727,1.043L31.086,7.9c-0.088-0.195-0.166-0.331-0.236-0.406s-0.188-0.152-0.35-0.229v1.205
		c0.95,0.225,1.585,0.462,1.904,0.712c0.423,0.336,0.635,0.762,0.635,1.279C33.039,10.763,32.963,11.042,32.812,11.293z"/>
</g>
<rect y="0.038" fill="none" width="40.063" height="40"/>
</svg>
