<?xml version="1.0" encoding="UTF-8" standalone="no"?>
<!DOCTYPE svg PUBLIC "-//W3C//DTD SVG 1.1 Tiny//EN" "http://www.w3.org/Graphics/SVG/1.1/DTD/svg11-tiny.dtd">
<svg xmlns="http://www.w3.org/2000/svg" xmlns:xlink="http://www.w3.org/1999/xlink" baseProfile="tiny" height="20" version="1.1" viewBox="-278.451 420.39 20 20" width="20">
<path d="M-261.426,420.449h-14.048c-1.663,0-3.012,1.335-3.012,2.982v9.939l-0.001,6.959l5.765-3.977h11.296  c1.663,0,3.011-1.336,3.011-2.982v-9.939C-258.415,421.784-259.763,420.449-261.426,420.449z" fill="#2F1457"/>
<linearGradient gradientTransform="matrix(1 0 0 -1 0.0376 38.9941)" gradientUnits="userSpaceOnUse" id="XMLID_297_" x1="-268.488" x2="-268.488" y1="-382.4502" y2="-399.4678">
<stop offset="0" style="stop-color:#5E0EC7"/>
<stop offset="0.156" style="stop-color:#620FC9"/>
<stop offset="0.3171" style="stop-color:#6F12D0"/>
<stop offset="0.4807" style="stop-color:#8318DB"/>
<stop offset="0.6459" style="stop-color:#A01FEB"/>
<stop offset="0.811" style="stop-color:#C529FF"/>
<stop offset="0.8146" style="stop-color:#C629FF"/>
<stop offset="1" style="stop-color:#C629FF"/>
</linearGradient>
<path d="M-261.426,421.444h-14.048c-1.109,0-2.007,0.89-2.007,1.987v9.94l-0.002,5.09l4.306-3.102h7.162  h4.589c1.107,0,2.008-0.89,2.008-1.988v-9.94C-259.418,422.333-260.319,421.444-261.426,421.444z" fill="url(#XMLID_297_)"/>
<linearGradient gradientTransform="matrix(1 0 0 -1 0.0376 38.9941)" gradientUnits="userSpaceOnUse" id="XMLID_298_" x1="-268.4587" x2="-268.4587" y1="-386.1289" y2="-382.4902">
<stop offset="0" style="stop-color:#700EC7"/>
<stop offset="1" style="stop-color:#F4C9FF"/>
</linearGradient>
<path d="M-259.406,423.303c0,1.006-0.769,1.82-1.716,1.82h-14.6c-0.947,0-1.716-0.814-1.716-1.82l0,0  c0-1.004,0.769-1.818,1.716-1.818h14.601C-260.173,421.484-259.406,422.299-259.406,423.303L-259.406,423.303z" fill="url(#XMLID_298_)"/>
<path d="M-267.448,429.994" fill="#FFFFFF"/>
<path d="M-267.448,432.378" fill="#FFFFFF"/>
<path d="M-273.467,422.438c0,0,0,5.964,0,7.953c0,2.98,5.018,4.97,5.018,4.97s5.017-1.988,5.017-4.97  c0-1.989,0-7.953,0-7.953H-273.467z M-270.832,425.42c1.004,0,1.379,1.988,1.379,1.988h-3.011  C-272.464,427.408-271.835,425.42-270.832,425.42z M-268.45,433.372c-3.011,0-4.015-3.976-4.015-3.976s1.005,0.994,4.015,0.994  s4.015-0.996,4.015-0.996S-265.44,433.372-268.45,433.372z M-267.448,427.408c0,0,0.513-1.988,1.516-1.988  c1.004,0,1.496,1.988,1.496,1.988H-267.448z" fill="#FFFFFF"/>
</svg>
