<?xml version="1.0" encoding="utf-8"?>
<!-- Generator: Adobe Illustrator 12.0.0, SVG Export Plug-In . SVG Version: 6.00 Build 51448)  -->
<!DOCTYPE svg PUBLIC "-//W3C//DTD SVG 1.1 Tiny//EN" "http://www.w3.org/Graphics/SVG/1.1/DTD/svg11-tiny.dtd" [
	<!ENTITY ns_svg "http://www.w3.org/2000/svg">
	<!ENTITY ns_xlink "http://www.w3.org/1999/xlink">
]>
<svg  version="1.1" baseProfile="tiny" id="Layer_1" xmlns="&ns_svg;" xmlns:xlink="&ns_xlink;" width="40.063" height="40"
	 viewBox="0 0 40.063 40" xml:space="preserve">
<path fill="#2F1457" d="M37.043,0.028H23.082c-1.652,0-2.991,1.339-2.991,2.992v9.973l-0.001,6.979l5.729-3.987h11.225
	c1.653,0,2.992-1.341,2.992-2.992V3.02C40.035,1.367,38.696,0.028,37.043,0.028z"/>
<linearGradient id="XMLID_3_" gradientUnits="userSpaceOnUse" x1="30.0625" y1="1.0254" x2="30.0625" y2="18.0972">
	<stop  offset="0" style="stop-color:#5E0EC7"/>
	<stop  offset="0.156" style="stop-color:#620FC9"/>
	<stop  offset="0.3171" style="stop-color:#6F12D0"/>
	<stop  offset="0.4807" style="stop-color:#8318DB"/>
	<stop  offset="0.6459" style="stop-color:#A01FEB"/>
	<stop  offset="0.811" style="stop-color:#C529FF"/>
	<stop  offset="0.8146" style="stop-color:#C629FF"/>
</linearGradient>
<path fill="url(#XMLID_3_)" d="M37.043,1.025H23.082c-1.102,0-1.994,0.893-1.994,1.995v9.972l-0.001,5.105l4.277-3.111h11.679
	c1.102,0,1.995-0.893,1.995-1.993V3.02C39.038,1.918,38.145,1.025,37.043,1.025z"/>
<linearGradient id="XMLID_4_" gradientUnits="userSpaceOnUse" x1="30.0918" y1="4.7163" x2="30.0918" y2="1.0654">
	<stop  offset="0" style="stop-color:#700EC7"/>
	<stop  offset="1" style="stop-color:#F4C9FF"/>
</linearGradient>
<path fill="url(#XMLID_4_)" d="M39.052,2.891c0,1.008-0.764,1.825-1.705,1.825H22.838c-0.941,0-1.705-0.817-1.705-1.825l0,0
	c0-1.008,0.764-1.826,1.705-1.826h14.509C38.288,1.065,39.052,1.883,39.052,2.891L39.052,2.891z"/>
<path fill="#FFFFFF" d="M31.059,9.602"/>
<path fill="#FFFFFF" d="M31.059,11.995"/>
<path fill="#FFFFFF" d="M37.039,13.57V7.502c0-0.218,0.04-0.291-0.311-0.291l-2.94,2.659c-0.063,0-0.102,0.005-0.142,0.011V8.461
	c1.298-0.453,2.273-1.68,2.273-3.075c0-1.758-1.456-3.184-3.251-3.184c-1.796,0-3.249,1.425-3.249,3.184
	c0,0.922,0.382,1.77,0.998,2.374h-2.64c0.298-0.455,0.479-0.985,0.479-1.547c0-1.583-1.31-2.866-2.926-2.866
	c-1.615,0-2.925,1.283-2.925,2.866c0,1.463,1.058,2.722,2.493,2.906v4.177c0,0.205-0.02,0.253,0.295,0.253h8.155
	c0.351,0,0.296-0.048,0.296-0.253v-2.104c0.04,0.004,0.079,0.009,0.142,0.009l2.94,2.66C37.098,13.86,37.039,13.805,37.039,13.57z
	 M32.607,3.595c1.012,0,1.832,0.808,1.832,1.805c0,0.996-0.82,1.741-1.832,1.741S30.775,6.396,30.775,5.4
	C30.775,4.403,31.596,3.595,32.607,3.595z M23.628,6.225c0-0.897,0.738-1.625,1.649-1.625c0.91,0,1.648,0.728,1.648,1.625
	c0,0.783-0.563,1.392-1.311,1.535h-0.42c-0.066,0-0.11,0.005-0.15,0.011C24.245,7.667,23.628,7.043,23.628,6.225z"/>
<rect fill="none" width="40.063" height="40"/>
</svg>
