<?xml version="1.0" encoding="UTF-8" standalone="no"?>
<!DOCTYPE svg PUBLIC "-//W3C//DTD SVG 1.1 Tiny//EN" "http://www.w3.org/Graphics/SVG/1.1/DTD/svg11-tiny.dtd">
<svg xmlns="http://www.w3.org/2000/svg" xmlns:xlink="http://www.w3.org/1999/xlink" baseProfile="tiny" height="20" version="1.1" viewBox="-278.469 420.391 20 20" width="20">
<path d="M-261.467,420.39h-14.001c-1.657,0-3,1.344-3,3v10.002l-0.001,7l5.745-4h11.258c1.656,0,2.998-1.344,2.998-3  V423.39C-258.468,421.732-259.81,420.39-261.467,420.39z" fill="#612900"/>
<linearGradient gradientTransform="matrix(1 0 0 -1 0.0376 38.9961)" gradientUnits="userSpaceOnUse" id="XMLID_325_" x1="-268.5061" x2="-268.5061" y1="-382.3936" y2="-399.5146">
<stop offset="0" style="stop-color:#FF5E00"/>
<stop offset="0.1643" style="stop-color:#FF6201"/>
<stop offset="0.334" style="stop-color:#FF6F04"/>
<stop offset="0.5062" style="stop-color:#FF8308"/>
<stop offset="0.6792" style="stop-color:#FFA00E"/>
<stop offset="0.8146" style="stop-color:#FFBC14"/>
<stop offset="1" style="stop-color:#FFBC14"/>
</linearGradient>
<path d="M-261.467,421.39h-14.001c-1.104,0-2.001,0.895-2.001,2v10.002v5.119l4.289-3.121h11.714  c1.104,0,1.998-0.895,1.998-1.998V423.39C-259.468,422.285-260.363,421.39-261.467,421.39z" fill="url(#XMLID_325_)"/>
<linearGradient gradientTransform="matrix(1 0 0 -1 0.0376 38.9961)" gradientUnits="userSpaceOnUse" id="XMLID_326_" x1="-268.4773" x2="-268.4773" y1="-386.0947" y2="-382.4346">
<stop offset="0" style="stop-color:#FF7B00"/>
<stop offset="1" style="stop-color:#FFE1B5"/>
</linearGradient>
<path d="M-259.454,423.261c0,1.012-0.767,1.83-1.709,1.83h-14.551c-0.943,0-1.711-0.818-1.711-1.83l0,0  c0-1.01,0.768-1.83,1.711-1.83h14.551C-260.22,421.431-259.454,422.25-259.454,423.261L-259.454,423.261z" fill="url(#XMLID_326_)"/>
<path d="M-267.468,429.992" fill="#FFFFFF"/>
<path d="M-267.468,432.392" fill="#FFFFFF"/>
<path d="M-275.068,425.277c-0.246,0.332-0.4,0.723-0.4,1.114v5c0,0.346,0.121,0.69,0.32,0.996l4.734-2.875  L-275.068,425.277z M-262.515,424.683c-0.295-0.182-0.623-0.293-0.953-0.293c-1.449,0-8.622,0-10,0c-0.33,0-0.66,0.111-0.953,0.293  l5.953,5.42L-262.515,424.683z M-261.87,425.277l-4.654,4.235l4.738,2.875c0.194-0.306,0.317-0.65,0.317-0.996v-5  C-261.468,425.999-261.622,425.608-261.87,425.277z M-268.468,431.284l-1.168-1.063l-4.764,2.892  c0.288,0.173,0.609,0.278,0.932,0.278h10c0.322,0,0.644-0.105,0.933-0.278l-4.767-2.892L-268.468,431.284z" fill="#FFFFFF"/>
</svg>
