<?xml version="1.0" encoding="utf-8"?>
<!-- Generator: Adobe Illustrator 12.0.0, SVG Export Plug-In . SVG Version: 6.00 Build 51448)  -->
<!DOCTYPE svg PUBLIC "-//W3C//DTD SVG 1.1 Tiny//EN" "http://www.w3.org/Graphics/SVG/1.1/DTD/svg11-tiny.dtd" [
	<!ENTITY ns_svg "http://www.w3.org/2000/svg">
	<!ENTITY ns_xlink "http://www.w3.org/1999/xlink">
]>
<svg  version="1.1" baseProfile="tiny" id="Layer_1" xmlns="&ns_svg;" xmlns:xlink="&ns_xlink;" width="40.063" height="40"
	 viewBox="0 0 40.063 40" xml:space="preserve">
<path fill="#2F1457" d="M37.044,0.059H23.082c-1.652,0-2.991,1.335-2.991,2.982v9.941l-0.001,6.958l5.729-3.976h11.226
	c1.652,0,2.991-1.336,2.991-2.982V3.042C40.035,1.394,38.696,0.059,37.044,0.059z"/>
<linearGradient id="XMLID_3_" gradientUnits="userSpaceOnUse" x1="30.0625" y1="1.0527" x2="30.0625" y2="18.0708">
	<stop  offset="0" style="stop-color:#5E0EC7"/>
	<stop  offset="0.156" style="stop-color:#620FC9"/>
	<stop  offset="0.3171" style="stop-color:#6F12D0"/>
	<stop  offset="0.4807" style="stop-color:#8318DB"/>
	<stop  offset="0.6459" style="stop-color:#A01FEB"/>
	<stop  offset="0.811" style="stop-color:#C529FF"/>
	<stop  offset="0.8146" style="stop-color:#C629FF"/>
</linearGradient>
<path fill="url(#XMLID_3_)" d="M37.044,1.053H23.082c-1.102,0-1.994,0.89-1.994,1.989v9.94v5.089l4.276-3.101h11.68
	c1.101,0,1.994-0.89,1.994-1.987V3.042C39.038,1.943,38.145,1.053,37.044,1.053z"/>
<linearGradient id="XMLID_4_" gradientUnits="userSpaceOnUse" x1="30.0918" y1="4.7324" x2="30.0918" y2="1.0938">
	<stop  offset="0" style="stop-color:#700EC7"/>
	<stop  offset="1" style="stop-color:#F4C9FF"/>
</linearGradient>
<path fill="url(#XMLID_4_)" d="M39.052,2.913c0,1.005-0.764,1.819-1.705,1.819H22.838c-0.941,0-1.705-0.814-1.705-1.819l0,0
	c0-1.005,0.764-1.819,1.705-1.819h14.509C38.288,1.094,39.052,1.908,39.052,2.913L39.052,2.913z"/>
<path fill="#FFFFFF" d="M31.061,9.603"/>
<path fill="#FFFFFF" d="M31.061,11.988"/>
<polygon fill="#D1A0DE" points="26.268,4.637 34.388,4.696 30.078,8.991 "/>
<path fill="#FFFFFF" d="M35.171,4.938c0.318-0.318,0.075-0.995-0.922-0.995h-0.711c0.53-0.529,0.997-0.995,1.23-1.227
	c0.813-0.812-0.271-1.424-0.85-0.848c0,0-1.016,1.038-2.031,2.074h-5.616c-0.998,0-1.357,0.636-0.998,0.994s4.141,4.128,4.141,4.128
	v2.993c0,0-1.895,0.949-2.976,0.949s-1.081,1.077,0,1.077h7.567c1.081,0,1.081-1.077,0-1.077s-2.965-0.944-2.965-0.944V9.055
	C31.041,9.055,34.854,5.254,35.171,4.938z M30.221,8.403l-3.353-3.382h3.962c-0.418,0.425-0.754,0.766-0.898,0.91
	c-0.561,0.559,0.25,1.359,0.807,0.804c0.251-0.251,0.958-0.956,1.719-1.713h1.125L30.221,8.403z"/>
<rect fill="none" width="40.063" height="40"/>
</svg>
