<?xml version="1.0" encoding="UTF-8" standalone="no"?>
<!DOCTYPE svg PUBLIC "-//W3C//DTD SVG 1.1 Tiny//EN" "http://www.w3.org/Graphics/SVG/1.1/DTD/svg11-tiny.dtd">
<svg xmlns="http://www.w3.org/2000/svg" xmlns:xlink="http://www.w3.org/1999/xlink" baseProfile="tiny" height="40" version="1.1" viewBox="-20 0 40 40" width="40">
<g>
<g>
<path d="M17,0H3C1.342,0,0,1.344,0,3v10.003l-0.001,7l5.744-4.002H17c1.658,0,3-1.345,3-2.998V3    C20,1.343,18.659,0,17,0z" fill="#612900"/>
<linearGradient gradientTransform="matrix(1 0 0 -1 152.5752 -873.7861)" gradientUnits="userSpaceOnUse" id="XMLID_3_" x1="-142.5771" x2="-142.5771" y1="-874.7871" y2="-891.9087">
<stop offset="0" style="stop-color:#FF5E00"/>
<stop offset="0.1643" style="stop-color:#FF6201"/>
<stop offset="0.334" style="stop-color:#FF6F04"/>
<stop offset="0.5062" style="stop-color:#FF8308"/>
<stop offset="0.6792" style="stop-color:#FFA00E"/>
<stop offset="0.8146" style="stop-color:#FFBC14"/>
<stop offset="1" style="stop-color:#FFBC14"/>
</linearGradient>
<path d="M17,1.001H3C1.896,1.001,1,1.895,1,3v10.001l-0.002,5.121l4.289-3.121H17    c1.104,0,1.998-0.896,1.998-1.998V3C19,1.896,18.104,1.001,17,1.001z" fill="url(#XMLID_3_)"/>
<linearGradient gradientTransform="matrix(1 0 0 -1 152.5752 -873.7861)" gradientUnits="userSpaceOnUse" id="XMLID_4_" x1="-142.5469" x2="-142.5469" y1="-878.4883" y2="-874.8271">
<stop offset="0" style="stop-color:#FF7B00"/>
<stop offset="1" style="stop-color:#FFE1B5"/>
</linearGradient>
<path d="M19.014,2.872c0,1.012-0.768,1.83-1.709,1.83H2.754c-0.944,0-1.711-0.818-1.711-1.83l0,0    c0-1.01,0.767-1.831,1.711-1.831h14.549C18.249,1.041,19.014,1.861,19.014,2.872L19.014,2.872z" fill="url(#XMLID_4_)"/>
<path d="M3.625,1.594v0.813c0.536,0.033,0.969,0.456,0.969,1c0,0.545-0.432,1-0.969,1.031v1.031    C4.162,5.5,4.594,5.956,4.594,6.5c0,0.545-0.432,1-0.969,1.031v1.031C4.162,8.594,4.594,9.05,4.594,9.594    c0,0.545-0.432,1-0.969,1.031v1.031c0.537,0.032,0.969,0.486,0.969,1.031s-0.432,1.001-0.969,1.031V14.5h0.75c0-0.564,0.435-1,1-1    c0.566,0,1.031,0.436,1.031,1h1.063c0-0.564,0.435-1,1-1s1.031,0.436,1.031,1h1.031c0-0.564,0.465-1,1.031-1    c0.563,0,1.031,0.436,1.031,1h1.031c0-0.564,0.465-1,1.031-1c0.564,0,1.031,0.436,1.031,1h0.844v-0.781    c-0.021,0.002-0.043,0-0.063,0c-0.564,0-1-0.466-1-1.031c0-0.564,0.436-1.031,1-1.031c0.02,0,0.041,0,0.063,0v-1.031    c-0.021,0.002-0.043,0-0.063,0c-0.564,0-1-0.465-1-1.031s0.436-1.031,1-1.031c0.02,0,0.041-0.001,0.063,0V7.531    c-0.021,0.001-0.043,0-0.063,0c-0.564,0-1-0.465-1-1.031c0-0.565,0.436-1.031,1-1.031c0.02,0,0.041-0.001,0.063,0V4.438    c-0.021,0.001-0.041,0-0.063,0c-0.564,0-1-0.465-1-1.031s0.436-1,1-1c0.021,0,0.041-0.001,0.063,0V1.594h-0.844    c0,0.566-0.467,1.031-1.031,1.031c-0.566,0-1.031-0.465-1.031-1.031h-1.031c0,0.566-0.469,1.031-1.031,1.031    c-0.566,0-1.031-0.465-1.031-1.031H9.5c0,0.566-0.465,1.031-1.031,1.031c-0.565,0-1-0.465-1-1.031H6.406    c0,0.566-0.465,1.031-1.031,1.031c-0.565,0-1-0.465-1-1.031H3.625z M5.656,3.625h8.781v8.812H5.656V3.625z" fill="#FFFFFF"/>
<g>
<g>
<path d="M9.263,3.94c0.021,0.194,0.202,0.228,0.228,0.417c-0.014,0.051-0.066,0.06-0.076,0.114      C9.218,4.452,9.195,4.262,9.112,4.13c-0.176-0.173-0.754-0.24-0.912,0c0.065,0.201,0.375,0.158,0.342,0.456      c-0.35,0.067-0.746-0.525-1.14-0.191c0.154,0.302,0.404,0.508,0.607,0.761c1.822-0.961,4.341-0.222,4.597,1.938      c0.063,0.527-0.164,1.031-0.151,1.557c0.181,0.03,0.465-0.067,0.494-0.379c0.014-0.154-0.22-0.061-0.19-0.228      c0.057-0.187,0.379-0.105,0.381-0.345c0.034-0.159-0.252-0.001-0.229-0.15c0.074-0.191,0.369-0.162,0.304-0.493      c-0.151-0.024-0.153,0.1-0.304,0.075c-0.059-0.283,0.465-0.408,0.266-0.835c-0.213-0.036-0.199,0.155-0.418,0.114      c0.055-0.249,0.443-0.628,0.076-0.836c-0.168,0.008-0.089,0.265-0.305,0.226c-0.034-0.186,0.246-0.699-0.151-0.759      c-0.093,0.085-0.071,0.283-0.228,0.304c-0.152-0.206,0.17-0.837-0.381-0.798c0.006,0.159,0.014,0.318-0.074,0.381      c-0.271-0.224-0.137-0.852-0.686-0.798c-0.126,0.098,0.026,0.271-0.076,0.417c-0.261-0.185-0.306-0.778-0.834-0.569      c-0.015,0.173,0.242,0.37,0.038,0.494C9.916,4.219,9.673,3.773,9.263,3.94z" fill="#FFFFFF"/>
<path d="M9.377,5.232c0.839,0.057,1.864,0.281,2.354,1.025c0.199,0.301,0.183,0.672,0.381,1.025      C12.076,5.752,10.844,5.084,9.377,5.232z" fill="#FFFFFF"/>
<path d="M8.124,6.561C8.127,6.682,8.21,6.728,8.352,6.712C8.302,6.636,8.226,6.584,8.124,6.561z" fill="#FFFFFF"/>
<path d="M8.883,7.205C8.944,7.469,9.397,7.521,9.605,7.51C9.413,7.361,9.156,7.275,8.883,7.205z" fill="#FFFFFF"/>
<path d="M7.859,7.245C7.744,7.248,7.748,7.513,7.896,7.472C7.943,7.357,7.923,7.326,7.859,7.245z" fill="#FFFFFF"/>
<path d="M9.566,8.003C9.292,7.81,8.877,7.755,8.579,7.586C8.421,7.72,8.092,7.681,7.933,7.814      c0.218,0.133,0.754-0.047,0.95,0.189C8.946,7.761,9.433,8.141,9.566,8.003z" fill="#FFFFFF"/>
<path d="M7.667,8.119c0.427-0.016,0.975-0.191,1.292,0.189C8.998,8.195,9.056,8.101,9.186,8.08      C9.31,8.375,8.883,8.428,8.655,8.498c-0.291,0.34-0.356,0.91-0.607,1.291C7.807,9.8,7.603,9.779,7.629,9.524      c0.042-0.177,0.211,0.009,0.229-0.19C7.87,9.232,7.646,9.37,7.707,9.219c0.139-0.194,0.096-0.284,0-0.494      c0.039-0.102,0.306-0.173,0.152-0.342c-0.129,0-0.131,0.124-0.268,0.114C7.501,8.423,7.382,8.38,7.326,8.271      c0.092-0.25,0.229-0.455,0.456-0.572C7.776,7.873,7.688,7.962,7.667,8.119z M8.047,9.068C7.918,9.08,7.87,9.341,8.085,9.296      C8.132,9.179,8.115,9.148,8.047,9.068z" fill="#FFFFFF"/>
<path d="M10.327,8.308c-0.194,0.008-0.296,0.109-0.304,0.305c0.05,0,0.102,0,0.151,0      c0.032-0.045,0.05-0.104,0.038-0.191c0.076-0.012,0.119,0.009,0.114,0.076C10.458,8.47,10.352,8.383,10.327,8.308z" fill="#FFFFFF"/>
<path d="M9.947,8.688C9.825,8.792,9.715,8.914,9.681,9.107c0.037,0,0.029,0.045,0.038,0.075      C9.83,9.23,9.968,9.179,10.061,9.107C9.927,8.978,10.011,8.872,9.947,8.688z" fill="#FFFFFF"/>
<path d="M9.3,8.763C9.133,8.775,9.073,8.89,8.921,8.916c-0.123,0.387-0.463,0.749-0.493,1.103      C8.776,9.825,9.142,9.146,9.3,8.763z" fill="#FFFFFF"/>
<path d="M12.491,8.84c-0.149-0.012-0.204,0.073-0.188,0.228c0.154,0.015,0.239-0.038,0.229-0.19      C12.497,8.884,12.494,8.863,12.491,8.84z" fill="#FFFFFF"/>
<path d="M10.63,9.524c0.058,0.114,0.218-0.083,0.188,0.075c0.082,0.019,0.072-0.055,0.076-0.115      c0.063-0.01,0.066,0.037,0.114,0.04c0.042,0.148,0.095,0.444,0.038,0.569c-0.148-0.004-0.139-0.166-0.152-0.305      c-0.041-0.1-0.049,0.15-0.076,0.191c-0.063,0.002-0.098-0.03-0.112-0.077c-0.072,0.12-0.09,0.282,0,0.38      c0.198,0.033,0.422-0.107,0.53-0.038c-0.082-0.347,0.107-1.239-0.379-1.177c-0.078-0.027-0.149-0.119-0.229-0.038      C10.63,9.195,10.63,9.36,10.63,9.524z" fill="#FFFFFF"/>
<path d="M10.403,9.219c-0.116,0.302-0.206,0.632-0.342,0.911c0.029,0.162,0.185,0.195,0.266,0.305      C10.542,10.277,10.409,9.535,10.403,9.219z" fill="#FFFFFF"/>
<path d="M9.263,9.713c0.05,0,0.102,0,0.151,0C9.438,9.876,9.38,9.958,9.3,10.018      c-0.118,0.017-0.121-0.081-0.114-0.19c-0.204,0.287-0.468,0.52-0.569,0.912c0.27-0.217,0.613-0.104,0.646,0.268      c0.38-0.127,0.656-0.364,1.14-0.19c-0.157-0.264-0.472-0.364-0.607-0.646c0.048-0.307,0.3-0.407,0.304-0.76      C9.757,9.378,9.317,9.248,9.263,9.713z" fill="#FFFFFF"/>
<path d="M9.035,9.675c-0.179,0.138-0.305,0.327-0.38,0.569C8.8,10.072,8.946,9.903,9.035,9.675z" fill="#FFFFFF"/>
<path d="M11.01,10.548c-0.131-0.066-0.582-0.01-0.455,0.19C10.768,10.736,10.863,10.615,11.01,10.548z" fill="#FFFFFF"/>
<path d="M8.162,11.992c0.161,0.394,0.53,0.045,0.873-0.037c0.689-0.17,1.546-0.047,2.166,0.115      c0.195-0.045,0.246-0.234,0.418-0.305c-0.057-0.311-0.232-0.502-0.381-0.723c-0.317-0.013-0.438,0.17-0.646,0.266      c-0.358-0.516-1.001-0.311-1.406,0.113c-0.256-0.033,0.044-0.623-0.265-0.605C8.545,11.083,8.419,11.605,8.162,11.992z" fill="#FFFFFF"/>
<path d="M8.276,5.382c0.355,0.15,0.917,0.057,0.873-0.265c1.542-0.425,2.998,0.6,3.19,1.9      c-0.017-0.114-0.009,0.344-0.037,0.455c-0.036,0.139-0.196,0.22-0.267,0.379C11.941,8.07,11.998,8.32,11.959,8.65      c-0.057,0.51-0.454,1.129-0.189,1.595c0.092,0.16,0.623,0.463,0.685-0.037c-0.104-0.177-0.265,0.056-0.38-0.038      c-0.45-0.691,0.23-1.596,0.304-2.393c0.04-0.433,0.034-0.889-0.151-1.405c-0.129-0.151-0.129-0.036-0.151-0.267      c-0.402-0.639-1.265-1.183-2.317-1.177C9.224,4.931,8.644,5.081,8.276,5.382z" fill="#FFFFFF"/>
<path d="M11.695,6.75c0.025-0.061-0.18-0.061-0.152,0c0.131,0.236,0.023,0.542,0.189,0.686      c0.104,0.016,0.035-0.141,0.113-0.152c0.113,0.646-0.316,1.965-1.216,1.442c0.031-0.323-0.114-0.46-0.304-0.722      c0.244-0.293,0.346-0.709-0.038-0.836c-0.114-0.037-0.275,0.049-0.38,0.037C9.56,7.173,9.234,6.889,8.921,6.75      C8.648,6.63,8.323,6.524,8.238,6.333C8.831,4.955,11.5,5.423,11.695,6.75z M11.391,6.902c0.092,0.251-0.084,0.182-0.076,0.418      c0.049,0.053,0.166,0.037,0.266,0.037C11.572,7.151,11.629,6.878,11.391,6.902z M11.01,7.699      c0.021,0.033,0.04,0.063,0.038,0.115c0.138-0.016,0.242-0.063,0.267-0.189C11.242,7.564,11.127,7.691,11.01,7.699z" fill="#FFFFFF"/>
<path d="M7.819,7.017c0.612,0.382,1.558,0.974,2.47,0.682c0.012-0.088,0.061-0.141,0.038-0.264      c-0.081-0.026-0.169-0.102-0.228-0.038c-0.131,0.128,0.135,0.059,0.113,0.189C9.361,8.019,8.522,7.228,7.819,7.017z" fill="#FFFFFF"/>
<path d="M9.833,8.233C9.658,8.714,9.358,9.075,9.112,9.484c0.388-0.371,0.696-1.01,0.987-1.518      c-0.25-0.128-0.33,0.175-0.494,0.305C9.333,8.484,8.85,8.503,8.694,8.84C9.054,8.619,9.411,8.393,9.833,8.233z" fill="#FFFFFF"/>
<path d="M11.391,10.664c-0.027,0.127-0.304,0-0.305,0.152C11.21,10.789,11.373,10.798,11.391,10.664z" fill="#FFFFFF"/>
<path d="M8.579,10.853c-0.222,0.107-0.432,0.555-0.569,0.873C8.27,11.505,8.366,11.121,8.579,10.853z" fill="#FFFFFF"/>
</g>
</g>
</g>
</g>
</svg>
