<?xml version="1.0" encoding="utf-8"?>
<!-- Generator: Adobe Illustrator 12.0.0, SVG Export Plug-In . SVG Version: 6.00 Build 51448)  -->
<!DOCTYPE svg PUBLIC "-//W3C//DTD SVG 1.1 Tiny//EN" "http://www.w3.org/Graphics/SVG/1.1/DTD/svg11-tiny.dtd" [
	<!ENTITY ns_svg "http://www.w3.org/2000/svg">
	<!ENTITY ns_xlink "http://www.w3.org/1999/xlink">
]>
<svg  version="1.1" baseProfile="tiny" id="Layer_1" xmlns="&ns_svg;" xmlns:xlink="&ns_xlink;" width="40.063" height="40.003"
	 viewBox="0 0 40.063 40.003" xml:space="preserve">
<path fill="#612900" d="M37.063,0H23.063c-1.658,0-3,1.346-3,3.001v17.006l5.744-4.001h11.257c1.655,0,2.999-1.345,2.999-3.001
	V3.001C40.063,1.343,38.719,0,37.063,0z"/>
<linearGradient id="XMLID_3_" gradientUnits="userSpaceOnUse" x1="30.0625" y1="1.0005" x2="30.0625" y2="18.124">
	<stop  offset="0" style="stop-color:#C76000"/>
	<stop  offset="0.1616" style="stop-color:#C96402"/>
	<stop  offset="0.3286" style="stop-color:#D17107"/>
	<stop  offset="0.4982" style="stop-color:#DC8510"/>
	<stop  offset="0.6683" style="stop-color:#EDA21C"/>
	<stop  offset="0.8146" style="stop-color:#FFC129"/>
</linearGradient>
<path fill="url(#XMLID_3_)" d="M37.063,1H23.063c-1.104,0-2,0.896-2,2v15.123l4.289-3.118h11.712c1.103,0,1.999-0.898,1.999-2.001
	V3.001C39.063,1.896,38.166,1,37.063,1z"/>
<linearGradient id="XMLID_4_" gradientUnits="userSpaceOnUse" x1="30.0938" y1="4.7046" x2="30.0938" y2="1.0435">
	<stop  offset="0" style="stop-color:#D16F00"/>
	<stop  offset="1" style="stop-color:#FFE1B5"/>
</linearGradient>
<path fill="url(#XMLID_4_)" d="M39.078,2.874c0,1.011-0.767,1.831-1.712,1.831H22.818c-0.943,0-1.709-0.82-1.709-1.831l0,0
	c0-1.013,0.766-1.831,1.709-1.831h14.548C38.312,1.043,39.078,1.861,39.078,2.874L39.078,2.874z"/>
<path fill="#FFFFFF" d="M31.063,9.604"/>
<path fill="#FFFFFF" d="M31.063,12.005"/>
<g>
	<path fill="#FFFFFF" d="M35.063,4.001h-10c-2,0-3,1.001-3,3.001s0,1,0,3.001c0,2.001,1,3.001,3,3.001h10c2.001,0,3-1,3-3.001
		c0-2.001,0-1,0-3.001S37.063,4.001,35.063,4.001z M27.059,10.477h-0.98L25.74,8.708c-0.076-0.414-0.143-0.797-0.19-1.267h-0.011
		c-0.07,0.464-0.137,0.853-0.232,1.267l-0.379,1.768h-0.992L22.986,6.37h0.967l0.303,1.688c0.088,0.493,0.172,1.023,0.238,1.442
		h0.014c0.063-0.449,0.159-0.944,0.261-1.455l0.337-1.676h0.962l0.319,1.729c0.09,0.483,0.156,0.922,0.213,1.379h0.014
		c0.059-0.457,0.15-0.939,0.23-1.432l0.328-1.676h0.92L27.059,10.477z M28.918,6.119c0.309,0,0.496,0.213,0.504,0.495
		c0,0.274-0.195,0.493-0.512,0.493h-0.004c-0.303,0-0.498-0.218-0.498-0.493C28.408,6.332,28.607,6.119,28.918,6.119z M28.461,7.497
		h0.901v2.979h-0.901V7.497z M37.063,10.003c0,1.001-1.001,2.001-2.001,2.001s-6.331,0-6.331,0s1.677-0.437,1.677-3.436
		c0-3.001,1.379-3.567,2.382-3.567h2.272c1,0,2.001,1,2.001,2V10.003z M34.879,10.358h0.925V7.38h-0.925V10.358z M35.348,6.001
		c-0.316,0-0.522,0.214-0.522,0.496c0,0.274,0.199,0.493,0.512,0.493h0.004c0.322,0,0.525-0.218,0.525-0.493
		C35.859,6.215,35.663,6.001,35.348,6.001z M31.827,10.358h0.927v-1.65h1.474V7.952h-1.474V7.015h1.577V6.253h-2.504V10.358z"/>
</g>
<rect y="0.003" fill="none" width="40.063" height="40"/>
</svg>
