<?xml version="1.0" encoding="UTF-8" standalone="no"?>
<!DOCTYPE svg PUBLIC "-//W3C//DTD SVG 1.1 Tiny//EN" "http://www.w3.org/Graphics/SVG/1.1/DTD/svg11-tiny.dtd">
<svg xmlns="http://www.w3.org/2000/svg" xmlns:xlink="http://www.w3.org/1999/xlink" baseProfile="tiny" height="20" version="1.1" viewBox="-278.469 420.395 20 20" width="20">
<path d="M-261.469,420.384h-14c-1.655,0-3,1.346-3,3.006v17.016l5.743-4.002h11.258c1.654,0,2.999-1.346,2.999-3.004  v-10.01C-258.469,421.73-259.813,420.384-261.469,420.384z" fill="#004A00"/>
<linearGradient gradientTransform="matrix(1 0 0 -1 0.0376 39.0044)" gradientUnits="userSpaceOnUse" id="XMLID_309_" x1="-268.5051" x2="-268.5051" y1="-382.3816" y2="-399.5183">
<stop offset="0" style="stop-color:#007805"/>
<stop offset="0.1364" style="stop-color:#047A05"/>
<stop offset="0.2774" style="stop-color:#118104"/>
<stop offset="0.4206" style="stop-color:#258C04"/>
<stop offset="0.5651" style="stop-color:#429C03"/>
<stop offset="0.7094" style="stop-color:#67B101"/>
<stop offset="0.8146" style="stop-color:#87C200"/>
<stop offset="1" style="stop-color:#87C200"/>
</linearGradient>
<path d="M-261.469,421.386h-14c-1.104,0-1.998,0.895-1.998,2.002v10.008l-0.002,5.127l4.29-3.123h7.138  h4.574c1.104,0,2-0.896,2-2v-10.01C-259.469,422.281-260.364,421.386-261.469,421.386z" fill="url(#XMLID_309_)"/>
<linearGradient gradientTransform="matrix(1 0 0 -1 0.0376 39.0044)" gradientUnits="userSpaceOnUse" id="XMLID_310_" x1="-268.4763" x2="-268.4763" y1="-386.0867" y2="-382.4226">
<stop offset="0" style="stop-color:#007805"/>
<stop offset="1" style="stop-color:#E2FFBD"/>
</linearGradient>
<path d="M-259.454,423.259c0,1.01-0.769,1.832-1.71,1.832h-14.55c-0.944,0-1.71-0.822-1.71-1.832l0,0  c0-1.012,0.766-1.832,1.71-1.832h14.55C-260.221,421.427-259.454,422.247-259.454,423.259L-259.454,423.259z" fill="url(#XMLID_310_)"/>
<path d="M-267.469,429.995" fill="#FFFFFF"/>
<path d="M-267.469,432.398" fill="#FFFFFF"/>
<path d="M-262.005,428.704c-0.586,0.355-7.221,4.381-7.827,4.711c-0.788,0.426-1.872-0.135-2.207-0.363  c-0.629-0.43-1.266,0.354-0.689,0.805c0.371,0.295,2.146,1.197,3.375,0.516c1.15-0.641,7.304-4.389,7.899-4.752  C-260.857,429.257-261.416,428.349-262.005,428.704z M-270.908,427.652c0.596-0.455,0.887-0.541,1.104-1.355  c0.222-0.818,0.254-0.912,0.523-2.252c0.267-1.318-1.229-1.605-1.447-0.447c-0.236,1.238-0.561,2.545-0.561,2.545  s-1.733,0.996-2.394,1.336c-0.939,0.486-0.172,1.805,0.831,1.176C-271.847,428.027-271.419,428.04-270.908,427.652z   M-263.478,422.476l-0.347-0.486l-5.313,3.215l-0.123,0.893L-263.478,422.476z M-266.317,425.077  c-0.584,0.35-2.097,1.182-2.771,1.621s-0.771,1.031-0.361,1.643c0.406,0.611,1.05,1.648,1.566,2.525  c0.517,0.879,1.945,0.061,1.41-0.814c-0.357-0.584-1.384-2.201-1.384-2.201s1.361-0.787,2.354-1.406  C-264.421,425.769-265.344,424.497-266.317,425.077z M-271.378,424.568c0-0.896-0.726-1.623-1.621-1.623  c-0.897,0-1.622,0.727-1.622,1.623c0,0.898,0.725,1.625,1.622,1.625C-272.102,426.193-271.378,425.466-271.378,424.568z" fill="#FFFFFF"/>
</svg>
