<?xml version="1.0" encoding="utf-8"?>
<!-- Generator: Adobe Illustrator 12.0.0, SVG Export Plug-In . SVG Version: 6.00 Build 51448)  -->
<!DOCTYPE svg PUBLIC "-//W3C//DTD SVG 1.1 Tiny//EN" "http://www.w3.org/Graphics/SVG/1.1/DTD/svg11-tiny.dtd" [
	<!ENTITY ns_svg "http://www.w3.org/2000/svg">
	<!ENTITY ns_xlink "http://www.w3.org/1999/xlink">
]>
<svg  version="1.1" baseProfile="tiny" id="Layer_1" xmlns="&ns_svg;" xmlns:xlink="&ns_xlink;" width="40.066" height="40"
	 viewBox="0 0 40.066 40" xml:space="preserve">
<path fill="#004A00" d="M37.065,0.027H23.061c-1.658,0-3.001,1.34-3.001,2.992v9.973l0,6.98l5.746-3.988h11.261
	c1.657,0,3.001-1.341,3.001-2.992V3.02C40.066,1.367,38.723,0.027,37.065,0.027z"/>
<linearGradient id="XMLID_3_" gradientUnits="userSpaceOnUse" x1="30.0625" y1="1.0249" x2="30.0625" y2="18.0967">
	<stop  offset="0" style="stop-color:#007805"/>
	<stop  offset="0.1364" style="stop-color:#047A05"/>
	<stop  offset="0.2774" style="stop-color:#118104"/>
	<stop  offset="0.4206" style="stop-color:#258C04"/>
	<stop  offset="0.5651" style="stop-color:#429C03"/>
	<stop  offset="0.7094" style="stop-color:#67B101"/>
	<stop  offset="0.8146" style="stop-color:#87C200"/>
</linearGradient>
<path fill="url(#XMLID_3_)" d="M37.065,1.025H23.061c-1.105,0-2,0.893-2,1.995v9.972l-0.001,5.105l4.291-3.11h11.716
	c1.104,0,2.001-0.893,2.001-1.994V3.02C39.066,1.918,38.17,1.025,37.065,1.025z"/>
<linearGradient id="XMLID_4_" gradientUnits="userSpaceOnUse" x1="30.0918" y1="4.7163" x2="30.0918" y2="1.0659">
	<stop  offset="0" style="stop-color:#007805"/>
	<stop  offset="1" style="stop-color:#E2FFBD"/>
</linearGradient>
<path fill="url(#XMLID_4_)" d="M39.079,2.891c0,1.008-0.766,1.825-1.71,1.825H22.814c-0.944,0-1.711-0.817-1.711-1.825l0,0
	c0-1.009,0.767-1.825,1.711-1.825h14.555C38.313,1.066,39.079,1.882,39.079,2.891L39.079,2.891z"/>
<path fill="#FFFFFF" d="M31.063,9.602"/>
<path fill="#FFFFFF" d="M31.063,11.994"/>
<path fill="#FFFFFF" d="M36.063,3.02c0,0,0,0.248,0,2.244c0,1.852-0.868,4.563-5.002,4.939V9.193
	c3.165-0.349,4.003-2.365,4.002-4.18c0-1.994,0-1.994,0-1.994h-1.001c0,0,0,0,0.001,1.994c0,1.535-0.776,2.873-3.002,3.175V7.167
	c2-0.398,2.001-2.03,2.001-2.901c0-0.25,0-1.246,0-1.246h-1.001v1.246c0,0.788-0.017,1.566-1,1.863l0.001-3.109h-2.001l-0.001,3.109
	c-0.982-0.297-0.998-1.075-1-1.863c0-0.25,0-1.246,0-1.246h-1c0,0,0,0.248,0,1.246c0,0.871,0,2.503,2,2.901v1.021
	c-2.225-0.302-2.999-1.64-3-3.175c0-1.994,0-1.994,0-1.994h-1c0,0,0,0,0,1.994c0,1.816,0.836,3.831,4,4.18v1.009
	c-4.133-0.376-5.002-3.086-5.002-4.939c0-1.996,0-2.244,0-2.244h-1c0,0,0,0.997,0.001,2.244c0.001,2.782,1.734,5.562,6.001,5.937
	v0.792c0,0.001,0,0.001,0,0.001c0,0.998-2,0.998-2,0.998v0.997h6.001v-0.997c0,0-1.999,0-2.001-0.997l0.001-0.794
	c4.269-0.375,6.005-3.155,6.002-5.937c0-1.247,0-2.244,0-2.244H36.063z"/>
<rect fill="none" width="40.063" height="40"/>
</svg>
