<?xml version="1.0" encoding="UTF-8" standalone="no"?>
<!DOCTYPE svg PUBLIC "-//W3C//DTD SVG 1.1 Tiny//EN" "http://www.w3.org/Graphics/SVG/1.1/DTD/svg11-tiny.dtd">
<svg xmlns="http://www.w3.org/2000/svg" xmlns:xlink="http://www.w3.org/1999/xlink" baseProfile="tiny" height="20" version="1.1" viewBox="-278.469 420.398 20 20" width="20">
<g>
<path d="M-261.469,420.382h-13.999c-1.654,0-3,1.345-3,3.005v17.026l5.744-4.006h11.255   c1.658,0,3.001-1.345,3.001-3.005v-10.016C-258.469,421.727-259.811,420.382-261.469,420.382z" fill="#002B7A"/>
</g>
<g>
<linearGradient gradientTransform="matrix(1 0 0 -1 0.0376 39.0103)" gradientUnits="userSpaceOnUse" id="XMLID_375_" x1="-268.5066" x2="-268.5066" y1="-382.3738" y2="-399.5203">
<stop offset="0" style="stop-color:#292BFF"/>
<stop offset="0.1349" style="stop-color:#2B2FFF"/>
<stop offset="0.2743" style="stop-color:#303CFF"/>
<stop offset="0.4159" style="stop-color:#3850FF"/>
<stop offset="0.5588" style="stop-color:#446DFF"/>
<stop offset="0.7015" style="stop-color:#5392FF"/>
<stop offset="0.8146" style="stop-color:#61B5FF"/>
<stop offset="1" style="stop-color:#61B5FF"/>
</linearGradient>
<path d="M-261.469,421.384h-13.999c-1.104,0-2,0.896-2,2.003v15.144l4.29-3.124h11.709   c1.104,0,2-0.896,2-2.004v-10.016C-259.469,422.281-260.365,421.384-261.469,421.384z" fill="url(#XMLID_375_)"/>
</g>
<linearGradient gradientTransform="matrix(1 0 0 -1 0.0376 39.0103)" gradientUnits="userSpaceOnUse" id="XMLID_376_" x1="-268.4773" x2="-268.4773" y1="-386.0808" y2="-382.4148">
<stop offset="0" style="stop-color:#292BFF"/>
<stop offset="1" style="stop-color:#BDE7FF"/>
</linearGradient>
<path d="M-259.455,423.258c0,1.012-0.767,1.833-1.709,1.833h-14.551c-0.941,0-1.71-0.821-1.71-1.833l0,0  c0-1.014,0.769-1.833,1.71-1.833h14.551C-260.22,421.425-259.455,422.245-259.455,423.258L-259.455,423.258z" fill="url(#XMLID_376_)"/>
<path d="M-267.469,429.999" fill="#FFFFFF"/>
<path d="M-267.469,432.403" fill="#FFFFFF"/>
<g>
<path d="M-260.469,429.397h-1.001l-0.999-2.004h-1.001v-2.001h-2.001l-0.998,2.001h-0.999v-2.001h-2.002   l-0.999,2.001h-0.998l-2,2.004c0,0-2.305,0-2.686,0s-1.154,0.345-0.209,1.138c1.338,1.123,3.895,2.871,3.895,2.871h10.997   c0,0,0.838-1.445,1.001-3.006C-260.382,429.557-260.469,429.397-260.469,429.397z M-270.469,430.4c-0.552,0-0.998-0.45-0.998-1.002   c0-0.554,0.446-1.002,0.998-1.002c0.554,0,0.999,0.448,0.999,1.002C-269.469,429.948-269.916,430.4-270.469,430.4z M-267.469,430.4   c-0.553,0-1.001-0.45-1.001-1.002c0-0.554,0.448-1.002,1.001-1.002s0.999,0.448,0.999,1.002   C-266.469,429.948-266.916,430.4-267.469,430.4z M-264.469,430.4c-0.554,0-1-0.45-1-1.002c0-0.554,0.446-1.002,1-1.002   c0.551,0,1,0.448,1,1.002C-263.469,429.948-263.918,430.4-264.469,430.4z" fill="#FFFFFF"/>
</g>
</svg>
