<?xml version="1.0" encoding="UTF-8" standalone="no"?>
<!DOCTYPE svg PUBLIC "-//W3C//DTD SVG 1.1 Tiny//EN" "http://www.w3.org/Graphics/SVG/1.1/DTD/svg11-tiny.dtd">
<svg xmlns="http://www.w3.org/2000/svg" xmlns:xlink="http://www.w3.org/1999/xlink" baseProfile="tiny" height="20" version="1.1" viewBox="-278.469 420.391 20 20" width="20">
<path d="M-261.469,420.388h-14c-1.658,0-3,1.346-3,3v17.006l5.744-4h11.257c1.655,0,2.999-1.346,2.999-3.002v-10.004  C-258.469,421.731-259.812,420.388-261.469,420.388z" fill="#612900"/>
<linearGradient gradientTransform="matrix(1 0 0 -1 0.0376 38.9971)" gradientUnits="userSpaceOnUse" id="XMLID_277_" x1="-268.5061" x2="-268.5061" y1="-382.3911" y2="-399.5142">
<stop offset="0" style="stop-color:#C76000"/>
<stop offset="0.1616" style="stop-color:#C96402"/>
<stop offset="0.3286" style="stop-color:#D17107"/>
<stop offset="0.4982" style="stop-color:#DC8510"/>
<stop offset="0.6683" style="stop-color:#EDA21C"/>
<stop offset="0.8146" style="stop-color:#FFC129"/>
<stop offset="1" style="stop-color:#FFC129"/>
</linearGradient>
<path d="M-261.469,421.388h-14c-1.104,0-2,0.896-2,2v15.123l4.289-3.119h11.712  c1.104,0,1.999-0.897,1.999-2v-10.004C-259.469,422.284-260.365,421.388-261.469,421.388z" fill="url(#XMLID_277_)"/>
<linearGradient gradientTransform="matrix(1 0 0 -1 0.0376 38.9971)" gradientUnits="userSpaceOnUse" id="XMLID_278_" x1="-268.4753" x2="-268.4753" y1="-386.0962" y2="-382.4341">
<stop offset="0" style="stop-color:#D16F00"/>
<stop offset="1" style="stop-color:#FFE1B5"/>
</linearGradient>
<path d="M-259.453,423.261c0,1.012-0.768,1.832-1.712,1.832h-14.549c-0.942,0-1.709-0.82-1.709-1.832l0,0  c0-1.013,0.767-1.83,1.709-1.83h14.549C-260.219,421.431-259.453,422.249-259.453,423.261L-259.453,423.261z" fill="url(#XMLID_278_)"/>
<path d="M-267.469,429.992" fill="#FFFFFF"/>
<path d="M-267.469,432.392" fill="#FFFFFF"/>
<g>
<path d="M-263.469,424.388h-10c-2,0-3,1.002-3,3.002s0,1,0,3c0,2.002,1,3.002,3,3.002h10c2.001,0,3-1,3-3.002   c0-2,0-1,0-3C-260.469,425.388-261.469,424.388-263.469,424.388z M-271.472,430.865h-0.979l-0.339-1.77   c-0.076-0.414-0.144-0.797-0.19-1.267h-0.011c-0.07,0.464-0.138,0.853-0.232,1.267l-0.379,1.769h-0.992l-0.95-4.106h0.968   l0.303,1.688c0.088,0.493,0.172,1.022,0.238,1.442h0.014c0.063-0.449,0.159-0.944,0.261-1.455l0.337-1.676h0.962l0.319,1.729   c0.09,0.482,0.156,0.922,0.213,1.379h0.014c0.06-0.457,0.15-0.939,0.23-1.432l0.328-1.676h0.92L-271.472,430.865z    M-269.613,426.507c0.309,0,0.496,0.213,0.504,0.494c0,0.274-0.195,0.493-0.512,0.493h-0.005c-0.303,0-0.497-0.218-0.497-0.493   C-270.123,426.72-269.925,426.507-269.613,426.507z M-270.07,427.884h0.9v2.979h-0.9V427.884z M-261.469,430.39   c0,1.002-1.001,2.002-2.001,2.002s-6.331,0-6.331,0s1.678-0.438,1.678-3.437c0-3.001,1.379-3.567,2.382-3.567h2.271   c1,0,2.001,1,2.001,2V430.39z M-263.652,430.746h0.925v-2.979h-0.925V430.746z M-263.183,426.388c-0.315,0-0.521,0.215-0.521,0.496   c0,0.274,0.198,0.493,0.512,0.493h0.004c0.322,0,0.525-0.218,0.525-0.493C-262.673,426.603-262.868,426.388-263.183,426.388z    M-266.704,430.746h0.927v-1.65h1.474v-0.756h-1.474v-0.937h1.577v-0.763h-2.504V430.746z" fill="#FFFFFF"/>
</g>
</svg>
