<?xml version="1.0" encoding="UTF-8" standalone="no"?>
<!DOCTYPE svg PUBLIC "-//W3C//DTD SVG 1.1 Tiny//EN" "http://www.w3.org/Graphics/SVG/1.1/DTD/svg11-tiny.dtd">
<svg xmlns="http://www.w3.org/2000/svg" xmlns:xlink="http://www.w3.org/1999/xlink" baseProfile="tiny" height="20" version="1.1" viewBox="-278.469 420.395 20 20" width="20">
<g>
<path d="M-261.469,420.385h-14c-1.654,0-3,1.346-3,3.003v17.019l5.744-4.005h11.256c1.656,0,3-1.345,3-3.003   v-10.011C-258.469,421.73-259.812,420.385-261.469,420.385z" fill="#002B7A"/>
</g>
<g>
<linearGradient gradientTransform="matrix(1 0 0 -1 0.0376 39.0054)" gradientUnits="userSpaceOnUse" id="XMLID_333_" x1="-268.5056" x2="-268.5056" y1="-382.3801" y2="-399.5168">
<stop offset="0" style="stop-color:#292BFF"/>
<stop offset="0.1349" style="stop-color:#2B2FFF"/>
<stop offset="0.2743" style="stop-color:#303CFF"/>
<stop offset="0.4159" style="stop-color:#3850FF"/>
<stop offset="0.5588" style="stop-color:#446DFF"/>
<stop offset="0.7015" style="stop-color:#5392FF"/>
<stop offset="0.8146" style="stop-color:#61B5FF"/>
<stop offset="1" style="stop-color:#61B5FF"/>
</linearGradient>
<path d="M-261.469,421.385h-14c-1.104,0-2,0.896-2,2.002v15.135l4.289-3.122h11.711   c1.104,0,2.001-0.896,2.001-2.002v-10.011C-259.469,422.282-260.364,421.385-261.469,421.385z" fill="url(#XMLID_333_)"/>
</g>
<linearGradient gradientTransform="matrix(1 0 0 -1 0.0376 39.0054)" gradientUnits="userSpaceOnUse" id="XMLID_334_" x1="-268.4768" x2="-268.4768" y1="-386.0852" y2="-382.4202">
<stop offset="0" style="stop-color:#292BFF"/>
<stop offset="1" style="stop-color:#BDE7FF"/>
</linearGradient>
<path d="M-259.454,423.259c0,1.013-0.768,1.832-1.711,1.832h-14.549c-0.944,0-1.711-0.819-1.711-1.832l0,0  c0-1.011,0.767-1.833,1.711-1.833h14.549C-260.22,421.426-259.454,422.247-259.454,423.259L-259.454,423.259z" fill="url(#XMLID_334_)"/>
<path d="M-267.469,429.996" fill="#FFFFFF"/>
<path d="M-267.469,432.399" fill="#FFFFFF"/>
<g>
<path d="M-266.641,427.45c-0.038-0.129-0.098-0.241-0.176-0.336c-0.08-0.096-0.188-0.143-0.324-0.143h-2.168   c-0.075,0-0.114,0.039-0.114,0.113v2.136c0,0.076,0.039,0.114,0.114,0.114h2.168c0.136,0,0.244-0.046,0.324-0.142   c0.078-0.096,0.138-0.207,0.176-0.335c0.038-0.129,0.063-0.261,0.073-0.393c0.011-0.134,0.017-0.236,0.017-0.313   s-0.006-0.182-0.017-0.313C-266.579,427.71-266.603,427.579-266.641,427.45z M-262.24,427.214c0,0-4.993-4.05-5.421-4.477   c-0.43-0.429-0.811-0.776-1.565-0.019c-0.758,0.758-5.441,4.495-5.441,4.495s-2.525,1.697,0,1.697c0.888,0,0.888,0.045,0.888,0.045   s0,3.39,0,4.418c0,1.025,0,1.025,0.889,1.025c0.887,0,7.99,0,8.877,0c0.888,0,0.888,0,0.888-1.025c0-1.028,0-4.463,0-4.463   s0,0,0.889,0C-259.806,428.911-262.24,427.214-262.24,427.214z M-265.144,429.246c-0.082,0.325-0.215,0.604-0.396,0.841   c-0.183,0.234-0.421,0.415-0.718,0.54c-0.295,0.124-0.653,0.187-1.078,0.187h-1.975c-0.075,0-0.114,0.038-0.114,0.113v2.603   c0,0.075-0.037,0.113-0.112,0.113h-1.42c-0.075,0-0.113-0.038-0.113-0.113v-7.795v-0.125c0-0.077,0.038-0.115,0.113-0.115h3.621   c0.425,0,0.783,0.065,1.078,0.2c0.297,0.132,0.535,0.314,0.718,0.551c0.181,0.234,0.313,0.515,0.396,0.841   c0.084,0.326,0.126,0.682,0.126,1.069C-265.018,428.554-265.06,428.921-265.144,429.246z" fill="#FFFFFF"/>
</g>
</svg>
