<?xml version="1.0" encoding="UTF-8" standalone="no"?>
<!DOCTYPE svg PUBLIC "-//W3C//DTD SVG 1.1 Tiny//EN" "http://www.w3.org/Graphics/SVG/1.1/DTD/svg11-tiny.dtd">
<svg xmlns="http://www.w3.org/2000/svg" xmlns:xlink="http://www.w3.org/1999/xlink" baseProfile="tiny" height="20" version="1.1" viewBox="-278.469 420.39 20 20" width="20">
<g>
<path d="M-261.468,420.404h-13.999c-1.658,0-3.001,1.341-3.001,2.996v9.984l-0.001,6.99l5.745-3.992h11.256   c1.658,0,3-1.342,3-2.998V423.4C-258.468,421.745-259.81,420.404-261.468,420.404z" fill="#002B7A"/>
</g>
<g>
<linearGradient gradientTransform="matrix(1 0 0 -1 0.0376 38.9941)" gradientUnits="userSpaceOnUse" id="XMLID_411_" x1="-268.5061" x2="-268.5061" y1="-382.4092" y2="-399.5029">
<stop offset="0" style="stop-color:#292BFF"/>
<stop offset="0.1349" style="stop-color:#2B2FFF"/>
<stop offset="0.2743" style="stop-color:#303CFF"/>
<stop offset="0.4159" style="stop-color:#3850FF"/>
<stop offset="0.5588" style="stop-color:#446DFF"/>
<stop offset="0.7015" style="stop-color:#5392FF"/>
<stop offset="0.8146" style="stop-color:#61B5FF"/>
<stop offset="1" style="stop-color:#61B5FF"/>
</linearGradient>
<path d="M-261.468,421.403h-13.999c-1.106,0-2.001,0.893-2.001,1.997v9.984l-0.001,5.112l4.29-3.114   h11.711c1.105,0,2-0.894,2-1.998V423.4C-259.468,422.296-260.363,421.403-261.468,421.403z" fill="url(#XMLID_411_)"/>
</g>
<linearGradient gradientTransform="matrix(1 0 0 -1 0.0376 38.9941)" gradientUnits="userSpaceOnUse" id="XMLID_412_" x1="-268.4768" x2="-268.4768" y1="-386.1055" y2="-382.4502">
<stop offset="0" style="stop-color:#292BFF"/>
<stop offset="1" style="stop-color:#BDE7FF"/>
</linearGradient>
<path d="M-259.454,423.271c0,1.009-0.767,1.828-1.711,1.828h-14.548c-0.944,0-1.711-0.818-1.711-1.828l0,0  c0-1.01,0.767-1.827,1.711-1.827h14.548C-260.22,421.444-259.454,422.262-259.454,423.271L-259.454,423.271z" fill="url(#XMLID_412_)"/>
<path d="M-267.468,429.992" fill="#FFFFFF"/>
<path d="M-267.468,432.387" fill="#FFFFFF"/>
<g>
<path d="M-261.284,424.653h-12.346c-0.585,0-0.919,0.674-1.584,1.506c-0.736,0.966-1.019,1.269-1.019,1.921v2.248   c0,1.023,0.092,1.114,1.172,1.114h0.684c0,0.858,0.706,1.552,1.578,1.552c0.871,0,1.576-0.693,1.576-1.552h5.603   c0,0.858,0.705,1.552,1.577,1.552c0.871,0,1.578-0.693,1.578-1.552h1.181c0.17,0,0.391-0.163,0.391-0.371v-6.05   C-260.894,424.814-261.043,424.653-261.284,424.653z M-272.43,428.157c0,0.274-0.148,0.399-0.342,0.399h-2.317   c-0.19,0-0.342-0.15-0.342-0.399c0-0.218,0.859-1.459,1.478-2.177c0.457-0.588,0.623-0.457,1.183-0.457   c0.207,0.022,0.342,0.176,0.342,0.397L-272.43,428.157L-272.43,428.157z M-268.899,428.114c0,0.262-0.165,0.381-0.378,0.381h-1.93   c-0.212,0-0.378-0.146-0.378-0.381v-2.147c0-0.215,0.096-0.382,0.378-0.382h1.93c0.229,0.021,0.378,0.167,0.378,0.382V428.114z    M-265.368,428.114c0,0.262-0.164,0.381-0.377,0.381h-1.933c-0.211,0-0.375-0.146-0.375-0.381v-2.147   c0-0.215,0.094-0.382,0.375-0.382h1.933c0.229,0.021,0.377,0.167,0.377,0.382V428.114z M-261.838,428.114   c0,0.262-0.164,0.381-0.377,0.381h-1.93c-0.213,0-0.379-0.146-0.379-0.381v-2.147c0-0.215,0.098-0.382,0.379-0.382h1.93   c0.226,0.021,0.377,0.167,0.377,0.382V428.114z" fill="#FFFFFF"/>
</g>
</svg>
