<?xml version="1.0" encoding="UTF-8" standalone="no"?>
<!DOCTYPE svg PUBLIC "-//W3C//DTD SVG 1.1 Tiny//EN" "http://www.w3.org/Graphics/SVG/1.1/DTD/svg11-tiny.dtd">
<svg xmlns="http://www.w3.org/2000/svg" xmlns:xlink="http://www.w3.org/1999/xlink" baseProfile="tiny" height="20" version="1.1" viewBox="-278.462 420.39 20 20" width="20">
<path d="M-261.452,420.396h-14.02c-1.658,0-3.003,1.344-3.003,2.998v9.993l-0.001,6.995l5.752-3.998h11.271  c1.66,0,3.004-1.342,3.004-2.997v-9.993C-258.447,421.738-259.792,420.396-261.452,420.396z" fill="#474747"/>
<linearGradient gradientTransform="matrix(1 0 0 -1 0.0376 38.9941)" gradientUnits="userSpaceOnUse" id="XMLID_358_" x1="-268.498" x2="-268.498" y1="-382.4023" y2="-399.5098">
<stop offset="0" style="stop-color:#A3A3A3"/>
<stop offset="0.1663" style="stop-color:#A7A7A7"/>
<stop offset="0.3381" style="stop-color:#B4B4B4"/>
<stop offset="0.5125" style="stop-color:#C8C8C8"/>
<stop offset="0.6875" style="stop-color:#E5E5E5"/>
<stop offset="0.8146" style="stop-color:#FFFFFF"/>
<stop offset="1" style="stop-color:#FFFFFF"/>
</linearGradient>
<path d="M-261.452,421.396h-14.02c-1.105,0-2.002,0.895-2.002,1.998v15.109l4.295-3.118h11.727  c1.105,0,2.005-0.896,2.005-1.998v-9.993C-259.447,422.291-260.345,421.396-261.452,421.396z" fill="url(#XMLID_358_)"/>
<linearGradient gradientTransform="matrix(1 0 0 -1 0.0376 38.9941)" gradientUnits="userSpaceOnUse" id="XMLID_359_" x1="-268.4678" x2="-268.4678" y1="-386.1006" y2="-382.4424">
<stop offset="0" style="stop-color:#BABABA"/>
<stop offset="1" style="stop-color:#FFFFFF"/>
</linearGradient>
<path d="M-259.434,423.266c0,1.012-0.769,1.829-1.713,1.829h-14.567c-0.947,0-1.713-0.817-1.713-1.829l0,0  c0-1.01,0.766-1.829,1.713-1.829h14.567C-260.202,421.437-259.434,422.256-259.434,423.266L-259.434,423.266z" fill="url(#XMLID_359_)"/>
<path d="M-267.46,429.99" fill="#FFFFFF"/>
<path d="M-267.46,432.388" fill="#FFFFFF"/>
<linearGradient gradientTransform="matrix(1 0 0 -1 0.0376 38.9941)" gradientUnits="userSpaceOnUse" id="XMLID_360_" x1="-268.4985" x2="-268.4985" y1="-383.4014" y2="-395.3936">
<stop offset="0" style="stop-color:#FF4000"/>
<stop offset="1" style="stop-color:#960000"/>
</linearGradient>
<polygon fill="url(#XMLID_360_)" points="-262.454,426.393 -266.458,426.393 -266.458,422.396 -270.462,422.396 -270.462,426.393   -274.468,426.393 -274.468,430.39 -270.462,430.39 -270.462,434.388 -266.458,434.388 -266.458,430.39 -262.454,430.39 "/>
</svg>
