<?xml version="1.0" encoding="UTF-8" standalone="no"?>
<!DOCTYPE svg PUBLIC "-//W3C//DTD SVG 1.1 Tiny//EN" "http://www.w3.org/Graphics/SVG/1.1/DTD/svg11-tiny.dtd">
<svg xmlns="http://www.w3.org/2000/svg" xmlns:xlink="http://www.w3.org/1999/xlink" baseProfile="tiny" height="20" version="1.1" viewBox="-278.469 420.398 20 20" width="20">
<path d="M-261.469,420.382h-13.999c-1.659,0-3.001,1.345-3.001,3.004v10.013v7.015l5.741-4.01h11.258  c1.659,0,3.001-1.345,3.001-3.005v-10.013C-258.468,421.727-259.809,420.382-261.469,420.382z" fill="#612900"/>
<linearGradient gradientTransform="matrix(1 0 0 -1 0.0376 39.0103)" gradientUnits="userSpaceOnUse" id="XMLID_399_" x1="-268.5056" x2="-268.5056" y1="-382.3718" y2="-399.5183">
<stop offset="0" style="stop-color:#FF5E00"/>
<stop offset="0.1643" style="stop-color:#FF6201"/>
<stop offset="0.334" style="stop-color:#FF6F04"/>
<stop offset="0.5062" style="stop-color:#FF8308"/>
<stop offset="0.6792" style="stop-color:#FFA00E"/>
<stop offset="0.8146" style="stop-color:#FFBC14"/>
<stop offset="1" style="stop-color:#FFBC14"/>
</linearGradient>
<path d="M-261.469,421.382h-13.999c-1.105,0-2.003,0.898-2.003,2.005V433.4v5.129l4.286-3.123h11.716  c1.106,0,2.003-0.898,2.003-2.006v-10.014C-259.467,422.28-260.362,421.382-261.469,421.382z" fill="url(#XMLID_399_)"/>
<linearGradient gradientTransform="matrix(1 0 0 -1 0.0376 39.0103)" gradientUnits="userSpaceOnUse" id="XMLID_400_" x1="-268.4773" x2="-268.4773" y1="-386.0798" y2="-382.4089">
<stop offset="0" style="stop-color:#FF7B00"/>
<stop offset="1" style="stop-color:#FFE1B5"/>
</linearGradient>
<path d="M-259.453,423.254c0,1.012-0.766,1.836-1.714,1.836h-14.547c-0.947,0-1.713-0.824-1.713-1.836l0,0  c0-1.012,0.766-1.835,1.713-1.835h14.547C-260.218,421.419-259.453,422.242-259.453,423.254L-259.453,423.254z" fill="url(#XMLID_400_)"/>
<path d="M-267.468,429.992" fill="#FFFFFF"/>
<path d="M-267.468,432.4" fill="#FFFFFF"/>
<path d="M-264.786,423.386h-2.662c0,0,0-1.005-0.998-1.005h-5c-1.006,0-2.004,0.445-2.004,2.005  c0,2.005-0.018,5.01-0.018,6.009c0,1.351,0.073,1.948,1.454,1.948c1.652,0,1.539-0.439,1.539-1.948c0-1,0.024-2.005,0.024-3.005  c0-0.924,0.634-1.037,1.003-1.031c0,1.942,0,6.187,0,6.82c0,0.998,0.321,1.226,1.324,1.226h5.44c1.005,0,1.231-0.313,1.231-1.313  v-8.329C-263.449,423.763-263.788,423.386-264.786,423.386z M-273.471,427.39c0,1,0.037,2.338,0.037,3.338  c0,0.729-0.966,1.005-0.966,0c0-1-0.052-5.343-0.052-6.342c0-0.66,0.264-1,1.006-1h1.995l0.005,1.999  C-273.092,425.385-273.471,425.725-273.471,427.39z M-264.474,427.39c0,1,0,1-1.002,1c-0.998,0-3.001,0-3.999,0s-0.998,0-0.998-1  v-2.005c0-1,0-1,0.998-1h3.999c1.002,0,1.002,0,1.002,1V427.39z" fill="#FFFFFF"/>
<path d="M-270.467,425.385c0-1-0.012-1,0.99-1c1.006,0,2.993,0,3.999,0c1.01,0,1.01,0,1.01,1  c0,1.006,0,1.006,0,2.005c0,1,0,1-1.005,1c-0.998,0-2.998,0-3.996,0s-0.998,0-0.998-1  C-270.467,426.391-270.467,426.391-270.467,425.385z" fill="#04B300"/>
</svg>
