<?xml version="1.0" encoding="utf-8"?>
<!-- Generator: Adobe Illustrator 12.0.0, SVG Export Plug-In . SVG Version: 6.00 Build 51448)  -->
<!DOCTYPE svg PUBLIC "-//W3C//DTD SVG 1.1 Tiny//EN" "http://www.w3.org/Graphics/SVG/1.1/DTD/svg11-tiny.dtd" [
	<!ENTITY ns_svg "http://www.w3.org/2000/svg">
	<!ENTITY ns_xlink "http://www.w3.org/1999/xlink">
]>
<svg  version="1.1" baseProfile="tiny" id="Layer_1" xmlns="&ns_svg;" xmlns:xlink="&ns_xlink;" width="40.063" height="40.009"
	 viewBox="0 0 40.063 40.009" xml:space="preserve">
<g>
	<path fill="#002B7A" d="M37.063,0H23.063c-1.657,0-3,1.344-3,3.002v10.009l-0.001,7.007l5.745-4.005h11.256
		c1.658,0,3-1.344,3-3.002V3.002C40.063,1.344,38.721,0,37.063,0z"/>
</g>
<g>
	<linearGradient id="XMLID_3_" gradientUnits="userSpaceOnUse" x1="30.0625" y1="1" x2="30.0625" y2="18.1357">
		<stop  offset="0" style="stop-color:#292BFF"/>
		<stop  offset="0.1349" style="stop-color:#2B2FFF"/>
		<stop  offset="0.2743" style="stop-color:#303CFF"/>
		<stop  offset="0.4159" style="stop-color:#3850FF"/>
		<stop  offset="0.5588" style="stop-color:#446DFF"/>
		<stop  offset="0.7015" style="stop-color:#5392FF"/>
		<stop  offset="0.8146" style="stop-color:#61B5FF"/>
	</linearGradient>
	<path fill="url(#XMLID_3_)" d="M37.063,1H23.063c-1.104,0-2,0.897-2,2.002V13.01l-0.001,5.126l4.289-3.122h7.137h4.574
		c1.105,0,2-0.896,2-2.003V3.002C39.063,1.897,38.168,1,37.063,1z"/>
</g>
<linearGradient id="XMLID_4_" gradientUnits="userSpaceOnUse" x1="30.0918" y1="4.7056" x2="30.0918" y2="1.0415">
	<stop  offset="0" style="stop-color:#292BFF"/>
	<stop  offset="1" style="stop-color:#BDE7FF"/>
</linearGradient>
<path fill="url(#XMLID_4_)" d="M39.076,2.874c0,1.011-0.766,1.832-1.711,1.832H22.818c-0.945,0-1.711-0.821-1.711-1.832l0,0
	c0-1.012,0.766-1.832,1.711-1.832h14.547C38.311,1.042,39.076,1.861,39.076,2.874L39.076,2.874z"/>
<path fill="#FFFFFF" d="M31.063,9.609"/>
<path fill="#FFFFFF" d="M31.063,12.011"/>
<text transform="matrix(0.999 0 0 1 26.2646 11.1709)" fill="#FFFFFF" font-family="'Prototype'" font-size="12.8271">P</text>
<polygon fill="#FFFFFF" points="25.588,11.961 25.588,13.991 31.076,13.991 31.076,15.069 34.578,12.949 31.076,10.805 
	31.076,11.961 "/>
<rect y="0.009" fill="none" width="40.063" height="40"/>
</svg>
