<?xml version="1.0" encoding="UTF-8" standalone="no"?>
<!DOCTYPE svg PUBLIC "-//W3C//DTD SVG 1.1 Tiny//EN" "http://www.w3.org/Graphics/SVG/1.1/DTD/svg11-tiny.dtd">
<svg xmlns="http://www.w3.org/2000/svg" xmlns:xlink="http://www.w3.org/1999/xlink" baseProfile="tiny" height="20" version="1.1" viewBox="-278.469 420.394 20 20" width="20">
<path d="M-261.469,420.384h-13.999c-1.655,0-3,1.345-3,3.003v10.012v7.005l5.744-4.002h11.255  c1.658,0,3.001-1.345,3.001-3.003v-10.012C-258.469,421.729-259.811,420.384-261.469,420.384z" fill="#002B7A"/>
<linearGradient gradientTransform="matrix(1 0 0 -1 0.0376 39.0029)" gradientUnits="userSpaceOnUse" id="XMLID_321_" x1="-268.5061" x2="-268.5061" y1="-382.3823" y2="-399.5171">
<stop offset="0" style="stop-color:#292BFF"/>
<stop offset="0.1349" style="stop-color:#2B2FFF"/>
<stop offset="0.2743" style="stop-color:#303CFF"/>
<stop offset="0.4159" style="stop-color:#3850FF"/>
<stop offset="0.5588" style="stop-color:#446DFF"/>
<stop offset="0.7015" style="stop-color:#5392FF"/>
<stop offset="0.8146" style="stop-color:#61B5FF"/>
<stop offset="1" style="stop-color:#61B5FF"/>
</linearGradient>
<path d="M-261.469,421.385h-13.999c-1.104,0-2,0.896-2,2.001v15.134l4.289-3.12h11.71  c1.104,0,2.001-0.897,2.001-2.002v-10.011C-259.469,422.283-260.365,421.385-261.469,421.385z" fill="url(#XMLID_321_)"/>
<linearGradient gradientTransform="matrix(1 0 0 -1 0.0376 39.0029)" gradientUnits="userSpaceOnUse" id="XMLID_322_" x1="-268.4768" x2="-268.4768" y1="-386.0874" y2="-382.4243">
<stop offset="0" style="stop-color:#292BFF"/>
<stop offset="1" style="stop-color:#BDE7FF"/>
</linearGradient>
<path d="M-259.454,423.258c0,1.013-0.768,1.832-1.711,1.832h-14.55c-0.942,0-1.71-0.818-1.71-1.832l0,0  c0-1.011,0.768-1.831,1.71-1.831h14.55C-260.22,421.427-259.454,422.248-259.454,423.258L-259.454,423.258z" fill="url(#XMLID_322_)"/>
<path d="M-267.469,429.996" fill="#FFFFFF"/>
<path d="M-267.469,432.398" fill="#FFFFFF"/>
<path d="M-269.469,432.398c1,0,2-1.001,2-2.002v-5.007c0-1-1-2.001-2-2.001h-1.499h-1.001h-1.5c-1,0-2,1-2,2.001  v5.006c0,1.001,0.999,2.002,2,2.002l0,0l-2.999,2.001h1.999l1.5-1h3.001l1.499,1h2.001L-269.469,432.398z M-274.469,425.389  c0-1.001,1-1.001,1-1.001h4c0,0,1,0,1,1.001c0,1.002,0,0,0,1.002c0,1.001-1,1.001-1,1.001h-4c0,0-1,0-1-1.001  C-274.469,426.391-274.469,426.391-274.469,425.389z M-273.469,431.397c-0.553,0-1.001-0.448-1.001-1.001  c0-0.554,0.448-1.001,1.001-1.001s1,0.447,1,1.001C-272.469,430.948-272.918,431.397-273.469,431.397z M-270.469,430.395  c0-0.554,0.449-1.002,1.001-1.002c0.553,0,1,0.448,1,1.002c0,0.553-0.447,1.001-1,1.001  C-270.02,431.396-270.469,430.948-270.469,430.395z M-271.469,422.887c0-0.274-0.225-0.5-0.501-0.5c-0.275,0-0.5,0.226-0.5,0.5  c0,0.276,0.225,0.5,0.5,0.5C-271.693,423.387-271.469,423.165-271.469,422.887z M-270.969,423.387c0.275,0,0.5-0.224,0.5-0.5  c0-0.274-0.225-0.5-0.5-0.5c-0.276,0-0.5,0.226-0.5,0.5C-271.469,423.165-271.245,423.387-270.969,423.387z" fill="#FFFFFF"/>
<path d="M-261.469,423.388v1.001h-2.999v-1.001h-1v11.011h1v-1h2.999v1h1v-11.011H-261.469z M-261.469,432.398  h-2.999v-1.001h2.999V432.398z M-261.469,430.395h-2.999v-1h2.999V430.395z M-261.469,428.392h-2.999v-1h2.999V428.392z   M-261.469,426.391h-2.999v-1.002h2.999V426.391z" fill="#FFFFFF"/>
</svg>
