<?xml version="1.0" encoding="UTF-8" standalone="no"?>
<!DOCTYPE svg PUBLIC "-//W3C//DTD SVG 1.1 Tiny//EN" "http://www.w3.org/Graphics/SVG/1.1/DTD/svg11-tiny.dtd">
<svg xmlns="http://www.w3.org/2000/svg" xmlns:xlink="http://www.w3.org/1999/xlink" baseProfile="tiny" height="19.945" version="1.1" viewBox="0 0 19.945 19.945" width="19.945">
<path d="M16.952,0H2.993C1.34,0,0,1.339,0,2.991v9.974v6.98l5.729-3.989h11.224c1.654,0,2.993-1.34,2.993-2.991V2.991  C19.945,1.339,18.606,0,16.952,0z"/>
<linearGradient gradientTransform="matrix(1 0 0 -1 0.0376 18.939)" gradientUnits="userSpaceOnUse" id="XMLID_3_" x1="9.9358" x2="9.9358" y1="17.9421" y2="0.8704">
<stop offset="0" style="stop-color:#8C8C8C"/>
<stop offset="0.1634" style="stop-color:#909090"/>
<stop offset="0.3322" style="stop-color:#9D9D9D"/>
<stop offset="0.5035" style="stop-color:#B1B1B1"/>
<stop offset="0.6755" style="stop-color:#CECECE"/>
<stop offset="0.8146" style="stop-color:#EBEBEB"/>
<stop offset="1" style="stop-color:#EBEBEB"/>
</linearGradient>
<path d="M16.952,0.997H2.993c-1.102,0-1.995,0.894-1.995,1.994v9.972v5.106l4.277-3.111h7.118h4.56  c1.104,0,1.996-0.893,1.996-1.993V2.991C18.948,1.89,18.055,0.997,16.952,0.997z" fill="url(#XMLID_3_)"/>
<linearGradient gradientTransform="matrix(1 0 0 -1 0.0376 18.939)" gradientUnits="userSpaceOnUse" id="XMLID_4_" x1="9.9646" x2="9.9646" y1="14.2498" y2="17.9011">
<stop offset="0" style="stop-color:#8F8F8F"/>
<stop offset="1" style="stop-color:#D4D4D4"/>
</linearGradient>
<path d="M18.962,2.863c0,1.008-0.763,1.826-1.705,1.826H2.748c-0.94,0-1.705-0.817-1.705-1.826l0,0  c0-1.007,0.765-1.825,1.705-1.825h14.509C18.199,1.038,18.962,1.855,18.962,2.863L18.962,2.863z" fill="url(#XMLID_4_)"/>
</svg>
