<?xml version="1.0" encoding="UTF-8" standalone="no"?>
<!DOCTYPE svg PUBLIC "-//W3C//DTD SVG 1.1 Tiny//EN" "http://www.w3.org/Graphics/SVG/1.1/DTD/svg11-tiny.dtd">
<svg xmlns="http://www.w3.org/2000/svg" xmlns:xlink="http://www.w3.org/1999/xlink" baseProfile="tiny" height="20" version="1.1" viewBox="-278.469 420.422 20 20" width="20">
<g>
<path d="M-261.488,420.357h-13.962c-1.652,0-2.992,1.353-2.992,3.02v10.065v7.046l5.729-4.025h11.227   c1.651,0,2.991-1.353,2.991-3.021v-10.065C-258.496,421.708-259.836,420.357-261.488,420.357z" fill="#002B7A"/>
</g>
<g>
<linearGradient gradientTransform="matrix(1 0 0 -1 0.0376 39.0591)" gradientUnits="userSpaceOnUse" id="XMLID_281_" x1="-268.5061" x2="-268.5061" y1="-382.3044" y2="-399.5359">
<stop offset="0" style="stop-color:#292BFF"/>
<stop offset="0.1349" style="stop-color:#2B2FFF"/>
<stop offset="0.2743" style="stop-color:#303CFF"/>
<stop offset="0.4159" style="stop-color:#3850FF"/>
<stop offset="0.5588" style="stop-color:#446DFF"/>
<stop offset="0.7015" style="stop-color:#5392FF"/>
<stop offset="0.8146" style="stop-color:#61B5FF"/>
<stop offset="1" style="stop-color:#61B5FF"/>
</linearGradient>
<path d="M-261.488,421.364h-13.962c-1.103,0-1.994,0.901-1.994,2.013v15.219l4.275-3.141h11.681   c1.101,0,1.994-0.9,1.994-2.013v-10.065C-259.493,422.265-260.387,421.364-261.488,421.364z" fill="url(#XMLID_281_)"/>
</g>
<linearGradient gradientTransform="matrix(1 0 0 -1 0.0376 39.0591)" gradientUnits="userSpaceOnUse" id="XMLID_282_" x1="-268.4768" x2="-268.4768" y1="-386.0291" y2="-382.3455">
<stop offset="0" style="stop-color:#292BFF"/>
<stop offset="1" style="stop-color:#BDE7FF"/>
</linearGradient>
<path d="M-259.48,423.246c0,1.017-0.764,1.842-1.705,1.842h-14.509c-0.941,0-1.705-0.825-1.705-1.842l0,0  c0-1.018,0.764-1.842,1.705-1.842h14.509C-260.243,421.405-259.48,422.23-259.48,423.246L-259.48,423.246z" fill="url(#XMLID_282_)"/>
<path d="M-267.473,430.02" fill="#FFFFFF"/>
<path d="M-267.473,432.435" fill="#FFFFFF"/>
<g>
<path d="M-271.462,422.369l-1.993,2.013l1.993,2.014l1.994-2.014L-271.462,422.369z M-272.458,424.382l0.996-1.006   l0.997,1.006l-0.997,1.008L-272.458,424.382z" fill="#FFFFFF"/>
</g>
<g>
<path d="M-265.478,422.369l-1.995,2.013l1.995,2.014l1.994-2.014L-265.478,422.369z M-266.475,424.382l0.997-1.006   l0.997,1.006l-0.997,1.008L-266.475,424.382z" fill="#FFFFFF"/>
</g>
<g>
<path d="M-262.486,425.39c-0.998,0-10.97,0-11.968,0c-0.996,0-1.994,0-1.994,1.006c0,1.007,0,4.025,0,5.032   s0.997,1.007,1.994,1.007c1.926,0,10.96,0,11.968,0c0.997,0,1.994,0,1.994-1.007s0-4.025,0-5.032   C-260.491,425.39-261.489,425.39-262.486,425.39z M-273.455,428.408c0,1.007,0,1.007-0.998,1.007c-0.996,0-0.996,0-0.996-1.007   c0-1.006,0-1.006,0-1.006c0-1.007-0.001-1.007,0.996-1.007c0.998,0,0.998,0,0.998,1.007   C-273.455,428.408-273.455,427.403-273.455,428.408z M-270.465,429.415c-0.997,0,0.001,0-0.997,0c-0.996,0-0.996,0-0.996-1.007   c0-1.006,0-1.006,0-1.006c0-1.007,0-1.007,0.996-1.007c0.998,0,0,0,0.998,0c0.996,0,0.996,0,0.996,1.007c0,0.214,0,0.347,0,0.434   c0,0.091,0,0.133,0,0.138c0,0.087,0,0.221,0,0.435C-269.468,429.415-269.416,429.415-270.465,429.415z M-266.475,429.415   c-0.998,0,0,0-0.998,0c-0.996,0-0.996,0-0.996-1.007c0-1.006,0-1.006,0-1.006c0-1.007,0-1.007,0.996-1.007c0.998,0,0.001,0,0.998,0   s0.997,0,0.997,1.007c0,0.214,0,0.347,0,0.434c0,0.091,0,0.133,0,0.138c0,0.087,0,0.221,0,0.435   C-265.478,429.415-265.428,429.415-266.475,429.415z M-262.487,431.427c-0.341,0-0.559,0-0.7,0c-0.171,0-0.231,0-0.229,0   c-0.023,0-0.041,0-0.068,0c-0.997,0-0.997,0.001-0.997-1.006c0-1.006,0-3.019,0-3.019c0-1.007,0-1.007,0.997-1.007s0,0,0.997,0   s0.997,0,0.997,1.007c0,1.398,0.001,1.619,0.001,3.019C-261.489,431.427-261.439,431.427-262.487,431.427z" fill="#FFFFFF"/>
</g>
<ellipse cx="-268.47" cy="432.434" fill="#FFFFFF" rx="1.995" ry="2.014"/>
<ellipse cx="-273.455" cy="432.434" fill="#FFFFFF" rx="1.993" ry="2.013"/>
<path d="M-261.489,432.435c0,1.111-0.895,2.014-1.995,2.014c-1.102,0-1.994-0.901-1.994-2.014  s0.893-1.007,1.994-1.007C-262.383,431.428-261.489,431.323-261.489,432.435z" fill="#FFFFFF"/>
</svg>
