<?xml version="1.0" encoding="UTF-8" standalone="no"?>
<!DOCTYPE svg PUBLIC "-//W3C//DTD SVG 1.1 Tiny//EN" "http://www.w3.org/Graphics/SVG/1.1/DTD/svg11-tiny.dtd">
<svg xmlns="http://www.w3.org/2000/svg" xmlns:xlink="http://www.w3.org/1999/xlink" baseProfile="tiny" height="20" version="1.1" viewBox="-278.469 420.39 20 20" width="20">
<path d="M-261.469,420.398h-14c-1.655,0-2.999,1.342-2.999,2.996v9.992l-0.002,6.994l5.745-3.996h11.257  c1.657,0,3-1.342,3-2.998v-9.992C-258.469,421.74-259.81,420.398-261.469,420.398z" fill="#002B7A"/>
<linearGradient gradientTransform="matrix(1 0 0 -1 0.0376 38.9941)" gradientUnits="userSpaceOnUse" id="XMLID_345_" x1="-268.5056" x2="-268.5056" y1="-382.4023" y2="-399.5068">
<stop offset="0" style="stop-color:#292BFF"/>
<stop offset="0.1349" style="stop-color:#2B2FFF"/>
<stop offset="0.2743" style="stop-color:#303CFF"/>
<stop offset="0.4159" style="stop-color:#3850FF"/>
<stop offset="0.5588" style="stop-color:#446DFF"/>
<stop offset="0.7015" style="stop-color:#5392FF"/>
<stop offset="0.8146" style="stop-color:#61B5FF"/>
<stop offset="1" style="stop-color:#61B5FF"/>
</linearGradient>
<path d="M-261.469,421.396h-14c-1.104,0-2,0.895-2,1.998v15.106l4.289-3.116h11.712  c1.104,0,2-0.895,2-1.998v-9.992C-259.469,422.291-260.363,421.396-261.469,421.396z" fill="url(#XMLID_345_)"/>
<linearGradient gradientTransform="matrix(1 0 0 -1 0.0376 38.9941)" gradientUnits="userSpaceOnUse" id="XMLID_346_" x1="-268.4773" x2="-268.4773" y1="-386.1016" y2="-382.4434">
<stop offset="0" style="stop-color:#292BFF"/>
<stop offset="1" style="stop-color:#BDE7FF"/>
</linearGradient>
<path d="M-259.455,423.266c0,1.011-0.765,1.83-1.709,1.83h-14.55c-0.945,0-1.711-0.818-1.711-1.83l0,0  c0-1.011,0.766-1.828,1.711-1.828h14.55C-260.219,421.438-259.455,422.255-259.455,423.266L-259.455,423.266z" fill="url(#XMLID_346_)"/>
<path d="M-267.469,429.991" fill="#FFFFFF"/>
<path d="M-267.469,432.389" fill="#FFFFFF"/>
<g>
<path d="M-272.232,423.167c0-0.104,0.053-0.157,0.158-0.157h5.05c0.591,0,1.092,0.092,1.504,0.276   c0.411,0.185,0.744,0.44,0.997,0.769c0.253,0.326,0.438,0.717,0.554,1.17s0.174,0.949,0.174,1.486c0,0.559-0.058,1.065-0.174,1.52   c-0.116,0.453-0.301,0.844-0.554,1.171s-0.586,0.577-0.997,0.751c-0.412,0.174-0.913,0.261-1.504,0.261h-2.754   c-0.105,0-0.158,0.054-0.158,0.158v3.623c0,0.104-0.054,0.157-0.159,0.157h-1.979c-0.105,0-0.158-0.053-0.158-0.157v-10.853   V423.167z M-269.778,425.066c-0.105,0-0.158,0.053-0.158,0.158v2.974c0,0.104,0.053,0.157,0.158,0.157h3.022   c0.189,0,0.341-0.064,0.45-0.196c0.111-0.132,0.193-0.288,0.246-0.467c0.053-0.181,0.087-0.361,0.104-0.546   c0.016-0.186,0.022-0.33,0.022-0.436s-0.008-0.25-0.022-0.435c-0.016-0.185-0.051-0.367-0.104-0.546   c-0.053-0.18-0.135-0.336-0.246-0.467c-0.109-0.133-0.261-0.199-0.45-0.199h-3.022V425.066z" fill="#FFFFFF"/>
</g>
</svg>
