<?xml version="1.0" encoding="utf-8"?>
<!-- Generator: Adobe Illustrator 12.0.0, SVG Export Plug-In . SVG Version: 6.00 Build 51448)  -->
<!DOCTYPE svg PUBLIC "-//W3C//DTD SVG 1.1 Tiny//EN" "http://www.w3.org/Graphics/SVG/1.1/DTD/svg11-tiny.dtd" [
	<!ENTITY ns_svg "http://www.w3.org/2000/svg">
	<!ENTITY ns_xlink "http://www.w3.org/1999/xlink">
]>
<svg  version="1.1" baseProfile="tiny" id="Layer_1" xmlns="&ns_svg;" xmlns:xlink="&ns_xlink;" width="40.063" height="40.029"
	 viewBox="0 0 40.063 40.029" xml:space="preserve">
<path fill="#612900" d="M37.063,0H23.064c-1.658,0-3.002,1.348-3.002,3.01v10.029v7.019l5.744-4.01h11.257
	c1.656,0,2.999-1.348,2.999-3.009V3.01C40.063,1.348,38.72,0,37.063,0z"/>
<linearGradient id="XMLID_3_" gradientUnits="userSpaceOnUse" x1="30.0625" y1="1.0039" x2="30.0625" y2="18.1709">
	<stop  offset="0" style="stop-color:#FF5E00"/>
	<stop  offset="0.1643" style="stop-color:#FF6201"/>
	<stop  offset="0.334" style="stop-color:#FF6F04"/>
	<stop  offset="0.5062" style="stop-color:#FF8308"/>
	<stop  offset="0.6792" style="stop-color:#FFA00E"/>
	<stop  offset="0.8146" style="stop-color:#FFBC14"/>
</linearGradient>
<path fill="url(#XMLID_3_)" d="M37.063,1.004H23.064c-1.105,0-2.001,0.899-2.001,2.006v10.027l-0.002,5.134l4.29-3.128h11.712
	c1.104,0,1.999-0.898,1.999-2.004V3.01C39.063,1.903,38.167,1.004,37.063,1.004z"/>
<linearGradient id="XMLID_4_" gradientUnits="userSpaceOnUse" x1="30.0918" y1="4.7158" x2="30.0918" y2="1.0449">
	<stop  offset="0" style="stop-color:#FF7B00"/>
	<stop  offset="1" style="stop-color:#FFE1B5"/>
</linearGradient>
<path fill="url(#XMLID_4_)" d="M39.076,2.881c0,1.013-0.766,1.834-1.711,1.834H22.818c-0.944,0-1.71-0.822-1.71-1.834l0,0
	c0-1.015,0.766-1.836,1.71-1.836h14.547C38.311,1.045,39.076,1.866,39.076,2.881L39.076,2.881z"/>
<path fill="#FFFFFF" d="M31.063,9.628"/>
<path fill="#FFFFFF" d="M31.063,12.035"/>
<ellipse fill="#FFFFFF" cx="35.564" cy="11.534" rx="2.5" ry="2.507"/>
<ellipse fill="#FFFFFF" cx="30.563" cy="12.536" rx="1.5" ry="1.505"/>
<path fill="#FFFFFF" d="M34.768,6.231c0,0-0.909-1.988-1.614-3.531c-0.706-1.542-2.277-0.947-2.277-0.947s-5.945,2.53-7.647,3.255
	c-1.703,0.725-0.871,2.354-0.871,2.354s0.984,2.153,1.642,3.584c0.655,1.431,1.977,0.77,1.977,0.77s6.632-2.823,8.116-3.454
	C35.576,7.631,34.768,6.231,34.768,6.231z M24.422,10.818l-0.777-1.693l10.078-4.281L34.5,6.521L24.422,10.818z"/>
<rect y="0.029" fill="none" width="40.063" height="40"/>
</svg>
