<?xml version="1.0" encoding="UTF-8" standalone="no"?>
<!DOCTYPE svg PUBLIC "-//W3C//DTD SVG 1.1 Tiny//EN" "http://www.w3.org/Graphics/SVG/1.1/DTD/svg11-tiny.dtd">
<svg xmlns="http://www.w3.org/2000/svg" xmlns:xlink="http://www.w3.org/1999/xlink" baseProfile="tiny" height="20" version="1.1" viewBox="-278.469 420.39 20 20" width="20">
<path d="M-261.469,420.441h-13.999c-1.654,0-3,1.336-3,2.983v16.913l5.744-3.98h11.255  c1.658,0,3.001-1.337,3.001-2.984v-9.948C-258.469,421.777-259.811,420.441-261.469,420.441z" fill="#004A00"/>
<linearGradient gradientTransform="matrix(1 0 0 -1 0.0376 38.9941)" gradientUnits="userSpaceOnUse" id="XMLID_289_" x1="-268.5061" x2="-268.5061" y1="-382.4404" y2="-399.4736">
<stop offset="0" style="stop-color:#007805"/>
<stop offset="0.1364" style="stop-color:#047A05"/>
<stop offset="0.2774" style="stop-color:#118104"/>
<stop offset="0.4206" style="stop-color:#258C04"/>
<stop offset="0.5651" style="stop-color:#429C03"/>
<stop offset="0.7094" style="stop-color:#67B101"/>
<stop offset="0.8146" style="stop-color:#87C200"/>
<stop offset="1" style="stop-color:#87C200"/>
</linearGradient>
<path d="M-261.469,421.435h-13.999c-1.104,0-2,0.892-2,1.99v9.948v5.095l4.29-3.104h7.136h4.573  c1.106,0,2.001-0.892,2.001-1.99v-9.948C-259.469,422.326-260.363,421.435-261.469,421.435z" fill="url(#XMLID_289_)"/>
<linearGradient gradientTransform="matrix(1 0 0 -1 0.0376 38.9941)" gradientUnits="userSpaceOnUse" id="XMLID_290_" x1="-268.4763" x2="-268.4763" y1="-386.123" y2="-382.4834">
<stop offset="0" style="stop-color:#007805"/>
<stop offset="1" style="stop-color:#E2FFBD"/>
</linearGradient>
<path d="M-259.454,423.298c0,1.005-0.768,1.819-1.71,1.819h-14.55c-0.944,0-1.71-0.814-1.71-1.819l0,0  c0-1.007,0.766-1.82,1.71-1.82h14.55C-260.22,421.477-259.454,422.291-259.454,423.298L-259.454,423.298z" fill="url(#XMLID_290_)"/>
<path d="M-267.469,429.992" fill="#FFFFFF"/>
<path d="M-267.469,432.379" fill="#FFFFFF"/>
<g>
<path d="M-268.469,426.41c1.104,0,2.001-0.892,2.001-1.99c0-1.098-0.896-1.99-2.001-1.99   c-1.104,0-1.999,0.893-1.999,1.99C-270.469,425.519-269.573,426.41-268.469,426.41z M-265.469,433.373c-1,0-1,0-1,0v-4.975   c0-0.994-1.001-0.994-1.001-0.994s-2.748,0-3.749,0c-1,0-1,0.994,0,0.994c1.001,0,1.001,0,1.001,0v4.975c0,0,0,0-1.001,0   c-1,0-1,0.996,0,0.996c1.001,0,4.75,0,5.75,0S-264.469,433.373-265.469,433.373z" fill="#FFFFFF"/>
</g>
</svg>
