<?xml version="1.0" encoding="UTF-8" standalone="no"?>
<!DOCTYPE svg PUBLIC "-//W3C//DTD SVG 1.1 Tiny//EN" "http://www.w3.org/Graphics/SVG/1.1/DTD/svg11-tiny.dtd">
<svg xmlns="http://www.w3.org/2000/svg" xmlns:xlink="http://www.w3.org/1999/xlink" baseProfile="tiny" height="20" version="1.1" viewBox="-278.469 420.409 20 20" width="20">
<path d="M-261.469,420.371h-14c-1.654,0-3,1.349-3,3.012v10.04v7.024l5.744-4.015h11.256c1.656,0,3-1.351,3-3.011  v-10.039C-258.469,421.719-259.812,420.371-261.469,420.371z" fill="#612900"/>
<linearGradient gradientTransform="matrix(1 0 0 -1 0.0376 39.0322)" gradientUnits="userSpaceOnUse" id="XMLID_415_" x1="-268.5056" x2="-268.5056" y1="-382.3423" y2="-399.5288">
<stop offset="0" style="stop-color:#FF5E00"/>
<stop offset="0.1643" style="stop-color:#FF6201"/>
<stop offset="0.334" style="stop-color:#FF6F04"/>
<stop offset="0.5062" style="stop-color:#FF8308"/>
<stop offset="0.6792" style="stop-color:#FFA00E"/>
<stop offset="0.8146" style="stop-color:#FFBC14"/>
<stop offset="1" style="stop-color:#FFBC14"/>
</linearGradient>
<path d="M-261.469,421.375h-14c-1.104,0-1.999,0.899-1.999,2.008v10.037l-0.001,5.142l4.289-3.134h11.711  c1.104,0,2.001-0.896,2.001-2.005v-10.04C-259.469,422.274-260.364,421.375-261.469,421.375z" fill="url(#XMLID_415_)"/>
<linearGradient gradientTransform="matrix(1 0 0 -1 0.0376 39.0322)" gradientUnits="userSpaceOnUse" id="XMLID_416_" x1="-268.4768" x2="-268.4768" y1="-386.0581" y2="-382.3853">
<stop offset="0" style="stop-color:#FF7B00"/>
<stop offset="1" style="stop-color:#FFE1B5"/>
</linearGradient>
<path d="M-259.454,423.253c0,1.015-0.768,1.837-1.711,1.837h-14.549c-0.943,0-1.711-0.823-1.711-1.837l0,0  c0-1.016,0.768-1.836,1.711-1.836h14.549C-260.22,421.416-259.454,422.238-259.454,423.253L-259.454,423.253z" fill="url(#XMLID_416_)"/>
<path d="M-267.469,430.008" fill="#FFFFFF"/>
<path d="M-267.469,432.416" fill="#FFFFFF"/>
<g>
<path d="M-269.259,428.136c0,0.123,0.04,0.229,0.121,0.318c0.08,0.09,0.219,0.166,0.418,0.228v-1.067   c-0.201,0.06-0.342,0.131-0.421,0.217S-269.259,428.019-269.259,428.136z M-268.031,430.38v1.336   c0.265-0.053,0.458-0.141,0.581-0.262s0.185-0.256,0.185-0.406c0-0.131-0.052-0.251-0.156-0.361   C-267.525,430.578-267.729,430.475-268.031,430.38z M-266.442,425.44l2.052-1.999c0,0-1.023-1-4.104-1c-3.077,0-4.104,1-4.104,1   l2.051,1.999c0,0-5.128,2-5.128,4.998c0,3.997,4.104,3.997,7.181,3.997c3.078,0,7.181,0,7.182-3.997   C-261.311,427.439-266.442,425.44-266.442,425.44z M-265.719,431.664c-0.15,0.254-0.346,0.465-0.582,0.635   c-0.235,0.169-0.486,0.292-0.753,0.367c-0.267,0.076-0.592,0.123-0.977,0.137v0.789h-0.688v-0.789   c-0.461-0.036-0.835-0.102-1.122-0.197c-0.287-0.095-0.534-0.229-0.743-0.396c-0.209-0.17-0.368-0.353-0.481-0.547   c-0.113-0.196-0.197-0.434-0.254-0.711l1.897-0.194c0.058,0.274,0.134,0.473,0.229,0.595s0.254,0.23,0.475,0.324v-1.473   c-0.635-0.154-1.084-0.289-1.348-0.403c-0.266-0.114-0.495-0.296-0.689-0.548c-0.192-0.25-0.291-0.557-0.291-0.918   c0-0.493,0.195-0.906,0.586-1.237c0.392-0.332,0.972-0.517,1.742-0.552v-0.414h0.688v0.414c0.702,0.039,1.237,0.185,1.608,0.438   c0.372,0.255,0.613,0.603,0.728,1.043l-1.75,0.245c-0.088-0.195-0.166-0.331-0.236-0.406c-0.07-0.074-0.188-0.152-0.35-0.229v1.205   c0.95,0.225,1.585,0.462,1.903,0.712c0.424,0.336,0.636,0.762,0.636,1.278C-265.492,431.134-265.568,431.414-265.719,431.664z" fill="#FFFFFF"/>
</g>
</svg>
