<?xml version="1.0" encoding="UTF-8" standalone="no"?>
<!DOCTYPE svg PUBLIC "-//W3C//DTD SVG 1.1 Tiny//EN" "http://www.w3.org/Graphics/SVG/1.1/DTD/svg11-tiny.dtd">
<svg xmlns="http://www.w3.org/2000/svg" xmlns:xlink="http://www.w3.org/1999/xlink" baseProfile="tiny" height="20" version="1.1" viewBox="-278.462 420.39 20 20" width="20">
<path d="M-261.452,420.417h-14.02c-1.658,0-3.003,1.339-3.003,2.991v9.973l-0.001,6.981l5.752-3.989h11.271  c1.662,0,3.004-1.339,3.004-2.992v-9.972C-258.447,421.756-259.79,420.417-261.452,420.417z" fill="#A10300"/>
<linearGradient gradientTransform="matrix(1 0 0 -1 0.0376 38.9941)" gradientUnits="userSpaceOnUse" id="XMLID_313_" x1="-268.4985" x2="-268.4985" y1="-382.4199" y2="-399.4932">
<stop offset="0" style="stop-color:#E0291C"/>
<stop offset="0.2143" style="stop-color:#E22D1D"/>
<stop offset="0.4357" style="stop-color:#E93A20"/>
<stop offset="0.6596" style="stop-color:#F54E25"/>
<stop offset="0.8146" style="stop-color:#FF6129"/>
<stop offset="1" style="stop-color:#FF6129"/>
</linearGradient>
<path d="M-261.452,421.414h-14.02c-1.105,0-2.002,0.893-2.002,1.994v9.972l-0.001,5.107l4.296-3.111h11.727  c1.105,0,2.005-0.893,2.005-1.995v-9.972C-259.447,422.307-260.345,421.414-261.452,421.414z" fill="url(#XMLID_313_)"/>
<linearGradient gradientTransform="matrix(1 0 0 -1 0.0376 38.9941)" gradientUnits="userSpaceOnUse" id="XMLID_314_" x1="-268.4688" x2="-268.4688" y1="-386.1113" y2="-382.4619">
<stop offset="0" style="stop-color:#ED2B0C"/>
<stop offset="1" style="stop-color:#FFA68C"/>
</linearGradient>
<path d="M-259.434,423.28c0,1.01-0.769,1.825-1.713,1.825h-14.569c-0.945,0-1.713-0.815-1.713-1.825l0,0  c0-1.009,0.768-1.824,1.713-1.824h14.569C-260.202,421.455-259.434,422.271-259.434,423.28L-259.434,423.28z" fill="url(#XMLID_314_)"/>
<path d="M-267.46,429.991" fill="#FFFFFF"/>
<path d="M-267.46,432.383" fill="#FFFFFF"/>
<path d="M-261.452,432.383c-0.762-1.162-5.348-7.99-6.008-8.975c-0.66-0.982-1.385-1-2.004,0  c-0.619,1.002-5.006,7.48-6.008,8.975c-1,1.497-0.703,1.996,1.094,1.996c2.205,0,9.654,0,11.806,0  C-260.688,434.379-260.688,433.549-261.452,432.383z" fill="#FFFFFF"/>
<ellipse cx="-268.46" cy="432.384" fill="#FFFFFF" rx="0.997" ry="0.997"/>
<rect fill="#FFFFFF" height="4.986" width="2.004" x="-269.462" y="425.404"/>
<path d="M-267.986,429.571c-0.004,0.002-0.007,0.002-0.011,0.002c-0.008,0-0.019-0.002-0.024-0.011  c-0.046-0.051-0.087-0.1-0.126-0.149c-0.031-0.035-0.057-0.071-0.083-0.108c-0.021-0.031-0.042-0.063-0.063-0.096  c-0.023-0.029-0.045-0.063-0.063-0.096c-0.031-0.053-0.059-0.102-0.087-0.151c-0.017-0.034-0.033-0.079-0.041-0.125  c-0.006-0.022-0.011-0.05-0.019-0.075c-0.004-0.012-0.006-0.026-0.006-0.043l0,0c0-0.021,0.008-0.043,0.023-0.062l0.059-0.062  l0.069-0.051c0.013-0.013,0.028-0.02,0.048-0.02c0.023,0,0.046,0.013,0.059,0.031l0.045,0.072c0.009,0.022,0.018,0.045,0.02,0.068  c0,0.042,0.004,0.083,0.014,0.125c0.006,0.02,0.019,0.076,0.029,0.134c0.033,0.146,0.066,0.261,0.104,0.367l0.027,0.075l0.033,0.09  c0.006,0.015,0.01,0.031,0.01,0.05c0,0.005,0,0.009-0.002,0.015C-267.972,429.563-267.978,429.571-267.986,429.571z" fill="#FFFFFF"/>
<g>
<path d="M-271.69,433.924l8.841-0.027l-0.026-0.107c-0.039-0.156-0.084-0.309-0.135-0.455   c-0.039-0.119-0.095-0.24-0.16-0.352c-0.047-0.076-0.088-0.144-0.129-0.213c-0.009-0.01-0.019-0.018-0.031-0.025l-0.027-0.045   l-0.098-0.219c-0.025-0.059-0.055-0.113-0.09-0.161c-0.031-0.046-0.063-0.089-0.097-0.13c-0.069-0.081-0.131-0.168-0.185-0.258   c-0.053-0.094-0.116-0.179-0.19-0.256c-0.028-0.033-0.063-0.063-0.103-0.084c-0.045-0.029-0.077-0.068-0.104-0.113   c-0.053-0.105-0.123-0.207-0.201-0.295c-0.104-0.121-0.266-0.174-0.422-0.133c-0.08,0.021-0.156,0.053-0.229,0.088   c-0.133,0.066-0.256,0.15-0.365,0.25l-0.073-0.039c-0.336-0.164-0.651-0.345-0.956-0.543l-0.136,0.055l-0.166-0.141l-0.09-0.101   l-0.175-0.127c-0.209-0.156-0.438-0.289-0.674-0.397l-0.139-0.123l-0.219-0.209c-0.025-0.024-0.041-0.055-0.049-0.084   c-0.026-0.086-0.043-0.177-0.049-0.263c-0.008-0.127-0.014-0.243-0.019-0.362c-0.004-0.093-0.011-0.185-0.021-0.275   c-0.016-0.122-0.021-0.238-0.021-0.36c0-0.024,0-0.046,0-0.073c0-0.019,0.002-0.06,0.002-0.104   c0.004-0.073,0.012-0.104,0.027-0.127l0.146-0.319l0.2-0.347c0.041-0.076,0.068-0.162,0.074-0.252   c0.004-0.088-0.002-0.178-0.021-0.266c-0.008-0.035-0.021-0.066-0.033-0.101c-0.004-0.01-0.006-0.024-0.006-0.038   c0-0.02,0.006-0.038,0.018-0.054c0.01-0.017,0.029-0.024,0.047-0.024c0.006,0,0.012,0,0.018,0.004c0.06,0.012,0.119,0,0.166-0.041   c0.104-0.09,0.176-0.209,0.209-0.341c0.015-0.049,0.029-0.101,0.047-0.151c0.011-0.037,0.031-0.067,0.062-0.092   c0.058-0.05,0.097-0.115,0.115-0.185c0.019-0.078,0.019-0.157,0-0.235c-0.021-0.087-0.065-0.168-0.138-0.228   c-0.067-0.06-0.147-0.104-0.233-0.136c-0.095-0.029-0.188-0.053-0.285-0.066c-0.051-0.009-0.104,0-0.149,0.023   c-0.06,0.035-0.117,0.069-0.164,0.112c-0.051,0.041-0.088,0.097-0.108,0.162c-0.021,0.063-0.04,0.125-0.056,0.187   c-0.01,0.041-0.018,0.08-0.021,0.117c-0.018,0.09-0.048,0.174-0.094,0.252c-0.034,0.064-0.063,0.113-0.098,0.162   c0.006-0.008-0.037,0.024-0.088,0.041c-0.025,0.008-0.059,0.014-0.088,0.014c-0.022,0-0.045-0.002-0.066-0.008   c-0.088-0.02-0.174-0.029-0.262-0.039c-0.072-0.006-0.145-0.02-0.209-0.041c-0.137-0.045-0.271-0.084-0.406-0.123   c-0.075-0.022-0.159-0.027-0.243-0.014c-0.427,0.067-0.832,0.213-1.199,0.432c-0.037,0.023-0.075,0.045-0.11,0.07   c-0.053,0.034-0.096,0.082-0.119,0.143c-0.029,0.068-0.045,0.138-0.053,0.208c-0.019,0.202-0.041,0.383-0.066,0.565   c-0.016,0.118-0.076,0.243-0.168,0.344c-0.023,0.026-0.055,0.052-0.086,0.069c-0.065,0.037-0.118,0.093-0.158,0.156   c-0.02,0.028-0.026,0.06-0.026,0.092c0,0.052,0.021,0.103,0.062,0.136c0.037,0.03,0.078,0.061,0.117,0.084   c0.032,0.021,0.067,0.032,0.104,0.039c0.019,0.002,0.032,0.016,0.034,0.035l-0.034,0.781l-0.005,0.645l0.01,0.309l-0.005,0.267   l0.017,0.244l0.029,0.292c0.01,0.089,0.016,0.182,0.016,0.271c0,0.135-0.011,0.267-0.028,0.4c-0.015,0.083-0.021,0.176-0.021,0.262   c0,0.026,0.002,0.053,0.002,0.076l-0.005,0.353l0.009,0.401l0.01,0.373l-0.006,0.182c-0.002,0.063,0.045,0.119-0.021,0.119   l0.024,0.074c0,0-0.1-0.086-0.162-0.074L-271.69,433.924z" fill="#231F20"/>
<path d="M-268.503,429.62c-0.002,0.002-0.006,0.002-0.011,0.002c-0.012,0-0.021-0.002-0.03-0.014   c-0.053-0.063-0.101-0.121-0.146-0.185c-0.035-0.041-0.063-0.088-0.097-0.134c-0.024-0.038-0.049-0.079-0.075-0.116   c-0.024-0.037-0.052-0.08-0.071-0.119c-0.035-0.065-0.066-0.125-0.099-0.187c-0.021-0.044-0.041-0.099-0.05-0.154   c-0.008-0.03-0.014-0.063-0.021-0.096c-0.006-0.013-0.008-0.033-0.008-0.051l0,0c0-0.027,0.011-0.054,0.028-0.076l0.065-0.076   l0.081-0.063c0.018-0.016,0.034-0.022,0.057-0.022c0.026,0,0.054,0.017,0.065,0.041l0.054,0.089   c0.012,0.027,0.02,0.055,0.021,0.083c0,0.052,0.005,0.103,0.016,0.154c0.006,0.024,0.021,0.095,0.035,0.165   c0.037,0.182,0.077,0.322,0.12,0.455l0.032,0.092l0.035,0.109c0.01,0.02,0.015,0.041,0.015,0.063c0,0.006,0,0.012-0.002,0.016   C-268.484,429.609-268.493,429.62-268.503,429.62z" fill="#FFFFFF"/>
<path d="M-270.161,427.186l-0.129,0.002l-0.114,0.014l-0.181,0.035c-0.008,0.003-0.019,0.008-0.021,0.019   l-0.048,0.106l-0.035,0.078l-0.023,0.068l-0.037,0.088l-0.062,0.125l-0.037,0.067l-0.043,0.104l-0.041,0.123l-0.022,0.093   l-0.008,0.034c-0.002,0.006-0.002,0.014-0.002,0.02c0,0.038,0.031,0.07,0.07,0.07c0,0,0,0,0.002,0c0.014,0,0.029-0.006,0.043-0.014   l0.084-0.086l0.092-0.098l0.053-0.061l0.043-0.064l0.033-0.063c0.023-0.052,0.047-0.104,0.065-0.158l0.12-0.137l0.15-0.168   l0.119-0.119c0.008-0.008,0.008-0.019-0.004-0.023l-0.033-0.043C-270.132,427.191-270.146,427.186-270.161,427.186z" fill="#FFFFFF"/>
<path d="M-268.765,433.635l-0.328-0.229l-0.016-0.01l-0.063-0.021l-0.123-0.03l-0.235-0.143l0.012-0.048   c0.021-0.085,0.06-0.166,0.11-0.236c0.042-0.062,0.08-0.127,0.113-0.196c0.027-0.056,0.041-0.108,0.043-0.168   c0.011-0.188,0.043-0.375,0.092-0.559c0.056-0.199,0.121-0.404,0.193-0.611c0.037-0.1,0.057-0.193,0.064-0.285   c0.002-0.022,0.005-0.043,0.002-0.065c0-0.013-0.006-0.026-0.014-0.038l-0.07-0.066l-0.085-0.067l-0.08-0.073l-0.101-0.09   l-0.061-0.064l-0.27-0.298l-0.034-0.046l-0.017-0.023c-0.016-0.024-0.033-0.049-0.054-0.073c-0.011-0.013-0.021-0.022-0.034-0.03   l-0.109-0.068l-0.079-0.029c-0.027-0.012-0.06-0.008-0.08,0.011c-0.035,0.026-0.06,0.069-0.07,0.114l-0.013,0.146l-0.016,0.144   l-0.041,0.287c-0.008,0.069-0.014,0.138-0.014,0.205c0,0.064,0.006,0.127,0.014,0.189c0.002,0.023,0.002,0.048,0.002,0.073   c0,0.069-0.01,0.14-0.033,0.206c-0.02,0.049-0.04,0.094-0.063,0.137c-0.063,0.117-0.107,0.238-0.14,0.366   c-0.021,0.089-0.035,0.179-0.037,0.271c-0.006,0.147-0.024,0.297-0.058,0.443c-0.019,0.086-0.032,0.156-0.047,0.23   c-0.004,0.021-0.026,0.039-0.055,0.039c-0.005,0-0.012,0-0.016-0.004l-0.064,0.004c-0.014,0-0.027,0.01-0.029,0.024   c-0.019,0.063-0.025,0.13-0.025,0.194c0,0.063,0.008,0.123,0.023,0.185c0.014,0.06,0.056,0.104,0.111,0.124   c0.049,0.018,0.1,0.029,0.15,0.035c0.047,0.009,0.088,0.044,0.094,0.089c0.008,0.021,0.01,0.041,0.01,0.062l0,0l0,0   c0,0.047,0.029,0.082,0.068,0.095c0.04,0.012,0.083,0.021,0.123,0.022c0.063,0.006,0.123,0.014,0.188,0.023l0.193,0.007l0.229-0.01   l0.182-0.032l0.113-0.027l0.177-0.033l0.12-0.025L-268.765,433.635z" fill="#FFFFFF"/>
<path d="M-265.391,431.751l-0.067-0.014l-0.187-0.04c-0.125-0.026-0.244-0.064-0.36-0.116   c-0.103-0.043-0.179-0.076-0.256-0.108c-0.095-0.037-0.188-0.101-0.271-0.178l-0.132-0.111l-0.11-0.112l-0.071-0.063l-0.084-0.063   l-0.076-0.057l-0.099-0.061l-0.067-0.038l-0.074-0.038l-0.078-0.038l-0.082-0.043l-0.063-0.032l-0.056-0.033l-0.056-0.03   l-0.112-0.048l-0.228,0.628l-0.004,0.022l-0.006,0.025l-0.089,0.296l-0.073,0.308l-0.058,0.192l-0.038,0.146l-0.079,0.369   l-0.021,0.115c-0.014,0.061-0.041,0.114-0.082,0.16c-0.018,0.018-0.035,0.029-0.055,0.037c-0.045,0.025-0.093,0.036-0.145,0.036   c-0.01,0-0.02,0-0.025-0.003c-0.035-0.002-0.07,0.012-0.092,0.037c-0.048,0.058-0.076,0.127-0.089,0.197c0,0.004,0,0.01,0,0.012   c0,0.015,0.004,0.025,0.009,0.037l0.1,0.16l0.019,0.029l0.222,0.127c0.017,0.008,0.026,0.028,0.026,0.047c0,0,0,0.004,0,0.008   l-0.019,0.072l0.074-0.017c0.096-0.023,0.194-0.035,0.299-0.035c0.059,0,0.121,0.003,0.18,0.012   c0.115,0.017,0.232,0.038,0.352,0.066c0.123,0.03,0.248,0.046,0.379,0.049c0.088,0.004,0.176-0.006,0.258-0.031   c0.035-0.009,0.076-0.019,0.113-0.026c0.078-0.015,0.148-0.053,0.197-0.108c0.039-0.037,0.084-0.09,0.131-0.136l0.119-0.172   l0.066-0.108l0.074-0.104l0.063-0.097l0.102-0.155l0.047-0.078l0.07-0.146l0.051-0.112l0.035-0.07l0.029-0.057   C-265.679,432.073-265.55,431.9-265.391,431.751L-265.391,431.751L-265.391,431.751z" fill="#FFFFFF"/>
</g>
</svg>
