<?xml version="1.0" encoding="utf-8"?>
<!-- Generator: Adobe Illustrator 12.0.0, SVG Export Plug-In . SVG Version: 6.00 Build 51448)  -->
<!DOCTYPE svg PUBLIC "-//W3C//DTD SVG 1.1 Tiny//EN" "http://www.w3.org/Graphics/SVG/1.1/DTD/svg11-tiny.dtd" [
	<!ENTITY ns_svg "http://www.w3.org/2000/svg">
	<!ENTITY ns_xlink "http://www.w3.org/1999/xlink">
]>
<svg  version="1.1" baseProfile="tiny" id="Layer_1" xmlns="&ns_svg;" xmlns:xlink="&ns_xlink;" width="40.063" height="40.009"
	 viewBox="0 0 40.063 40.009" xml:space="preserve">
<path fill="#002B7A" d="M37.062,0H23.063c-1.656,0-3,1.344-3,3.003v10.011v7.005l5.744-4.002h11.255
	c1.658,0,3.001-1.344,3.001-3.003V3.003C40.063,1.344,38.72,0,37.062,0z"/>
<linearGradient id="XMLID_3_" gradientUnits="userSpaceOnUse" x1="30.0625" y1="1.0015" x2="30.0625" y2="18.1357">
	<stop  offset="0" style="stop-color:#292BFF"/>
	<stop  offset="0.1349" style="stop-color:#2B2FFF"/>
	<stop  offset="0.2743" style="stop-color:#303CFF"/>
	<stop  offset="0.4159" style="stop-color:#3850FF"/>
	<stop  offset="0.5588" style="stop-color:#446DFF"/>
	<stop  offset="0.7015" style="stop-color:#5392FF"/>
	<stop  offset="0.8146" style="stop-color:#61B5FF"/>
</linearGradient>
<path fill="url(#XMLID_3_)" d="M37.062,1.001H23.063c-1.104,0-2,0.896-2,2.001v15.133l4.289-3.12h11.71
	c1.104,0,2.001-0.897,2.001-2.002V3.003C39.063,1.898,38.166,1.001,37.062,1.001z"/>
<linearGradient id="XMLID_4_" gradientUnits="userSpaceOnUse" x1="30.0918" y1="4.7056" x2="30.0918" y2="1.043">
	<stop  offset="0" style="stop-color:#292BFF"/>
	<stop  offset="1" style="stop-color:#BDE7FF"/>
</linearGradient>
<path fill="url(#XMLID_4_)" d="M39.077,2.874c0,1.012-0.767,1.832-1.711,1.832H22.817c-0.943,0-1.71-0.819-1.71-1.832l0,0
	c0-1.011,0.767-1.831,1.71-1.831h14.549C38.311,1.043,39.077,1.863,39.077,2.874L39.077,2.874z"/>
<path fill="#FFFFFF" d="M31.063,9.611"/>
<path fill="#FFFFFF" d="M31.063,12.013"/>
<path fill="#FFFFFF" d="M29.063,12.013c1,0,2-1.001,2-2.002V5.005c0-1-1-2.001-2-2.001h-1.499h-1.001h-1.5c-1,0-2,1-2,2.001v5.005
	c0,1.001,0.999,2.002,2,2.002l0,0l-2.999,2.001h1.999l1.5-1h3.001l1.499,1h2.001L29.063,12.013z M24.063,5.005
	c0-1.001,1-1.001,1-1.001h4c0,0,1,0,1,1.001c0,1.002,0,0,0,1.002c0,1.001-1,1.001-1,1.001h-4c0,0-1,0-1-1.001
	C24.063,6.007,24.063,6.007,24.063,5.005z M25.063,11.012c-0.553,0-1.001-0.448-1.001-1.001c0-0.553,0.448-1.001,1.001-1.001
	c0.552,0,1,0.448,1,1.001C26.063,10.563,25.614,11.012,25.063,11.012z M28.062,10.01c0-0.553,0.449-1.001,1.001-1.001
	s1,0.448,1,1.001c0,0.553-0.448,1.001-1,1.001S28.062,10.563,28.062,10.01z M27.063,2.503c0-0.275-0.225-0.5-0.501-0.5
	s-0.5,0.225-0.5,0.5c0,0.276,0.224,0.5,0.5,0.5S27.063,2.78,27.063,2.503z M27.563,3.003c0.275,0,0.5-0.224,0.5-0.5
	c0-0.275-0.225-0.5-0.5-0.5c-0.277,0-0.5,0.225-0.5,0.5C27.063,2.78,27.286,3.003,27.563,3.003z"/>
<path fill="#FFFFFF" d="M37.062,3.004v1.001h-2.999V3.004h-1v11.01h1v-1h2.999v1h1V3.004H37.062z M37.062,12.013h-2.999v-1.001
	h2.999V12.013z M37.062,10.01h-2.999v-1h2.999V10.01z M37.062,8.008h-2.999v-1h2.999V8.008z M37.062,6.007h-2.999V5.005h2.999V6.007
	z"/>
<rect y="0.009" fill="none" width="40.063" height="40"/>
</svg>
