<?xml version="1.0" encoding="UTF-8" standalone="no"?>
<!DOCTYPE svg PUBLIC "-//W3C//DTD SVG 1.1 Tiny//EN" "http://www.w3.org/Graphics/SVG/1.1/DTD/svg11-tiny.dtd">
<svg xmlns="http://www.w3.org/2000/svg" xmlns:xlink="http://www.w3.org/1999/xlink" baseProfile="tiny" height="20" version="1.1" viewBox="-278.469 420.39 20 20" width="20">
<path d="M-261.489,420.418h-13.961c-1.651,0-2.99,1.34-2.99,2.992v9.971l-0.001,6.98l5.728-3.988h11.226  c1.651,0,2.992-1.34,2.992-2.992v-9.971C-258.497,421.758-259.838,420.418-261.489,420.418z" fill="#2F1457"/>
<linearGradient gradientTransform="matrix(1 0 0 -1 0.0376 38.9941)" gradientUnits="userSpaceOnUse" id="XMLID_423_" x1="-268.5071" x2="-268.5071" y1="-382.4219" y2="-399.4922">
<stop offset="0" style="stop-color:#5E0EC7"/>
<stop offset="0.156" style="stop-color:#620FC9"/>
<stop offset="0.3171" style="stop-color:#6F12D0"/>
<stop offset="0.4807" style="stop-color:#8318DB"/>
<stop offset="0.6459" style="stop-color:#A01FEB"/>
<stop offset="0.811" style="stop-color:#C529FF"/>
<stop offset="0.8146" style="stop-color:#C629FF"/>
<stop offset="1" style="stop-color:#C629FF"/>
</linearGradient>
<path d="M-261.489,421.416h-13.961c-1.102,0-1.992,0.893-1.992,1.994v9.971l-0.002,5.105l4.277-3.111  h11.678c1.102,0,1.994-0.893,1.994-1.994v-9.971C-259.495,422.309-260.387,421.416-261.489,421.416z" fill="url(#XMLID_423_)"/>
<linearGradient gradientTransform="matrix(1 0 0 -1 0.0376 38.9941)" gradientUnits="userSpaceOnUse" id="XMLID_424_" x1="-268.4778" x2="-268.4778" y1="-386.1123" y2="-382.4629">
<stop offset="0" style="stop-color:#700EC7"/>
<stop offset="1" style="stop-color:#F4C9FF"/>
</linearGradient>
<path d="M-259.481,423.281c0,1.008-0.762,1.825-1.705,1.825h-14.508c-0.941,0-1.705-0.817-1.705-1.825l0,0  c0-1.008,0.764-1.824,1.705-1.824h14.508C-260.243,421.457-259.481,422.273-259.481,423.281L-259.481,423.281z" fill="url(#XMLID_424_)"/>
<path d="M-267.471,429.992" fill="#FFFFFF"/>
<path d="M-267.471,432.385" fill="#FFFFFF"/>
<path d="M-270.465,427.397c0,1.103,0.894,1.995,1.994,1.995c1.102,0,1.994-0.893,1.994-1.995  c0-1.101-0.893-1.993-1.994-1.993C-269.571,425.404-270.465,426.298-270.465,427.397z M-261.649,428.396  c-0.998-1.995-3.99,1.995-6.982,1.995c-2.989,0-5.981-3.988-6.979-1.995c-0.893,1.784,1.994,5.981,6.979,5.981  C-263.645,434.379-260.76,430.179-261.649,428.396z M-268.434,433.381c-2.992,0-6.18-1.993-5.183-2.99  c0.997-0.998,1.995,0.997,4.984,0.997c2.992,0,3.988-1.993,4.986-0.997S-265.444,433.381-268.434,433.381z M-270.965,425.404  c0.826,0,1.496-0.668,1.496-1.496c0-0.826-0.67-1.496-1.496-1.496c-0.823,0-1.494,0.67-1.494,1.496  S-271.788,425.404-270.965,425.404z M-265.977,425.404c0.826,0,1.496-0.668,1.496-1.496c0-0.826-0.67-1.496-1.496-1.496  s-1.494,0.67-1.494,1.496S-266.803,425.404-265.977,425.404z" fill="#FFFFFF"/>
</svg>
