<?xml version="1.0" encoding="utf-8"?>
<!-- Generator: Adobe Illustrator 12.0.0, SVG Export Plug-In . SVG Version: 6.00 Build 51448)  -->
<!DOCTYPE svg PUBLIC "-//W3C//DTD SVG 1.1 Tiny//EN" "http://www.w3.org/Graphics/SVG/1.1/DTD/svg11-tiny.dtd" [
	<!ENTITY ns_svg "http://www.w3.org/2000/svg">
	<!ENTITY ns_xlink "http://www.w3.org/1999/xlink">
]>
<svg  version="1.1" baseProfile="tiny" id="Layer_1" xmlns="&ns_svg;" xmlns:xlink="&ns_xlink;" width="40.063" height="40"
	 viewBox="0 0 40.063 40" xml:space="preserve">
<path fill="#2F1457" d="M37.043,0.029H23.082c-1.651,0-2.99,1.339-2.99,2.991v9.971l-0.001,6.98l5.728-3.987h11.225
	c1.652,0,2.992-1.341,2.992-2.993V3.02C40.035,1.368,38.695,0.029,37.043,0.029z"/>
<linearGradient id="XMLID_3_" gradientUnits="userSpaceOnUse" x1="30.0625" y1="1.0269" x2="30.0625" y2="18.0972">
	<stop  offset="0" style="stop-color:#5E0EC7"/>
	<stop  offset="0.156" style="stop-color:#620FC9"/>
	<stop  offset="0.3171" style="stop-color:#6F12D0"/>
	<stop  offset="0.4807" style="stop-color:#8318DB"/>
	<stop  offset="0.6459" style="stop-color:#A01FEB"/>
	<stop  offset="0.811" style="stop-color:#C529FF"/>
	<stop  offset="0.8146" style="stop-color:#C629FF"/>
</linearGradient>
<path fill="url(#XMLID_3_)" d="M37.043,1.027H23.082c-1.101,0-1.992,0.892-1.992,1.993v9.971l-0.002,5.106l4.277-3.111h11.678
	c1.102,0,1.994-0.893,1.994-1.995V3.02C39.037,1.919,38.145,1.027,37.043,1.027z"/>
<linearGradient id="XMLID_4_" gradientUnits="userSpaceOnUse" x1="30.0918" y1="4.7163" x2="30.0918" y2="1.0669">
	<stop  offset="0" style="stop-color:#700EC7"/>
	<stop  offset="1" style="stop-color:#F4C9FF"/>
</linearGradient>
<path fill="url(#XMLID_4_)" d="M39.051,2.892c0,1.008-0.762,1.825-1.705,1.825H22.838c-0.941,0-1.705-0.817-1.705-1.825l0,0
	c0-1.008,0.764-1.825,1.705-1.825h14.508C38.289,1.067,39.051,1.884,39.051,2.892L39.051,2.892z"/>
<path fill="#FFFFFF" d="M31.061,9.602"/>
<path fill="#FFFFFF" d="M31.061,11.995"/>
<path fill="#FFFFFF" d="M28.068,7.008c0,1.102,0.893,1.995,1.994,1.995s1.994-0.893,1.994-1.995c0-1.101-0.893-1.993-1.994-1.993
	S28.068,5.908,28.068,7.008z M36.883,8.006c-0.998-1.995-3.99,1.995-6.982,1.995c-2.99,0-5.982-3.989-6.979-1.995
	c-0.892,1.784,1.994,5.982,6.979,5.982C34.887,13.989,37.773,9.789,36.883,8.006z M30.098,12.991c-2.992,0-6.18-1.993-5.183-2.99
	c0.997-0.998,1.995,0.997,4.985,0.997c2.992,0,3.988-1.993,4.986-0.997S33.088,12.991,30.098,12.991z M27.568,5.014
	c0.826,0,1.496-0.668,1.496-1.495c0-0.827-0.67-1.496-1.496-1.496c-0.824,0-1.495,0.669-1.495,1.496
	C26.073,4.345,26.744,5.014,27.568,5.014z M32.555,5.014c0.826,0,1.496-0.668,1.496-1.495c0-0.827-0.67-1.496-1.496-1.496
	s-1.494,0.669-1.494,1.496C31.061,4.345,31.729,5.014,32.555,5.014z"/>
<rect fill="none" width="40.063" height="40"/>
</svg>
