<?xml version="1.0" encoding="UTF-8" standalone="no"?>
<!DOCTYPE svg PUBLIC "-//W3C//DTD SVG 1.1 Tiny//EN" "http://www.w3.org/Graphics/SVG/1.1/DTD/svg11-tiny.dtd">
<svg xmlns="http://www.w3.org/2000/svg" xmlns:xlink="http://www.w3.org/1999/xlink" baseProfile="tiny" height="20" version="1.1" viewBox="-278.469 420.39 20 20" width="20">
<path d="M-261.473,420.396h-13.99c-1.654,0-2.998,1.342-2.998,2.998v16.988l5.74-3.998h11.248  c1.655,0,2.998-1.342,2.998-2.996v-9.994C-258.475,421.738-259.818,420.396-261.473,420.396z" fill="#2F1457"/>
<linearGradient gradientTransform="matrix(1 0 0 -1 0.0376 38.9941)" gradientUnits="userSpaceOnUse" id="XMLID_403_" x1="-268.5066" x2="-268.5066" y1="-382.4023" y2="-399.5098">
<stop offset="0" style="stop-color:#5E0EC7"/>
<stop offset="0.156" style="stop-color:#620FC9"/>
<stop offset="0.3171" style="stop-color:#6F12D0"/>
<stop offset="0.4807" style="stop-color:#8318DB"/>
<stop offset="0.6459" style="stop-color:#A01FEB"/>
<stop offset="0.811" style="stop-color:#C529FF"/>
<stop offset="0.8146" style="stop-color:#C629FF"/>
<stop offset="1" style="stop-color:#C629FF"/>
</linearGradient>
<path d="M-261.473,421.396h-13.99c-1.104,0-1.999,0.895-1.999,1.998v9.992l-0.001,5.117l4.286-3.118h11.704  c1.104,0,1.999-0.894,1.999-1.997v-9.994C-259.474,422.291-260.37,421.396-261.473,421.396z" fill="url(#XMLID_403_)"/>
<linearGradient gradientTransform="matrix(1 0 0 -1 0.0376 38.9941)" gradientUnits="userSpaceOnUse" id="XMLID_404_" x1="-268.4778" x2="-268.4778" y1="-386.1016" y2="-382.4424">
<stop offset="0" style="stop-color:#700EC7"/>
<stop offset="1" style="stop-color:#F4C9FF"/>
</linearGradient>
<path d="M-259.462,423.266c0,1.012-0.766,1.83-1.709,1.83h-14.539c-0.943,0-1.709-0.818-1.709-1.83l0,0  c0-1.01,0.766-1.829,1.709-1.829h14.539C-260.226,421.437-259.462,422.256-259.462,423.266L-259.462,423.266z" fill="url(#XMLID_404_)"/>
<path d="M-267.47,429.99" fill="#FFFFFF"/>
<path d="M-267.47,432.389" fill="#FFFFFF"/>
<path d="M-266.408,425.037c-1.512-1.258-2.029-2.668-2.071-2.789v-0.021c0,0-0.003,0.01-0.003,0.012  c-0.002,0-0.005-0.012-0.005-0.012v0.021c-0.043,0.121-0.56,1.531-2.072,2.789c-1.218,1.011-4.335,2.422-3.624,5.138  c0.461,1.759,1.933,2.313,3.366,1.894c0.995-0.293,1.763-1.066,1.763-1.066s0.307,1.171-0.23,2.119  c-0.337,0.599-0.914,0.555-1.283,0.555c-0.313,0-0.4,0.279-0.4,0.57c0,0.334,0.547,0.304,0.547,0.304l1.923,0.006h0.036l1.919-0.006  c0,0,0.548,0.03,0.548-0.304c0-0.291-0.086-0.57-0.399-0.57c-0.37,0-0.946,0.044-1.284-0.555c-0.536-0.947-0.229-2.121-0.229-2.121  s0.766,0.775,1.762,1.068c1.432,0.42,2.906-0.135,3.367-1.894C-262.074,427.461-265.191,426.049-266.408,425.037z" fill="#FFFFFF"/>
</svg>
