<?xml version="1.0" encoding="UTF-8" standalone="no"?>
<!DOCTYPE svg PUBLIC "-//W3C//DTD SVG 1.1 Tiny//EN" "http://www.w3.org/Graphics/SVG/1.1/DTD/svg11-tiny.dtd">
<svg xmlns="http://www.w3.org/2000/svg" xmlns:xlink="http://www.w3.org/1999/xlink" baseProfile="tiny" height="20" version="1.1" viewBox="-278.5 420.39 20 20" width="20">
<path d="M-261.499,420.383h-14c-1.658,0-3,1.346-3,3.002v10.005l-0.002,7.007l5.745-4.005h11.257  c1.656,0,3-1.344,3-3.002v-10.005C-258.499,421.727-259.843,420.383-261.499,420.383z" fill="#162041"/>
<linearGradient gradientTransform="matrix(1 0 0 -1 0.0376 38.9941)" gradientUnits="userSpaceOnUse" id="XMLID_273_" x1="-268.5371" x2="-268.5371" y1="-382.3887" y2="-399.5186">
<stop offset="0" style="stop-color:#1E2D5B"/>
<stop offset="0.1637" style="stop-color:#1F2E5E"/>
<stop offset="0.3328" style="stop-color:#1F3267"/>
<stop offset="0.5045" style="stop-color:#223A76"/>
<stop offset="0.6768" style="stop-color:#24448A"/>
<stop offset="0.8146" style="stop-color:#274FA0"/>
<stop offset="1" style="stop-color:#274FA0"/>
</linearGradient>
<path d="M-261.499,421.383h-14c-1.105,0-2,0.896-2,2.002v10.005v5.123l4.29-3.119h11.71  c1.104,0,1.999-0.896,1.999-2.004v-10.005C-259.5,422.279-260.396,421.383-261.499,421.383z" fill="url(#XMLID_273_)"/>
<path d="M-267.499,429.99" fill="#FFFFFF"/>
<path d="M-267.499,432.392" fill="#FFFFFF"/>
<linearGradient gradientTransform="matrix(1 0 0 -1 0.0376 38.9941)" gradientUnits="userSpaceOnUse" id="XMLID_274_" x1="-268.5073" x2="-268.5073" y1="-386.0938" y2="-382.4307">
<stop offset="0" style="stop-color:#1E2D5B"/>
<stop offset="1" style="stop-color:#FCE1B6"/>
</linearGradient>
<path d="M-259.485,423.256c0,1.011-0.765,1.832-1.709,1.832h-14.551c-0.943,0-1.709-0.819-1.709-1.832l0,0  c0-1.011,0.766-1.831,1.709-1.831h14.551C-260.25,421.425-259.485,422.244-259.485,423.256L-259.485,423.256z" fill="url(#XMLID_274_)"/>
<polygon fill="#FFFFFF" points="-266.179,422.529 -266.179,427.118 -270.413,427.118 -270.413,422.529 -273.728,422.529   -273.728,434.431 -270.413,434.431 -270.413,429.575 -266.179,429.575 -266.179,434.431 -262.862,434.431 -262.862,422.529 "/>
</svg>
