<?xml version="1.0" encoding="UTF-8" standalone="no"?>
<!DOCTYPE svg PUBLIC "-//W3C//DTD SVG 1.1 Tiny//EN" "http://www.w3.org/Graphics/SVG/1.1/DTD/svg11-tiny.dtd">
<svg xmlns="http://www.w3.org/2000/svg" xmlns:xlink="http://www.w3.org/1999/xlink" baseProfile="tiny" height="20" version="1.1" viewBox="-288.5 410.39 20 20" width="20">
<path d="M-271.49,410.418h-14.019c-1.659,0-3.004,1.34-3.004,2.992v9.971l-0.001,6.98l5.752-3.988h11.271  c1.658,0,3.004-1.34,3.004-2.992v-9.971C-268.486,411.757-269.832,410.418-271.49,410.418z" fill="#232D58"/>
<linearGradient gradientTransform="matrix(1 0 0 -1 0.0376 18.9941)" gradientUnits="userSpaceOnUse" id="XMLID_269_" x1="-278.5371" x2="-278.5371" y1="-392.4209" y2="-409.4922">
<stop offset="0" style="stop-color:#FFFFFF"/>
<stop offset="1" style="stop-color:#0073B4"/>
</linearGradient>
<path d="M-271.49,411.415h-14.019c-1.106,0-2.003,0.894-2.003,1.995v9.971v5.105l4.295-3.111h11.728  c1.106,0,2.002-0.893,2.002-1.994v-9.971C-269.488,412.308-270.383,411.415-271.49,411.415z" fill="url(#XMLID_269_)"/>
<linearGradient gradientTransform="matrix(1 0 0 -1 0.0376 18.9941)" gradientUnits="userSpaceOnUse" id="XMLID_270_" x1="-278.5088" x2="-278.5088" y1="-391.3657" y2="-396.117">
<stop offset="0" style="stop-color:#FFFFFF"/>
<stop offset="1" style="stop-color:#0073B4"/>
</linearGradient>
<path d="M-269.475,413.281c0,1.008-0.766,1.824-1.712,1.824h-14.568c-0.945,0-1.713-0.816-1.713-1.824l0,0  c0-1.008,0.768-1.825,1.713-1.825h14.568C-270.24,411.456-269.475,412.273-269.475,413.281L-269.475,413.281z" fill="url(#XMLID_270_)"/>
<path d="M-277.498,419.99" fill="#FFFFFF"/>
<path d="M-277.498,422.383" fill="#FFFFFF"/>
<path d="M-275.498,414.406h-1v6.98h1V414.406z M-273.493,417.397v-1.993h-1.002v6.979h-2.003v0.998h3.005v-1.994  h2.002v-3.989H-273.493z M-278.5,412.412c-0.001,0-0.002,0-0.003,0h-6.005c-0.554,0-1.001,0.446-1.001,0.997v9.972  c0,0.551,0.447,0.996,1.001,0.996h6.008c0.553,0,1-0.445,1-0.996l0,0h0.002v-9.972h-0.002  C-277.5,412.858-277.947,412.412-278.5,412.412z M-282.005,423.381c-1.382,0-2.503-1.117-2.503-2.492  c0-1.378,1.121-2.493,2.503-2.493c1.383,0,2.504,1.115,2.504,2.493C-279.501,422.264-280.622,423.381-282.005,423.381z   M-280.002,416.4c-0.83,0-1.502-0.67-1.502-1.496s0.672-1.495,1.502-1.495c0.829,0,1.501,0.669,1.501,1.495  S-279.173,416.4-280.002,416.4z M-282.005,419.391c-0.829,0-1.501,0.672-1.501,1.498c0,0.824,0.672,1.494,1.501,1.494  c0.83,0,1.502-0.67,1.502-1.494C-280.503,420.063-281.175,419.391-282.005,419.391z" fill="#FFFFFF"/>
</svg>
